<?xml version="1.0"?>
<!--Icons from directory ""-->
<svg xmlns="http://www.w3.org/2000/svg" width="25" height="70" viewBox="0 0 25 70"><svg xmlns:xlink="http://www.w3.org/1999/xlink" xml:space="preserve" height="20" width="25" version="1.1" y="0" x="0px" overflow="visible" viewBox="0 0 25 20" enable-background="new 0 0 25 20" id="icon-directions"><path d="m5.665 0.09c-0.013-0.004-0.025-0.007-0.039-0.014-0.054-0.023-0.11-0.027-0.166-0.038-0.054-0.012-0.106-0.032-0.161-0.033-0.005-0.002-0.012-0.005-0.019-0.005-0.006 0-0.012 0.003-0.02 0.005-0.055 0.001-0.106 0.021-0.159 0.033-0.057 0.011-0.114 0.015-0.168 0.038-0.013 0.007-0.027 0.01-0.039 0.014-0.044 0.024-0.083 0.064-0.127 0.096-0.004 0.002-0.009 0.005-0.014 0.009-0.038 0.029-0.085 0.045-0.121 0.081l-4.32 4.337c-0.392 0.392-0.418 1.056-0.06 1.483 0.36 0.426 0.966 0.456 1.357 0.064l2.711-2.722v15.456c0 0.579 0.43 1.05 0.96 1.05s0.959-0.471 0.959-1.05v-15.456l2.71 2.722c0.39 0.392 0.998 0.362 1.358-0.064 0.168-0.201 0.251-0.456 0.251-0.709 0-0.284-0.104-0.567-0.311-0.774l-4.32-4.337c-0.034-0.036-0.081-0.052-0.12-0.081-0.004-0.004-0.009-0.007-0.016-0.009-0.041-0.032-0.079-0.072-0.126-0.096" fill="#231F20"/><path d="m19.335 19.854c0.013 0.005 0.025 0.008 0.039 0.015 0.054 0.023 0.11 0.027 0.166 0.039 0.054 0.012 0.107 0.031 0.161 0.032 0.005 0.002 0.012 0.005 0.02 0.005 0.006 0 0.012-0.003 0.02-0.005 0.056-0.001 0.106-0.021 0.159-0.032 0.057-0.012 0.114-0.016 0.168-0.039 0.013-0.007 0.026-0.01 0.039-0.015 0.045-0.022 0.084-0.063 0.127-0.095 0.004-0.002 0.009-0.006 0.014-0.009 0.039-0.03 0.086-0.046 0.121-0.081l4.32-4.338c0.392-0.392 0.418-1.057 0.06-1.483-0.36-0.426-0.966-0.456-1.357-0.063l-2.711 2.722v-15.457c0-0.58-0.43-1.05-0.959-1.05-0.531 0-0.96 0.471-0.96 1.05v15.456l-2.71-2.722c-0.391-0.393-0.998-0.362-1.358 0.063-0.168 0.201-0.251 0.456-0.251 0.709 0 0.283 0.104 0.567 0.311 0.774l4.32 4.338c0.036 0.035 0.082 0.051 0.121 0.081 0.004 0.003 0.009 0.007 0.016 0.009 0.04 0.032 0.078 0.073 0.124 0.096" fill="#231F20"/></svg><svg xmlns:xlink="http://www.w3.org/1999/xlink" xml:space="preserve" height="25" width="25" version="1.1" y="20" x="0px" overflow="visible" viewBox="0 0 25 25" enable-background="new 0 0 25 25" id="icon-person"><path d="m17.154 13.133l0.002-0.002-0.074-0.03c-0.061-0.024-0.117-0.053-0.177-0.076l-0.004 0.007c-0.034-0.013-0.068-0.027-0.105-0.042 0.036-0.025 0.072-0.051 0.104-0.074 0.156-0.11 0.301-0.231 0.444-0.354l0.007 0.008c0.034-0.028 0.063-0.061 0.096-0.09 0.021-0.019 0.048-0.032 0.066-0.051l-0.005-0.007c1.513-1.354 2.382-3.257 2.382-5.271 0-3.922-3.246-7.114-7.25-7.147v-0.004c-0.01 0-0.021 0.002-0.03 0.002-0.01 0-0.021-0.002-0.034-0.002v0.003c-4.002 0.034-7.248 3.226-7.248 7.148 0 2.013 0.87 3.917 2.382 5.271l-0.003 0.007c0.018 0.019 0.045 0.032 0.064 0.051 0.033 0.029 0.062 0.062 0.096 0.09l0.008-0.008c0.144 0.123 0.288 0.244 0.444 0.354 0.031 0.023 0.067 0.049 0.104 0.074-0.037 0.015-0.071 0.029-0.106 0.042l-0.002-0.007c-0.065 0.026-0.125 0.055-0.19 0.08l-0.061 0.026 0.001 0.002c-5.423 2.265-8.065 5.754-8.065 10.66 0 0.598 0.483 1.082 1.082 1.082h22.712c0.599 0 1.082-0.484 1.082-1.082-0.001-4.925-2.603-8.51-7.722-10.66m-4.513 9.579h-10.422c0.365-3.441 2.552-5.881 6.776-7.623l0.036-0.014c0.657-0.255 1.759-0.681 1.759-2.035 0-1.028-0.766-1.568-1.224-1.891-0.109-0.076-0.215-0.153-0.312-0.24-1.12-0.949-1.763-2.317-1.763-3.758 0-2.739 2.292-4.968 5.12-4.985 2.824 0.017 5.117 2.247 5.117 4.985 0 1.441-0.644 2.809-1.762 3.758-0.098 0.087-0.206 0.164-0.314 0.24-0.456 0.323-1.221 0.863-1.221 1.891 0 1.354 1.1 1.78 1.757 2.035l0.029 0.01c4.025 1.663 6.103 4.104 6.444 7.627h-10.02z" fill="#231F20"/></svg><svg xmlns:xlink="http://www.w3.org/1999/xlink" xml:space="preserve" height="25" width="25" version="1.1" y="45" x="0px" overflow="visible" viewBox="0 0 25 25" enable-background="new 0 0 25 25" id="icon-time"><path d="m17.256 12.53h-4.446v-6.811c0-0.572-0.462-1.037-1.036-1.037-0.572 0-1.037 0.465-1.037 1.037v7.848c0 0.572 0.465 1.036 1.037 1.036h5.482c0.573 0 1.037-0.464 1.037-1.036 0-0.573-0.464-1.037-1.037-1.037" fill="#231F20"/><path d="m12.438 0c-6.857 0-12.438 5.58-12.438 12.438 0 6.859 5.581 12.437 12.438 12.437 6.858 0 12.438-5.578 12.438-12.437-0.001-6.858-5.58-12.438-12.438-12.438m0 22.802c-5.715 0-10.365-4.649-10.365-10.364s4.649-10.364 10.365-10.364c5.715 0 10.365 4.649 10.365 10.364 0 5.714-4.651 10.364-10.365 10.364" fill="#231F20"/></svg></svg>
