<?xml version="1.0" encoding="utf-8"?>
<!-- Generator: Adobe Illustrator 18.1.0, SVG Export Plug-In . SVG Version: 6.00 Build 0)  -->
<svg version="1.1" id="Layer_1" xmlns="http://www.w3.org/2000/svg" xmlns:xlink="http://www.w3.org/1999/xlink" x="0px" y="0px"
	 viewBox="0 0 86.8 54" style="enable-background:new 0 0 86.8 54;" xml:space="preserve">
<style type="text/css">
	.st0{fill:#FFFFFF;}
	.st1{fill:#FFFFFF;}
	.st2{fill:#FFFFFF;stroke:#FFFFFF;stroke-width:0.55;stroke-miterlimit:10;}
	.st3{fill:none;stroke:#FFFFFF;stroke-width:2.35;stroke-linejoin:bevel;stroke-miterlimit:10;}
</style>
<path class="st0" d="M74.1,18.1c0.2,0,0.5-0.1,0.7-0.3l5.7-5.1c0.4-0.4,0.4-1,0.1-1.4c-0.4-0.4-1-0.4-1.4-0.1l-5.7,5.1
	c-0.4,0.4-0.4,1-0.1,1.4C73.6,18,73.9,18.1,74.1,18.1"/>
<path class="st0" d="M75.1,28.2c-0.4-0.4-1-0.4-1.4-0.1c-0.4,0.3-0.5,1-0.1,1.4l5.1,5.7c0.2,0.2,0.5,0.3,0.7,0.3
	c0.2,0,0.5-0.1,0.6-0.2c0.4-0.3,0.5-1,0.1-1.4L75.1,28.2z"/>
<path class="st0" d="M84.8,21.9H74.1c-0.5,0-1,0.4-1,1c0,0.5,0.4,1,1,1h10.7c0.5,0,1-0.4,1-1C85.8,22.4,85.4,21.9,84.8,21.9"/>
<path class="st0" d="M12.1,29.4l-5.7,5.1c-0.4,0.4-0.4,1-0.1,1.4c0.2,0.2,0.5,0.3,0.7,0.3c0.2,0,0.5-0.1,0.7-0.3l5.7-5.1
	c0.4-0.4,0.4-1,0.1-1.4C13.1,29,12.5,29,12.1,29.4"/>
<path class="st0" d="M11.7,19c0.2,0.2,0.5,0.3,0.7,0.3c0.2,0,0.5-0.1,0.6-0.2c0.4-0.3,0.5-1,0.1-1.4l-5.1-5.7
	c-0.4-0.4-1-0.4-1.4-0.1c-0.4,0.3-0.5,1-0.1,1.4L11.7,19z"/>
<path class="st0" d="M12.7,23.4H2c-0.5,0-1,0.4-1,1c0,0.5,0.4,1,1,1h10.7c0.5,0,1-0.4,1-1C13.7,23.8,13.3,23.4,12.7,23.4"/>
<g>
	<path class="st1" d="M42.1,3.1l25.5,9.2v24.2L47.4,50.1L19,36.1V12.2L42.1,3.1 M42.1,1l-25,9.9V38l30.2,14.9L69.5,38V10.9L42.1,1
		L42.1,1z"/>
</g>
<g>
	<g>
		<path class="st2" d="M58.2,21.6c-2.1,1.2-3.9,3.6-3.8,6.4c0,0.6,0.4,1.1,0.9,0.8c0.5-0.3,0.8-1.1,0.8-1.7c0-1.6,0.9-3,2.2-3.6
			c1.2-0.6,2.2,0.2,2.2,1.6c0,1-0.4,2.1-1,2.9c0,0,0,0,0,0.1c-1.4,1.5-2.1,4-2,6.1c0,0.6,0.3,0.9,0.8,0.6c0.4-0.3,0.8-1,0.8-1.6
			c0-1.2,0.5-2.5,1.3-3.5c0,0,0,0,0-0.1c1.1-1.6,1.9-3.6,1.9-5.3C62,21.5,60.3,20.4,58.2,21.6z"/>
		<path class="st2" d="M58,36.6c-0.5,0.3-0.9,1-0.9,1.6c0,0.5,0.4,0.7,0.9,0.4c0.5-0.3,0.9-1,0.9-1.5C58.9,36.5,58.5,36.3,58,36.6z"
			/>
	</g>
</g>
<line class="st3" x1="18.4" y1="11.7" x2="47.2" y2="22.6"/>
<line class="st3" x1="47.2" y1="21.5" x2="47.2" y2="50.8"/>
<line class="st3" x1="47.6" y1="22.4" x2="68.2" y2="11.8"/>
</svg>
