<?xml version="1.0" encoding="UTF-8" standalone="no"?>
<svg width="923px" height="86px" viewBox="0 0 923 86" version="1.1" xmlns="http://www.w3.org/2000/svg" xmlns:xlink="http://www.w3.org/1999/xlink" xmlns:sketch="http://www.bohemiancoding.com/sketch/ns">
    <title>icon-sprite</title>
    <description>Created with Sketch (http://www.bohemiancoding.com/sketch)</description>
    <defs></defs>
    <g id="Page-1" stroke="none" stroke-width="1" fill="none" fill-rule="evenodd" sketch:type="MSPage">
        <g id="SVG" sketch:type="MSLayerGroup">
            <g id="Page-1">
                <g id="icon-sprite-+-Vector-Smart-Object1">
                    <g id="icon-sprite">
                        <g id="Page-1">
                            <g id="icon-sprite-+-Vector-Smart-Object">
                                <g id="icon-sprite">
                                    <path d="M646.074,54 C643.078,54 640.216,54.923 637.795,56.669 C634.772,58.848 632.801,62.051 632.243,65.69 C631.69,69.297 632.598,72.904 634.799,75.845 L635.175,76.319 C635.465,76.683 636.284,77.715 633.144,82.616 C634.613,82.276 636.53,81.666 638.01,80.613 C638.387,80.344 638.901,80.037 639.531,80.037 C640.02,80.037 640.425,80.218 640.853,80.408 C641.177,80.552 641.543,80.716 642.07,80.871 C643.38,81.26 644.739,81.456 646.109,81.456 C649.097,81.456 651.958,80.533 654.38,78.787 C657.402,76.608 659.374,73.405 659.932,69.767 C660.485,66.161 659.578,62.554 657.379,59.613 C654.75,56.099 650.524,54 646.074,54 L646.074,54 L646.074,54 Z" id="Shape" fill="#FFFFFF" sketch:type="MSShapeGroup"></path>
                                    <g id="Page-1_16_">
                                        <g id="icon-sprite_5_">
                                            <g id="Page-1_15_">
                                                <g id="icon-sprite_4_">
                                                    <g id="Page-1_14_">
                                                        <g id="icon-sprite_3_">
                                                            <g id="Page-1_13_">
                                                                <g id="icon-sprite_2_" sketch:type="MSShapeGroup">
                                                                    <g id="Page-1_11_">
                                                                        <g id="icon-sprite_1_">
                                                                            <g id="Page-1_10_">
                                                                                <path d="M98.054,78.367 L102.382,74.037 C102.85,73.572 102.85,72.815 102.382,72.349 C101.916,71.882 101.161,71.882 100.696,72.349 L96.366,76.677 L92.037,72.35 C91.571,71.884 90.816,71.884 90.35,72.35 C89.883,72.816 89.883,73.572 90.35,74.038 L94.677,78.366 L90.35,82.694 C89.883,83.159 89.883,83.917 90.35,84.382 C90.582,84.616 90.888,84.733 91.194,84.733 C91.498,84.733 91.805,84.617 92.037,84.382 L96.366,80.055 L100.697,84.382 C100.928,84.616 101.234,84.733 101.539,84.733 C101.846,84.733 102.15,84.617 102.383,84.382 C102.851,83.917 102.851,83.159 102.383,82.694 L98.054,78.367 L98.054,78.367 Z" id="Shape" fill="#231F20"></path>
                                                                                <g id="icon-sprite">
                                                                                    <g id="Page-1_9_">
                                                                                        <g id="icon-arrow-black" transform="translate(0.000000, 0.500000)" fill="#2C2C37">
                                                                                            <g id="Page-1">
                                                                                                <g id="icon-arrow-pink">
                                                                                                    <path d="M6.996,5.493 L1.488,0 L0,1.484 L4.021,5.493 L0,9.502 L1.488,10.986 L6.996,5.493 L6.996,5.493 Z" id="Shape_1_"></path>
                                                                                                </g>
                                                                                            </g>
                                                                                        </g>
                                                                                        <g id="icon-arrow-blue" transform="translate(0.000000, 19.000000)" fill="#2C2D37">
                                                                                            <g id="Page-1_1_">
                                                                                                <path d="M6.704,12.528 L12.074,18.223 L10.15,21.058 L0.251,10.558 L10.299,0.058 L12.174,2.903 L6.314,9.027 L35.215,9.027 L35.215,12.527 L6.704,12.527 L6.704,12.528 L6.704,12.528 Z" id="Triangle-1"></path>
                                                                                            </g>
                                                                                        </g>
                                                                                        <g id="icon-arrow-dark-up" transform="translate(54.000000, 19.000000)" fill="#686873">
                                                                                            <g id="Page-1_2_">
                                                                                                <path d="M3,15 L5,15 L5,2.794 L7.098,5 L8,4 L4.245,0 L3.628,0 L0,4 L0.851,5 L3,2.678 L3,15 L3,15 Z" id="Rectangle-1"></path>
                                                                                            </g>
                                                                                        </g>
                                                                                        <g id="icon-arrow-lt-blue" transform="translate(90.000000, 1.000000)" fill="#85869B">
                                                                                            <g id="Page-1_3_">
                                                                                                <path d="M9,7.5 L1.926,15.016 L-0.124,12.966 L5,7.5 L0.087,2.259 L2.138,0.208 L9,7.5 L9,7.5 Z" id="Triangle"></path>
                                                                                            </g>
                                                                                        </g>
                                                                                        <g id="icon-arrow-pink_1_" transform="translate(54.000000, 1.000000)" fill="#E33D5D">
                                                                                            <path d="M6.996,5.493 L1.488,0 L0,1.484 L4.021,5.493 L0,9.502 L1.488,10.986 L6.996,5.493 L6.996,5.493 Z" id="Shape_2_"></path>
                                                                                        </g>
                                                                                        <g id="icon-arrow-white-left" transform="translate(144.000000, 73.000000)" fill="#FFFFFF">
                                                                                            <path d="M8.632,1.258 L6.874,-0.496 L0.363,5.997 L6.874,12.489 L8.632,10.734 L3.88,5.997 L8.632,1.258 L8.632,1.258 Z" id="Shape_3_"></path>
                                                                                        </g>
                                                                                        <g id="icon-arrow-white-right" transform="translate(162.000000, 73.000000)" fill="#FFFFFF">
                                                                                            <path d="M5.114,5.997 L0.362,10.734 L2.12,12.489 L8.632,5.997 L2.12,-0.496 L0.362,1.258 L5.114,5.997 L5.114,5.997 Z" id="Shape_4_"></path>
                                                                                        </g>
                                                                                        <g id="icon-boombox" transform="translate(378.000000, 1.500000)" fill="#231F20">
                                                                                            <g id="Group">
                                                                                                <path d="M112.695,7.735 L87.685,7.735 L87.685,3.475 C87.686,1.56 86.12,0 84.195,0 L52.54,0 C50.616,0 49.049,1.56 49.049,3.475 L49.049,7.735 L24.04,7.735 C22.116,7.735 20.549,9.293 20.549,11.208 L20.549,48.816 C20.549,50.732 22.116,52.292 24.04,52.292 L112.696,52.292 C114.621,52.292 116.187,50.732 116.187,48.816 L116.187,11.208 C116.188,9.293 114.62,7.735 112.695,7.735 L112.695,7.735 L112.695,7.735 Z M51.109,3.475 C51.109,2.668 51.75,2.012 52.539,2.012 L84.195,2.012 C84.984,2.012 85.626,2.669 85.626,3.475 L85.626,7.735 L51.109,7.735 L51.109,3.475 L51.109,3.475 Z M114.126,48.816 C114.126,49.624 113.484,50.28 112.695,50.28 L24.04,50.28 C23.25,50.28 22.61,49.624 22.61,48.816 L22.61,11.208 C22.61,10.402 23.251,9.746 24.04,9.746 L112.696,9.746 C113.485,9.746 114.127,10.402 114.127,11.208 L114.126,48.816 L114.126,48.816 Z" id="Shape_5_"></path>
                                                                                                <path d="M41.767,17.331 C34.783,17.331 29.1,23.019 29.1,30.012 C29.1,37.002 34.783,42.691 41.767,42.691 C48.751,42.691 54.433,37.003 54.433,30.012 C54.432,23.02 48.751,17.331 41.767,17.331 M41.767,40.681 C35.918,40.681 31.161,35.894 31.161,30.012 C31.161,24.129 35.92,19.344 41.767,19.344 C47.616,19.344 52.374,24.129 52.374,30.012 C52.374,35.894 47.615,40.681 41.767,40.681" id="Shape_6_"></path>
                                                                                                <path d="M41.767,22.336 C37.534,22.336 34.087,25.779 34.087,30.012 C34.087,34.244 37.533,37.688 41.767,37.688 C46.001,37.688 49.447,34.245 49.447,30.012 C49.446,25.779 46,22.336 41.767,22.336 M41.767,35.678 C38.668,35.678 36.149,33.136 36.149,30.012 C36.149,26.889 38.67,24.347 41.767,24.347 C44.866,24.347 47.386,26.889 47.386,30.012 C47.386,33.136 44.864,35.678 41.767,35.678" id="Shape_7_"></path>
                                                                                                <path d="M95.267,22.336 C91.035,22.336 87.589,25.779 87.589,30.012 C87.589,34.244 91.033,37.688 95.267,37.688 C99.501,37.688 102.948,34.245 102.948,30.012 C102.946,25.779 99.501,22.336 95.267,22.336 M95.267,35.678 C92.168,35.678 89.65,33.136 89.65,30.012 C89.65,26.889 92.17,24.347 95.267,24.347 C98.366,24.347 100.886,26.889 100.886,30.012 C100.886,33.136 98.365,35.678 95.267,35.678" id="Shape_8_"></path>
                                                                                                <path d="M95.267,17.331 C88.284,17.331 82.601,23.019 82.601,30.012 C82.601,37.002 88.284,42.691 95.267,42.691 C102.251,42.691 107.934,37.003 107.934,30.012 C107.934,23.02 102.251,17.331 95.267,17.331 M95.267,40.681 C89.419,40.681 84.663,35.894 84.663,30.012 C84.663,24.129 89.421,19.344 95.267,19.344 C101.117,19.344 105.873,24.129 105.873,30.012 C105.873,35.894 101.115,40.681 95.267,40.681" id="Shape_9_"></path>
                                                                                                <path d="M75.065,25.172 L61.669,25.172 C60.527,25.172 59.6,26.091 59.6,27.221 L59.6,32.803 C59.6,33.934 60.529,34.854 61.669,34.854 L75.065,34.854 C76.208,34.854 77.135,33.934 77.135,32.803 L77.135,27.221 C77.137,26.091 76.208,25.172 75.065,25.172 L75.065,25.172 L75.065,25.172 Z M75.06,32.842 L61.66,32.803 L61.669,27.182 L75.077,27.221 L75.06,32.842 L75.06,32.842 Z" id="Shape_10_"></path>
                                                                                                <path d="M63.725,20.032 C63.725,19.477 63.265,19.027 62.697,19.027 L59.206,19.027 C58.636,19.027 58.175,19.477 58.175,20.032 C58.175,20.586 58.636,21.037 59.206,21.037 L62.697,21.037 C63.264,21.037 63.725,20.585 63.725,20.032" id="Shape_11_"></path>
                                                                                                <path d="M66.329,21.037 L69.819,21.037 C70.388,21.037 70.848,20.586 70.848,20.032 C70.848,19.476 70.388,19.026 69.819,19.026 L66.329,19.026 C65.76,19.026 65.3,19.477 65.3,20.032 C65.3,20.586 65.76,21.037 66.329,21.037" id="Shape_12_"></path>
                                                                                                <path d="M76.944,19.026 L73.454,19.026 C72.885,19.026 72.424,19.477 72.424,20.031 C72.424,20.586 72.885,21.037 73.454,21.037 L76.944,21.037 C77.511,21.037 77.972,20.586 77.972,20.031 C77.974,19.477 77.513,19.026 76.944,19.026" id="Shape_13_"></path>
                                                                                                <path d="M124.794,24.167 C125.045,24.167 125.294,24.079 125.493,23.9 L131.443,18.538 C131.861,18.161 131.885,17.524 131.5,17.117 C131.115,16.709 130.463,16.685 130.044,17.061 L124.095,22.422 C123.678,22.797 123.653,23.433 124.038,23.842 C124.24,24.057 124.517,24.167 124.794,24.167" id="Shape_14_"></path>
                                                                                                <path d="M125.871,34.7 C125.497,34.282 124.845,34.239 124.418,34.605 C123.988,34.969 123.946,35.606 124.32,36.024 L129.664,41.995 C129.867,42.223 130.152,42.339 130.439,42.339 C130.678,42.339 130.92,42.257 131.117,42.089 C131.546,41.724 131.589,41.089 131.215,40.671 L125.871,34.7 L125.871,34.7 Z" id="Shape_15_"></path>
                                                                                                <path d="M135.97,28.133 L124.793,28.133 C124.225,28.133 123.764,28.584 123.764,29.139 C123.764,29.694 124.225,30.144 124.793,30.144 L135.97,30.144 C136.539,30.144 137,29.694 137,29.139 C137,28.584 136.539,28.133 135.97,28.133" id="Shape_16_"></path>
                                                                                                <path d="M11.507,35.232 L5.557,40.592 C5.139,40.969 5.115,41.606 5.499,42.014 C5.701,42.227 5.978,42.338 6.255,42.338 C6.506,42.338 6.756,42.248 6.954,42.07 L12.905,36.709 C13.322,36.333 13.347,35.695 12.963,35.289 C12.578,34.881 11.924,34.856 11.507,35.232" id="Shape_17_"></path>
                                                                                                <path d="M11.129,24.431 C11.332,24.659 11.617,24.775 11.904,24.775 C12.143,24.775 12.386,24.693 12.583,24.526 C13.011,24.161 13.054,23.526 12.679,23.107 L7.336,17.138 C6.963,16.72 6.311,16.677 5.882,17.043 C5.453,17.408 5.41,18.043 5.786,18.462 L11.129,24.431 L11.129,24.431 Z" id="Shape_18_"></path>
                                                                                                <path d="M12.207,28.985 L1.03,28.985 C0.461,28.985 0,29.436 0,29.99 C0,30.547 0.461,30.996 1.03,30.996 L12.207,30.996 C12.776,30.996 13.236,30.547 13.236,29.99 C13.235,29.436 12.775,28.985 12.207,28.985" id="Shape_19_"></path>
                                                                                            </g>
                                                                                        </g>
                                                                                        <g id="icon-chevron-dark" transform="translate(17.500000, 1.000000)" fill="#2C2C37">
                                                                                            <g id="Page-1_4_">
                                                                                                <g id="icon-chevron">
                                                                                                    <path d="M9.899,0 L5.657,4.243 L1.414,0 L0,1.414 L4.243,5.657 L5.657,7.071 L7.071,5.657 L11.313,1.414 L9.899,0 L9.899,0 Z" id="Shape_20_"></path>
                                                                                                </g>
                                                                                            </g>
                                                                                        </g>
                                                                                        <g id="icon-chevron-pink" transform="translate(72.500000, 1.000000)" fill="#ED4C6A">
                                                                                            <g id="Page-1_5_">
                                                                                                <g id="icon-chevron_1_">
                                                                                                    <path d="M9.899,0 L5.657,4.243 L1.414,0 L0,1.414 L4.243,5.657 L5.657,7.071 L7.071,5.657 L11.313,1.414 L9.899,0 L9.899,0 Z" id="Shape_21_"></path>
                                                                                                </g>
                                                                                            </g>
                                                                                        </g>
                                                                                        <g id="icon-chevron-white" transform="translate(180.000000, 77.000000)" fill="#FFFFFF">
                                                                                            <g id="Page-1_7_">
                                                                                                <g id="icon-chevron-pink_1_">
                                                                                                    <g id="Page-1_6_">
                                                                                                        <g id="icon-chevron_2_">
                                                                                                            <path d="M9.899,0 L5.657,4.243 L1.414,0 L0,1.414 L4.243,5.657 L5.657,7.07 L7.071,5.657 L11.313,1.414 L9.899,0 L9.899,0 Z" id="Shape_22_"></path>
                                                                                                        </g>
                                                                                                    </g>
                                                                                                </g>
                                                                                            </g>
                                                                                        </g>
                                                                                        <g id="icon-chevron_3_" transform="translate(35.500000, 1.000000)" fill="#666766">
                                                                                            <path d="M9.899,0 L5.657,4.243 L1.414,0 L0,1.414 L4.243,5.657 L5.657,7.071 L7.071,5.657 L11.313,1.414 L9.899,0 L9.899,0 Z" id="Shape_23_"></path>
                                                                                        </g>
                                                                                        <g id="icon-dufflebag" transform="translate(36.000000, 56.000000)" fill="#1D1D24">
                                                                                            <path d="M41.158,13.365 C39.067,9.574 37.809,7.564 33.679,7.564 L30.034,7.564 C29.624,1.599 26.033,0.039 21.662,0.039 C17.29,0.039 13.7,1.6 13.29,7.564 L9.375,7.564 C5.245,7.564 3.442,9.285 1.896,13.365 L0.027,21.1 C0.027,25.37 1.506,28.832 5.635,28.832 L37.418,28.832 C41.548,28.832 43.027,25.369 43.027,21.1 L41.158,13.365 L41.158,13.365 Z M21.662,3.354 C24.768,3.354 26.483,4.047 26.779,7.565 L16.544,7.565 C16.84,4.047 18.555,3.354 21.662,3.354 L21.662,3.354 L21.662,3.354 Z M3.276,21.484 L4.995,14.371 C6.177,11.32 7.016,10.88 9.374,10.88 L11.573,10.88 L10.001,25.519 L5.635,25.519 C4.891,25.518 3.367,25.518 3.276,21.484 L3.276,21.484 L3.276,21.484 Z M13.741,25.518 L14.771,15.937 L15.314,10.879 L16.644,10.879 L26.68,10.879 L27.93,10.879 L28.488,16.068 L29.504,25.517 L13.741,25.517 L13.741,25.518 L13.741,25.518 Z M37.417,25.518 L33.24,25.518 L31.668,10.879 L33.678,10.879 C35.76,10.879 36.239,11.236 38.113,14.602 L39.778,21.485 C39.687,25.518 38.162,25.518 37.417,25.518 L37.417,25.518 L37.417,25.518 Z" id="Shape_24_"></path>
                                                                                        </g>
                                                                                        <g id="icon-dufflebag-copy" transform="translate(252.000000, 61.000000)" fill="#1D1D24">
                                                                                            <path d="M34.458,11.062 C32.708,7.924 31.655,6.261 28.197,6.261 L25.145,6.261 C24.802,1.324 21.795,0.032 18.136,0.032 C14.476,0.032 11.47,1.323 11.127,6.261 L7.85,6.261 C4.392,6.261 2.882,7.685 1.588,11.062 L0.023,17.462 C0.023,20.995 1.261,23.861 4.718,23.861 L31.326,23.861 C34.784,23.861 36.022,20.995 36.022,17.462 L34.458,11.062 L34.458,11.062 Z M18.135,2.775 C20.736,2.775 22.171,3.349 22.419,6.26 L13.851,6.26 C14.099,3.35 15.534,2.775 18.135,2.775 L18.135,2.775 L18.135,2.775 Z M2.743,17.781 L4.182,11.892 C5.172,9.368 5.874,9.003 7.848,9.003 L9.689,9.003 L8.373,21.119 L4.717,21.119 C4.095,21.118 2.819,21.118 2.743,17.781 L2.743,17.781 L2.743,17.781 Z M11.504,21.118 L12.366,13.189 L12.821,9.003 L13.934,9.003 L22.336,9.003 L23.382,9.003 L23.849,13.297 L24.7,21.117 L11.504,21.117 L11.504,21.118 L11.504,21.118 Z M31.326,21.118 L27.829,21.118 L26.513,9.004 L28.196,9.004 C29.939,9.004 30.34,9.299 31.908,12.084 L33.302,17.781 C33.226,21.118 31.95,21.118 31.326,21.118 L31.326,21.118 L31.326,21.118 Z" id="Shape_25_"></path>
                                                                                        </g>
                                                                                        <g id="icon-dufflebag-copy_1_" transform="translate(0.000000, 54.000000)" fill="#1D1D24">
                                                                                            <path d="M22.015,7.374 C20.896,5.282 20.224,4.174 18.015,4.174 L16.065,4.174 C15.846,0.883 13.925,0.022 11.587,0.022 C9.248,0.022 7.328,0.883 7.109,4.174 L5.015,4.174 C2.806,4.174 1.842,5.123 1.015,7.374 L0.015,11.641 C0.015,13.997 0.806,15.908 3.015,15.908 L20.015,15.908 C22.224,15.908 23.015,13.998 23.015,11.641 L22.015,7.374 L22.015,7.374 Z M11.586,1.85 C13.248,1.85 14.165,2.234 14.323,4.174 L8.85,4.174 C9.007,2.233 9.925,1.85 11.586,1.85 L11.586,1.85 L11.586,1.85 Z M1.752,11.854 L2.671,7.929 C3.303,6.246 3.752,6.003 5.013,6.003 L6.19,6.003 L5.35,14.079 L3.014,14.079 C2.616,14.078 1.801,14.078 1.752,11.854 L1.752,11.854 L1.752,11.854 Z M7.35,14.078 L7.901,8.793 L8.192,6.002 L8.903,6.002 L14.271,6.002 L14.939,6.002 L15.237,8.865 L15.78,14.078 L7.35,14.078 L7.35,14.078 Z M20.014,14.078 L17.78,14.078 L16.939,6.002 L18.014,6.002 C19.128,6.002 19.384,6.199 20.386,8.057 L21.277,11.854 C21.228,14.078 20.412,14.078 20.014,14.078 L20.014,14.078 L20.014,14.078 Z" id="Shape_26_"></path>
                                                                                        </g>
                                                                                        <g id="icon-key" transform="translate(306.000000, 51.000000)" fill="#231F20">
                                                                                            <g id="Group_1_">
                                                                                                <path d="M11.16,7.109 C8.817,7.109 6.784,9.437 5.982,13.041 C5.779,13.95 6.598,15.088 8.419,16.434 C7.017,17.6 5.789,18.985 6.07,20.098 C6.933,23.531 8.884,25.662 11.16,25.662 C14.264,25.662 16.695,21.588 16.695,16.386 C16.695,11.186 14.265,7.109 11.16,7.109 M11.16,23.676 C9.956,23.676 8.704,22.061 8.094,19.735 C8.278,19.268 9.499,18.087 10.741,17.18 C11.005,16.985 11.158,16.68 11.147,16.36 C11.138,16.038 10.967,15.742 10.694,15.563 C9.491,14.783 8.276,13.751 8.026,13.313 C8.615,10.823 9.892,9.096 11.161,9.096 C12.807,9.096 14.64,12.09 14.64,16.386 C14.64,20.682 12.808,23.676 11.16,23.676" id="Shape_27_"></path>
                                                                                                <path d="M72.373,12.258 L22.749,12.258 C22.491,12.258 22.231,12.274 21.97,12.302 C20.724,5.111 16.291,0 11.16,0 C5.007,0 0,7.352 0,16.386 C0,25.422 5.007,32.772 11.16,32.772 C15.988,32.772 20.241,28.225 21.739,21.591 C22.074,21.637 22.412,21.662 22.748,21.662 L54.997,21.662 L54.997,24.521 C54.997,25.461 55.726,26.23 56.623,26.23 L62.019,26.23 C62.915,26.23 63.645,25.461 63.645,24.521 L63.645,21.662 L65.35,21.662 L65.35,24.521 C65.35,25.461 66.079,26.23 66.977,26.23 L72.373,26.23 C73.271,26.23 74,25.461 74,24.521 L74,13.965 C74,13.023 73.271,12.258 72.373,12.258 L72.373,12.258 L72.373,12.258 Z M71.944,24.245 L67.406,24.245 L67.406,20.669 C67.406,20.12 66.946,19.677 66.378,19.677 L62.618,19.677 C62.051,19.677 61.589,20.12 61.589,20.669 L61.589,24.245 L57.052,24.245 L57.052,20.669 C57.052,20.12 56.594,19.677 56.025,19.677 L22.749,19.677 C22.241,19.677 21.731,19.602 21.233,19.454 C20.953,19.373 20.647,19.407 20.393,19.558 C20.143,19.706 19.969,19.954 19.919,20.236 C18.815,26.449 15.212,30.787 11.159,30.787 C6.138,30.787 2.055,24.328 2.055,16.387 C2.055,8.449 6.138,1.989 11.159,1.989 C15.483,1.989 19.237,6.872 20.085,13.6 C20.122,13.885 20.285,14.141 20.533,14.303 C20.782,14.464 21.09,14.512 21.377,14.436 C21.859,14.309 22.307,14.247 22.748,14.247 L71.944,14.247 L71.944,24.245 L71.944,24.245 Z" id="Shape_28_"></path>
                                                                                            </g>
                                                                                        </g>
                                                                                        <g id="icon-mail" transform="translate(306.000000, 2.500000)">
                                                                                            <path d="M48.801,0 L4.2,0 C1.884,0 0,1.776 0,3.961 L0,29.321 C0,31.505 1.884,33.28 4.2,33.28 L48.802,33.28 C51.118,33.28 53.001,31.505 53.001,29.321 L53.001,3.961 C53,1.776 51.118,0 48.801,0 L48.801,0 L48.801,0 Z M39.295,16.961 L50.645,9.027 L50.645,29.256 L39.295,16.961 L39.295,16.961 Z M4.2,2.297 L48.802,2.297 C49.819,2.297 50.647,3.043 50.647,3.961 L50.647,6.203 L29.03,21.313 C28.224,21.827 27.448,22.069 26.583,22.069 C25.717,22.069 24.937,21.827 24.174,21.34 L2.355,6.088 L2.355,3.961 C2.355,3.042 3.183,2.297 4.2,2.297 L4.2,2.297 L4.2,2.297 Z M2.368,29.438 C2.367,29.399 2.355,29.362 2.355,29.321 L2.355,8.912 L13.877,16.967 L2.368,29.438 L2.368,29.438 Z M4.2,30.983 C4.172,30.983 4.142,30.977 4.115,30.977 L15.803,18.312 L22.841,23.231 C24.031,23.993 25.255,24.362 26.581,24.364 L26.583,23.217 L26.587,24.364 C27.911,24.362 29.134,23.993 30.364,23.205 L37.372,18.307 L49.054,30.962 C48.97,30.972 48.888,30.983 48.802,30.983 L4.2,30.983 L4.2,30.983 Z" id="Shape_29_" fill="#231F20"></path>
                                                                                            <rect id="Rectangle" x="0" y="0" width="144.334" height="144"></rect>
                                                                                        </g>
                                                                                        <g id="icon-oops" transform="translate(522.000000, 1.000000)" fill="#231F20">
                                                                                            <g id="Group_2_">
                                                                                                <path d="M77.87,49.163 C72.779,47.661 65.475,45.499 60.937,39.167 C62.857,39.406 66.108,39.753 68.907,39.752 C70.648,39.752 72.213,39.618 73.168,39.242 C74.522,38.71 76.055,38.104 75.957,36.827 C75.867,35.647 74.769,34.877 68.496,33.432 C61.277,31.768 57.775,28.652 56.946,27.822 C56.839,26.734 56.78,25.591 56.78,24.381 C56.78,23.021 56.846,21.644 56.911,20.314 C57.143,15.566 57.362,11.075 54.687,7.545 C54.61,4.108 53.341,1.188 53.287,1.063 C53.148,0.748 52.859,0.523 52.516,0.466 L51.551,0.308 C51.482,0.297 51.411,0.292 51.343,0.294 C51.281,0.271 51.213,0.253 51.145,0.24 L49.76,0.014 C49.234,-0.072 48.729,0.256 48.599,0.769 C48.594,0.793 48.044,2.963 47.078,5.834 C42.028,6.758 40.324,12.231 38.814,17.084 C38.18,19.114 37.585,21.03 36.793,22.591 C26.809,42.281 9.62,44.234 3.148,44.971 C0.998,45.214 0.193,45.307 0.03,46.268 C-0.058,46.789 0.001,47.6 0.775,48.506 C2.202,50.177 6,51.965 12.38,51.965 C21.679,51.965 28.158,48.815 32.586,45.033 C30.58,47.748 28.071,50.392 24.989,52.435 C23.136,53.663 21.449,54.702 19.959,55.618 C15.971,58.068 14.321,59.083 14.727,60.497 C15.081,61.732 16.725,61.95 20.045,61.95 C24.826,61.95 32.176,60.415 38.462,56.105 C42.42,53.388 46.935,48.829 49.071,41.476 C50.627,46.305 54.43,51.756 63.366,54.648 C69.284,56.564 80.628,55.916 83.118,54.419 C83.605,54.127 83.889,53.755 83.965,53.315 C84.344,51.072 81.629,50.271 77.87,49.163 M68.033,35.411 C71.179,36.135 72.687,36.626 73.409,36.935 C73.151,37.054 72.819,37.194 72.412,37.354 C70.2,38.224 62.46,37.356 59.664,36.948 C59.628,36.942 59.594,36.954 59.558,36.953 C58.625,35.201 57.885,33.184 57.404,30.858 C59.396,32.297 62.811,34.207 68.033,35.411 M64.001,52.718 C52.608,49.031 50.364,41.017 50.101,36.233 C50.244,34.965 50.318,33.632 50.318,32.233 C50.318,31.712 49.918,31.273 49.393,31.222 C48.872,31.163 48.39,31.522 48.289,32.034 C48.279,32.084 47.995,33.596 48.087,35.847 C46.047,55.48 27.459,59.92 20.045,59.92 C18.63,59.92 17.772,59.861 17.25,59.797 C18.059,59.175 19.567,58.248 21.037,57.344 C22.543,56.419 24.247,55.371 26.127,54.126 C37.123,46.837 41.076,32.9 41.251,32.261 L41.252,32.259 C41.401,31.717 41.08,31.161 40.535,31.013 C39.991,30.864 39.429,31.181 39.277,31.721 C39.069,32.463 33.925,49.933 12.38,49.933 C7.059,49.933 3.502,48.558 2.338,47.195 C2.318,47.169 2.297,47.144 2.279,47.121 C2.609,47.076 3.007,47.031 3.382,46.989 C9.506,46.293 28.145,44.174 38.625,23.504 C39.492,21.792 40.141,19.705 40.771,17.685 C42.292,12.795 43.73,8.176 47.947,7.763 C48.344,7.723 48.684,7.457 48.814,7.081 C49.543,4.973 50.062,3.187 50.343,2.169 L50.81,2.246 C50.879,2.257 50.95,2.261 51.019,2.259 C51.081,2.282 51.146,2.3 51.215,2.311 L51.605,2.377 C51.955,3.332 52.648,5.529 52.643,7.898 C52.643,8.131 52.723,8.357 52.872,8.539 C55.291,11.507 55.085,15.738 54.866,20.217 C54.8,21.572 54.732,22.973 54.732,24.383 C54.732,44.458 69.405,48.787 77.287,51.112 C78.992,51.615 81.266,52.286 81.826,52.815 C79.729,53.759 69.606,54.533 64.001,52.718" id="Shape_30_"></path>
                                                                                                <path d="M47.715,9.14 C47.572,9.214 44.202,11.017 43.031,17.621 C42.931,18.173 43.304,18.699 43.862,18.796 C43.924,18.807 43.981,18.812 44.041,18.812 C44.529,18.812 44.962,18.465 45.049,17.973 C46.024,12.489 48.608,10.972 48.67,10.936 C49.164,10.674 49.356,10.067 49.097,9.573 C48.836,9.075 48.217,8.883 47.715,9.14" id="Shape_31_"></path>
                                                                                            </g>
                                                                                        </g>
                                                                                        <g id="icon-play" transform="translate(738.500000, 1.500000)">
                                                                                            <g id="Group_3_">
                                                                                                <path d="M42,2 C19.909,2 2,19.908 2,42 C2,64.091 19.909,82 42,82 C64.091,82 82,64.091 82,42 C82,19.908 64.091,2 42,2 L42,2 L42,2 Z M34.184,53.691 L34.184,30.308 L53.816,42 L34.184,53.691 L34.184,53.691 Z" id="Shape_32_"></path>
                                                                                                <path d="M34.184,53.691 L53.816,42 L34.184,30.308 L34.184,53.691 L34.184,53.691 Z" id="Shape_33_" fill="#333333"></path>
                                                                                                <path d="M42,0 C18.841,0 0,18.841 0,42 C0,65.159 18.841,84 42,84 C65.159,84 84,65.159 84,42 C84,18.841 65.159,0 42,0 L42,0 L42,0 Z M42,82 C19.909,82 2,64.091 2,42 C2,19.908 19.909,2 42,2 C64.091,2 82,19.908 82,42 C82,64.091 64.091,82 42,82 L42,82 L42,82 Z" id="Shape_34_" fill="#333333"></path>
                                                                                            </g>
                                                                                        </g>
                                                                                        <g id="icon-search-black" transform="translate(72.000000, 19.000000)" fill="#000000">
                                                                                            <g id="Page-1_8_">
                                                                                                <g id="icon-search">
                                                                                                    <path d="M14.406,12.27 L11.17,9.035 C11.693,8.144 12,7.108 12,6 C12,2.687 9.314,0 6,0 C2.687,0 0,2.687 0,6 C0,9.313 2.687,12 6,12 C7.044,12 8.025,11.732 8.881,11.263 L12.147,14.53 C12.772,15.153 13.782,15.153 14.407,14.53 C15.029,13.904 15.029,12.894 14.406,12.27 L14.406,12.27 L14.406,12.27 Z M7.644,9.637 C7.141,9.865 6.587,10 6,10 C3.794,10 2,8.205 2,6 C2,3.794 3.794,2 6,2 C8.206,2 10,3.794 10,6 C10,6.644 9.834,7.243 9.562,7.782 C9.152,8.599 8.479,9.258 7.644,9.637 L7.644,9.637 L7.644,9.637 Z" id="Shape_35_"></path>
                                                                                                </g>
                                                                                            </g>
                                                                                        </g>
                                                                                        <g id="icon-search_1_" transform="translate(90.000000, 19.000000)" fill="#ADADB1">
                                                                                            <path d="M14.406,12.27 L11.17,9.035 C11.693,8.144 12,7.108 12,6 C12,2.687 9.314,0 6,0 C2.687,0 0,2.687 0,6 C0,9.313 2.687,12 6,12 C7.044,12 8.025,11.732 8.881,11.263 L12.147,14.53 C12.772,15.153 13.782,15.153 14.407,14.53 C15.029,13.904 15.029,12.894 14.406,12.27 L14.406,12.27 L14.406,12.27 Z M7.644,9.637 C7.141,9.865 6.587,10 6,10 C3.794,10 2,8.205 2,6 C2,3.794 3.794,2 6,2 C8.206,2 10,3.794 10,6 C10,6.644 9.834,7.243 9.562,7.782 C9.152,8.599 8.479,9.258 7.644,9.637 L7.644,9.637 L7.644,9.637 Z" id="Shape_36_"></path>
                                                                                        </g>
                                                                                        <g id="icon-shades" transform="translate(630.000000, 1.000000)" fill="#231F20">
                                                                                            <g id="Group_4_">
                                                                                                <path d="M93.22,25.958 C91.514,23.562 87.767,21.253 85.936,20.215 C89.016,15.169 90.476,8.728 90.476,2.316 C90.476,1.837 90.114,1.426 89.62,1.348 C89.532,1.334 80.882,0 72.255,0 C67.81,0 59.117,1.669 53.625,5.377 C53.604,5.389 53.582,5.402 53.563,5.415 C53.524,5.44 52.616,6.025 51.21,7.222 C49.263,8.883 48.533,9.504 46.931,9.518 C45.31,9.504 44.58,8.882 42.583,7.181 C41.229,6.026 40.321,5.441 40.284,5.416 C40.262,5.404 40.242,5.39 40.219,5.379 C34.725,1.669 26.032,0 21.586,0 C12.959,0 4.31,1.334 4.223,1.348 C3.73,1.426 3.367,1.836 3.367,2.316 C3.367,9.963 5.12,15.913 7.91,20.303 C6.032,21.379 2.44,23.626 0.78,25.96 C-0.517,27.786 0.089,29.093 0.567,29.71 C1.412,30.802 3.056,31.333 4.562,31.333 C5.115,31.333 5.649,31.261 6.12,31.12 C7.379,30.743 8.43,29.309 9.542,27.792 C10.245,26.831 11.424,25.226 12.008,25.144 C12.017,25.142 12.037,25.136 12.112,25.193 L12.121,25.181 C15.896,28.4 20.486,29.941 25.059,29.941 C35.374,29.941 41.593,23.615 43.837,18.113 C43.876,18.052 43.909,17.987 43.934,17.918 C44.712,15.734 46.403,15.564 46.901,15.563 L46.934,15.563 C47.433,15.564 49.125,15.734 49.904,17.918 C49.928,17.986 49.961,18.051 50,18.109 C52.241,23.612 58.46,29.941 68.779,29.941 C74.196,29.941 78.527,28.121 81.855,25.155 L81.885,25.193 C81.96,25.136 81.981,25.142 81.989,25.144 C82.573,25.226 83.752,26.832 84.455,27.792 C85.568,29.31 86.618,30.743 87.878,31.12 C88.348,31.261 88.881,31.333 89.434,31.333 C90.942,31.333 92.585,30.802 93.43,29.71 C93.912,29.093 94.517,27.786 93.22,25.958 M7.869,26.665 C7.126,27.683 6.106,29.073 5.509,29.251 C4.4,29.583 2.737,29.226 2.21,28.544 C2.107,28.411 1.796,28.011 2.47,27.064 C3.926,25.017 7.34,22.91 9.053,21.933 C9.531,22.556 10.029,23.139 10.549,23.687 C9.602,24.317 8.752,25.464 7.869,26.665 M51.837,17.228 C51.816,17.177 51.792,17.126 51.765,17.08 C50.481,13.795 47.556,13.608 46.943,13.604 L46.9,13.604 C46.3,13.606 43.367,13.784 42.079,17.078 C42.051,17.125 42.027,17.176 42.005,17.228 C40.061,22.189 34.457,27.982 25.063,27.982 C20.237,27.982 16.363,26.347 13.369,23.673 L13.381,23.656 C13.349,23.632 13.312,23.616 13.279,23.594 C8.093,18.902 5.584,11.065 5.419,3.155 C7.796,2.825 14.703,1.958 21.586,1.958 C23.88,1.958 27.538,2.468 31.2,3.531 L22.34,20.06 C22.083,20.541 22.279,21.131 22.782,21.38 C22.93,21.453 23.093,21.486 23.248,21.486 C23.62,21.486 23.976,21.293 24.158,20.955 L33.161,4.16 C35.33,4.916 37.416,5.869 39.123,7.035 C39.156,7.058 39.189,7.077 39.223,7.096 C39.459,7.255 40.21,7.781 41.27,8.681 C43.298,10.412 44.524,11.456 46.93,11.476 C49.318,11.456 50.54,10.414 52.618,8.642 C53.638,7.773 54.384,7.255 54.618,7.095 C54.652,7.077 54.685,7.058 54.719,7.034 C59.783,3.571 68.178,1.957 72.256,1.957 C72.815,1.957 73.369,1.964 73.924,1.975 L64.42,19.704 C64.163,20.184 64.36,20.774 64.862,21.021 C65.01,21.094 65.172,21.128 65.328,21.128 C65.699,21.128 66.056,20.935 66.237,20.598 L76.182,2.043 C81.619,2.271 86.5,2.888 88.422,3.154 C88.16,15.649 82.057,27.98 68.779,27.98 C59.386,27.981 53.782,22.188 51.837,17.228 M91.792,28.544 C91.265,29.226 89.602,29.585 88.492,29.251 C87.893,29.073 86.874,27.683 86.131,26.665 C85.229,25.435 84.36,24.259 83.385,23.64 C83.894,23.077 84.375,22.484 84.828,21.865 C86.499,22.808 90.041,24.969 91.531,27.062 C92.206,28.011 91.894,28.411 91.792,28.544" id="Shape_37_"></path>
                                                                                                <path d="M22.632,10.665 C22.13,10.419 21.514,10.61 21.257,11.089 L16.008,20.876 C15.751,21.357 15.949,21.948 16.451,22.195 C16.6,22.268 16.76,22.303 16.916,22.303 C17.287,22.303 17.645,22.108 17.826,21.772 L23.073,11.983 C23.33,11.503 23.133,10.911 22.632,10.665" id="Shape_38_"></path>
                                                                                                <path d="M64.71,10.306 C64.206,10.059 63.592,10.25 63.334,10.73 L58.088,20.519 C57.83,20.999 58.027,21.591 58.529,21.837 C58.678,21.91 58.839,21.946 58.996,21.946 C59.367,21.946 59.724,21.751 59.905,21.413 L65.151,11.626 C65.41,11.144 65.21,10.553 64.71,10.306" id="Shape_39_"></path>
                                                                                            </g>
                                                                                        </g>
                                                                                        <g id="icon-hamburger" transform="translate(252.000000, 1.000000)" fill="#1D1D24">
                                                                                            <rect id="Rectangle_1_" x="0" y="24" width="35" height="5"></rect>
                                                                                            <rect id="Rectangle_2_" x="0" y="12" width="35" height="5"></rect>
                                                                                            <rect id="Rectangle_3_" x="0" y="0" width="35" height="5"></rect>
                                                                                        </g>
                                                                                    </g>
                                                                                </g>
                                                                            </g>
                                                                        </g>
                                                                        <g id="Shape-_x2B_-Shape" transform="translate(36.000000, 37.000000)" fill="#8A8999">
                                                                            <path d="M9.29,6.531 C7.438,6.531 5.937,8.033 5.937,9.885 C5.937,11.737 7.438,13.238 9.29,13.238 C11.141,13.238 12.642,11.737 12.642,9.885 C12.642,8.033 11.141,6.531 9.29,6.531 M9.29,12.119 C8.058,12.119 7.054,11.117 7.054,9.885 C7.054,8.653 8.058,7.649 9.29,7.649 C10.522,7.649 11.525,8.652 11.525,9.884 C11.525,11.117 10.522,12.119 9.29,12.119" id="Shape_40_"></path>
                                                                            <path d="M18.999,9.478 C18.999,8.454 18.658,7.257 17.692,7.257 L17.282,7.257 C16.588,7.257 16.373,7.039 16.275,6.809 C16.265,6.772 16.263,6.735 16.246,6.7 C16.129,6.461 16.081,6.144 16.616,5.61 L16.911,5.315 C17.59,4.636 16.984,3.55 16.259,2.826 C16.25,2.816 16.237,2.813 16.227,2.805 C16.219,2.795 16.216,2.783 16.207,2.774 C15.482,2.049 14.396,1.445 13.713,2.127 L13.422,2.418 C12.941,2.899 12.638,2.907 12.406,2.818 C12.369,2.794 12.334,2.765 12.289,2.75 C12.037,2.665 11.779,2.475 11.779,1.719 L11.781,1.3 C11.781,0.341 10.585,0 9.56,0 C9.547,0 9.536,0.006 9.523,0.008 C9.51,0.006 9.499,0 9.486,0 C8.461,0 7.265,0.341 7.265,1.307 L7.265,1.718 C7.265,2.397 7.057,2.618 6.831,2.719 C6.788,2.727 6.742,2.732 6.7,2.752 C6.459,2.87 6.144,2.917 5.61,2.384 L5.314,2.089 C4.637,1.411 3.549,2.015 2.825,2.74 C2.816,2.749 2.812,2.762 2.804,2.771 C2.794,2.78 2.782,2.783 2.772,2.792 C2.048,3.516 1.442,4.603 2.125,5.286 L2.416,5.576 C2.899,6.058 2.905,6.363 2.816,6.594 C2.792,6.633 2.764,6.666 2.749,6.71 C2.663,6.962 2.472,7.22 1.716,7.22 L1.3,7.219 C0.341,7.219 0,8.416 0,9.44 C0,9.453 0.006,9.464 0.008,9.477 C0.006,9.49 0,9.502 0,9.515 C0,10.539 0.341,11.736 1.306,11.736 L1.716,11.735 C2.434,11.735 2.641,11.969 2.733,12.208 C2.743,12.241 2.743,12.276 2.759,12.308 C2.876,12.547 2.924,12.865 2.391,13.398 L2.095,13.693 C1.417,14.373 2.021,15.459 2.745,16.183 C2.754,16.192 2.767,16.195 2.776,16.203 C2.785,16.214 2.789,16.226 2.798,16.236 C3.3,16.738 3.977,17.181 4.57,17.181 C4.833,17.181 5.08,17.095 5.287,16.886 L5.581,16.591 C6.094,16.079 6.405,16.104 6.64,16.208 C6.666,16.222 6.688,16.243 6.717,16.253 C6.969,16.338 7.227,16.528 7.227,17.284 L7.226,17.7 C7.228,18.658 8.424,19 9.449,19 C9.462,19 9.473,18.992 9.486,18.991 C9.498,18.992 9.509,19 9.522,19 C10.547,19 11.743,18.658 11.743,17.692 L11.743,17.283 C11.743,16.555 11.981,16.354 12.224,16.262 C12.252,16.254 12.28,16.254 12.307,16.241 C12.546,16.124 12.862,16.076 13.397,16.61 L13.691,16.905 C13.9,17.114 14.147,17.2 14.409,17.2 C15.003,17.2 15.679,16.756 16.18,16.255 C16.19,16.244 16.193,16.233 16.201,16.223 C16.211,16.214 16.223,16.21 16.233,16.202 C16.958,15.477 17.562,14.39 16.884,13.712 L16.589,13.417 C16.102,12.93 16.099,12.624 16.192,12.394 C16.214,12.358 16.236,12.324 16.251,12.283 C16.337,12.031 16.527,11.773 17.283,11.773 L17.7,11.773 C18.659,11.773 19,10.577 19,9.552 C19,9.539 18.993,9.529 18.992,9.515 C18.992,9.502 18.999,9.49 18.999,9.478 M17.647,10.654 L17.282,10.654 C16.005,10.654 15.469,11.252 15.242,11.8 C15.234,11.813 15.223,11.82 15.216,11.833 C14.946,12.381 14.83,13.238 15.798,14.205 L16.058,14.466 C16.038,14.626 15.805,15.047 15.443,15.41 C15.434,15.419 15.431,15.431 15.422,15.441 C15.412,15.45 15.4,15.453 15.391,15.462 C15.029,15.823 14.606,16.057 14.446,16.076 L14.187,15.817 C13.284,14.914 12.481,14.957 11.932,15.186 C11.919,15.189 11.906,15.187 11.893,15.191 C11.314,15.388 10.626,15.911 10.626,17.281 L10.626,17.646 C10.497,17.747 10.035,17.88 9.523,17.88 C9.51,17.88 9.499,17.887 9.486,17.888 C9.473,17.887 9.462,17.88 9.449,17.88 C8.937,17.88 8.473,17.746 8.345,17.646 L8.346,17.281 C8.346,16.005 7.748,15.468 7.199,15.24 C7.187,15.233 7.179,15.221 7.167,15.216 C6.62,14.947 5.762,14.828 4.793,15.797 L4.534,16.057 C4.371,16.037 3.957,15.81 3.588,15.442 C3.579,15.433 3.567,15.43 3.558,15.422 C3.549,15.411 3.546,15.399 3.536,15.389 C3.174,15.028 2.941,14.606 2.922,14.444 L3.181,14.186 C4.083,13.283 4.04,12.481 3.812,11.932 C3.808,11.914 3.811,11.899 3.806,11.882 C3.608,11.304 3.087,10.615 1.716,10.615 L1.35,10.615 C1.25,10.487 1.116,10.023 1.116,9.511 C1.116,9.498 1.11,9.488 1.109,9.474 C1.109,9.462 1.116,9.451 1.116,9.437 C1.116,8.924 1.25,8.462 1.35,8.334 L1.715,8.334 C2.964,8.334 3.505,7.763 3.74,7.224 C3.755,7.203 3.774,7.183 3.786,7.157 C4.056,6.609 4.174,5.752 3.204,4.783 L2.947,4.527 C2.966,4.365 3.199,3.944 3.562,3.581 C3.571,3.573 3.574,3.56 3.583,3.551 C3.593,3.542 3.606,3.539 3.615,3.53 C3.983,3.162 4.397,2.934 4.559,2.915 L4.819,3.174 C5.4,3.756 5.942,3.946 6.402,3.946 C6.628,3.946 6.826,3.892 7.007,3.824 C7.043,3.819 7.079,3.818 7.114,3.805 C7.692,3.608 8.381,3.086 8.381,1.716 L8.381,1.35 C8.509,1.25 8.972,1.117 9.485,1.117 C9.497,1.117 9.508,1.11 9.522,1.11 C9.535,1.11 9.546,1.117 9.559,1.117 C10.071,1.117 10.535,1.25 10.663,1.35 L10.662,1.716 C10.662,2.978 11.245,3.516 11.789,3.748 C11.807,3.76 11.821,3.777 11.84,3.787 C12.058,3.894 12.325,3.977 12.63,3.977 C13.089,3.977 13.631,3.788 14.213,3.205 L14.471,2.947 C14.632,2.967 15.054,3.2 15.417,3.562 C15.427,3.571 15.438,3.574 15.449,3.583 C15.457,3.593 15.461,3.605 15.47,3.615 C15.832,3.977 16.065,4.399 16.085,4.56 L15.826,4.818 C14.934,5.71 14.966,6.504 15.187,7.052 C15.19,7.07 15.187,7.089 15.194,7.107 C15.391,7.685 15.913,8.374 17.284,8.374 L17.649,8.373 C17.749,8.502 17.883,8.965 17.883,9.477 C17.883,9.491 17.889,9.501 17.891,9.514 C17.89,9.528 17.883,9.538 17.883,9.551 C17.881,10.064 17.747,10.527 17.647,10.654" id="Shape_41_"></path>
                                                                        </g>
                                                                    </g>
                                                                </g>
                                                                <g id="icon-help" transform="translate(629.000000, 52.000000)">
                                                                    <g id="Group_5_">
                                                                        <g id="Clipped">
                                                                            <g id="SVGID_1_" transform="translate(1.000000, 0.000000)"></g>
                                                                            <path d="M-0.069,33.193 L1.184,31.422 C2.928,28.957 4.428,26.238 4.502,25.429 L4.197,25.043 C1.673,21.669 0.632,17.529 1.266,13.387 C1.905,9.214 4.164,5.541 7.625,3.046 C10.389,1.054 13.656,0 17.074,0 C22.151,0 26.975,2.398 29.979,6.415 C32.502,9.789 33.542,13.928 32.908,18.069 C32.268,22.242 30.01,25.914 26.549,28.409 C23.784,30.402 20.52,31.455 17.109,31.455 C15.547,31.455 13.996,31.23 12.502,30.788 C11.851,30.595 11.382,30.387 11.04,30.234 C10.845,30.147 10.602,30.039 10.53,30.036 C10.53,30.037 10.437,30.052 10.17,30.242 C6.956,32.528 2.289,32.977 2.092,32.996 L-0.069,33.193 L-0.069,33.193 Z M17.074,2 C14.078,2 11.216,2.923 8.795,4.669 C5.772,6.848 3.801,10.051 3.243,13.69 C2.69,17.297 3.598,20.904 5.799,23.845 L6.175,24.319 C6.465,24.683 7.284,25.715 4.144,30.616 C5.613,30.276 7.53,29.666 9.01,28.613 C9.387,28.344 9.901,28.037 10.531,28.037 C11.02,28.037 11.425,28.218 11.853,28.408 C12.177,28.552 12.543,28.716 13.07,28.871 C14.38,29.26 15.739,29.456 17.109,29.456 C20.097,29.456 22.958,28.533 25.38,26.787 C28.402,24.608 30.374,21.405 30.932,17.767 C31.485,14.161 30.578,10.554 28.379,7.613 C25.75,4.099 21.524,2 17.074,2 L17.074,2 L17.074,2 Z" id="Shape" fill="#231F20" sketch:type="MSShapeGroup"></path>
                                                                        </g>
                                                                        <g id="Clipped_1_" transform="translate(1.000000, 0.000000)">
                                                                            <g id="SVGID_2_"></g>
                                                                            <path d="M18.267,16.126 L17.265,14.396 C18.132,13.894 18.67,12.974 18.67,11.994 C18.67,10.456 17.387,9.204 15.809,9.204 C14.233,9.204 12.951,10.456 12.951,11.994 L10.951,11.994 C10.951,9.352 13.131,7.204 15.809,7.204 C18.49,7.204 20.67,9.352 20.67,11.994 C20.67,13.686 19.749,15.269 18.267,16.126 L18.267,16.126 L18.267,16.126 Z" id="Shape" fill="#231F20" sketch:type="MSShapeGroup"></path>
                                                                        </g>
                                                                        <g id="Clipped_2_" transform="translate(1.000000, 0.000000)">
                                                                            <g id="SVGID_3_"></g>
                                                                            <path d="M16.518,18.906 L14.518,18.906 C14.518,16.989 15.591,15.254 17.32,14.378 L18.224,16.161 C17.172,16.695 16.518,17.747 16.518,18.906 L16.518,18.906 L16.518,18.906 Z" id="Shape" fill="#231F20" sketch:type="MSShapeGroup"></path>
                                                                        </g>
                                                                        <g id="Clipped_3_" transform="translate(1.000000, 0.000000)">
                                                                            <g id="SVGID_4_"></g>
                                                                            <path d="M16.567,22.868 C16.567,23.435 16.094,23.898 15.516,23.898 C14.937,23.898 14.465,23.435 14.465,22.868 C14.465,22.3 14.937,21.838 15.516,21.838 C16.095,21.838 16.567,22.3 16.567,22.868" id="Shape_45_" fill="#231F20" sketch:type="MSShapeGroup"></path>
                                                                        </g>
                                                                    </g>
                                                                </g>
                                                                <g id="icon-lock" transform="translate(72.000000, 37.000000)">
                                                                    <g id="Group_6_">
                                                                        <g id="Clipped_4_">
                                                                            <g id="SVGID_5_"></g>
                                                                            <path d="M13.669,18.006 L2.333,18.006 C1.046,18.006 0,16.905 0,15.551 L0,8.461 C0,7.107 1.046,6.007 2.333,6.007 L13.669,6.007 C14.954,6.007 16,7.107 16,8.461 L16,15.551 C16,16.905 14.954,18.006 13.669,18.006 L13.669,18.006 L13.669,18.006 Z M2.333,8.007 C2.152,8.007 2,8.215 2,8.461 L2,15.551 C2,15.793 2.156,16.006 2.333,16.006 L13.669,16.006 C13.849,16.006 14,15.798 14,15.551 L14,8.461 C14,8.215 13.849,8.007 13.669,8.007 L2.333,8.007 L2.333,8.007 Z" id="Shape_46_" fill="#9A99A0" sketch:type="MSShapeGroup"></path>
                                                                        </g>
                                                                        <g id="Clipped_5_">
                                                                            <g id="SVGID_6_"></g>
                                                                            <path d="M13.059,7 L11.059,7 L11.059,5.06 C11.059,3.372 9.713,2 8.059,2 C6.405,2 5.059,3.373 5.059,5.06 L5.059,7 L3.059,7 L3.059,5.06 C3.059,2.27 5.302,0 8.059,0 C10.816,0 13.059,2.27 13.059,5.06 L13.059,7 L13.059,7 Z" id="Shape_47_" fill="#9A99A0" sketch:type="MSShapeGroup"></path>
                                                                        </g>
                                                                        <g id="Clipped_6_">
                                                                            <g id="SVGID_7_"></g>
                                                                            <path d="M8.084,15.006 C6.43,15.006 5.084,13.66 5.084,12.006 C5.084,10.352 6.43,9.006 8.084,9.006 C9.738,9.006 11.084,10.352 11.084,12.006 C11.084,13.66 9.738,15.006 8.084,15.006 L8.084,15.006 L8.084,15.006 Z M8.084,11.006 C7.533,11.006 7.084,11.454 7.084,12.006 C7.084,12.559 7.533,13.006 8.084,13.006 C8.636,13.006 9.084,12.559 9.084,12.006 C9.084,11.454 8.636,11.006 8.084,11.006 L8.084,11.006 L8.084,11.006 Z" id="Shape_48_" fill="#9A99A0" sketch:type="MSShapeGroup"></path>
                                                                        </g>
                                                                    </g>
                                                                </g>
                                                                <g id="logo-paypal" transform="translate(413.000000, 62.000000)" fill="#FFFFFF" sketch:type="MSShapeGroup">
                                                                    <g id="Page-1_12_">
                                                                        <g id="Logo-_x2B_-BG">
                                                                            <g id="Logo">
                                                                                <g id="layer1" transform="translate(0.067567, 0.114662)">
                                                                                    <g id="g2993" transform="translate(34.932433, 9.114241) scale(1, -1) translate(-34.932433, -9.114241) translate(-0.067567, 0.114241)">
                                                                                        <path d="M53.561,7.112 C53.323,6.961 53.07,6.831 52.805,6.721 C52.449,6.576 52.112,6.502 51.799,6.502 C51.32,6.502 50.952,6.569 50.703,6.715 C50.454,6.852 50.323,7.092 50.327,7.434 C50.327,7.83 50.418,8.136 50.607,8.376 C50.796,8.607 51.079,8.794 51.429,8.933 C51.777,9.051 52.204,9.149 52.699,9.219 C53.138,9.274 54.008,9.374 54.119,9.375 C54.23,9.375 54.304,9.437 54.255,9.141 C54.233,9.012 53.982,7.981 53.866,7.511 C53.833,7.37 53.646,7.166 53.561,7.112 L53.561,7.112 L53.561,7.112 Z M56.971,14.361 C56.24,14.77 55.095,14.976 53.529,14.976 C52.755,14.976 51.976,14.914 51.195,14.792 C50.622,14.704 50.563,14.689 50.207,14.611 C49.474,14.452 49.361,13.716 49.361,13.716 L49.126,12.747 C48.992,12.128 49.345,12.153 49.502,12.201 C49.822,12.298 49.995,12.393 50.648,12.542 C51.272,12.684 51.931,12.79 52.458,12.786 C53.229,12.786 53.815,12.701 54.206,12.538 C54.596,12.368 54.789,12.077 54.789,11.662 C54.79,11.563 54.793,11.471 54.757,11.39 C54.725,11.314 54.663,11.24 54.48,11.215 C53.378,11.15 52.588,11.049 51.637,10.909 C50.699,10.777 49.876,10.55 49.19,10.236 C48.458,9.911 47.911,9.475 47.533,8.924 C47.166,8.369 46.981,7.698 46.98,6.908 C46.98,6.161 47.248,5.553 47.766,5.079 C48.29,4.612 48.973,4.381 49.799,4.381 C50.315,4.385 50.719,4.422 51.008,4.494 C51.294,4.567 51.607,4.67 51.937,4.812 C52.183,4.916 52.45,5.065 52.731,5.252 C53.012,5.44 53.207,5.573 53.457,5.737 L53.466,5.721 L53.396,5.41 C53.396,5.407 53.392,5.405 53.392,5.402 L53.394,5.396 C53.314,5.022 53.539,4.71 53.909,4.674 L53.913,4.667 L53.946,4.667 L53.947,4.665 C54.193,4.665 55.036,4.666 55.43,4.667 L55.704,4.667 C55.723,4.667 55.725,4.673 55.731,4.677 C56.109,4.724 56.471,5.032 56.557,5.402 L57.964,11.486 C57.996,11.629 58.022,11.795 58.037,11.984 C58.055,12.177 58.075,12.335 58.069,12.449 C58.07,13.315 57.701,13.952 56.971,14.361 L56.971,14.361 L56.971,14.361 Z" id="path2997"></path>
                                                                                        <path d="M47.674,16.014 C47.434,16.483 47.071,16.859 46.612,17.153 C46.142,17.446 45.584,17.649 44.936,17.768 C44.296,17.881 43.536,17.945 42.669,17.947 L38.637,17.945 C38.222,17.938 37.815,17.612 37.719,17.21 L35.009,5.395 C34.909,4.993 35.18,4.659 35.587,4.661 L37.522,4.665 C37.932,4.661 38.35,4.993 38.448,5.395 L39.101,8.262 C39.192,8.663 39.609,9 40.026,8.995 L40.576,8.995 C42.936,8.995 44.766,9.48 46.076,10.446 C47.384,11.419 48.041,12.692 48.041,14.277 C48.037,14.969 47.92,15.551 47.674,16.014 M43.514,12.15 C42.937,11.729 42.126,11.518 41.083,11.518 L40.604,11.518 C40.189,11.514 39.921,11.85 40.02,12.252 L40.598,14.76 C40.684,15.156 41.105,15.494 41.514,15.49 L42.148,15.494 C42.887,15.49 43.44,15.366 43.823,15.12 C44.198,14.871 44.381,14.484 44.384,13.969 C44.384,13.184 44.094,12.58 43.514,12.15" id="path3017"></path>
                                                                                        <path d="M18.562,7.12 C18.324,6.97 18.071,6.841 17.806,6.731 C17.451,6.587 17.111,6.511 16.8,6.511 C16.322,6.511 15.953,6.579 15.704,6.724 C15.455,6.862 15.323,7.101 15.328,7.444 C15.328,7.839 15.42,8.146 15.608,8.386 C15.797,8.617 16.079,8.804 16.429,8.943 C16.778,9.062 17.207,9.158 17.7,9.227 C18.139,9.284 19.01,9.383 19.12,9.385 C19.23,9.385 19.305,9.447 19.255,9.151 C19.234,9.022 18.983,7.989 18.867,7.521 C18.834,7.379 18.647,7.174 18.562,7.12 L18.562,7.12 L18.562,7.12 Z M21.973,14.37 C21.242,14.779 20.097,14.985 18.531,14.985 C17.757,14.985 16.978,14.924 16.197,14.802 C15.623,14.715 15.565,14.699 15.209,14.621 C14.476,14.461 14.363,13.726 14.363,13.726 L14.128,12.757 C13.994,12.137 14.348,12.163 14.504,12.21 C14.823,12.308 14.997,12.403 15.65,12.552 C16.273,12.693 16.933,12.799 17.458,12.795 C18.23,12.795 18.816,12.711 19.206,12.548 C19.597,12.378 19.789,12.087 19.789,11.672 C19.792,11.573 19.794,11.48 19.759,11.4 C19.726,11.323 19.664,11.25 19.48,11.225 C18.38,11.159 17.59,11.058 16.637,10.919 C15.699,10.786 14.877,10.56 14.191,10.245 C13.459,9.921 12.912,9.484 12.535,8.933 C12.166,8.379 11.981,7.708 11.981,6.918 C11.981,6.171 12.249,5.562 12.767,5.089 C13.291,4.622 13.973,4.391 14.799,4.391 C15.316,4.395 15.719,4.432 16.009,4.504 C16.295,4.576 16.608,4.68 16.937,4.822 C17.184,4.926 17.45,5.075 17.731,5.261 C18.012,5.449 18.208,5.583 18.459,5.746 L18.467,5.731 L18.397,5.42 C18.396,5.417 18.392,5.415 18.392,5.411 L18.395,5.406 C18.315,5.031 18.539,4.72 18.91,4.683 L18.914,4.677 L18.946,4.677 L18.947,4.674 C19.194,4.674 20.037,4.675 20.43,4.677 L20.705,4.677 C20.724,4.677 20.726,4.683 20.732,4.687 C21.111,4.734 21.471,5.042 21.557,5.411 L22.965,11.496 C22.996,11.639 23.023,11.804 23.036,11.994 C23.056,12.187 23.075,12.344 23.07,12.458 C23.072,13.325 22.702,13.961 21.973,14.37 L21.973,14.37 L21.973,14.37 Z" id="path3021"></path>
                                                                                        <path d="M63.615,17.85 L61.891,17.85 L61.888,17.85 L61.887,17.85 C61.492,17.85 61.092,17.547 60.98,17.162 C60.976,17.147 60.968,17.132 60.964,17.116 C60.964,17.116 60.923,16.928 60.852,16.602 L58.483,5.85 C58.428,5.606 58.392,5.448 58.38,5.407 L58.385,5.401 C58.303,5.026 58.529,4.714 58.899,4.68 L58.904,4.672 L60.694,4.672 C61.087,4.672 61.484,4.972 61.599,5.352 C61.605,5.372 61.614,5.388 61.618,5.407 L64.202,17.116 L64.198,17.118 C64.286,17.518 64.028,17.85 63.615,17.85" id="path3025"></path>
                                                                                        <path d="M32.758,14.842 C32.346,14.842 31.804,14.506 31.547,14.102 C31.547,14.102 28.785,9.361 28.515,8.887 C28.368,8.632 28.218,8.793 28.193,8.889 C28.173,9.004 27.338,14.071 27.338,14.071 C27.243,14.479 26.818,14.83 26.286,14.829 L24.563,14.825 C24.148,14.825 23.889,14.493 23.982,14.091 C23.982,14.091 25.298,6.618 25.555,4.861 C25.683,3.888 25.541,3.716 25.541,3.716 L23.834,0.736 C23.584,0.33 23.722,0 24.135,0 L26.13,0.001 C26.543,0.001 27.091,0.33 27.337,0.735 L35.014,13.74 C35.014,13.74 35.748,14.85 35.072,14.842 C34.609,14.834 32.758,14.842 32.758,14.842" id="path3009"></path>
                                                                                        <path d="M11.627,17.192 C11.151,17.487 10.599,17.688 9.953,17.811 C9.305,17.927 8.548,17.985 7.679,17.993 L3.657,17.989 C3.239,17.985 2.829,17.656 2.732,17.254 L0.019,5.442 C-0.074,5.038 0.187,4.704 0.604,4.704 L2.53,4.704 C2.947,4.704 3.36,5.03 3.454,5.442 L4.117,8.309 C4.206,8.709 4.618,9.041 5.036,9.041 L5.587,9.041 C7.944,9.043 9.773,9.525 11.086,10.492 C12.398,11.457 13.054,12.736 13.051,14.316 C13.054,15.011 12.934,15.592 12.684,16.056 M6.09,11.559 L5.617,11.559 C5.201,11.559 4.938,11.89 5.03,12.297 L5.61,14.8 C5.698,15.203 6.114,15.538 6.53,15.534 L7.161,15.538 C7.897,15.538 8.458,15.412 8.836,15.16 C9.208,14.916 9.398,14.53 9.391,14.012 C9.402,13.23 9.106,12.625 8.522,12.198" id="path3013"></path>
                                                                                        <path d="M66.881,15.466 C66.822,15.45 66.758,15.438 66.688,15.427 C66.618,15.417 66.555,15.412 66.501,15.412 C66.309,15.412 66.163,15.464 66.063,15.566 C65.963,15.67 65.914,15.836 65.914,16.062 L65.914,17.061 L65.7,17.061 L65.7,17.328 L65.914,17.328 L65.914,17.867 L66.229,17.867 L66.229,17.328 L66.88,17.328 L66.88,17.061 L66.229,17.061 L66.229,16.205 C66.229,16.107 66.232,16.029 66.236,15.975 C66.241,15.918 66.257,15.868 66.283,15.819 C66.307,15.774 66.342,15.742 66.385,15.721 C66.429,15.7 66.494,15.69 66.583,15.69 C66.634,15.69 66.687,15.698 66.744,15.713 C66.8,15.727 66.84,15.74 66.864,15.75 L66.881,15.75 L66.881,15.466" id="path3029"></path>
                                                                                        <path d="M70,15.45 L69.685,15.45 L69.685,16.519 C69.685,16.6 69.681,16.678 69.674,16.752 C69.666,16.828 69.651,16.888 69.627,16.933 C69.602,16.981 69.565,17.018 69.517,17.041 C69.468,17.066 69.399,17.078 69.309,17.078 C69.22,17.078 69.132,17.057 69.043,17.012 C68.954,16.968 68.866,16.912 68.777,16.844 C68.781,16.818 68.783,16.787 68.786,16.753 C68.788,16.719 68.789,16.686 68.789,16.651 L68.789,15.45 L68.474,15.45 L68.474,16.519 C68.474,16.602 68.47,16.681 68.463,16.755 C68.455,16.83 68.44,16.889 68.417,16.934 C68.391,16.983 68.354,17.018 68.305,17.043 C68.257,17.066 68.188,17.078 68.097,17.078 C68.011,17.078 67.925,17.057 67.838,17.015 C67.751,16.973 67.665,16.918 67.578,16.852 L67.578,15.45 L67.262,15.45 L67.262,17.329 L67.578,17.329 L67.578,17.12 C67.677,17.202 67.775,17.266 67.873,17.311 C67.972,17.357 68.075,17.38 68.186,17.38 C68.313,17.38 68.421,17.354 68.511,17.299 C68.599,17.245 68.665,17.171 68.709,17.075 C68.837,17.183 68.953,17.262 69.059,17.308 C69.163,17.355 69.277,17.379 69.396,17.379 C69.603,17.379 69.754,17.317 69.852,17.191 C69.951,17.066 69.999,16.891 69.999,16.667 L69.999,15.45" id="path3033"></path>
                                                                                    </g>
                                                                                </g>
                                                                            </g>
                                                                        </g>
                                                                    </g>
                                                                </g>
                                                            </g>
                                                        </g>
                                                    </g>
                                                </g>
                                                <rect id="Rectangle-5" fill="#231F20" sketch:type="MSShapeGroup" transform="translate(261.498552, 49.008450) rotate(225.000000) translate(-261.498552, -49.008450) " x="259.998552" y="43.0084501" width="2.99997123" height="11.9988849"></rect>
                                                <rect id="Rectangle-5-copy" fill="#231F20" sketch:type="MSShapeGroup" transform="translate(256.503791, 50.039398) rotate(149.994310) translate(-256.503791, -50.039398) " x="255.003791" y="46.0393981" width="3.00008401" height="8.00022404"></rect>
                                            </g>
                                        </g>
                                    </g>
                                </g>
                                <g id="Vector-Smart-Object" transform="translate(832.000000, 2.000000)" stroke="#231F1F" stroke-width="2" sketch:type="MSShapeGroup">
                                    <path d="M39.2227,25.604 L35.4357,25.604 C33.9227,25.604 32.6947,24.376 32.6947,22.863 L32.6947,2.741 C32.6947,1.227 33.9227,0 35.4357,0 L68.9887,0 C70.5017,0 71.7287,1.227 71.7287,2.741 L71.7287,25.604" id="Stroke-1"></path>
                                    <path d="M74.6172,25.604 L47.5032,25.604" id="Stroke-3"></path>
                                    <path d="M47.4375,25.8008 C47.4375,28.1198 45.5585,29.9998 43.2395,29.9998 C40.9195,29.9998 39.0405,28.1198 39.0405,25.8008 C39.0405,23.4818 40.9195,21.6018 43.2395,21.6018 C45.5585,21.6018 47.4375,23.4818 47.4375,25.8008 L47.4375,25.8008 L47.4375,25.8008 Z" id="Stroke-5"></path>
                                    <path d="M82.8516,25.604 L84.8886,25.604 L87.7916,25.604 C88.9976,25.604 89.9746,24.627 89.9746,23.423 L89.9746,18.717 L89.9746,15.91 C89.9746,11.307 86.8226,4.283 83.3696,4.283 L71.7286,4.283" id="Stroke-7"></path>
                                    <path d="M83.0166,25.8008 C83.0166,28.1198 81.1356,29.9998 78.8156,29.9998 C76.4976,29.9998 74.6176,28.1198 74.6176,25.8008 C74.6176,23.4818 76.4976,21.6018 78.8156,21.6018 C81.1356,21.6018 83.0166,23.4818 83.0166,25.8008 L83.0166,25.8008 L83.0166,25.8008 Z" id="Stroke-9"></path>
                                    <path d="M89.125,16.0942 L82.616,16.0942 C81.344,16.0942 80.313,15.0642 80.313,13.7922 L80.313,5.0112" id="Stroke-11"></path>
                                    <path d="M0,18.0781 L27.171,18.0781" id="Stroke-13"></path>
                                    <path d="M9.208,10.5527 L27.171,10.5527" id="Stroke-15"></path>
                                    <path d="M16.1143,25.604 L27.1713,25.604" id="Stroke-17"></path>
                                </g>
                            </g>
                        </g>
                    </g>
                </g>
                <g id="Vector-Smart-Object1" transform="translate(692.000000, 59.000000)" stroke="#231F1F" stroke-width="2" sketch:type="MSShapeGroup">
                    <path d="M20.7314,4.2749 L0.9444,4.2749 C0.4224,4.2749 0.0004,4.6979 0.0004,5.2189 L0.0004,15.6739 C0.0004,16.1949 0.4224,16.6189 0.9444,16.6189 L4.3124,16.6189 L4.4444,16.6189 L4.4444,11.4249 L17.2314,11.4249 L17.2314,16.6189 L20.7314,16.6189 C21.2524,16.6189 21.6754,16.1949 21.6754,15.6739 L21.6754,5.2189 C21.6754,4.6979 21.2524,4.2749 20.7314,4.2749 L20.7314,4.2749 L20.7314,4.2749 Z" id="Stroke-1"></path>
                    <path d="M17.2314,13.3706 L17.2314,20.0556 C17.2314,20.5776 16.8084,20.9996 16.2874,20.9996 L5.3884,20.9996 C4.8674,20.9996 4.4444,20.5776 4.4444,20.0556 L4.4444,13.3706" id="Stroke-3"></path>
                    <path d="M4.4443,4.2671 L4.4443,0.9451 C4.4443,0.4231 4.8673,0.0001 5.3883,0.0001 L16.2873,0.0001 C16.8083,0.0001 17.2313,0.4231 17.2313,0.9451 L17.2313,4.2671" id="Stroke-5"></path>
                    <path d="M17.0508,7.4302 L18.3948,7.4302" id="Stroke-7"></path>
                    <path d="M7.9482,14.8662 L13.5552,14.8662" id="Stroke-9"></path>
                    <path d="M7.9482,17.6992 L11.4292,17.6992" id="Stroke-11"></path>
                </g>
            </g>
        </g>
        <g id="Checkmark" sketch:type="MSLayerGroup" transform="translate(834.000000, 52.000000)" fill="#C0ED54">
            <path d="M12,24 C18.6274173,24 24,18.6274173 24,12 C24,5.37258267 18.6274173,0 12,0 C5.37258267,0 0,5.37258267 0,12 C0,18.6274173 5.37258267,24 12,24 L12,24 Z M12,22 C17.5228478,22 22,17.5228478 22,12 C22,6.47715223 17.5228478,2 12,2 C6.47715223,2 2,6.47715223 2,12 C2,17.5228478 6.47715223,22 12,22 L12,22 Z" id="Circle" sketch:type="MSShapeGroup"></path>
            <path d="M4.97363281,11.8256836 L9.53369141,17.9746094 L19.3100586,8.22851562 L17.5568849,6.47534195 L9.83081055,13.8635254 L7.18066406,10.081543 L4.97363281,11.8256836 L4.97363281,11.8256836 Z" id="Check" sketch:type="MSShapeGroup"></path>
        </g>
    </g>
</svg>