<?xml version="1.0" encoding="utf-8"?>
<!-- Generator: Adobe Illustrator 15.1.0, SVG Export Plug-In  -->
<!DOCTYPE svg PUBLIC "-//W3C//DTD SVG 1.1//EN" "http://www.w3.org/Graphics/SVG/1.1/DTD/svg11.dtd" [
	<!ENTITY ns_flows "http://ns.adobe.com/Flows/1.0/">
]>
<svg version="1.1"
	 xmlns="http://www.w3.org/2000/svg" xmlns:xlink="http://www.w3.org/1999/xlink" xmlns:a="http://ns.adobe.com/AdobeSVGViewerExtensions/3.0/"
	 x="0px" y="0px" width="16px" height="16px" viewBox="0 -1.724 16 16" overflow="visible" enable-background="new 0 -1.724 16 16"
	 xml:space="preserve">
<defs>
</defs>
<path fill="#1D1D24" d="M13.166,0.493L5.371,8.289L3.043,5.07C2.498,4.316,1.448,4.148,0.696,4.692
	C-0.055,5.236-0.226,6.286,0.318,7.04l3.484,4.816c0.04,0.056,0.09,0.099,0.136,0.147c0.015,0.018,0.022,0.039,0.038,0.056
	c0.011,0.012,0.029,0.016,0.038,0.025c0.144,0.138,0.305,0.243,0.481,0.32c0.034,0.015,0.067,0.024,0.103,0.036
	c0.182,0.065,0.372,0.11,0.565,0.11v0.001h0.002c0.195,0,0.386-0.043,0.574-0.113c0.061-0.021,0.112-0.057,0.167-0.084
	c0.082-0.04,0.166-0.068,0.242-0.122c0.063-0.046,0.116-0.1,0.171-0.151c0.011-0.01,0.024-0.012,0.031-0.022l9.191-9.189
	c0.657-0.657,0.657-1.721,0-2.377C14.887-0.164,13.822-0.164,13.166,0.493"/>
</svg>
