<?xml version="1.0" encoding="utf-8"?>
<!-- Generator: Adobe Illustrator 18.0.0, SVG Export Plug-In . SVG Version: 6.00 Build 0)  -->
<!DOCTYPE svg PUBLIC "-//W3C//DTD SVG 1.1//EN" "http://www.w3.org/Graphics/SVG/1.1/DTD/svg11.dtd">
<svg version="1.1" id="Layer_1" xmlns="http://www.w3.org/2000/svg" xmlns:xlink="http://www.w3.org/1999/xlink" x="0px" y="0px"
	 viewBox="0 0 32 309.8" enable-background="new 0 0 32 309.8" xml:space="preserve">
<path fill="#1D1D24" d="M31.2,7.1l-5-5C26.2,2,24.4,0,22,0h-2.4c-0.4,0-0.8,0.3-0.9,0.7C18.6,0.8,17.9,3,16,3
	c-1.9,0-2.6-2.3-2.7-2.4C13.2,0.3,12.9,0,12.4,0H10C7.6,0,5.8,2,5.8,2.1l-5,5c-0.4,0.4-0.4,0.9,0,1.3l4,4.1c0.4,0.4,1,0.4,1.3,0
	L7.6,11v12.3c0,1,0.8,1.7,1.8,1.7H16h6.6c1,0,1.8-0.8,1.8-1.7V11l1.5,1.5c0.2,0.2,0.4,0.3,0.7,0.3s0.5-0.1,0.7-0.3l4-4.1
	C31.6,8.1,31.6,7.5,31.2,7.1 M26.5,10.5L24.1,8c-0.3-0.3-0.7-0.4-1-0.2c-0.4,0.1-0.6,0.5-0.6,0.9v14.4H16H9.5V8.7
	c0-0.4-0.2-0.7-0.6-0.9C8.6,7.7,8.2,7.8,7.9,8l-2.4,2.5L2.8,7.8l4.4-4.4c0,0,1.4-1.5,2.9-1.5h1.7c0.5,1.1,1.7,3,4.2,3
	c2.5,0,3.7-2,4.2-3H22c1.5,0,2.9,1.5,2.9,1.5l4.4,4.4L26.5,10.5z"/>
<path display="none" fill="#231F20" d="M29,23.9c0-0.1,0-0.1,0-0.2c0-0.1-0.1-0.1-0.1-0.2c0,0,0-0.1-0.1-0.1l-6.3-6.7c0,0,0,0,0,0
	c-0.1-0.1-0.1-0.1-0.2-0.1c0,0-0.1-0.1-0.1-0.1c0,0-0.1,0-0.1,0c-0.1,0-0.1,0-0.2,0c0,0,0,0,0,0h-2.7l9.6-8.1c0,0,0,0,0,0
	c0,0,0.1-0.1,0.1-0.2c0,0,0.1-0.1,0.1-0.1c0,0,0,0,0,0c0-0.1,0-0.1,0-0.2c0-0.1,0-0.1,0-0.1c0,0,0,0,0,0c0,0,0,0,0,0
	c0,0,0-0.1,0-0.1c0,0,0-0.1,0-0.1c0,0,0,0,0,0c0-0.1-0.1-0.1-0.1-0.2c0,0,0-0.1-0.1-0.1c0,0,0,0,0,0l-5.7-6.7c0,0,0,0,0,0
	c0,0-0.1-0.1-0.2-0.1c0,0-0.1-0.1-0.1-0.1c0,0-0.1,0-0.2,0c-0.1,0-0.1,0-0.2,0c0,0,0,0,0,0H2.9c0,0-0.1,0-0.1,0c-0.1,0-0.1,0-0.2,0
	c-0.1,0-0.1,0.1-0.2,0.1c0,0-0.1,0-0.1,0.1c0,0,0,0,0,0c0,0-0.1,0.1-0.1,0.2c0,0-0.1,0.1-0.1,0.1c0,0.1,0,0.1,0,0.2
	c0,0.1,0,0.1,0,0.2c0,0,0,0,0,0C2,1,2,1,2,1.1c0,0.1,0,0.1,0,0.2c0,0.1,0.1,0.1,0.1,0.2c0,0,0,0.1,0.1,0.1l5.7,6.7c0,0,0,0,0,0
	C8,8.3,8.1,8.4,8.2,8.4c0,0,0.1,0,0.1,0.1c0.1,0.1,0.2,0.1,0.4,0.1h3.8L2.3,16.6c0,0,0,0,0,0c0,0,0,0,0,0c0,0,0,0,0,0
	c0,0-0.1,0.1-0.1,0.1c0,0-0.1,0.1-0.1,0.1c0,0,0,0,0,0c0,0,0,0.1,0,0.1c0,0,0,0.1,0,0.1c0,0,0,0,0,0c0,0,0,0,0,0c0,0,0,0.1,0,0.1
	c0,0,0,0.1,0,0.1c0,0,0,0,0,0.1c0,0.1,0.1,0.1,0.1,0.2c0,0,0,0.1,0.1,0.1c0,0,0,0,0,0c0,0,0,0,0,0l5.7,6.7c0,0,0,0,0,0v0
	c0,0,0,0,0,0c0.1,0.1,0.1,0.1,0.2,0.2c0,0,0.1,0,0.1,0.1C8.4,25,8.5,25,8.6,25h19.4c0.1,0,0.2,0,0.3-0.1c0.1,0,0.1-0.1,0.1-0.1
	c0,0,0.1,0,0.1-0.1c0,0,0,0,0,0c0.1-0.1,0.1-0.1,0.1-0.2c0,0,0.1-0.1,0.1-0.1c0,0,0-0.1,0-0.1c0-0.1,0-0.1,0-0.2c0,0,0,0,0,0
	C29,24,29,24,29,23.9 M21.4,18.3l4.6,4.9H11.2l5.8-4.9H21.4z M4.9,18.3h9.1l-5.3,4.5L4.9,18.3z M26.1,6.7h-8.3l5-4L26.1,6.7z
	 M9.1,6.7L4.9,1.9h15.9l-6.1,4.9C14.8,6.7,9.1,6.7,9.1,6.7z M25.5,8.6l-9.3,7.9H5.6l9.8-7.9C15.4,8.6,25.5,8.6,25.5,8.6z"/>
<g>
	<path fill="#1D1D24" d="M30,52.9c0-0.1,0-0.1,0-0.2c0-0.1-0.1-0.1-0.1-0.2c0,0,0-0.1-0.1-0.1l-6.3-6.7c0,0,0,0,0,0
		c-0.1-0.1-0.1-0.1-0.2-0.1c0,0-0.1-0.1-0.1-0.1c0,0-0.1,0-0.1,0c-0.1,0-0.1,0-0.2,0c0,0,0,0,0,0h-2.7l9.6-8.1c0,0,0,0,0,0
		c0,0,0.1-0.1,0.1-0.2c0,0,0.1-0.1,0.1-0.1c0,0,0,0,0,0c0,0,0-0.1,0-0.2c0-0.1,0-0.1,0-0.1c0,0,0,0,0,0c0,0,0,0,0,0c0,0,0-0.1,0-0.1
		c0,0,0-0.1,0-0.1c0,0,0,0,0,0c0-0.1-0.1-0.1-0.1-0.2c0,0,0-0.1-0.1-0.1c0,0,0,0,0,0l-5.7-6.7c0,0,0,0,0,0c0,0-0.1-0.1-0.2-0.1
		c0,0-0.1-0.1-0.1-0.1c0,0-0.1,0-0.2,0c-0.1,0-0.1,0-0.2,0c0,0,0,0,0,0H3.9c0,0-0.1,0-0.1,0c-0.1,0-0.1,0-0.2,0
		c-0.1,0-0.1,0.1-0.2,0.1c0,0-0.1,0-0.1,0.1c0,0,0,0,0,0c0,0-0.1,0.1-0.1,0.2c0,0-0.1,0.1-0.1,0.1c0,0,0,0.1,0,0.2
		c0,0.1,0,0.1,0,0.2c0,0,0,0,0,0c0,0,0,0.1,0,0.1c0,0.1,0,0.1,0,0.2c0,0.1,0.1,0.1,0.1,0.2c0,0,0,0.1,0.1,0.1l5.7,6.7c0,0,0,0,0,0
		c0.1,0.1,0.1,0.1,0.2,0.2c0,0,0,0,0.1,0.1c0.1,0,0.2,0.1,0.4,0.1h3.8L3.3,45.6c0,0,0,0,0,0c0,0,0,0,0,0c0,0,0,0,0,0
		c0,0-0.1,0.1-0.1,0.1c0,0-0.1,0.1-0.1,0.1c0,0,0,0,0,0c0,0,0,0.1,0,0.1c0,0.1,0,0.1,0,0.1c0,0,0,0,0,0c0,0,0,0,0,0c0,0,0,0.1,0,0.1
		c0,0,0,0.1,0,0.1c0,0,0,0,0,0.1c0,0.1,0.1,0.1,0.1,0.2c0,0,0,0.1,0.1,0.1c0,0,0,0,0,0c0,0,0,0,0,0l5.7,6.7c0,0,0,0,0,0c0,0,0,0,0,0
		c0,0,0,0,0,0c0.1,0.1,0.1,0.1,0.2,0.2c0,0,0.1,0,0.1,0.1C9.4,54,9.5,54,9.6,54h19.4c0.1,0,0.2,0,0.3-0.1c0.1,0,0.1-0.1,0.1-0.1
		c0,0,0.1,0,0.1-0.1c0,0,0,0,0,0c0.1-0.1,0.1-0.1,0.1-0.2c0,0,0.1-0.1,0.1-0.1c0,0,0-0.1,0-0.1c0-0.1,0-0.1,0-0.2c0,0,0,0,0,0
		C30,53,30,53,30,52.9z M22.4,47.3l4.6,4.9H12.2l5.8-4.9H22.4z M5.9,47.3h9.1l-5.3,4.5L5.9,47.3z M27.1,35.7h-8.3l5-4L27.1,35.7z
		 M10.1,35.7l-4.1-4.9h15.9l-6.1,4.9H10.1z M26.5,37.6l-9.3,7.9H6.6l9.8-7.9H26.5z"/>
</g>
<path fill="#1D1D24" d="M20,68.3c-0.8-0.4-1.5-0.8-2.2-1.1c-3.4-1.7-4.2-2.2-4.2-4.1c0-1.2,0.6-2,1.7-2.6C17,61.4,18,63,18,64.7
	c0,0.5,0.5,0.9,1,0.9h5.9c0.3,0,0.5-0.1,0.7-0.3c0.2-0.2,0.3-0.4,0.3-0.7c0-3.7-3.3-6.7-7.3-6.7c-1.2,0-2.3,0.2-3.3,0.5
	c-1.7-0.6-3.7-0.6-5.6,0c-2.4,0.8-4.1,2.8-4.4,5.1c-0.5,4.1,3.2,6.2,6,7.8l0.8,0.5c0.3,0.2,0.6,0.4,1,0.5c2,1.1,4.2,2.3,4.3,4.9
	c0,1-0.5,1.9-1.4,2.5c-0.1,0.1-0.3,0.2-0.4,0.2c-1.3-0.9-2.1-2.3-2.1-3.8c0-0.5-0.5-0.9-1-0.9H5.7c-0.3,0-0.5,0.1-0.7,0.3
	c-0.2,0.2-0.3,0.4-0.3,0.7c0,3.7,3.3,6.7,7.3,6.7h0c1.2,0,2.4-0.3,3.5-0.8c1,0.5,2.2,0.8,3.4,0.8c1.9,0,3.7-0.7,5.1-2.1
	c1.3-1.3,2-3,1.9-4.8C25.9,71.7,21,68.8,20,68.3z M18.6,59.9c2.6,0,4.8,1.7,5.3,3.9h-4.1c-0.2-1.5-1-2.8-2.1-3.9
	C18,59.9,18.3,59.9,18.6,59.9z M12,81.2L12,81.2c-2.6,0-4.8-1.7-5.3-3.9h5c0.2,1.4,0.9,2.7,1.9,3.7C13.1,81.1,12.6,81.2,12,81.2z
	 M22.7,79.7c-1,1-2.3,1.5-3.7,1.5c-0.5,0-0.9-0.1-1.3-0.2c1.1-1,1.7-2.3,1.7-3.7c-0.1-3.8-3.2-5.5-5.3-6.6c-0.3-0.2-0.6-0.3-0.9-0.5
	c-0.3-0.2-0.5-0.3-0.8-0.5c-3.2-1.8-5.4-3.3-5.1-5.9c0.2-1.6,1.4-3,3.1-3.6c0.8-0.3,1.7-0.4,2.6-0.4c-0.8,0.9-1.3,2-1.3,3.2
	c0,3.1,1.9,4,5.2,5.8c0.6,0.3,1.4,0.7,2.2,1.1c2.3,1.2,4.9,3.6,5,6.2C24.1,77.5,23.6,78.7,22.7,79.7z"/>
<g>
	<path fill="#1D1D24" d="M28.1,88c0-0.3-0.2-0.5-0.5-0.7c-0.2-0.2-0.5-0.2-0.8-0.1c-2.6,0.8-6.8,1.3-11.3,1.3h0c0,0,0,0,0,0
		c0,0,0,0,0,0c-4.5,0-8.7-0.5-11.3-1.3c-0.3-0.1-0.6,0-0.8,0.1c-0.2,0.2-0.4,0.4-0.5,0.7c-0.1,0.5-1.7,11.8,2.4,17.6
		c2.6,3.8,5.9,5.8,10.1,6.1c0,0,0.1,0,0.1,0c0,0,0,0,0,0c0,0,0,0,0,0c0,0,0.1,0,0.1,0c4.2-0.3,7.5-2.3,10.1-6.1
		C29.8,99.8,28.2,88.5,28.1,88z M24.1,104.5c-1.4,2.1-3.9,4.9-8.6,5.3c-4.7-0.4-7.2-3.2-8.6-5.3c-1.4-2.1-2-5-2.3-7.9
		c0.3,0.1,0.7,0.2,1.1,0.2c0.1,0,0.1,0,0.2,0c0.5,0,0.9-0.3,1-0.8C7,95.6,6.6,95.1,6.1,95c-0.6-0.1-1.1-0.2-1.6-0.4
		c0-2.1,0.1-4,0.2-5.1c2.8,0.7,6.6,1.1,10.7,1.1h0c0,0,0,0,0,0c0,0,0,0,0,0c4.1,0,8-0.4,10.7-1.1c0.1,1.1,0.2,3,0.2,5.1
		c-0.6,0.2-1.2,0.3-1.9,0.5c-0.5,0.1-0.9,0.6-0.8,1.2c0.1,0.5,0.5,0.8,1,0.8c0.1,0,0.1,0,0.2,0c0.5-0.1,1-0.2,1.4-0.3
		C26.1,99.5,25.5,102.5,24.1,104.5z"/>
	<path fill="#1D1D24" d="M13,95.7c-0.8,0-1.6-0.1-2.3-0.1c-0.5-0.1-1,0.4-1.1,0.9c0,0.6,0.4,1,0.9,1.1c0.8,0.1,1.6,0.1,2.4,0.1
		c0,0,0,0,0,0c0.5,0,1-0.4,1-1C14,96.2,13.5,95.7,13,95.7z"/>
	<path fill="#1D1D24" d="M20,95.6c-0.7,0.1-1.5,0.1-2.3,0.1c-0.6,0-1,0.5-1,1c0,0.5,0.5,1,1,1c0,0,0,0,0,0c0.8,0,1.6-0.1,2.4-0.1
		c0.6,0,1-0.5,0.9-1.1C21,96,20.5,95.6,20,95.6z"/>
</g>
<g>
	<g>
		<path fill="#1D1D24" d="M15.5,128.5c-5.2,0-10-2.1-13.6-6c-0.5-0.5-0.4-1.3,0.1-1.8c0.5-0.5,1.3-0.4,1.8,0.1
			c3.2,3.4,7.4,5.2,11.8,5.2s8.7-1.9,11.8-5.2c0.5-0.5,1.3-0.5,1.8-0.1c0.5,0.5,0.5,1.3,0.1,1.8C25.5,126.4,20.7,128.5,15.5,128.5z"
			/>
	</g>
	<g>
		<path fill="#1D1D24" d="M15.5,122.7c-4.1,0-7.9-1.7-10.8-4.8c-0.5-0.5-0.4-1.3,0.1-1.8c0.5-0.5,1.3-0.4,1.8,0.1c2.4,2.6,5.6,4,9,4
			c3.4,0,6.6-1.4,9-4c0.5-0.5,1.3-0.5,1.8-0.1c0.5,0.5,0.5,1.3,0.1,1.8C23.4,121,19.6,122.7,15.5,122.7z"/>
	</g>
	<g>
		<path fill="#1D1D24" d="M28.2,138.7c-0.3,0-0.7-0.1-0.9-0.4c-3.2-3.4-7.4-5.2-11.8-5.2s-8.7,1.9-11.8,5.2
			c-0.5,0.5-1.3,0.5-1.8,0.1c-0.5-0.5-0.5-1.3-0.1-1.8c3.6-3.9,8.5-6,13.6-6c5.2,0,10,2.1,13.6,6c0.5,0.5,0.4,1.3-0.1,1.8
			C28.8,138.6,28.5,138.7,28.2,138.7z"/>
	</g>
	<g>
		<path fill="#1D1D24" d="M25.4,143.5c-0.3,0-0.7-0.1-0.9-0.4c-2.4-2.6-5.6-4-9-4c-3.4,0-6.6,1.4-9,4c-0.5,0.5-1.3,0.5-1.8,0.1
			c-0.5-0.5-0.5-1.3-0.1-1.8c2.9-3.1,6.7-4.8,10.8-4.8c4.1,0,7.9,1.7,10.8,4.8c0.5,0.5,0.4,1.3-0.1,1.8
			C26,143.4,25.7,143.5,25.4,143.5z"/>
	</g>
</g>
<g>
	<g>
		<path fill="#1D1D24" d="M15.5,151.8c-4.2,0-8.3-0.7-11.2-2.1c-0.5-0.3-0.8-0.9-0.5-1.5c0.3-0.5,0.9-0.8,1.5-0.5
			c5.2,2.6,15.4,2.5,21.5-0.1c0.6-0.2,1.2,0,1.4,0.6c0.2,0.6,0,1.2-0.6,1.4C24.3,151,19.9,151.8,15.5,151.8z"/>
	</g>
	<g>
		<path fill="#1D1D24" d="M15.6,155.6c-5,0-9.8-0.8-13.4-2.5c-0.5-0.3-0.8-0.9-0.5-1.5c0.3-0.5,0.9-0.8,1.5-0.5
			c6.6,3.1,18.7,3,25.8-0.2c0.5-0.3,1.2,0,1.4,0.6c0.2,0.6,0,1.2-0.6,1.4C25.9,154.7,20.7,155.6,15.6,155.6z"/>
	</g>
	<g>
		<path fill="#1D1D24" d="M4.8,165c-0.4,0-0.8-0.2-1-0.7c-0.2-0.6,0-1.2,0.6-1.4c6.7-2.9,17.6-2.9,23.3-0.1c0.5,0.3,0.8,0.9,0.5,1.5
			c-0.3,0.5-0.9,0.8-1.5,0.5c-5.2-2.6-15.4-2.5-21.5,0.1C5.1,165,4.9,165,4.8,165z"/>
	</g>
	<g>
		<path fill="#1D1D24" d="M2.7,161.7c-0.4,0-0.8-0.2-1-0.6c-0.2-0.6,0-1.2,0.6-1.4c7.7-3.5,20.4-3.5,27.6-0.1
			c0.5,0.3,0.8,0.9,0.5,1.5c-0.3,0.5-0.9,0.8-1.5,0.5c-6.6-3.1-18.7-3-25.8,0.2C3,161.7,2.8,161.7,2.7,161.7z"/>
	</g>
</g>
<path fill="#1D1D24" d="M25.7,173.1c0,0,0.1-0.1,0.1-0.1l0.7,0.8c0.1,0.1,0.2,0.2,0.4,0.2c0.2,0,0.4-0.1,0.5-0.3l1.3-4
	c0-0.1,0-0.3-0.1-0.4c-0.1-0.2-0.3-0.2-0.5-0.2l-4.1,0.9c-0.2,0-0.3,0.2-0.4,0.3c-0.1,0.2,0,0.3,0.1,0.5l0.8,0.9
	c-0.1,0.1-0.2,0.2-0.3,0.3c-2.4,2.1-5.4,3.3-8.6,3.3c-3.1,0-6-1.1-8.4-3.1l0.8-0.7c0.1-0.1,0.2-0.3,0.1-0.4c0-0.2-0.2-0.3-0.3-0.4
	l-4-1.3c-0.2-0.1-0.4,0-0.5,0.2c-0.1,0.1-0.1,0.3-0.1,0.4l0.9,4.1c0,0.2,0.2,0.4,0.5,0.4c0.1,0,0.2,0,0.3-0.1l0.7-0.6
	c2.1,2.4,3.2,5.3,3.2,8.4c0,3-1,5.8-2.9,8.1l-0.5-0.6c-0.1-0.1-0.2-0.2-0.4-0.2c-0.2,0-0.4,0.1-0.5,0.3l-1.3,4c0,0.1,0,0.3,0.1,0.4
	c0.1,0.1,0.2,0.2,0.4,0.2c0,0,0.1,0,0.1,0l4.1-0.9c0.2,0,0.3-0.2,0.4-0.3c0.1-0.2,0-0.3-0.1-0.5l-0.9-1c2.4-2,5.3-3.1,8.3-3.1
	c3.1,0,6.1,1.1,8.5,3.2l-0.7,0.6c-0.1,0.1-0.2,0.3-0.1,0.5c0,0.2,0.2,0.3,0.3,0.4l4,1.3c0,0,0.1,0,0.1,0c0.1,0,0.3-0.1,0.4-0.2
	c0.1-0.1,0.1-0.3,0.1-0.4l-0.9-4.1c0-0.2-0.2-0.4-0.5-0.4c-0.1,0-0.2,0-0.3,0.1l-0.9,0.8c-2.1-2.4-3.3-5.4-3.3-8.6
	C22.5,178.5,23.7,175.5,25.7,173.1z M9.7,187.7c0.8-1.8,1.2-3.8,1.2-5.9c0-2.1-0.4-4.1-1.3-6c1.9,0.9,4,1.3,6.1,1.3
	c2.1,0,4.2-0.5,6.1-1.3c-0.8,1.8-1.2,3.8-1.2,5.8c0,2.1,0.5,4.2,1.3,6.1c-1.9-0.9-4-1.3-6.1-1.3C13.6,186.4,11.6,186.8,9.7,187.7z"
	/>
<g>
	<g>
		<path fill="#1D1D24" d="M16,223.4c-6.9,0-12.5-5.6-12.5-12.5c0-6.9,5.6-12.5,12.5-12.5s12.5,5.6,12.5,12.5
			C28.5,217.8,22.9,223.4,16,223.4z M16,200c-6,0-10.8,4.9-10.8,10.8c0,6,4.9,10.8,10.8,10.8s10.8-4.9,10.8-10.8
			C26.8,204.9,22,200,16,200z"/>
	</g>
	<g>
		<path fill="#1D1D24" d="M20.3,217.4c-0.1,0-0.3,0-0.4-0.1l-3.8-2l-3.8,2c-0.3,0.2-0.6,0.1-0.9-0.1c-0.3-0.2-0.4-0.5-0.3-0.8
			l0.7-4.2l-3-3c-0.2-0.2-0.3-0.6-0.2-0.9c0.1-0.3,0.4-0.5,0.7-0.6l4.2-0.6l1.9-3.8c0.1-0.3,0.4-0.5,0.8-0.5l0,0
			c0.3,0,0.6,0.2,0.8,0.5l1.9,3.8l4.2,0.6c0.3,0,0.6,0.3,0.7,0.6c0.1,0.3,0,0.7-0.2,0.9l-3,3l0.7,4.2c0.1,0.3-0.1,0.7-0.3,0.8
			C20.6,217.4,20.5,217.4,20.3,217.4z M16.1,213.5c0.1,0,0.3,0,0.4,0.1l2.6,1.4l-0.5-2.9c0-0.3,0-0.6,0.2-0.8l2.1-2.1l-2.9-0.4
			c-0.3,0-0.5-0.2-0.7-0.5l-1.3-2.6l-1.3,2.6c-0.1,0.3-0.4,0.4-0.7,0.5l-2.9,0.4l2.1,2.1c0.2,0.2,0.3,0.5,0.2,0.8l-0.5,2.9l2.6-1.4
			C15.8,213.5,16,213.5,16.1,213.5z"/>
	</g>
</g>
<path fill="#1D1D24" d="M24,244.3l-0.2-0.1c1.7-0.7,2.8-2.7,2.8-4.5c0-1.9-1-3.5-2.5-4.4l5.7-3.9c0.4-0.2,0.4-0.7,0.2-1.1
	c-0.2-0.4-0.7-0.5-1.1-0.2l-6.3,4.4c-0.9-1.4-2.3-2.5-3.8-3c0-0.8-0.3-1.4-0.9-1.9l0.5-0.6c0.3-0.3,0.2-0.8-0.1-1.1
	c-0.3-0.3-0.8-0.2-1.1,0.1l-0.6,0.7c-0.1,0.1-0.1,0.1-0.1,0.2c-0.1,0-0.3,0-0.4,0c-1.5,0-2.7,1.2-2.7,2.6c-1.6,0.6-2.9,1.6-3.8,3
	L3.3,230c-0.4-0.2-0.9-0.2-1.1,0.2C2,230.5,2,231,2.4,231.3l5.7,3.9c-1.5,0.9-2.5,2.5-2.5,4.4c0,1.9,1,3.6,2.8,4.5l-0.2,0.1l-5.8,4
	C2,248.5,2,249,2.2,249.4c0.2,0.2,0.4,0.3,0.7,0.3c0.2,0,0.3,0,0.4-0.1l5.1-3.5l0.4,4.1c0.1,1.1,1,1.9,2.1,1.9h10.6
	c1.1,0,2-0.8,2.1-1.9l0.4-4.1l5.1,3.5c0.1,0.1,0.3,0.1,0.4,0.1c0.3,0,0.5-0.1,0.7-0.3c0.2-0.4,0.2-0.9-0.2-1.1L24,244.3z
	 M17.6,242.7c-1.1,0.5-1.5,0.6-2.7-0.1c-0.3-0.2-0.6-0.3-0.9-0.4l2.1-1.4l2.3,1.6C18.2,242.5,17.9,242.6,17.6,242.7z M14,243.9
	c0,0,0.1,0,0.1,0.1c0.9,0.5,1.5,0.8,2.2,0.8c0.6,0,1.2-0.2,2-0.6c0,0,0,0,0,0l-0.5,6.3h-3.4L14,243.9z M25.1,239.6
	c0,1.2-0.6,2.3-1.6,2.9l0,0c-0.3,0.2-0.5,0.3-0.7,0.4c0,0-0.1,0-0.1,0c-0.2,0.1-0.4,0.1-0.6,0c-0.1-0.1-0.2-0.1-0.3-0.2l-4.3-3
	l5.1-3.5C24.1,236.7,25.1,238.1,25.1,239.6z M16.1,230.2c0.4,0,0.8,0.3,1,0.6c-0.3,0-0.7-0.1-1-0.1c-0.3,0-0.7,0-1,0.1
	C15.3,230.5,15.7,230.2,16.1,230.2z M16.1,232.4c2.1,0,4.1,1.1,5.2,2.8l-5.2,3.6l-5.2-3.6C12.1,233.5,14,232.4,16.1,232.4z
	 M7.2,239.6c0-1.5,1-2.9,2.5-3.4l5.1,3.5l-4.4,3.1c-0.5,0.1-1.1-0.1-1.4-0.2c0,0,0,0,0,0C7.9,242,7.2,240.9,7.2,239.6z M10.4,250
	l-0.5-5l1.2-0.8c0.1,0,0.2-0.1,0.2-0.1c0.4-0.2,0.7-0.4,1.1-0.5l0.4,6.8h-1.9C10.6,250.5,10.4,250.3,10.4,250z M21.9,250
	c0,0.2-0.2,0.4-0.5,0.4h-2l0.5-6.8c0.3,0,0.6,0.2,1.1,0.4l1.4,1L21.9,250z"/>
<g>
	<path fill="none" stroke="#1D1D24" stroke-width="1.5106" stroke-linecap="round" stroke-miterlimit="10" d="M16.1,262.9
		c2.2-2.7,9.6-1.5,9.6,5.7c0,6.1-5.2,8.1-7.1,9.2c-1.8,0.9-2.3,1.4-2.9,1.4s-1.1-0.5-2.9-1.4c-1.4-0.7-7.1-3-7.1-9.1
		c0-7.2,7.5-8.4,9.6-5.7c0,0,0.3,0.4,0.7,1"/>
	<path fill="none" stroke="#1D1D24" stroke-width="1.5106" stroke-linecap="round" stroke-miterlimit="10" d="M17.8,266.2
		c0.6,1.1,2.3,4.5-0.6,9.2"/>
	
		<path fill="none" stroke="#1D1D24" stroke-width="1.5106" stroke-linecap="round" stroke-linejoin="round" stroke-miterlimit="10" d="
		M15.8,259.9c0,0,0.9-4.9,5.7-3.7C21.6,256.2,20.9,260.2,15.8,259.9z"/>
	<path fill="none" stroke="#1D1D24" stroke-width="1.5106" stroke-linecap="round" stroke-miterlimit="10" d="M12.5,258
		c2.2,0.1,3.8,2,3.6,4.1"/>
</g>
<g>
	
		<polygon fill="none" stroke="#1D1D24" stroke-width="1.7927" stroke-linecap="round" stroke-linejoin="round" stroke-miterlimit="10" points="
		27,285.1 15.9,292.7 15.9,285.1 	"/>
	
		<polygon fill="none" stroke="#1D1D24" stroke-width="1.7927" stroke-linecap="round" stroke-linejoin="round" stroke-miterlimit="10" points="
		15.9,292.7 27,285.1 27,292.7 	"/>
	
		<polygon fill="none" stroke="#1D1D24" stroke-width="1.7927" stroke-linecap="round" stroke-linejoin="round" stroke-miterlimit="10" points="
		27,292.7 15.9,300.3 15.9,292.7 	"/>
	
		<polygon fill="none" stroke="#1D1D24" stroke-width="1.7927" stroke-linecap="round" stroke-linejoin="round" stroke-miterlimit="10" points="
		15.9,300.3 27,292.7 27,300.3 	"/>
	
		<polygon fill="none" stroke="#1D1D24" stroke-width="1.7927" stroke-linecap="round" stroke-linejoin="round" stroke-miterlimit="10" points="
		15.9,285.1 4.8,292.7 4.8,285.1 	"/>
	
		<polygon fill="none" stroke="#1D1D24" stroke-width="1.7927" stroke-linecap="round" stroke-linejoin="round" stroke-miterlimit="10" points="
		4.8,292.7 15.9,285.1 15.9,292.7 	"/>
	
		<polygon fill="none" stroke="#1D1D24" stroke-width="1.7927" stroke-linecap="round" stroke-linejoin="round" stroke-miterlimit="10" points="
		15.9,292.7 4.8,300.3 4.8,292.7 	"/>
	
		<polygon fill="none" stroke="#1D1D24" stroke-width="1.7927" stroke-linecap="round" stroke-linejoin="round" stroke-miterlimit="10" points="
		4.8,300.3 15.9,292.7 15.9,300.3 	"/>
	
		<polygon fill="none" stroke="#1D1D24" stroke-width="1.7927" stroke-linecap="round" stroke-linejoin="round" stroke-miterlimit="10" points="
		27,300.3 15.9,308 15.9,300.3 	"/>
	
		<polygon fill="none" stroke="#1D1D24" stroke-width="1.7927" stroke-linecap="round" stroke-linejoin="round" stroke-miterlimit="10" points="
		15.9,308 27,300.3 27,308 	"/>
	
		<polygon fill="none" stroke="#1D1D24" stroke-width="1.7927" stroke-linecap="round" stroke-linejoin="round" stroke-miterlimit="10" points="
		15.9,300.3 4.8,308 4.8,300.3 	"/>
	
		<polygon fill="none" stroke="#1D1D24" stroke-width="1.7927" stroke-linecap="round" stroke-linejoin="round" stroke-miterlimit="10" points="
		4.8,308 15.9,300.3 15.9,308 	"/>
</g>
</svg>
