<?xml version="1.0"?>
<!--Icons from directory ""-->
<svg xmlns="http://www.w3.org/2000/svg" width="52" height="156" viewBox="0 0 52 156"><svg xmlns:xlink="http://www.w3.org/1999/xlink" id="new-globe" xml:space="preserve" viewBox="0 0 52 52" version="1.1" y="0" x="0px" enable-background="new 0 0 52 52" width="52" height="52">		<path d="m45.1 13.9c-2.3-5.6-6.7-10-12.5-12.4-0.4-0.2-0.8-0.3-1.2-0.5-0.3-0.1-0.7 0.1-0.8 0.4s0.1 0.7 0.4 0.8c0.4 0.1 0.8 0.3 1.2 0.4 5.5 2.2 9.7 6.4 11.8 11.7 2 5.1 1.9 10.6-0.3 15.6-4.8 10.7-17.7 15.6-28.8 11.1-0.4-0.2-0.8-0.3-1.1-0.5s-0.7 0-0.8 0.3c-0.2 0.3 0 0.7 0.3 0.9 0.4 0.2 0.8 0.4 1.2 0.5 2.5 1 5 1.6 7.6 1.7v5.8h-8.2c-0.4 0-0.6 0.3-0.6 0.6s0.3 0.6 0.6 0.6h17.6c0.4 0 0.6-0.3 0.6-0.6s-0.3-0.6-0.6-0.6h-8.2v-5.8h0.1c9 0 17.5-5 21.3-13.4 2.4-5.3 2.5-11.2 0.4-16.6" fill="#D4E24E"/>		<path d="m16.5 37.4c2.3 0.9 4.6 1.4 7.1 1.4 7 0 13.4-4 16.2-10.2 1.8-4.1 2-8.6 0.3-12.7-1.7-4.3-5.1-7.8-9.5-9.6-2.2-0.9-4.6-1.4-7-1.4-7 0-13.4 4-16.2 10.2-1.8 4.1-2 8.6-0.3 12.7 1.6 4.3 4.9 7.7 9.4 9.6-0.1 0-0.1 0 0 0m13.6-29.9c0.2 0.1 0.4 0.3 0.6 0.7 0.8 2-0.1 7.5-3.1 14.5l-7.2-3.1c3.5-7.5 7.6-12.1 9.5-12.1 0-0.1 0.1-0.1 0.2 0m-3.1 16.3c-3.6 7.7-7.8 12.5-9.7 12.5-0.1 0-0.2 0-0.3-0.1-0.2-0.1-0.4-0.3-0.5-0.7-0.8-2 0.1-7.7 3.3-14.9l7.2 3.2zm-6.9 13h-0.7c2.9-1.9 6.3-7.2 8.8-12.5l5.3 2.3c-3 6-8.4 10.2-13.4 10.2m8.6-13.7c2.6-5.9 3.9-11.4 3.4-14.4 1.1 0.9 2 2.2 2.6 3.8 1.4 3.6 1.1 8.4-0.7 12.9l-5.3-2.3zm-1.8-16.3h0.8c-2.8 1.9-6.2 6.9-8.6 12.1l-5.3-2.3c3-5.8 8.3-9.8 13.1-9.8m-8.3 13.3c-2.8 6.1-4.1 11.8-3.6 14.9-1.1-0.9-2-2.2-2.7-3.8-1.5-3.8-1.1-8.8 0.9-13.4l5.4 2.3zm5 17.4c4.4-1.4 8.5-5.2 11-10.4l3.7 1.6c-2.7 5.3-8.4 8.8-14.7 8.8m15.3-21.2c1.4 3.6 1.4 7.6-0.1 11.1l-3.7-1.6c2-4.8 2.3-9.9 0.7-13.9-0.1-0.3-0.3-0.6-0.4-0.9 1.5 1.6 2.7 3.3 3.5 5.3m-15.6-10.1c-4.2 1.4-8.2 5-10.7 10l-3.6-1.6c2.8-5.1 8.3-8.4 14.3-8.4m-15.2 21.1c-1.5-3.8-1.4-7.9 0.3-11.6l3.7 1.6c-2.2 4.9-2.5 10.3-0.9 14.3 0.1 0.3 0.2 0.6 0.4 0.9-1.5-1.5-2.7-3.2-3.5-5.2" fill="#D4E24E"/></svg><svg xmlns:xlink="http://www.w3.org/1999/xlink" id="new-location" xml:space="preserve" viewBox="0 0 52 52" version="1.1" y="52" x="0px" enable-background="new 0 0 52 52" width="52" height="52">		<path d="m26.3 0.8c-9.4 0-17.7 8.1-17.7 17.4 0 14.6 12.5 29.1 16.3 33.2 0.5 0.6 1 0.7 1.3 0.8h0.1c0.3 0 0.8-0.1 1.4-0.7 3.8-4 16.3-18.1 16.3-33.2 0-9.4-8.3-17.5-17.7-17.5m0.1 49.4l-0.1 0.1-0.2-0.2c-3.7-4-15.8-17.9-15.8-31.9 0-8.3 7.5-15.6 16-15.6s16 7.3 16 15.6c-0.1 14.8-13.3 29.2-15.9 32" fill="#D4E24E"/>		<path d="m26.3 10.8c-4.2 0-7.6 3.4-7.6 7.6s3.4 7.5 7.6 7.5 7.6-3.4 7.6-7.5c0-4.2-3.4-7.6-7.6-7.6m0 13.3c-3.2 0-5.9-2.6-5.9-5.7 0-3.2 2.6-5.7 5.9-5.7 3.2 0 5.9 2.6 5.9 5.7-0.1 3.1-2.7 5.7-5.9 5.7" fill="#D4E24E"/></svg><svg xmlns:xlink="http://www.w3.org/1999/xlink" id="new-smiley" xml:space="preserve" viewBox="0 0 52 52" version="1.1" y="104" x="0px" enable-background="new 0 0 52 52" width="52" height="52">		<path d="m44.1 7.9c-4.8-4.8-11.3-7.5-18.1-7.5s-13.3 2.7-18.1 7.5c-4.8 4.9-7.5 11.3-7.5 18.1s2.7 13.3 7.5 18.1 11.3 7.5 18.1 7.5 13.3-2.7 18.1-7.5c10-10 10-26.2 0-36.2m-1.4 34.8c-4.5 4.5-10.4 6.9-16.7 6.9s-12.2-2.5-16.7-6.9-6.9-10.4-6.9-16.7 2.4-12.2 6.9-16.7c4.5-4.5 10.4-6.9 16.7-6.9s12.2 2.5 16.7 6.9c9.2 9.2 9.2 24.2 0 33.4" fill="#D4E24E"/>		<path d="m33.9 32.2c-1.9 2-4.7 3.2-7.8 3.2-3.2 0-6.1-1.3-8-3.4-0.4-0.4-1-0.5-1.4-0.1s-0.5 1-0.1 1.4c2.3 2.6 5.7 4.1 9.5 4.1 3.6 0 7-1.4 9.2-3.8 0.4-0.4 0.3-1 0-1.4-0.4-0.4-1-0.4-1.4 0" fill="#D4E24E"/>		<path d="m18.3 23.4c1.3 0 2.3-1 2.3-2.2s-1-2.2-2.3-2.2-2.3 1-2.3 2.2c0 1.3 1 2.2 2.3 2.2" fill="#D4E24E"/>		<path d="m33.7 19.1c-1.3 0-2.3 1-2.3 2.2s1 2.2 2.3 2.2 2.3-1 2.3-2.2-1-2.2-2.3-2.2" fill="#D4E24E"/><rect id="new-smiley-_x3C_Slice_x3E__3_" transform="matrix(.00043185 -1 1 .00043185 -.0077649 51.99)" height="51.2" width="51.2" y=".4" x=".4" fill="none"/></svg></svg>
