<?xml version="1.0" encoding="utf-8"?>
<!-- Generator: Adobe Illustrator 18.1.1, SVG Export Plug-In . SVG Version: 6.00 Build 0)  -->
<svg version="1.1" id="Layer_1" xmlns="http://www.w3.org/2000/svg" xmlns:xlink="http://www.w3.org/1999/xlink" x="0px" y="0px"
	 viewBox="0 0 38 38" enable-background="new 0 0 38 38" xml:space="preserve">
<g>
	<g>
		<g>
			<path fill="#A7A9AC" d="M12.5,2.9L12.5,2.9c1.9,0,3.5,1.1,4.1,2.8C17,6.8,16.9,8,16.4,9c-0.5,1-1.4,1.8-2.6,2.2
				c-0.5,0.2-1,0.3-1.6,0.3c-1.9,0-3.5-1.1-4.1-2.8c-0.4-1-0.3-2.2,0.2-3.2c0.5-1.1,1.4-1.9,2.6-2.3C11.4,3,12,2.9,12.5,2.9z
				 M12.2,10.2c0.4,0,0.8-0.1,1.1-0.2c0.8-0.3,1.5-0.9,1.9-1.6c0.4-0.7,0.4-1.6,0.2-2.3c-0.4-1.2-1.6-2-2.9-2l0,0
				c-0.4,0-0.8,0.1-1.1,0.2c-0.8,0.3-1.5,0.9-1.9,1.7C9.1,6.8,9.1,7.6,9.3,8.3C9.8,9.4,10.9,10.2,12.2,10.2z"/>
		</g>
		<g>
			<path fill="#A7A9AC" d="M22.4,0.7c0.6,0,1.2,0.2,1.6,0.7c1.5,1.8,1.1,6.5,1,7.2c-0.6,2.7-2.1,4.8-4.5,6.2c1,1.4,3.5,5.1,3.6,8.6
				c0.6,0.4,2,1.3,2.7,2.1c2,2.2,4.2,5.4,3.2,10.2c-0.2,1-1.2,1.8-2.3,1.8c-0.2,0-0.3,0-0.5,0c-0.6-0.1-1.2-0.5-1.5-1
				c-0.3-0.5-0.4-1.1-0.3-1.7c0.3-1.6,0.3-4-1.6-5.9c-0.7-0.6-2.1-1.7-2.9-2.2c-0.2-0.1-0.4-0.3-0.5-0.3c-0.4-0.2-0.7-0.2-1-0.2
				c-0.3,0-0.6,0.1-0.9,0.2c-0.2,0.1-0.3,0.2-0.5,0.4c-0.2,0.2-0.5,0.4-0.7,0.6l0,0c-0.3,0.2-0.9,0.7-2.4,1.8c-2,1.5-1.9,4-1.5,5.8
				c0.1,0.6,0,1.2-0.3,1.7c-0.3,0.5-0.9,0.9-1.5,1c-0.2,0-0.3,0-0.5,0c-1.1,0-2.1-0.8-2.3-1.8c-0.9-4.4,0.2-8,3.3-10.3
				c0.8-0.6,2.1-1.6,2.6-2c-0.1-2.7-2.3-5.1-3-5.7c-0.3,0-0.6,0-0.9,0c-3.2,0-5.4-1.7-6.3-2.5c-0.4-0.3-4-4-3.7-6.3
				c0.1-0.7,0.5-1.3,1.2-1.6c0.3-0.1,0.6-0.2,0.9-0.2c1.1,0,1.7,0.9,2.5,2c0.8,1.1,1.8,2.5,3.7,3.7c0.5,0.3,1.1,0.4,1.9,0.4
				c3.1,0,7.4-2.1,8.3-3.7c1.2-2,1.1-4,1-5.6c-0.1-1.5-0.1-3,1.4-3.4C22,0.6,22.2,0.7,22.4,0.7L22.4,0.7z M27.6,36.2
				c0.5,0,1-0.3,1-0.8c0.7-3.4-0.1-6.1-2.9-9.1c-0.8-0.9-2.7-2.1-2.8-2.1l-0.3-0.2l0-0.4c0.1-4-3.7-8.8-3.8-8.8l-0.5-0.6l0.7-0.4
				c2.4-1.2,3.9-3.2,4.5-5.8C23.8,7.6,24,3.4,23,2.1c-0.2-0.3-0.4-0.3-0.6-0.3h0c-0.1,0-0.2,0-0.3,0c-0.5,0.1-0.5,0.6-0.5,2.2
				c0.1,1.7,0.2,3.9-1.2,6.3c-1.2,2.1-6.1,4.3-9.4,4.3c-1,0-1.9-0.2-2.6-0.6c-2-1.3-3.2-2.9-4-4C3.8,9.1,3.4,8.5,2.9,8.5
				c-0.1,0-0.2,0-0.4,0.1C2.2,8.7,2.1,8.9,2.1,9.1c-0.2,1.5,2.6,4.7,3.2,5.2c1.3,1.1,3.1,2.2,5.5,2.2c0.3,0,0.7,0,1-0.1l0.3,0
				l0.2,0.2c0.1,0.1,3.7,3.4,3.6,7.2l0,0.3l-0.3,0.2c0,0-1.8,1.4-2.9,2.2c-2.6,1.9-3.6,5.1-2.8,9c0.1,0.5,0.5,0.8,1,0.8
				c0.1,0,0.2,0,0.2,0c0.3-0.1,0.5-0.2,0.7-0.4c0.1-0.2,0.2-0.4,0.1-0.7C11.4,31.9,12,29.5,14,28c0.7-0.5,2-1.3,2-1.6v0l0.3-0.1
				c0.2-0.2,0.5-0.4,0.8-0.5c0.2-0.2,0.4-0.3,0.6-0.4l0.2-0.1c0.5-0.2,1-0.3,1.4-0.3c0.5,0,1.1,0.1,1.6,0.4l0.1,0.1
				c0.1,0.1,0.3,0.2,0.5,0.4c0.9,0.6,2.4,1.7,3.1,2.4c1.8,1.8,2.5,4.3,2,7.1c0,0.2,0,0.5,0.1,0.7c0.2,0.2,0.4,0.4,0.7,0.4
				C27.5,36.2,27.5,36.2,27.6,36.2z"/>
		</g>
	</g>
	<g>
		<path fill="#A7A9AB" d="M28.5,4.4c3.1,0,8,1.7,9.1,8.4c0.1,0.3-0.2,0.7-0.5,0.7c-0.4,0.1-0.7-0.2-0.7-0.5
			c-1.3-7.9-8.2-7.3-8.5-7.3c-0.4,0-0.7-0.2-0.7-0.6c0-0.4,0.2-0.7,0.6-0.7C28,4.5,28.2,4.4,28.5,4.4z"/>
	</g>
	<g>
		<path fill="#A7A9AB" d="M28.3,7.3c1.2,0,5.4,0.4,6.2,5.6c0.1,0.3-0.2,0.7-0.5,0.7c-0.4,0.1-0.7-0.2-0.7-0.5
			c-0.8-4.9-5-4.5-5.2-4.5c-0.4,0-0.7-0.2-0.7-0.6c0-0.4,0.2-0.7,0.6-0.7C28,7.3,28.1,7.3,28.3,7.3z"/>
	</g>
</g>
<rect display="none" fill="#A7A9AB" width="38" height="38"/>
</svg>
