<?xml version="1.0" encoding="iso-8859-1"?>
<!-- Generator: Adobe Illustrator 18.0.0, SVG Export Plug-In . SVG Version: 6.00 Build 0)  -->
<!DOCTYPE svg PUBLIC "-//W3C//DTD SVG 1.1//EN" "http://www.w3.org/Graphics/SVG/1.1/DTD/svg11.dtd">
<svg version="1.1" id="Layer_1" xmlns="http://www.w3.org/2000/svg" xmlns:xlink="http://www.w3.org/1999/xlink" x="0px" y="0px"
	 viewBox="0 0 51 46.951" style="enable-background:new 0 0 51 46.951;" xml:space="preserve">
<path d="M11.896,25.432c-0.624-0.256-1.884-0.51-2.508-0.766C12.239,16.682,15.09,8.697,18.196,0C28.77,2.083,39.146,4.126,51,6.461
	c-4.609,11.85-8.382,23.088-13.355,33.768c-3.112,6.683-9.751,8.215-16.578,5.339c-5.218-2.198-10.287-4.748-15.498-6.961
	c-5.016-2.13-6.327-5.799-5.185-11.348c6.48,2.626,12.647,5.002,18.683,7.674c0,0,0.192,3.532,1.81,5.596
	c1.569,2.002,4.094,3.143,5.849,3.28c2.41,0.188,5.813-1.511,7.355-3.508c2.566-3.323,4.288-7.411,5.831-11.384
	c2.518-6.484,4.606-13.135,7.173-20.579C38.22,6.564,30.627,4.856,22.951,3.697c-0.542-0.082-2.929-0.475-2.929-0.475
	s-0.927,2.83-1.3,3.668L11.896,25.432z"/>
</svg>
