<?xml version="1.0" encoding="utf-8"?>
<!-- Generator: Adobe Illustrator 15.1.0, SVG Export Plug-In  -->
<!DOCTYPE svg PUBLIC "-//W3C//DTD SVG 1.1//EN" "http://www.w3.org/Graphics/SVG/1.1/DTD/svg11.dtd" [
	<!ENTITY ns_flows "http://ns.adobe.com/Flows/1.0/">
]>
<svg version="1.1"
	 xmlns="http://www.w3.org/2000/svg" xmlns:xlink="http://www.w3.org/1999/xlink" xmlns:a="http://ns.adobe.com/AdobeSVGViewerExtensions/3.0/"
	 x="0px" y="0px" width="150px" height="120px" viewBox="-1.91 -0.99 150 120"
	 overflow="visible" enable-background="new -1.91 -0.99 150 120" xml:space="preserve">
<defs>
</defs>
<path fill="#E4E4E4" d="M138.034,106.624c0,1.26-1.022,2.303-2.297,2.303H10.066c-1.276,0-2.308-1.043-2.308-2.303V21.149
	c0-1.259,1.032-2.297,2.308-2.297h125.671c1.274,0,2.297,1.039,2.297,2.297V106.624z M146.18,21.073
	c0-6.796-3.56-10.363-10.368-10.363H10.364C3.566,10.709,0,14.276,0,21.073v86.191c0,6.791,3.566,10.756,10.364,10.756h125.448
	c6.809,0,10.368-3.965,10.368-10.756V21.073z"/>
<path fill="#E4E4E4" d="M126.768,13.991c0,1.203-0.983,2.181-2.177,2.181h-19.885c-1.209,0-2.187-0.979-2.187-2.181V2.19
	c0-1.201,0.978-2.19,2.187-2.19h19.885c1.193,0,2.177,0.989,2.177,2.19V13.991z"/>
<path fill="#E4E4E4" d="M108.216,13.991c0,1.203-0.982,2.181-2.19,2.181H86.139c-1.197,0-2.171-0.979-2.171-2.181V2.19
	c0-1.201,0.974-2.19,2.171-2.19h19.887c1.208,0,2.19,0.989,2.19,2.19V13.991z"/>
<path fill="#E4E4E4" d="M40.476,41.112c0,1.212-0.968,2.185-2.171,2.185H18.418c-1.197,0-2.176-0.973-2.176-2.185V29.315
	c0-1.207,0.979-2.18,2.176-2.18h19.887c1.203,0,2.171,0.973,2.171,2.18V41.112z"/>
<path fill="#E4E4E4" d="M119.436,64.362c0,14.848-12.091,26.934-26.942,26.934c-14.859,0-26.944-12.086-26.944-26.934
	c0-14.857,12.084-26.943,26.944-26.943C107.345,37.419,119.436,49.505,119.436,64.362z M92.457,29.63
	c-19.122,0-34.675,15.567-34.675,34.696c0,19.123,15.553,34.665,34.675,34.665c19.13,0,34.696-15.542,34.696-34.665
	C127.153,45.197,111.586,29.63,92.457,29.63z"/>
</svg>
