<?xml version="1.0" encoding="utf-8"?>
<!-- Generator: Adobe Illustrator 18.0.0, SVG Export Plug-In . SVG Version: 6.00 Build 0)  -->
<!DOCTYPE svg PUBLIC "-//W3C//DTD SVG 1.1//EN" "http://www.w3.org/Graphics/SVG/1.1/DTD/svg11.dtd">
<svg version="1.1" id="Layer_1" xmlns="http://www.w3.org/2000/svg" xmlns:xlink="http://www.w3.org/1999/xlink" x="0px" y="0px"
	 viewBox="0 0 89.6 30" enable-background="new 0 0 89.6 30" xml:space="preserve" width="90px" height="30px">
<path fill="#231F20" d="M45.4,5.6c-2.6,0-4.6,2.1-4.6,4.7c0,2.6,2.1,4.7,4.6,4.7c2.6,0,4.6-2.1,4.6-4.7C50,7.7,48,5.6,45.4,5.6
	 M45.4,13c-1.5,0-2.8-1.2-2.8-2.8c0-1.5,1.2-2.8,2.8-2.8c1.5,0,2.8,1.2,2.8,2.8C48.2,11.7,46.9,13,45.4,13"/>
<path fill="#231F20" d="M45,0c-5.4,0-10.2,4.7-10.2,10.1c0,8.3,6.9,16.5,9.1,18.8c0.4,0.4,0.7,0.5,1,0.6l0.1,0l0,0
	c0.3,0,0.6-0.1,1.1-0.5c2.1-2.2,9.1-10.2,9.1-18.9C55.2,4.7,50.4,0,45,0 M45,27.4c-1.8-2-8.3-9.8-8.3-17.3c0-4.4,3.9-8.2,8.3-8.2
	c4.4,0,8.3,3.8,8.3,8.2C53.3,17.8,47,25.3,45,27.4"/>
<g>
	<g>
		<path fill="none" d="M25.6,2.5h-22C3,2.5,2.4,3.1,2.4,3.7v23.8h9.8v-7.3h4.9v7.3h9.8V3.7C26.8,3.1,26.3,2.5,25.6,2.5z"/>
		<path fill="#221F1F" d="M25.6,0.1h-22C1.6,0.1,0,1.7,0,3.7V30h29.3V3.7C29.3,1.7,27.6,0.1,25.6,0.1z M26.8,27.6h-9.8v-7.3h-4.9
			v7.3H2.4V3.7c0-0.7,0.5-1.2,1.2-1.2h22c0.7,0,1.2,0.5,1.2,1.2V27.6z"/>
	</g>
	<rect x="12.2" y="13.1" fill="#221F1F" width="4.9" height="3.7"/>
	<rect x="19.5" y="13.1" fill="#221F1F" width="4.9" height="3.7"/>
	<rect x="4.9" y="13.1" fill="#221F1F" width="4.9" height="3.7"/>
	<rect x="12.2" y="6" fill="#221F1F" width="4.9" height="3.7"/>
	<rect x="19.5" y="6" fill="#221F1F" width="4.9" height="3.7"/>
	<rect x="4.9" y="6" fill="#221F1F" width="4.9" height="3.7"/>
	<rect x="19.5" y="20.2" fill="#221F1F" width="4.9" height="3.7"/>
	<rect x="4.9" y="20.2" fill="#221F1F" width="4.9" height="3.7"/>
</g>
<path fill="#231F20" d="M80.4,16L80.4,16L80.4,16c-0.2-0.1-0.2-0.1-0.3-0.1l0,0c0,0-0.1,0-0.1-0.1c0,0,0.1-0.1,0.1-0.1
	c0.2-0.1,0.4-0.3,0.5-0.4l0,0c0,0,0.1-0.1,0.1-0.1c0,0,0.1,0,0.1-0.1l0,0c1.8-1.6,2.8-3.9,2.8-6.3c0-4.7-3.9-8.5-8.6-8.5v0
	c0,0,0,0,0,0c0,0,0,0,0,0v0c-4.8,0-8.6,3.8-8.6,8.5c0,2.4,1,4.7,2.8,6.3l0,0c0,0,0.1,0,0.1,0.1c0,0,0.1,0.1,0.1,0.1l0,0
	c0.2,0.1,0.3,0.3,0.5,0.4c0,0,0.1,0.1,0.1,0.1c0,0-0.1,0-0.1,0.1l0,0c-0.1,0-0.1,0.1-0.2,0.1l-0.1,0l0,0c-6.4,2.7-9.6,6.8-9.6,12.7
	c0,0.7,0.6,1.3,1.3,1.3h13.7H75h13.3c0.7,0,1.3-0.6,1.3-1.3C89.6,22.9,86.5,18.6,80.4,16 M75,28L75,28H62c0.5-4.3,2.8-7.3,8.1-9.5
	l0,0c0.8-0.3,2.2-0.8,2.2-2.5c0-1.3-1-2-1.5-2.4c-0.1-0.1-0.3-0.2-0.4-0.3c-1.4-1.2-1.9-2.9-1.9-4.7c0-3.4,2.9-6.2,6.4-6.2
	c3.5,0,6.4,2.8,6.4,6.2c0,1.8-0.4,3.5-1.8,4.7c-0.1,0.1-0.3,0.2-0.4,0.3c-0.6,0.4-1.5,1.1-1.5,2.4c0,1.7,1.4,2.2,2.2,2.5l0,0
	c5,2.1,7.2,5.1,7.6,9.5H75z"/>
</svg>
