<?xml version="1.0" encoding="utf-8"?>
<!-- Generator: Adobe Illustrator 15.1.0, SVG Export Plug-In  -->
<!DOCTYPE svg PUBLIC "-//W3C//DTD SVG 1.1//EN" "http://www.w3.org/Graphics/SVG/1.1/DTD/svg11.dtd" [
	<!ENTITY ns_flows "http://ns.adobe.com/Flows/1.0/">
]>
<svg version="1.1"
	 xmlns="http://www.w3.org/2000/svg" xmlns:xlink="http://www.w3.org/1999/xlink" xmlns:a="http://ns.adobe.com/AdobeSVGViewerExtensions/3.0/"
	 x="0px" y="0px" width="25px" height="16px" viewBox="0 0 25 16" overflow="visible" enable-background="new 0 0 25 16"
	 xml:space="preserve">
<defs>
</defs>
<path fill="#FFFFFF" d="M24.368,0.568C23.992,0.202,23.489,0,22.954,0L2.007,0.022c-1.098,0.001-1.994,0.867-1.995,1.93L0,13.661
	c-0.001,0.515,0.205,0.999,0.579,1.363c0.376,0.366,0.877,0.568,1.412,0.568h0.002l20.949-0.022
	c1.098-0.002,1.991-0.868,1.993-1.931l0.014-11.709C24.949,1.416,24.742,0.933,24.368,0.568 M21.911,1.733l-9.46,7.831L3.008,1.754
	L21.911,1.733z M22.939,13.838L1.99,13.859c-0.073,0-0.122-0.032-0.149-0.059s-0.059-0.071-0.059-0.138L1.794,3.024l10.656,8.815
	L23.165,2.97l-0.014,10.667C23.151,13.747,23.056,13.838,22.939,13.838"/>
</svg>
