<?xml version="1.0" encoding="utf-8"?>
<!-- Generator: Adobe Illustrator 15.1.0, SVG Export Plug-In  -->
<!DOCTYPE svg PUBLIC "-//W3C//DTD SVG 1.1//EN" "http://www.w3.org/Graphics/SVG/1.1/DTD/svg11.dtd" [
	<!ENTITY ns_flows "http://ns.adobe.com/Flows/1.0/">
]>
<svg version="1.1"
	 xmlns="http://www.w3.org/2000/svg" xmlns:xlink="http://www.w3.org/1999/xlink" xmlns:a="http://ns.adobe.com/AdobeSVGViewerExtensions/3.0/"
	 x="0px" y="0px" width="20px" height="20px" viewBox="0 -0.917 20 20" overflow="visible" enable-background="new 0 -0.917 20 20"
	 xml:space="preserve">
<defs>
</defs>
<path fill-rule="evenodd" clip-rule="evenodd" fill="#231F20" d="M18.733,7.797h-6.579l3.289-5.868
	c0.346-0.615,0.141-1.401-0.456-1.757c-0.598-0.355-1.362-0.144-1.706,0.472l-3.29,5.868l-3.29-5.868
	C6.357,0.028,5.593-0.183,4.996,0.172C4.398,0.528,4.194,1.314,4.539,1.929l3.29,5.868h-6.58C0.559,7.797,0,8.372,0,9.083
	c0,0.71,0.559,1.286,1.249,1.286h6.58l-3.29,5.867c-0.345,0.615-0.141,1.401,0.457,1.758c0.597,0.354,1.362,0.144,1.706-0.472
	l3.29-5.868l3.29,5.868c0.344,0.615,1.108,0.826,1.706,0.472c0.597-0.356,0.802-1.143,0.456-1.758l-3.289-5.867h6.579
	c0.69,0,1.249-0.576,1.249-1.286C19.982,8.372,19.424,7.797,18.733,7.797"/>
</svg>
