<?xml version="1.0" encoding="utf-8"?>
<!-- Generator: Adobe Illustrator 15.1.0, SVG Export Plug-In  -->
<!DOCTYPE svg PUBLIC "-//W3C//DTD SVG 1.1//EN" "http://www.w3.org/Graphics/SVG/1.1/DTD/svg11.dtd" [
	<!ENTITY ns_flows "http://ns.adobe.com/Flows/1.0/">
]>
<svg version="1.1"
	 xmlns="http://www.w3.org/2000/svg" xmlns:xlink="http://www.w3.org/1999/xlink" xmlns:a="http://ns.adobe.com/AdobeSVGViewerExtensions/3.0/"
	 x="0px" y="0px" width="101px" height="38px" viewBox="0 -0.276 101 38"
	 overflow="visible" enable-background="new 0 -0.276 101 38" xml:space="preserve">
<defs>
</defs>
<polygon fill="#DAE251" points="32.851,10.776 53.966,16.858 46.163,21.907 24.243,14.677 "/>
<polygon fill="#DAE251" points="32.851,9.857 46.852,2.973 38.128,0.333 24.243,7.332 "/>
<polygon fill="#DAE251" points="47.738,2.973 53.204,0 73.705,4.233 67.852,7.908 "/>
<polygon fill="#DAE251" points="56.705,16.524 68.195,8.824 78.151,11.349 68.195,20.071 "/>
<polygon fill="#DAE251" points="33.093,19.086 33.093,28.436 54.356,37.446 54.356,18.104 46.202,23.61 "/>
<polygon fill="#DAE251" points="55.723,17.592 55.723,37.446 67.429,25.917 67.429,21.349 "/>
<polygon fill="#DAE251" points="46.852,4.133 46.852,13.731 48.113,14.033 48.113,4.133 "/>
<rect x="80.865" y="21.334" fill="#DAE251" width="14.882" height="1.146"/>
<polygon fill="#DAE251" points="100.868,21.796 94.81,17.28 94.81,26.533 "/>
<rect x="5.121" y="21.334" fill="#DAE251" width="14.882" height="1.146"/>
<polygon fill="#DAE251" points="0,21.796 6.059,17.28 6.059,26.533 "/>
</svg>
