<?xml version="1.0" encoding="utf-8"?>
<!-- Generator: Adobe Illustrator 15.1.0, SVG Export Plug-In  -->
<!DOCTYPE svg PUBLIC "-//W3C//DTD SVG 1.1//EN" "http://www.w3.org/Graphics/SVG/1.1/DTD/svg11.dtd" [
	<!ENTITY ns_flows "http://ns.adobe.com/Flows/1.0/">
]>
<svg version="1.1"
	 xmlns="http://www.w3.org/2000/svg" xmlns:xlink="http://www.w3.org/1999/xlink" xmlns:a="http://ns.adobe.com/AdobeSVGViewerExtensions/3.0/"
	 x="0px" y="0px" width="27px" height="26px" viewBox="-0.884 0 27 26" overflow="visible" enable-background="new -0.884 0 27 26"
	 xml:space="preserve">
<defs>
</defs>
<path fill-rule="evenodd" clip-rule="evenodd" fill="#FFFFFF" d="M3.369,0h19.509c1.853,0,3.369,1.517,3.369,3.368v19.51
	c0,1.854-1.516,3.369-3.369,3.369H3.369C1.516,26.247,0,24.731,0,22.878V3.368C0,1.517,1.516,0,3.369,0 M19.12,2.916
	c-0.65,0-1.182,0.532-1.182,1.182v2.829c0,0.649,0.532,1.182,1.182,1.182h2.967c0.649,0,1.181-0.532,1.181-1.182V4.098
	c0-0.649-0.532-1.182-1.181-1.182H19.12z M23.28,11.101H20.97c0.219,0.714,0.337,1.469,0.337,2.252c0,4.365-3.653,7.904-8.159,7.904
	c-4.505,0-8.158-3.539-8.158-7.904c0-0.783,0.119-1.538,0.337-2.252H2.916v11.087c0,0.573,0.47,1.043,1.044,1.043h18.277
	c0.574,0,1.043-0.47,1.043-1.043V11.101z M13.148,7.958c-2.911,0-5.271,2.287-5.271,5.108c0,2.82,2.36,5.107,5.271,5.107
	c2.912,0,5.272-2.287,5.272-5.107C18.42,10.245,16.06,7.958,13.148,7.958"/>
</svg>
