<?xml version="1.0"?>
<!--Icons from directory ""-->
<svg xmlns="http://www.w3.org/2000/svg" width="123" height="233" viewBox="0 0 123 233"><svg xmlns:xlink="http://www.w3.org/1999/xlink" xml:space="preserve" height="58" width="58" version="1.1" y="0" x="0px" overflow="visible" viewBox="-5 -5 58 58" enable-background="new 0 0 48 48" id="icon-heart"><path fill="#dae252" clip-rule="evenodd" d="m33.29 17.217c-2.558-2.532-6.643-2.586-9.292-0.203-2.646-2.383-6.732-2.329-9.289 0.203-2.635 2.607-2.635 6.837 0 9.445 0.752 0.746 7.783 7.707 7.783 7.707 0.833 0.824 2.181 0.824 3.015 0 0 0 7.696-7.621 7.783-7.707 2.633-2.608 2.633-6.838 0-9.445m-1.005 8.45l-7.785 7.706c-0.275 0.275-0.728 0.275-1.004 0l-7.781-7.705c-2.078-2.056-2.078-5.4 0-7.457 2.002-1.982 5.222-2.053 7.328-0.156l0.955 0.857 0.957-0.857c2.106-1.896 5.327-1.826 7.33 0.156 2.076 2.057 2.076 5.4 0 7.456" fill-rule="evenodd"/><g fill="none"><g stroke="#dae252" stroke-miterlimit="10"><path stroke-width=".5" d="m33.29 17.217c-2.558-2.532-6.643-2.586-9.292-0.203-2.646-2.383-6.732-2.329-9.289 0.203-2.635 2.607-2.635 6.837 0 9.445 0.752 0.746 7.783 7.707 7.783 7.707 0.833 0.824 2.181 0.824 3.015 0 0 0 7.696-7.621 7.783-7.707 2.633-2.608 2.633-6.838 0-9.445z"/><path d="m32.285 25.667l-7.785 7.706c-0.275 0.275-0.728 0.275-1.004 0l-7.781-7.705c-2.078-2.056-2.078-5.4 0-7.457 2.002-1.982 5.222-2.053 7.328-0.156l0.955 0.857 0.957-0.857c2.106-1.896 5.327-1.826 7.33 0.156 2.076 2.057 2.076 5.4 0 7.456z"/><path d="m30.62 19.854c1.152 1.15 1.149 3.018-0.005 4.169" stroke-linecap="round" stroke-width="2"/></g><rect y="14.919" x="12.381" height="20.42" width="23.237"/><circle r="23" cy="24" stroke="#dae252" cx="24" stroke-miterlimit="10" stroke-width="2"/></g></svg><svg xmlns:xlink="http://www.w3.org/1999/xlink" xml:space="preserve" height="58" width="58" version="1.1" y="58" x="0px" overflow="visible" viewBox="-5 -5 58 58" enable-background="new 0 0 48 48" id="icon-instructors"><path d="m33.253 24.221l0.002-0.002-0.041-0.016c-0.034-0.014-0.064-0.029-0.098-0.042l-0.002 0.003c-0.019-0.007-0.038-0.015-0.058-0.022 0.02-0.014 0.039-0.028 0.057-0.041 0.086-0.06 0.165-0.127 0.244-0.194l0.004 0.003c0.02-0.015 0.035-0.033 0.053-0.049 0.012-0.01 0.027-0.018 0.037-0.028l-0.003-0.003c0.831-0.744 1.309-1.79 1.309-2.896 0-2.155-1.783-3.908-3.983-3.926v-0.002c-0.005 0-0.011 0.001-0.017 0.001s-0.012-0.001-0.018-0.001v0.002c-2.199 0.018-3.982 1.771-3.982 3.926 0 1.105 0.479 2.152 1.309 2.896l-0.002 0.003c0.011 0.011 0.023 0.018 0.035 0.028 0.018 0.016 0.033 0.035 0.053 0.049l0.004-0.003c0.08 0.067 0.159 0.134 0.244 0.194 0.018 0.013 0.037 0.027 0.057 0.041-0.02 0.008-0.039 0.015-0.058 0.022l-0.001-0.003c-0.036 0.014-0.069 0.03-0.104 0.044l-0.034 0.014 0.001 0.002c-0.876 0.366-1.604 0.798-2.217 1.283 0.263 0.297 0.481 0.628 0.661 0.98 0.55-0.45 1.233-0.845 2.066-1.189l0.02-0.008c0.361-0.14 0.967-0.374 0.967-1.118 0-0.565-0.42-0.861-0.672-1.039-0.06-0.042-0.118-0.084-0.172-0.131-0.615-0.522-0.97-1.273-0.97-2.065 0-1.505 1.261-2.729 2.813-2.738 1.552 0.009 2.812 1.233 2.812 2.738 0 0.792-0.354 1.543-0.968 2.065-0.055 0.047-0.113 0.089-0.173 0.131-0.25 0.177-0.671 0.474-0.671 1.039 0 0.745 0.604 0.979 0.965 1.118l0.017 0.006c2.211 0.913 3.353 2.254 3.541 4.189h-9.008c-0.034 0.404-0.115 0.804-0.235 1.188h9.863c0.328 0 0.594-0.267 0.594-0.594 0-2.704-1.429-4.674-4.241-5.855z" fill="#dae252"/><path d="m22.707 22.711c3.471 1.458 5.234 3.887 5.234 7.227 0 0.405-0.327 0.733-0.732 0.733h-15.401c-0.404 0-0.732-0.328-0.732-0.733 0-3.327 1.793-5.692 5.469-7.227l-0.004-0.002 0.044-0.018c0.046-0.018 0.085-0.037 0.13-0.055l0.002 0.004c0.021-0.009 0.047-0.018 0.07-0.027-0.023-0.019-0.05-0.036-0.07-0.05-0.106-0.075-0.203-0.158-0.301-0.241l-0.006 0.005c-0.021-0.019-0.041-0.042-0.062-0.061-0.015-0.013-0.033-0.021-0.045-0.035l0.001-0.004c-1.024-0.918-1.613-2.209-1.613-3.574 0-2.659 2.2-4.824 4.912-4.846v-0.002c0.011 0 0.016 0.001 0.023 0.001s0.014-0.001 0.023-0.001v0.002c2.714 0.022 4.913 2.187 4.913 4.846 0 1.365-0.588 2.656-1.615 3.574l0.004 0.004c-0.013 0.013-0.031 0.022-0.047 0.035-0.021 0.02-0.039 0.042-0.062 0.061l-0.006-0.005c-0.096 0.083-0.194 0.166-0.301 0.241-0.021 0.014-0.047 0.032-0.07 0.05 0.023 0.009 0.047 0.019 0.07 0.027l0.004-0.004c0.041 0.017 0.078 0.035 0.12 0.051l0.05 0.021-0.002 0.003m3.423 6.428c-0.223-2.282-1.486-4.187-4.095-5.264l-0.019-0.007c-0.427-0.165-1.139-0.439-1.139-1.319 0-0.666 0.497-1.015 0.792-1.224 0.068-0.05 0.14-0.1 0.205-0.155 0.723-0.616 1.141-1.501 1.141-2.436 0-1.773-1.486-3.217-3.316-3.228-1.829 0.011-3.316 1.455-3.316 3.228 0 0.935 0.417 1.82 1.142 2.436 0.064 0.055 0.134 0.104 0.204 0.155 0.296 0.209 0.792 0.558 0.792 1.224 0 0.879-0.716 1.154-1.142 1.319l-0.021 0.01c-2.736 1.127-4.231 3.032-4.469 5.261h13.241z" fill="#dae252"/><circle r="23" cy="24" stroke="#dae252" cx="24" stroke-miterlimit="10" stroke-width="2" fill="none"/></svg><svg xmlns:xlink="http://www.w3.org/1999/xlink" xml:space="preserve" height="58" width="58" version="1.1" y="116" x="0px" overflow="visible" viewBox="-5 -5 58 58" enable-background="new 0 0 48 48" id="icon-money"><circle r="23" cy="24" stroke="#dae252" cx="24" stroke-miterlimit="10" stroke-width="2" fill="none"/>	<defs>		<rect id="icon-money-SVGID_1_" y="9.14" x="9.002" height="29.52" width="29.519"/>	</defs>	<clipPath id="icon-money-SVGID_2_">		<use overflow="visible" xlink:href="#icon-money-SVGID_1_"/>	</clipPath>	<path fill="#dae252" fill-rule="evenodd" clip-rule="evenodd" d="m37.98 18.905l-9.225-9.225c-0.457-0.458-1.12-0.641-1.748-0.486-0.332 0.08-0.627 0.251-0.861 0.486-0.209 0.209-0.368 0.469-0.458 0.758-0.419 1.355-1.142 2.533-2.21 3.603-1.427 1.426-3.287 2.507-5.255 3.65-2.089 1.21-4.245 2.464-6.014 4.231-1.502 1.504-2.527 3.179-3.125 5.121-0.202 0.657-0.026 1.367 0.458 1.851l9.225 9.225c0.457 0.458 1.12 0.642 1.748 0.487 0.332-0.083 0.627-0.253 0.861-0.487 0.209-0.209 0.368-0.468 0.458-0.76 0.418-1.355 1.142-2.533 2.211-3.602 1.427-1.427 3.286-2.507 5.255-3.648 2.088-1.213 4.245-2.467 6.014-4.234 1.503-1.502 2.526-3.179 3.125-5.121 0.202-0.654 0.026-1.366-0.459-1.849m-17.909 17.91c-3.056-3.056-6.168-6.171-9.225-9.226 2.622-8.487 13.984-8.116 16.605-16.604 3.056 3.055 6.171 6.17 9.226 9.225-2.622 8.486-13.985 8.117-16.606 16.605" clip-path="url(#icon-money-SVGID_2_)"/>	<path fill="#dae252" fill-rule="evenodd" clip-rule="evenodd" d="m27.046 22.885c-0.301-0.252-0.604-0.424-0.908-0.507-0.302-0.085-0.604-0.119-0.911-0.098-0.303 0.023-0.612 0.092-0.923 0.211-0.31 0.12-0.621 0.252-0.935 0.403-0.496-0.569-0.991-1.131-1.486-1.654 0.223-0.203 0.439-0.305 0.648-0.312 0.209-0.009 0.411 0.013 0.602 0.062 0.194 0.047 0.373 0.089 0.537 0.122 0.166 0.033 0.31-0.003 0.436-0.11 0.134-0.116 0.208-0.265 0.219-0.445 0.009-0.182-0.06-0.358-0.211-0.531-0.195-0.223-0.429-0.359-0.71-0.41-0.277-0.048-0.562-0.044-0.857 0.021-0.292 0.066-0.569 0.176-0.833 0.331-0.263 0.155-0.474 0.314-0.631 0.469-0.06-0.057-0.12-0.114-0.18-0.17-0.066-0.061-0.149-0.093-0.249-0.091-0.101 0-0.184 0.043-0.252 0.123-0.066 0.077-0.098 0.167-0.085 0.262 0.01 0.099 0.049 0.175 0.117 0.233 0.062 0.05 0.12 0.101 0.181 0.153-0.236 0.284-0.431 0.6-0.584 0.932-0.155 0.333-0.247 0.663-0.281 0.983-0.036 0.323-0.002 0.618 0.098 0.892 0.099 0.275 0.281 0.509 0.548 0.731 0.434 0.359 0.945 0.514 1.538 0.479 0.591-0.035 1.229-0.213 1.914-0.58 0.545 0.629 1.091 1.254 1.636 1.834-0.23 0.196-0.433 0.307-0.611 0.343-0.178 0.038-0.337 0.034-0.48-0.009-0.145-0.045-0.277-0.11-0.4-0.193-0.122-0.084-0.243-0.156-0.363-0.216-0.119-0.06-0.242-0.092-0.368-0.094s-0.259 0.06-0.407 0.186c-0.151 0.132-0.227 0.285-0.227 0.458 0 0.171 0.079 0.346 0.234 0.522 0.156 0.177 0.36 0.324 0.606 0.441 0.247 0.117 0.524 0.19 0.831 0.211s0.629-0.025 0.97-0.151c0.342-0.125 0.681-0.35 1.014-0.685 0.161 0.156 0.323 0.306 0.485 0.45 0.068 0.06 0.15 0.088 0.252 0.081 0.097-0.004 0.182-0.049 0.248-0.13 0.069-0.083 0.098-0.175 0.087-0.271-0.009-0.097-0.049-0.171-0.115-0.225-0.162-0.13-0.324-0.267-0.486-0.411 0.275-0.339 0.497-0.695 0.661-1.049s0.261-0.697 0.294-1.014c0.032-0.319-0.006-0.608-0.11-0.869-0.106-0.262-0.289-0.489-0.553-0.708m-5.156 0.626c-0.261 0.011-0.489-0.076-0.688-0.269-0.084-0.081-0.144-0.18-0.18-0.297-0.038-0.118-0.051-0.246-0.036-0.386 0.013-0.139 0.054-0.283 0.126-0.429 0.068-0.146 0.169-0.291 0.299-0.432 0.469 0.465 0.934 0.975 1.402 1.502-0.354 0.196-0.662 0.3-0.923 0.311m4.351 1.847c-0.083 0.152-0.179 0.29-0.29 0.408-0.517-0.522-1.033-1.095-1.55-1.685 0.132-0.059 0.271-0.121 0.42-0.184s0.299-0.104 0.448-0.13c0.153-0.023 0.305-0.016 0.456 0.02 0.149 0.038 0.292 0.119 0.424 0.247 0.129 0.13 0.212 0.266 0.244 0.411 0.036 0.147 0.038 0.298 0.013 0.45-0.026 0.154-0.081 0.308-0.165 0.463" clip-path="url(#icon-money-SVGID_2_)"/></svg><svg xmlns:xlink="http://www.w3.org/1999/xlink" xml:space="preserve" height="59" width="59" version="1.1" y="174" x="0px" overflow="visible" viewBox="-5 -5 59 59" enable-background="new 0 0 49 49" id="icon-zin"><circle r="23" cy="24.892" stroke="#dae252" cx="24.508" stroke-miterlimit="10" stroke-width="2" fill="none"/><g fill="#dae252"><path d="m12.046 30.767v-1.853l5.764-7.663h-5.444v-2.081h8.326v1.853l-5.81 7.663h5.81v2.081h-8.646z"/><path d="m23 16.883v-2.47h2.469v2.47h-2.469zm0.068 13.884v-11.597h2.332v11.597h-2.332z"/><path d="m35.029 30.767v-7.068c0-1.807-1.029-2.584-2.334-2.584-1.303 0-2.4 0.8-2.4 2.584v7.068h-2.334v-11.597h2.287v1.167c0.801-0.869 1.922-1.304 3.088-1.304 1.189 0 2.174 0.389 2.859 1.052 0.893 0.869 1.168 1.967 1.168 3.271v7.411h-2.334z"/></g><rect id="icon-zin-_x3C_Slice_x3E__1_" width="49" height="49" fill="none"/></svg>

<svg xmlns:xlink="http://www.w3.org/1999/xlink" xml:space="preserve" height="58" width="58" version="1.1" y="0" x="64px" overflow="visible" viewBox="-5 -5 58 58" enable-background="new 0 0 48 48" id="icon-heart"><path fill="#231F20" clip-rule="evenodd" d="m33.29 17.217c-2.558-2.532-6.643-2.586-9.292-0.203-2.646-2.383-6.732-2.329-9.289 0.203-2.635 2.607-2.635 6.837 0 9.445 0.752 0.746 7.783 7.707 7.783 7.707 0.833 0.824 2.181 0.824 3.015 0 0 0 7.696-7.621 7.783-7.707 2.633-2.608 2.633-6.838 0-9.445m-1.005 8.45l-7.785 7.706c-0.275 0.275-0.728 0.275-1.004 0l-7.781-7.705c-2.078-2.056-2.078-5.4 0-7.457 2.002-1.982 5.222-2.053 7.328-0.156l0.955 0.857 0.957-0.857c2.106-1.896 5.327-1.826 7.33 0.156 2.076 2.057 2.076 5.4 0 7.456" fill-rule="evenodd"/><g fill="none"><g stroke="#231F20" stroke-miterlimit="10"><path stroke-width=".5" d="m33.29 17.217c-2.558-2.532-6.643-2.586-9.292-0.203-2.646-2.383-6.732-2.329-9.289 0.203-2.635 2.607-2.635 6.837 0 9.445 0.752 0.746 7.783 7.707 7.783 7.707 0.833 0.824 2.181 0.824 3.015 0 0 0 7.696-7.621 7.783-7.707 2.633-2.608 2.633-6.838 0-9.445z"/><path d="m32.285 25.667l-7.785 7.706c-0.275 0.275-0.728 0.275-1.004 0l-7.781-7.705c-2.078-2.056-2.078-5.4 0-7.457 2.002-1.982 5.222-2.053 7.328-0.156l0.955 0.857 0.957-0.857c2.106-1.896 5.327-1.826 7.33 0.156 2.076 2.057 2.076 5.4 0 7.456z"/><path d="m30.62 19.854c1.152 1.15 1.149 3.018-0.005 4.169" stroke-linecap="round" stroke-width="2"/></g><rect y="14.919" x="12.381" height="20.42" width="23.237"/><circle r="23" cy="24" stroke="#231F20" cx="24" stroke-miterlimit="10" stroke-width="2"/></g></svg><svg xmlns:xlink="http://www.w3.org/1999/xlink" xml:space="preserve" height="58" width="58" version="1.1" y="58" x="64px" overflow="visible" viewBox="-5 -5 58 58" enable-background="new 0 0 48 48" id="icon-instructors"><path d="m33.253 24.221l0.002-0.002-0.041-0.016c-0.034-0.014-0.064-0.029-0.098-0.042l-0.002 0.003c-0.019-0.007-0.038-0.015-0.058-0.022 0.02-0.014 0.039-0.028 0.057-0.041 0.086-0.06 0.165-0.127 0.244-0.194l0.004 0.003c0.02-0.015 0.035-0.033 0.053-0.049 0.012-0.01 0.027-0.018 0.037-0.028l-0.003-0.003c0.831-0.744 1.309-1.79 1.309-2.896 0-2.155-1.783-3.908-3.983-3.926v-0.002c-0.005 0-0.011 0.001-0.017 0.001s-0.012-0.001-0.018-0.001v0.002c-2.199 0.018-3.982 1.771-3.982 3.926 0 1.105 0.479 2.152 1.309 2.896l-0.002 0.003c0.011 0.011 0.023 0.018 0.035 0.028 0.018 0.016 0.033 0.035 0.053 0.049l0.004-0.003c0.08 0.067 0.159 0.134 0.244 0.194 0.018 0.013 0.037 0.027 0.057 0.041-0.02 0.008-0.039 0.015-0.058 0.022l-0.001-0.003c-0.036 0.014-0.069 0.03-0.104 0.044l-0.034 0.014 0.001 0.002c-0.876 0.366-1.604 0.798-2.217 1.283 0.263 0.297 0.481 0.628 0.661 0.98 0.55-0.45 1.233-0.845 2.066-1.189l0.02-0.008c0.361-0.14 0.967-0.374 0.967-1.118 0-0.565-0.42-0.861-0.672-1.039-0.06-0.042-0.118-0.084-0.172-0.131-0.615-0.522-0.97-1.273-0.97-2.065 0-1.505 1.261-2.729 2.813-2.738 1.552 0.009 2.812 1.233 2.812 2.738 0 0.792-0.354 1.543-0.968 2.065-0.055 0.047-0.113 0.089-0.173 0.131-0.25 0.177-0.671 0.474-0.671 1.039 0 0.745 0.604 0.979 0.965 1.118l0.017 0.006c2.211 0.913 3.353 2.254 3.541 4.189h-9.008c-0.034 0.404-0.115 0.804-0.235 1.188h9.863c0.328 0 0.594-0.267 0.594-0.594 0-2.704-1.429-4.674-4.241-5.855z" fill="#231F20"/><path d="m22.707 22.711c3.471 1.458 5.234 3.887 5.234 7.227 0 0.405-0.327 0.733-0.732 0.733h-15.401c-0.404 0-0.732-0.328-0.732-0.733 0-3.327 1.793-5.692 5.469-7.227l-0.004-0.002 0.044-0.018c0.046-0.018 0.085-0.037 0.13-0.055l0.002 0.004c0.021-0.009 0.047-0.018 0.07-0.027-0.023-0.019-0.05-0.036-0.07-0.05-0.106-0.075-0.203-0.158-0.301-0.241l-0.006 0.005c-0.021-0.019-0.041-0.042-0.062-0.061-0.015-0.013-0.033-0.021-0.045-0.035l0.001-0.004c-1.024-0.918-1.613-2.209-1.613-3.574 0-2.659 2.2-4.824 4.912-4.846v-0.002c0.011 0 0.016 0.001 0.023 0.001s0.014-0.001 0.023-0.001v0.002c2.714 0.022 4.913 2.187 4.913 4.846 0 1.365-0.588 2.656-1.615 3.574l0.004 0.004c-0.013 0.013-0.031 0.022-0.047 0.035-0.021 0.02-0.039 0.042-0.062 0.061l-0.006-0.005c-0.096 0.083-0.194 0.166-0.301 0.241-0.021 0.014-0.047 0.032-0.07 0.05 0.023 0.009 0.047 0.019 0.07 0.027l0.004-0.004c0.041 0.017 0.078 0.035 0.12 0.051l0.05 0.021-0.002 0.003m3.423 6.428c-0.223-2.282-1.486-4.187-4.095-5.264l-0.019-0.007c-0.427-0.165-1.139-0.439-1.139-1.319 0-0.666 0.497-1.015 0.792-1.224 0.068-0.05 0.14-0.1 0.205-0.155 0.723-0.616 1.141-1.501 1.141-2.436 0-1.773-1.486-3.217-3.316-3.228-1.829 0.011-3.316 1.455-3.316 3.228 0 0.935 0.417 1.82 1.142 2.436 0.064 0.055 0.134 0.104 0.204 0.155 0.296 0.209 0.792 0.558 0.792 1.224 0 0.879-0.716 1.154-1.142 1.319l-0.021 0.01c-2.736 1.127-4.231 3.032-4.469 5.261h13.241z" fill="#231F20"/><circle r="23" cy="24" stroke="#231F20" cx="24" stroke-miterlimit="10" stroke-width="2" fill="none"/></svg><svg xmlns:xlink="http://www.w3.org/1999/xlink" xml:space="preserve" height="58" width="58" version="1.1" y="116" x="64px" overflow="visible" viewBox="-5 -5 58 58" enable-background="new 0 0 48 48" id="icon-money"><circle r="23" cy="24" stroke="#231F20" cx="24" stroke-miterlimit="10" stroke-width="2" fill="none"/>	<defs>		<rect id="icon-money-SVGID_1_" y="9.14" x="9.002" height="29.52" width="29.519"/>	</defs>	<clipPath id="icon-money-SVGID_2_">		<use overflow="visible" xlink:href="#icon-money-SVGID_1_"/>	</clipPath>	<path fill="#231F20" fill-rule="evenodd" clip-rule="evenodd" d="m37.98 18.905l-9.225-9.225c-0.457-0.458-1.12-0.641-1.748-0.486-0.332 0.08-0.627 0.251-0.861 0.486-0.209 0.209-0.368 0.469-0.458 0.758-0.419 1.355-1.142 2.533-2.21 3.603-1.427 1.426-3.287 2.507-5.255 3.65-2.089 1.21-4.245 2.464-6.014 4.231-1.502 1.504-2.527 3.179-3.125 5.121-0.202 0.657-0.026 1.367 0.458 1.851l9.225 9.225c0.457 0.458 1.12 0.642 1.748 0.487 0.332-0.083 0.627-0.253 0.861-0.487 0.209-0.209 0.368-0.468 0.458-0.76 0.418-1.355 1.142-2.533 2.211-3.602 1.427-1.427 3.286-2.507 5.255-3.648 2.088-1.213 4.245-2.467 6.014-4.234 1.503-1.502 2.526-3.179 3.125-5.121 0.202-0.654 0.026-1.366-0.459-1.849m-17.909 17.91c-3.056-3.056-6.168-6.171-9.225-9.226 2.622-8.487 13.984-8.116 16.605-16.604 3.056 3.055 6.171 6.17 9.226 9.225-2.622 8.486-13.985 8.117-16.606 16.605" clip-path="url(#icon-money-SVGID_2_)"/>	<path fill="#231F20" fill-rule="evenodd" clip-rule="evenodd" d="m27.046 22.885c-0.301-0.252-0.604-0.424-0.908-0.507-0.302-0.085-0.604-0.119-0.911-0.098-0.303 0.023-0.612 0.092-0.923 0.211-0.31 0.12-0.621 0.252-0.935 0.403-0.496-0.569-0.991-1.131-1.486-1.654 0.223-0.203 0.439-0.305 0.648-0.312 0.209-0.009 0.411 0.013 0.602 0.062 0.194 0.047 0.373 0.089 0.537 0.122 0.166 0.033 0.31-0.003 0.436-0.11 0.134-0.116 0.208-0.265 0.219-0.445 0.009-0.182-0.06-0.358-0.211-0.531-0.195-0.223-0.429-0.359-0.71-0.41-0.277-0.048-0.562-0.044-0.857 0.021-0.292 0.066-0.569 0.176-0.833 0.331-0.263 0.155-0.474 0.314-0.631 0.469-0.06-0.057-0.12-0.114-0.18-0.17-0.066-0.061-0.149-0.093-0.249-0.091-0.101 0-0.184 0.043-0.252 0.123-0.066 0.077-0.098 0.167-0.085 0.262 0.01 0.099 0.049 0.175 0.117 0.233 0.062 0.05 0.12 0.101 0.181 0.153-0.236 0.284-0.431 0.6-0.584 0.932-0.155 0.333-0.247 0.663-0.281 0.983-0.036 0.323-0.002 0.618 0.098 0.892 0.099 0.275 0.281 0.509 0.548 0.731 0.434 0.359 0.945 0.514 1.538 0.479 0.591-0.035 1.229-0.213 1.914-0.58 0.545 0.629 1.091 1.254 1.636 1.834-0.23 0.196-0.433 0.307-0.611 0.343-0.178 0.038-0.337 0.034-0.48-0.009-0.145-0.045-0.277-0.11-0.4-0.193-0.122-0.084-0.243-0.156-0.363-0.216-0.119-0.06-0.242-0.092-0.368-0.094s-0.259 0.06-0.407 0.186c-0.151 0.132-0.227 0.285-0.227 0.458 0 0.171 0.079 0.346 0.234 0.522 0.156 0.177 0.36 0.324 0.606 0.441 0.247 0.117 0.524 0.19 0.831 0.211s0.629-0.025 0.97-0.151c0.342-0.125 0.681-0.35 1.014-0.685 0.161 0.156 0.323 0.306 0.485 0.45 0.068 0.06 0.15 0.088 0.252 0.081 0.097-0.004 0.182-0.049 0.248-0.13 0.069-0.083 0.098-0.175 0.087-0.271-0.009-0.097-0.049-0.171-0.115-0.225-0.162-0.13-0.324-0.267-0.486-0.411 0.275-0.339 0.497-0.695 0.661-1.049s0.261-0.697 0.294-1.014c0.032-0.319-0.006-0.608-0.11-0.869-0.106-0.262-0.289-0.489-0.553-0.708m-5.156 0.626c-0.261 0.011-0.489-0.076-0.688-0.269-0.084-0.081-0.144-0.18-0.18-0.297-0.038-0.118-0.051-0.246-0.036-0.386 0.013-0.139 0.054-0.283 0.126-0.429 0.068-0.146 0.169-0.291 0.299-0.432 0.469 0.465 0.934 0.975 1.402 1.502-0.354 0.196-0.662 0.3-0.923 0.311m4.351 1.847c-0.083 0.152-0.179 0.29-0.29 0.408-0.517-0.522-1.033-1.095-1.55-1.685 0.132-0.059 0.271-0.121 0.42-0.184s0.299-0.104 0.448-0.13c0.153-0.023 0.305-0.016 0.456 0.02 0.149 0.038 0.292 0.119 0.424 0.247 0.129 0.13 0.212 0.266 0.244 0.411 0.036 0.147 0.038 0.298 0.013 0.45-0.026 0.154-0.081 0.308-0.165 0.463" clip-path="url(#icon-money-SVGID_2_)"/></svg><svg xmlns:xlink="http://www.w3.org/1999/xlink" xml:space="preserve" height="59" width="59" version="1.1" y="174" x="64px" overflow="visible" viewBox="-5 -5 59 59" enable-background="new 0 0 49 49" id="icon-zin"><circle r="23" cy="24.892" stroke="#231F20" cx="24.508" stroke-miterlimit="10" stroke-width="2" fill="none"/><g fill="#231F20"><path d="m12.046 30.767v-1.853l5.764-7.663h-5.444v-2.081h8.326v1.853l-5.81 7.663h5.81v2.081h-8.646z"/><path d="m23 16.883v-2.47h2.469v2.47h-2.469zm0.068 13.884v-11.597h2.332v11.597h-2.332z"/><path d="m35.029 30.767v-7.068c0-1.807-1.029-2.584-2.334-2.584-1.303 0-2.4 0.8-2.4 2.584v7.068h-2.334v-11.597h2.287v1.167c0.801-0.869 1.922-1.304 3.088-1.304 1.189 0 2.174 0.389 2.859 1.052 0.893 0.869 1.168 1.967 1.168 3.271v7.411h-2.334z"/></g><rect id="icon-zin-_x3C_Slice_x3E__1_" width="49" height="49" fill="none"/></svg>

</svg>
