<?xml version="1.0" encoding="utf-8"?>
<!-- Generator: Adobe Illustrator 15.1.0, SVG Export Plug-In  -->
<!DOCTYPE svg PUBLIC "-//W3C//DTD SVG 1.1//EN" "http://www.w3.org/Graphics/SVG/1.1/DTD/svg11.dtd" [
	<!ENTITY ns_flows "http://ns.adobe.com/Flows/1.0/">
]>
<svg version="1.1"
	 xmlns="http://www.w3.org/2000/svg" xmlns:xlink="http://www.w3.org/1999/xlink" xmlns:a="http://ns.adobe.com/AdobeSVGViewerExtensions/3.0/"
	 x="0px" y="0px" width="222px" height="23px" viewBox="0 0 222 23" overflow="visible" enable-background="new 0 0 222 23"
	 xml:space="preserve">
<defs>
</defs>
<path fill-rule="evenodd" clip-rule="evenodd" fill="#FFFFFF" d="M48.615,16.557c-2.122-0.234-3.521-1.268-4.29-3.236h1.886
	c-2.15-0.811-3.357-2.278-3.518-4.604c0.668,0.192,1.28,0.366,1.891,0.542c0.028-0.03,0.052-0.062,0.078-0.092
	c-1.962-1.697-2.41-3.713-1.317-6.148c2.54,2.953,5.673,4.594,9.552,4.849c-0.244-1.416-0.025-2.665,0.792-3.781
	c1.608-2.198,4.715-2.557,6.764-0.76c0.289,0.258,0.546,0.33,0.899,0.196c0.761-0.292,1.53-0.565,2.278-0.844
	c-0.07,0.643-0.663,1.452-1.693,2.376c0.383-0.079,0.774-0.143,1.152-0.246c0.39-0.104,0.768-0.245,1.152-0.372
	c0.033,0.04,0.067,0.079,0.103,0.121c-0.638,0.635-1.253,1.296-1.921,1.902c-0.25,0.23-0.358,0.437-0.356,0.775
	c0.024,5.74-3.597,10.918-8.902,12.619c-3.684,1.184-7.268,0.855-10.686-1.008c-0.117-0.062-0.23-0.133-0.342-0.197
	c-0.036-0.025-0.068-0.057-0.218-0.18C44.41,18.643,46.592,18.066,48.615,16.557"/>
<path fill-rule="evenodd" clip-rule="evenodd" fill="#FFFFFF" d="M93.563,0.307c0.558,0.115,1.128,0.188,1.669,0.354
	c3.099,0.968,5.195,2.953,5.559,6.24c0.353,3.213-0.432,6.181-3.042,8.369c-1.319,1.105-2.894,1.533-4.612,1.256
	c-0.959-0.156-1.765-0.617-2.433-1.5c-0.645,2.877-1.273,5.684-3.43,7.922c-0.064-0.236-0.12-0.389-0.144-0.549
	c-0.352-2.143-0.092-4.23,0.467-6.311c0.448-1.654,0.808-3.336,1.189-5.005c0.045-0.199,0.021-0.435-0.04-0.632
	c-0.391-1.247-0.444-2.483,0.151-3.685c0.339-0.681,0.847-1.192,1.622-1.374c1.101-0.271,2.106,0.396,2.139,1.529
	c0.021,0.715-0.128,1.452-0.291,2.162c-0.201,0.867-0.491,1.716-0.747,2.574c-0.548,1.828,1.028,3.086,2.729,2.604
	c0.898-0.252,1.527-0.852,2.02-1.604c0.729-1.104,1.11-2.335,1.229-3.637c0.081-0.838,0.115-1.703,0.001-2.537
	c-0.2-1.523-1.047-2.654-2.429-3.347c-2.392-1.206-5.694-0.651-7.525,1.296c-1.406,1.497-1.952,3.296-1.561,5.318
	c0.1,0.519,0.428,1.015,0.716,1.483c0.173,0.284,0.286,0.521,0.168,0.852c-0.092,0.262-0.133,0.541-0.202,0.811
	c-0.141,0.506-0.362,0.607-0.849,0.383c-0.942-0.432-1.581-1.162-1.963-2.104c-0.817-2.021-0.72-4.028,0.228-5.967
	c1.315-2.697,3.557-4.171,6.454-4.723c0.329-0.065,0.659-0.119,0.986-0.177H93.563z"/>
<polygon fill-rule="evenodd" clip-rule="evenodd" fill="#FFFFFF" points="142.677,5.214 139.632,5.214 139.632,8.227 138.101,8.227 
	138.101,5.221 135.054,5.221 135.054,3.686 138.071,3.686 138.071,0.649 139.6,0.649 139.6,3.686 142.677,3.686 "/>
<path fill-rule="evenodd" clip-rule="evenodd" fill="#FFFFFF" d="M133.836,16.318c-0.344-1.141-1.131-1.957-2.017-2.695
	c-0.613-0.508-1.267-0.967-1.841-1.512c-0.886-0.838-0.87-1.567,0.015-2.424c0.385-0.373,0.828-0.689,1.213-1.065
	c1.947-1.92,1.822-4.855-0.274-6.613c-0.027-0.025-0.035-0.067-0.069-0.136c0.436,0,0.84,0.003,1.241-0.007
	c0.129-0.002,0.299-0.004,0.382-0.083c0.454-0.443,0.885-0.912,1.379-1.427c-0.17-0.022-0.255-0.043-0.339-0.043
	c-2.159-0.003-4.322-0.009-6.479,0.005c-0.982,0.005-1.938,0.176-2.846,0.568c-2.148,0.924-3.262,2.856-3.044,5.288
	c0.184,2.062,1.635,3.632,3.857,4.13c0.552,0.125,1.122,0.164,1.708,0.241c-0.463,1.086-0.352,2.06,0.556,2.907
	c-0.865,0.082-1.658,0.125-2.44,0.234c-1.35,0.195-2.627,0.594-3.716,1.471c-1.646,1.322-2.472,4.592,0.328,6.406
	c0.289,0.189,0.593,0.355,0.908,0.498c1.534,0.701,3.158,0.889,4.824,0.834c1.678-0.051,3.278-0.375,4.695-1.322
	C133.705,20.35,134.447,18.35,133.836,16.318 M126.668,9.377c-1.734-0.525-2.588-1.839-2.986-3.518
	c-0.042-0.173-0.07-0.352-0.083-0.53c-0.017-0.194-0.007-0.39-0.007-0.582c-0.035-0.012-0.074-0.02-0.111-0.026
	c0.145-0.577,0.225-1.181,0.451-1.722c0.673-1.601,2.349-2.092,3.798-1.134c1.154,0.758,1.746,1.911,2.058,3.213
	c0.194,0.827,0.256,1.657,0.042,2.497C129.432,9.107,128.186,9.843,126.668,9.377 M129.777,21.049
	c-1.679,0.777-3.439,0.873-5.195,0.207c-0.82-0.309-1.486-0.832-1.957-1.586c-0.766-1.217-0.652-2.631,0.317-3.693
	c1.088-1.193,2.495-1.643,3.911-1.68c1.457,0.016,2.654,0.316,3.656,1.184C132.425,17.146,132.076,19.984,129.777,21.049"/>
<path fill-rule="evenodd" clip-rule="evenodd" fill="#FFFFFF" d="M161.72,22.826c-0.122-0.045-0.244-0.088-0.367-0.129
	c-1.155-0.371-1.905-1.404-1.909-2.652c-0.003-2.234-0.003-4.469,0-6.703c0.002-1.69,1.171-2.854,2.875-2.856
	c4.57-0.006,9.142-0.003,13.711,0.002c0.189,0,0.381,0.018,0.566,0.044c1.294,0.197,2.287,1.281,2.299,2.591
	c0.022,2.352,0.02,4.703,0.003,7.055c-0.008,1.146-0.771,2.137-1.861,2.506c-0.137,0.045-0.271,0.094-0.409,0.143H161.72z
	 M169.714,12.572v8.164c0.846,0.135,1.034,0.086,1.18-0.312c0.435,0.404,0.931,0.588,1.48,0.309
	c0.522-0.262,0.546-0.793,0.551-1.293c0.01-1.082,0.01-2.16-0.003-3.242c-0.003-0.273-0.033-0.557-0.111-0.816
	c-0.22-0.723-0.936-0.975-1.574-0.568c-0.128,0.082-0.247,0.172-0.43,0.301v-2.541H169.714z M177.084,18.641h-1.162
	c0,0.287,0.013,0.549-0.003,0.807c-0.017,0.273-0.174,0.42-0.454,0.426c-0.279,0.01-0.473-0.125-0.485-0.393
	c-0.027-0.521-0.01-1.041-0.01-1.602h2.077c0-0.744,0.052-1.443-0.016-2.133c-0.055-0.555-0.413-0.959-0.975-1.127
	c-1.134-0.342-2.192,0.342-2.25,1.521c-0.054,1.074-0.044,2.158,0.01,3.236c0.046,1.008,0.689,1.578,1.634,1.566
	c1.008-0.01,1.564-0.559,1.634-1.607C177.097,19.121,177.084,18.9,177.084,18.641 M167.41,20.266
	c0.021,0.15,0.043,0.324,0.063,0.484h1.062v-6.025h-1.1v1.373c0,0.979,0.001,1.957-0.002,2.934c-0.002,0.367-0.34,0.76-0.654,0.727
	c-0.424-0.045-0.309-0.396-0.31-0.648c-0.015-0.891-0.005-1.781-0.005-2.672v-1.717h-1.097c-0.012,0.109-0.029,0.191-0.029,0.273
	c-0.001,1.594-0.003,3.184,0.002,4.775c0,0.158,0.024,0.32,0.061,0.477c0.119,0.504,0.493,0.748,0.984,0.572
	C166.743,20.693,167.063,20.461,167.41,20.266 M161.476,13.734h1.304v7.023h1.272v-7.057h1.269v-1.133h-3.845V13.734z"/>
<path fill-rule="evenodd" clip-rule="evenodd" fill="#FFFFFF" d="M166.805,0.373c-0.507,1.672-1.019,3.342-1.52,5.015
	c-0.049,0.166-0.052,0.345-0.052,0.519c-0.007,1.032-0.002,2.065-0.002,3.117h-1.332c0-0.217-0.014-0.444,0.002-0.667
	c0.159-1.905-0.159-3.731-0.833-5.518c-0.305-0.8-0.493-1.642-0.735-2.465h1.314c0.295,1.094,0.591,2.189,0.888,3.283
	c0.03-0.003,0.062-0.007,0.095-0.009c0.257-1.089,0.515-2.182,0.771-3.273H166.805z"/>
<path fill-rule="evenodd" clip-rule="evenodd" fill="#FFFFFF" d="M173.383,9.025V8.423c-0.236,0.176-0.426,0.344-0.638,0.476
	c-0.865,0.539-1.549,0.177-1.556-0.835c-0.011-1.781-0.003-3.562-0.003-5.379h1.188v0.503c0,1.389-0.003,2.774,0.005,4.163
	c0.002,0.242-0.091,0.572,0.303,0.617c0.272,0.034,0.694-0.37,0.698-0.663c0.008-0.683,0.005-1.37,0.005-2.056V2.683h1.165v6.342
	H173.383z"/>
<path fill-rule="evenodd" clip-rule="evenodd" fill="#FFFFFF" d="M166.722,5.916c0-0.54-0.008-1.082,0.003-1.619
	c0.022-1.019,0.711-1.699,1.722-1.706c0.96-0.008,1.692,0.672,1.718,1.663c0.027,1.093,0.019,2.188,0.002,3.285
	c-0.008,0.665-0.302,1.195-0.933,1.457c-0.672,0.278-1.348,0.254-1.955-0.18c-0.429-0.304-0.538-0.783-0.549-1.279
	C166.714,6.995,166.725,6.455,166.722,5.916 M167.949,5.904c0,0.495-0.007,0.988,0.003,1.483c0.008,0.324,0.139,0.588,0.501,0.602
	c0.372,0.009,0.501-0.268,0.506-0.586c0.011-1.004,0.008-2.006,0-3.012c-0.003-0.328-0.15-0.582-0.517-0.573
	c-0.368,0.007-0.483,0.279-0.491,0.599C167.946,4.914,167.949,5.407,167.949,5.904"/>
<path fill-rule="evenodd" clip-rule="evenodd" fill="#FFFFFF" d="M170.821,17.73c0-0.523,0.014-1.047-0.009-1.57
	c-0.014-0.344,0.109-0.545,0.446-0.562c0.358-0.023,0.485,0.225,0.493,0.531c0.016,0.568,0.01,1.137,0.013,1.703
	c0,0.496,0.005,0.99-0.005,1.484c-0.005,0.285-0.03,0.598-0.42,0.582c-0.348-0.016-0.546-0.197-0.527-0.596
	C170.839,18.781,170.821,18.256,170.821,17.73"/>
<path fill-rule="evenodd" clip-rule="evenodd" fill="#FFFFFF" d="M175.924,16.92h-0.962c0-0.309-0.018-0.598,0.007-0.883
	c0.019-0.266,0.176-0.414,0.459-0.42c0.302-0.01,0.469,0.148,0.489,0.434C175.941,16.322,175.924,16.6,175.924,16.92"/>
<path fill="#FFFFFF" d="M21.439,0.019H1.253C0.562,0.019,0,0.58,0,1.271v20.187c0,0.691,0.562,1.252,1.253,1.252H12.12v-8.787H9.164
	v-3.425h2.957V7.972c0-2.93,1.791-4.528,4.405-4.528c1.252,0,2.328,0.094,2.643,0.136v3.064h-1.814
	c-1.422,0-1.698,0.677-1.698,1.667v2.187h3.391l-0.44,3.425h-2.951v8.787h5.783c0.692,0,1.252-0.561,1.252-1.252V1.271
	C22.691,0.58,22.131,0.019,21.439,0.019"/>
<g id="Camera_1_">
	<g>
		<path fill="#FFFFFF" d="M219.365,0h-17.564c-1.454,0-2.634,1.18-2.634,2.635v17.564c0,1.455,1.18,2.635,2.634,2.635h17.564
			c1.455,0,2.635-1.18,2.635-2.635V2.635C222,1.18,220.82,0,219.365,0z M214.98,3.515c0-0.484,0.393-0.877,0.877-0.877h2.631
			c0.483,0,0.876,0.393,0.876,0.877v2.63c0,0.484-0.393,0.877-0.876,0.877h-2.631c-0.484,0-0.877-0.393-0.877-0.877V3.515z
			 M210.584,7.02c2.428,0,4.395,1.967,4.395,4.395s-1.967,4.394-4.395,4.394c-2.427,0-4.395-1.967-4.395-4.394
			S208.157,7.02,210.584,7.02z M218.487,20.199H202.68c-0.485,0-0.879-0.395-0.879-0.879V9.727h1.968
			c-0.137,0.544-0.218,1.11-0.218,1.697c0,3.881,3.146,7.025,7.025,7.025s7.025-3.145,7.025-7.025c0-0.587-0.081-1.153-0.218-1.697
			h1.981v9.594C219.365,19.805,218.972,20.199,218.487,20.199z"/>
	</g>
</g>
</svg>
