<?xml version="1.0" encoding="utf-8"?>
<!-- Generator: Adobe Illustrator 15.1.0, SVG Export Plug-In  -->
<!DOCTYPE svg PUBLIC "-//W3C//DTD SVG 1.1//EN" "http://www.w3.org/Graphics/SVG/1.1/DTD/svg11.dtd" [
	<!ENTITY ns_flows "http://ns.adobe.com/Flows/1.0/">
]>
<svg version="1.1"
	 xmlns="http://www.w3.org/2000/svg" xmlns:xlink="http://www.w3.org/1999/xlink" xmlns:a="http://ns.adobe.com/AdobeSVGViewerExtensions/3.0/"
	 x="0px" y="0px" width="14px" height="14px" viewBox="-0.641 -0.216 14 14"
	 overflow="visible" enable-background="new -0.641 -0.216 14 14" xml:space="preserve">
<defs>
</defs>
<path fill="#FFFFFF" d="M12.964,5.732c-0.067-0.542-0.584-0.939-1.155-0.891L7.1,5.237L6.433,5.246c0,0,0.966-0.363,0.225-3.248
	C5.915-0.884,3.956,0.199,3.956,0.199s-0.025,2.463-0.13,2.813C3.722,3.361,1.424,7.05,1.424,7.05c0,0.193-1.427,0.388-1.424,0.583
	c0.019,1.7,0,3.148,0,4.903c1.526-0.329,2.344,0.658,5.602,0.658c1.065,0,5.529,0.222,5.529,0.222
	C11.64,13.372,13.032,6.272,12.964,5.732"/>
</svg>
