<?xml version="1.0" encoding="utf-8"?>
<!-- Generator: Adobe Illustrator 15.1.0, SVG Export Plug-In  -->
<!DOCTYPE svg PUBLIC "-//W3C//DTD SVG 1.1//EN" "http://www.w3.org/Graphics/SVG/1.1/DTD/svg11.dtd" [
	<!ENTITY ns_flows "http://ns.adobe.com/Flows/1.0/">
]>
<svg version="1.1"
	 xmlns="http://www.w3.org/2000/svg" xmlns:xlink="http://www.w3.org/1999/xlink" xmlns:a="http://ns.adobe.com/AdobeSVGViewerExtensions/3.0/"
	 x="0px" y="0px" width="330px" height="58px" viewBox="0 0.005 330 58" overflow="visible" enable-background="new 0 0.005 330 58"
	 xml:space="preserve">
<defs>
</defs>
<path fill="#DADBE2" d="M58.011,29.004c0,16.019-12.985,29.006-29.005,29.006C12.987,58.01,0,45.022,0,29.004
	C0,12.986,12.987,0,29.005,0C45.025,0,58.011,12.986,58.011,29.004"/>
<path fill="#FFFFFF" d="M46.853,29.002c0,1.287-1.031,2.32-2.321,2.32H32.945l5.607,10.151c0.193,0.354,0.291,0.741,0.291,1.112
	c0,0.821-0.436,1.612-1.208,2.046c-1.112,0.612-2.53,0.21-3.143-0.919l-5.479-9.927l-5.495,9.927
	c-0.613,1.129-2.032,1.531-3.158,0.919c-0.758-0.434-1.195-1.225-1.195-2.029c0-0.388,0.098-0.775,0.292-1.129l5.607-10.151H13.48
	c-1.289,0-2.32-1.033-2.32-2.32c0-1.273,1.032-2.318,2.32-2.318h11.584l-5.607-10.154c-0.612-1.114-0.208-2.533,0.903-3.145
	c1.126-0.629,2.545-0.207,3.158,0.904l5.495,9.927l5.479-9.927c0.612-1.111,2.03-1.533,3.143-0.904
	c1.127,0.611,1.529,2.03,0.917,3.145l-5.607,10.154h11.586C45.821,26.684,46.853,27.729,46.853,29.002"/>
<path fill="#DADBE2" d="M126.008,29.004c0,16.019-12.985,29.006-29.005,29.006c-16.019,0-29.005-12.987-29.005-29.006
	C67.997,12.986,80.984,0,97.002,0C113.022,0,126.008,12.986,126.008,29.004"/>
<path fill="#FFFFFF" d="M114.85,29.002c0,1.287-1.031,2.32-2.321,2.32h-11.586l5.607,10.151c0.193,0.354,0.291,0.741,0.291,1.112
	c0,0.821-0.436,1.612-1.208,2.046c-1.112,0.612-2.53,0.21-3.143-0.919l-5.479-9.927l-5.495,9.927
	c-0.613,1.129-2.032,1.531-3.158,0.919c-0.758-0.434-1.195-1.225-1.195-2.029c0-0.388,0.098-0.775,0.292-1.129l5.607-10.151H81.478
	c-1.289,0-2.32-1.033-2.32-2.32c0-1.273,1.032-2.318,2.32-2.318h11.584l-5.607-10.154c-0.612-1.114-0.208-2.533,0.903-3.145
	c1.126-0.629,2.545-0.207,3.158,0.904l5.495,9.927l5.479-9.927c0.612-1.111,2.03-1.533,3.143-0.904
	c1.127,0.611,1.529,2.03,0.917,3.145l-5.607,10.154h11.586C113.818,26.684,114.85,27.729,114.85,29.002"/>
<path fill="#DADBE2" d="M194.006,29.004c0,16.019-12.986,29.006-29.006,29.006c-16.019,0-29.006-12.987-29.006-29.006
	C135.994,12.986,148.981,0,165,0C181.02,0,194.006,12.986,194.006,29.004"/>
<path fill="#FFFFFF" d="M182.847,29.002c0,1.287-1.031,2.32-2.321,2.32h-11.586l5.607,10.151c0.193,0.354,0.291,0.741,0.291,1.112
	c0,0.821-0.436,1.612-1.208,2.046c-1.112,0.612-2.53,0.21-3.143-0.919l-5.479-9.927l-5.495,9.927
	c-0.612,1.129-2.031,1.531-3.158,0.919c-0.758-0.434-1.194-1.225-1.194-2.029c0-0.388,0.098-0.775,0.291-1.129l5.607-10.151h-11.585
	c-1.288,0-2.32-1.033-2.32-2.32c0-1.273,1.032-2.318,2.32-2.318h11.585l-5.607-10.154c-0.611-1.114-0.208-2.533,0.903-3.145
	c1.127-0.629,2.546-0.207,3.158,0.904l5.495,9.927l5.479-9.927c0.612-1.111,2.03-1.533,3.143-0.904
	c1.127,0.611,1.529,2.03,0.917,3.145l-5.607,10.154h11.586C181.815,26.684,182.847,27.729,182.847,29.002"/>
<path fill="#DADBE2" d="M262.003,29.004c0,16.019-12.986,29.006-29.006,29.006c-16.019,0-29.006-12.987-29.006-29.006
	C203.991,12.986,216.979,0,232.997,0C249.017,0,262.003,12.986,262.003,29.004"/>
<path fill="#FFFFFF" d="M250.845,29.002c0,1.287-1.031,2.32-2.322,2.32h-11.586l5.607,10.151c0.193,0.354,0.291,0.741,0.291,1.112
	c0,0.821-0.436,1.612-1.207,2.046c-1.113,0.612-2.531,0.21-3.143-0.919l-5.479-9.927l-5.496,9.927
	c-0.612,1.129-2.031,1.531-3.158,0.919c-0.758-0.434-1.194-1.225-1.194-2.029c0-0.388,0.098-0.775,0.292-1.129l5.606-10.151h-11.585
	c-1.288,0-2.32-1.033-2.32-2.32c0-1.273,1.032-2.318,2.32-2.318h11.585l-5.606-10.154c-0.612-1.114-0.209-2.533,0.902-3.145
	c1.127-0.629,2.546-0.207,3.158,0.904l5.496,9.927l5.479-9.927c0.611-1.111,2.029-1.533,3.143-0.904
	c1.127,0.611,1.529,2.03,0.916,3.145l-5.607,10.154h11.586C249.813,26.684,250.845,27.729,250.845,29.002"/>
<path fill="#DADBE2" d="M330,29.004c0,16.019-12.986,29.006-29.006,29.006c-16.019,0-29.006-12.987-29.006-29.006
	C271.988,12.986,284.976,0,300.994,0C317.014,0,330,12.986,330,29.004"/>
<path fill="#FFFFFF" d="M318.842,29.002c0,1.287-1.031,2.32-2.322,2.32h-11.586l5.607,10.151c0.193,0.354,0.291,0.741,0.291,1.112
	c0,0.821-0.436,1.612-1.207,2.046c-1.113,0.612-2.531,0.21-3.143-0.919l-5.479-9.927l-5.496,9.927
	c-0.612,1.129-2.031,1.531-3.158,0.919c-0.758-0.434-1.194-1.225-1.194-2.029c0-0.388,0.098-0.775,0.292-1.129l5.606-10.151h-11.585
	c-1.288,0-2.32-1.033-2.32-2.32c0-1.273,1.032-2.318,2.32-2.318h11.585l-5.606-10.154c-0.612-1.114-0.209-2.533,0.902-3.145
	c1.127-0.629,2.546-0.207,3.158,0.904l5.496,9.927l5.479-9.927c0.611-1.111,2.029-1.533,3.143-0.904
	c1.127,0.611,1.529,2.03,0.916,3.145l-5.607,10.154h11.586C317.811,26.684,318.842,27.729,318.842,29.002"/>
</svg>
