<?xml version="1.0" encoding="utf-8"?>
<!-- Generator: Adobe Illustrator 15.1.0, SVG Export Plug-In  -->
<!DOCTYPE svg PUBLIC "-//W3C//DTD SVG 1.1//EN" "http://www.w3.org/Graphics/SVG/1.1/DTD/svg11.dtd" [
	<!ENTITY ns_flows "http://ns.adobe.com/Flows/1.0/">
]>
<svg version="1.1"
	 xmlns="http://www.w3.org/2000/svg" xmlns:xlink="http://www.w3.org/1999/xlink" xmlns:a="http://ns.adobe.com/AdobeSVGViewerExtensions/3.0/"
	 x="0px" y="0px" width="14px" height="14px" viewBox="-1.684 -0.112 14 14"
	 overflow="visible" enable-background="new -1.684 -0.112 14 14" xml:space="preserve">
<defs>
</defs>
<path fill="#FFFFFF" d="M6.184,0C6.524,0.069,6.872,0.113,7.2,0.214c1.887,0.589,3.162,1.797,3.385,3.798
	c0.213,1.956-0.264,3.761-1.854,5.093c-0.803,0.673-1.76,0.934-2.807,0.765c-0.583-0.097-1.074-0.376-1.48-0.915
	c-0.393,1.751-0.775,3.459-2.087,4.821c-0.039-0.144-0.073-0.237-0.087-0.33C2.056,12.139,2.213,10.87,2.554,9.6
	c0.272-1.005,0.491-2.028,0.724-3.042c0.028-0.123,0.014-0.267-0.024-0.386C3.017,5.414,2.983,4.661,3.346,3.93
	c0.206-0.416,0.516-0.726,0.987-0.836c0.67-0.165,1.281,0.241,1.302,0.93c0.013,0.436-0.079,0.883-0.177,1.316
	c-0.123,0.528-0.3,1.044-0.455,1.567C4.669,8.019,5.627,8.783,6.661,8.491c0.549-0.154,0.932-0.52,1.23-0.976
	c0.445-0.672,0.676-1.422,0.75-2.214c0.047-0.51,0.068-1.036,0-1.544C8.52,2.83,8.004,2.142,7.161,1.721
	C5.706,0.985,3.698,1.323,2.583,2.508C1.728,3.42,1.394,4.515,1.633,5.745C1.695,6.06,1.894,6.361,2.069,6.648
	C2.173,6.82,2.243,6.963,2.171,7.166C2.115,7.324,2.092,7.494,2.048,7.66C1.963,7.967,1.829,8.03,1.532,7.891
	C0.958,7.629,0.571,7.184,0.337,6.613c-0.498-1.23-0.438-2.452,0.139-3.632c0.8-1.642,2.166-2.538,3.928-2.874
	C4.603,0.067,4.806,0.034,5.003,0H6.184z"/>
</svg>
