<?xml version="1.0" encoding="utf-8"?>
<!-- Generator: Adobe Illustrator 15.1.0, SVG Export Plug-In  -->
<!DOCTYPE svg PUBLIC "-//W3C//DTD SVG 1.1//EN" "http://www.w3.org/Graphics/SVG/1.1/DTD/svg11.dtd" [
	<!ENTITY ns_flows "http://ns.adobe.com/Flows/1.0/">
]>
<svg version="1.1"
	 xmlns="http://www.w3.org/2000/svg" xmlns:xlink="http://www.w3.org/1999/xlink" xmlns:a="http://ns.adobe.com/AdobeSVGViewerExtensions/3.0/"
	 x="0px" y="0px" width="14px" height="14px" viewBox="-4.186 -0.516 14 14"
	 overflow="visible" enable-background="new -4.186 -0.516 14 14" xml:space="preserve">
<defs>
</defs>
<path id="Facebook_1_" fill="#FFFFFF" d="M1.322,2.539c0,0.331,0,1.806,0,1.806H0v2.207h1.322v6.559h2.716V6.551h1.823
	c0,0,0.17-1.058,0.253-2.215c-0.237,0-2.065,0-2.065,0s0-1.284,0-1.509c0-0.226,0.296-0.529,0.589-0.529c0.291,0,0.908,0,1.48,0
	c0-0.301,0-1.339,0-2.298c-0.763,0-1.63,0-2.014,0C1.255,0,1.322,2.209,1.322,2.539z"/>
</svg>
