<?xml version="1.0" encoding="utf-8"?>
<!-- Generator: Adobe Illustrator 15.1.0, SVG Export Plug-In  -->
<!DOCTYPE svg PUBLIC "-//W3C//DTD SVG 1.1//EN" "http://www.w3.org/Graphics/SVG/1.1/DTD/svg11.dtd" [
	<!ENTITY ns_flows "http://ns.adobe.com/Flows/1.0/">
]>
<svg version="1.1"
	 xmlns="http://www.w3.org/2000/svg" xmlns:xlink="http://www.w3.org/1999/xlink" xmlns:a="http://ns.adobe.com/AdobeSVGViewerExtensions/3.0/"
	 x="0px" y="0px" width="14px" height="14px" viewBox="-0.139 -1.379 14 14"
	 overflow="visible" enable-background="new -0.139 -1.379 14 14" xml:space="preserve">
<defs>
</defs>
<path fill="#FFFFFF" d="M4.098,8.798C2.799,8.655,1.943,8.023,1.474,6.819h1.153C1.312,6.322,0.572,5.423,0.475,4
	c0.409,0.118,0.783,0.224,1.157,0.333c0.017-0.019,0.031-0.039,0.047-0.058c-1.2-1.038-1.474-2.271-0.806-3.762
	C2.427,2.32,4.344,3.325,6.718,3.48c-0.148-0.865-0.015-1.63,0.485-2.312c0.983-1.345,2.885-1.565,4.137-0.466
	c0.179,0.158,0.336,0.202,0.552,0.121c0.465-0.179,0.936-0.346,1.395-0.517c-0.045,0.394-0.405,0.889-1.038,1.454
	c0.235-0.048,0.475-0.087,0.705-0.15c0.24-0.063,0.472-0.149,0.706-0.227c0.021,0.024,0.042,0.048,0.063,0.074
	c-0.392,0.39-0.769,0.793-1.177,1.164c-0.152,0.141-0.219,0.267-0.218,0.474c0.015,3.512-2.201,6.68-5.447,7.722
	c-2.253,0.724-4.446,0.522-6.537-0.617c-0.072-0.039-0.141-0.082-0.209-0.121C0.112,10.063,0.093,10.043,0,9.968
	C1.525,10.075,2.86,9.723,4.098,8.798"/>
</svg>
