<?xml version="1.0" encoding="utf-8"?>
<!-- Generator: Adobe Illustrator 15.1.0, SVG Export Plug-In  -->
<!DOCTYPE svg PUBLIC "-//W3C//DTD SVG 1.1//EN" "http://www.w3.org/Graphics/SVG/1.1/DTD/svg11.dtd" [
	<!ENTITY ns_flows "http://ns.adobe.com/Flows/1.0/">
]>
<svg version="1.1"
	 xmlns="http://www.w3.org/2000/svg" xmlns:xlink="http://www.w3.org/1999/xlink" xmlns:a="http://ns.adobe.com/AdobeSVGViewerExtensions/3.0/"
	 x="0px" y="0px" width="34px" height="34px" viewBox="28.5 12.794 34 34"
	 overflow="visible" enable-background="new 28.5 12.794 34 34" xml:space="preserve">
<defs>
</defs>
<text transform="matrix(1 0 0 1 0 10.0439)" font-family="'MyriadPro-Regular'" font-size="12">f8981d</text>
<g>
	<defs>
		<path id="SVGID_1_" d="M61.9,32.268c0.009-0.002,0.027-0.005,0.053-0.005c0.058,0,0.086,0.024,0.086,0.063
			c0,0.042-0.042,0.06-0.095,0.06H61.9V32.268z M61.803,32.205v0.409h0.095v-0.161h0.045c0.053,0,0.078,0.021,0.085,0.062
			c0.012,0.05,0.021,0.086,0.033,0.1h0.1c-0.008-0.014-0.018-0.036-0.03-0.1c-0.013-0.055-0.033-0.087-0.072-0.1V32.41
			c0.047-0.016,0.085-0.047,0.085-0.098c0-0.039-0.019-0.069-0.043-0.088c-0.028-0.02-0.063-0.031-0.141-0.031
			C61.893,32.193,61.841,32.199,61.803,32.205 M61.965,32.729c-0.183,0-0.319-0.145-0.319-0.326c0-0.18,0.137-0.328,0.313-0.328
			c0.184,0,0.318,0.148,0.318,0.329c0,0.18-0.133,0.325-0.308,0.325C61.968,32.729,61.966,32.729,61.965,32.729 M61.54,32.403
			c0,0.23,0.188,0.412,0.422,0.412c0.235,0,0.42-0.182,0.42-0.412c0-0.231-0.185-0.411-0.417-0.411
			C61.728,31.992,61.54,32.172,61.54,32.403 M60.02,27.896c-0.07,0.405-0.113,0.811-0.146,1.214
			c-0.033,0.405-0.056,0.811-0.069,1.215c-0.012,0.404-0.022,0.81-0.011,1.214c0.021,0.405,0.071,0.81,0.227,1.214
			c0.032,0.09,0.105,0.166,0.201,0.203c0.181,0.068,0.382-0.022,0.45-0.203c0.153-0.404,0.205-0.809,0.227-1.214
			c0.01-0.404,0.002-0.81-0.013-1.214c-0.012-0.404-0.035-0.81-0.068-1.215c-0.033-0.403-0.077-0.809-0.146-1.214
			c-0.023-0.134-0.128-0.246-0.27-0.271c-0.021-0.002-0.039-0.004-0.057-0.004C60.186,27.621,60.047,27.736,60.02,27.896
			 M52.753,27.835c-0.1,0.404-0.131,0.808-0.145,1.214c-0.008,0.404,0,0.809,0.007,1.214c0.018,0.809,0.053,1.619,0.138,2.428
			c0.018,0.151,0.136,0.275,0.292,0.292c0.18,0.019,0.343-0.111,0.362-0.292c0.087-0.809,0.119-1.619,0.139-2.428
			c0.007-0.405,0.014-0.81,0.007-1.214c-0.015-0.406-0.046-0.81-0.146-1.214c-0.029-0.119-0.121-0.216-0.246-0.247
			c-0.026-0.006-0.054-0.01-0.08-0.01C52.928,27.578,52.792,27.681,52.753,27.835 M29.188,27.908
			c-0.262,0.076-0.613,0.182-0.532,0.465c0.068,0.236,0.665,0.203,0.797,0.196c2.094-0.099,2.982-0.291,2.982-0.291
			c-0.069,0.069-1.62,1.514-2.386,2.371c-0.373,0.417-1.432,1.772-1.505,2.068c-0.044,0.174,0.037,0.354,0.207,0.409l0.142,0.047
			c0.494,0.061,0.944-0.047,1.395-0.153c0,0,1.322-0.397,1.768-0.528c0.445-0.129,1.293-0.371,1.731-0.529
			c0.134-0.049,0.38-0.182,0.372-0.332c-0.013-0.181-0.239-0.411-1.829-0.146c-0.982,0.164-2.505,0.729-2.505,0.729
			s1.13-1.149,2.015-2.014c0.763-0.747,1.433-1.365,1.745-1.846l0.016-0.019c0.078-0.094,0.121-0.218,0.108-0.349
			c-0.023-0.261-0.173-0.391-0.358-0.464c-0.057-0.021-0.308-0.039-0.679-0.039C31.819,27.483,30.344,27.575,29.188,27.908
			 M54.549,27.417c-0.072,0.413-0.111,0.826-0.145,1.24c-0.028,0.412-0.049,0.826-0.054,1.24c-0.007,0.413-0.01,0.826,0.021,1.239
			c0.032,0.413,0.073,0.826,0.177,1.239c0.03,0.116,0.12,0.213,0.245,0.244c0.18,0.045,0.362-0.062,0.408-0.244
			c0.104-0.413,0.146-0.826,0.178-1.239c0.03-0.413,0.027-0.826,0.022-1.239c-0.004-0.219-0.012-0.437-0.022-0.655
			c0.004-0.006,0.007-0.015,0.011-0.02c0.079-0.137,0.171-0.265,0.273-0.376c0.204-0.228,0.449-0.393,0.721-0.487
			c0.134-0.05,0.278-0.08,0.424-0.097c0.073-0.008,0.15-0.012,0.223-0.013l0.121,0.002c0.025,0.002,0.051,0.003,0.074,0.008
			c0.093,0.017,0.168,0.053,0.246,0.118c0.076,0.065,0.152,0.162,0.221,0.282c0.136,0.24,0.238,0.548,0.309,0.869
			c0.072,0.322,0.115,0.663,0.151,1.007c0.034,0.344,0.051,0.694,0.056,1.045c0.007,0.176-0.009,0.351,0.012,0.527
			c0.023,0.175,0.074,0.354,0.205,0.533l0.02,0.024c0.019,0.024,0.039,0.048,0.064,0.068c0.172,0.144,0.427,0.121,0.57-0.051
			c0.152-0.184,0.215-0.37,0.245-0.56c0.025-0.187,0.009-0.376,0.009-0.565c-0.01-0.377-0.033-0.755-0.073-1.137
			c-0.039-0.38-0.104-0.763-0.204-1.149c-0.103-0.384-0.229-0.777-0.476-1.161c-0.123-0.19-0.28-0.382-0.492-0.538
			c-0.21-0.159-0.484-0.269-0.752-0.292c-0.068-0.006-0.135-0.007-0.199-0.004l-0.153,0.009c-0.11,0.01-0.213,0.023-0.321,0.043
			c-0.213,0.041-0.425,0.106-0.624,0.197c-0.282,0.127-0.536,0.312-0.747,0.53c-0.024-0.213-0.053-0.426-0.09-0.639
			c-0.023-0.134-0.129-0.245-0.268-0.269c-0.021-0.004-0.041-0.005-0.059-0.005C54.717,27.143,54.577,27.255,54.549,27.417
			 M40.309,27.263c-0.124,0.364-0.203,0.734-0.272,1.106c-0.07,0.37-0.112,0.745-0.156,1.12c-0.082,0.749-0.146,1.502-0.143,2.264
			c0,0.144,0.098,0.278,0.246,0.315c0.176,0.047,0.356-0.058,0.402-0.233c0.193-0.737,0.32-1.48,0.428-2.228
			c0.051-0.373,0.104-0.747,0.129-1.124c0.003-0.043,0.005-0.085,0.007-0.127c0.157-0.047,0.309-0.086,0.451-0.105
			c0.189-0.027,0.354-0.017,0.464,0.031c0.111,0.043,0.199,0.123,0.289,0.258c0.087,0.134,0.155,0.318,0.207,0.516
			c0.102,0.398,0.137,0.849,0.146,1.302c0.006,0.312,0,0.634-0.016,0.951c-0.012,0.152-0.021,0.306-0.03,0.458l0,0.008
			c-0.011,0.212,0.141,0.401,0.355,0.434c0.228,0.034,0.439-0.123,0.472-0.351l0,0c0.055-0.258,0.087-0.497,0.116-0.747
			c0.029-0.24,0.044-0.483,0.052-0.728c0.052-0.303,0.119-0.6,0.208-0.882c0.112-0.353,0.268-0.683,0.476-0.9
			c0.209-0.216,0.447-0.309,0.777-0.308c0.019,0.001,0.028,0.004,0.052,0.018c0.025,0.016,0.061,0.048,0.099,0.097
			c0.079,0.098,0.154,0.25,0.216,0.414c0.124,0.331,0.206,0.711,0.266,1.096c0.119,0.769,0.167,1.581,0.17,2.364v0.015
			c0,0.002,0,0.004,0,0.006c0.006,0.279,0.236,0.499,0.514,0.492c0.278-0.005,0.499-0.236,0.493-0.515
			c-0.019-0.852-0.082-1.676-0.227-2.522c-0.076-0.422-0.169-0.845-0.339-1.278c-0.088-0.215-0.191-0.437-0.37-0.659
			c-0.091-0.109-0.205-0.22-0.356-0.31c-0.152-0.088-0.347-0.144-0.533-0.138c-0.24,0.002-0.515,0.045-0.765,0.151
			c-0.252,0.105-0.479,0.272-0.653,0.463c-0.124,0.136-0.224,0.278-0.309,0.425c-0.057-0.136-0.126-0.272-0.216-0.408
			c-0.09-0.132-0.2-0.263-0.339-0.371c-0.139-0.108-0.305-0.196-0.477-0.245c-0.35-0.097-0.683-0.045-0.955,0.048
			c-0.078,0.028-0.152,0.059-0.224,0.093c-0.002-0.062-0.003-0.124-0.008-0.186c-0.01-0.129-0.095-0.247-0.226-0.291
			c-0.036-0.012-0.072-0.017-0.107-0.017C40.486,27.037,40.356,27.124,40.309,27.263 M38.796,27.245
			c-0.224,0.434-0.236,0.729-0.323,1.172c-0.096,0.442-0.223,0.873-0.387,1.274c-0.166,0.398-0.373,0.768-0.632,1.047
			c-0.26,0.279-0.566,0.461-0.925,0.519c-0.172,0.028-0.382,0.03-0.548,0.001c-0.172-0.028-0.32-0.087-0.447-0.183
			c-0.254-0.184-0.431-0.543-0.518-0.954c-0.093-0.414-0.105-0.868-0.09-1.323c0.017-0.453,0.047-0.768,0.122-1.213l0.027-0.169
			c0.027-0.158-0.092-0.247-0.208-0.256c-0.18-0.015-0.371,0.09-0.426,0.262c-0.155,0.488-0.254,0.809-0.316,1.313
			c-0.06,0.501-0.071,1.017,0.011,1.553c0.042,0.265,0.115,0.537,0.238,0.805c0.123,0.267,0.304,0.531,0.553,0.739
			c0.247,0.21,0.553,0.347,0.852,0.413c0.15,0.035,0.298,0.053,0.444,0.06c0.038,0.001,0.07,0.004,0.112,0.004h0.046l0.06-0.001
			c0.077-0.002,0.149-0.006,0.224-0.015c0.297-0.032,0.597-0.119,0.868-0.255c0.273-0.136,0.514-0.321,0.718-0.526
			c0.41-0.414,0.682-0.898,0.885-1.385c0.203-0.488,0.336-0.987,0.433-1.486c0.101-0.5,0.136-0.845-0.037-1.369
			c-0.027-0.083-0.088-0.156-0.171-0.2c-0.062-0.033-0.123-0.045-0.177-0.045C38.955,27.026,38.796,27.245,38.796,27.245
			 M37.532,25.536c-0.086,0.085-0.126,0.188-0.152,0.296c-0.024,0.11-0.039,0.223-0.012,0.352c0.013,0.065,0.036,0.127,0.07,0.182
			c0.129,0.209,0.368,0.236,0.533,0.059c0.08-0.087,0.122-0.19,0.152-0.297c0.028-0.107,0.044-0.22,0.013-0.352
			c-0.013-0.049-0.032-0.1-0.056-0.144c-0.074-0.132-0.189-0.202-0.307-0.202C37.689,25.431,37.604,25.465,37.532,25.536
			 M36.14,25.534c-0.086,0.084-0.125,0.188-0.152,0.296c-0.024,0.109-0.038,0.223-0.013,0.352c0.013,0.064,0.036,0.127,0.07,0.182
			c0.131,0.209,0.369,0.236,0.534,0.059c0.081-0.087,0.122-0.189,0.153-0.297c0.028-0.107,0.043-0.22,0.012-0.351
			c-0.012-0.05-0.031-0.1-0.055-0.144c-0.074-0.133-0.19-0.202-0.308-0.202C36.298,25.428,36.214,25.462,36.14,25.534
			 M49.219,31.665c-0.304-0.084-0.577-0.232-0.795-0.443s-0.38-0.484-0.49-0.797c-0.097-0.27-0.146-0.56-0.176-0.873
			c0.304-0.53,0.707-0.976,1.194-1.152c0.144-0.054,0.292-0.085,0.447-0.095c0.038-0.003,0.078-0.004,0.117-0.004l0.123,0.005
			c0.061,0.005,0.141,0.016,0.21,0.031c0.287,0.066,0.563,0.224,0.777,0.441c0.218,0.213,0.374,0.484,0.453,0.779
			c0.021,0.073,0.034,0.149,0.046,0.225c0.004,0.04,0.01,0.06,0.013,0.109l0.009,0.129c0.008,0.175,0.004,0.347-0.014,0.509
			c-0.035,0.326-0.134,0.612-0.297,0.808c-0.158,0.197-0.393,0.325-0.688,0.381c-0.109,0.02-0.224,0.03-0.342,0.03
			C49.61,31.747,49.409,31.719,49.219,31.665 M47.541,24.648c-0.242,0.776-0.415,1.555-0.559,2.351
			c-0.072,0.398-0.124,0.8-0.16,1.207c-0.038,0.407-0.058,0.818-0.043,1.237c0.012,0.413,0.056,0.865,0.194,1.301
			c0.137,0.436,0.373,0.868,0.718,1.216c0.341,0.349,0.778,0.598,1.233,0.73c0.456,0.129,0.931,0.169,1.416,0.084
			c0.241-0.044,0.488-0.121,0.721-0.247c0.23-0.125,0.446-0.3,0.614-0.507c0.339-0.421,0.479-0.925,0.524-1.38
			c0.022-0.23,0.024-0.455,0.011-0.676l-0.006-0.092l-0.007-0.074c-0.005-0.047-0.018-0.125-0.026-0.184
			c-0.022-0.119-0.047-0.236-0.083-0.352c-0.141-0.464-0.405-0.894-0.764-1.223c-0.358-0.326-0.806-0.557-1.294-0.643
			c-0.125-0.021-0.241-0.033-0.378-0.034l-0.078,0.002l-0.096,0.004c-0.06,0.004-0.118,0.01-0.179,0.018
			c-0.238,0.032-0.475,0.099-0.694,0.2c-0.349,0.157-0.638,0.398-0.874,0.667c0.015-0.378,0.046-0.758,0.084-1.138
			c0.077-0.769,0.208-1.543,0.355-2.299l0.002-0.01c0.031-0.16-0.063-0.323-0.225-0.373c-0.031-0.01-0.063-0.015-0.097-0.015
			C47.714,24.419,47.585,24.509,47.541,24.648"/>
	</defs>
	<clipPath id="SVGID_2_">
		<use xlink:href="#SVGID_1_"  overflow="visible"/>
	</clipPath>
	
		<linearGradient id="SVGID_4_" gradientUnits="userSpaceOnUse" x1="-349.0415" y1="336.8799" x2="-348.9619" y2="336.8799" gradientTransform="matrix(425.8748 0 0 -425.8748 148676.3125 143497.4219)">
		<stop  offset="0" style="stop-color:#E10177"/>
		<stop  offset="0.1718" style="stop-color:#E10177"/>
		<stop  offset="0.3025" style="stop-color:#D60478"/>
		<stop  offset="0.532" style="stop-color:#B90C79"/>
		<stop  offset="0.831" style="stop-color:#8A187C"/>
		<stop  offset="1" style="stop-color:#6C207E"/>
	</linearGradient>
	<rect x="28.501" y="24.419" clip-path="url(#SVGID_2_)" fill="url(#SVGID_4_)" width="33.881" height="8.815"/>
</g>
</svg>
