<?xml version="1.0" encoding="utf-8"?>
<!-- Generator: Adobe Illustrator 15.1.0, SVG Export Plug-In  -->
<!DOCTYPE svg PUBLIC "-//W3C//DTD SVG 1.1//EN" "http://www.w3.org/Graphics/SVG/1.1/DTD/svg11.dtd" [
	<!ENTITY ns_flows "http://ns.adobe.com/Flows/1.0/">
]>
<svg version="1.1"
	 xmlns="http://www.w3.org/2000/svg" xmlns:xlink="http://www.w3.org/1999/xlink" xmlns:a="http://ns.adobe.com/AdobeSVGViewerExtensions/3.0/"
	 x="0px" y="0px" width="34px" height="34px" viewBox="0 0 34 34" overflow="visible" enable-background="new 0 0 34 34"
	 xml:space="preserve">
<defs>
</defs>
<g>
	<defs>
		<rect id="SVGID_1_" width="33.999" height="34"/>
	</defs>
	<clipPath id="SVGID_2_">
		<use xlink:href="#SVGID_1_"  overflow="visible"/>
	</clipPath>
	<path clip-path="url(#SVGID_2_)" fill="#231F20" d="M16.999,34c9.389,0,17-7.611,17-17c0-9.389-7.611-17-17-17
		C7.612,0,0,7.611,0,17C0,26.389,7.612,34,16.999,34"/>
	<path clip-path="url(#SVGID_2_)" fill="#D9E252" d="M32.322,17c0,8.464-6.86,15.323-15.323,15.323
		C8.535,32.323,1.676,25.464,1.676,17c0-8.462,6.859-15.323,15.323-15.323C25.461,1.677,32.322,8.538,32.322,17"/>
	<path clip-path="url(#SVGID_2_)" fill="#231F20" d="M16.329,17.595c0,0,1.672,1.026,0.098,1.677
		c-1.577,0.65-3.59,0.109-5.385-0.435c-1.316-0.436-2.633-0.98-3.83-1.74c-0.837-0.544-1.556-1.088-2.154-1.849
		c-0.239-0.437-0.478-0.98-0.121-1.415c0.6-0.436,2.285-0.838,2.443-0.873c2.172-0.468,3.846-0.773,4.348-0.25
		c0.274,0.316,0.061,0.589-0.184,0.662c-0.867,0.258-3.205,0.829-4.452,1.438c0.837,1.088,2.273,1.633,3.591,2.068
		c0.119,0,1.078,0.218,1.316,0.218c1.914,0.108,3.77-0.434,4.965,1.091"/>
	<path clip-path="url(#SVGID_2_)" fill="#231F20" d="M21.452,14.458c0.239,0.118,2.142,1.577,3.016,2.846
		c0.728,1.058,1.722,1.729,2.232,1.326c0.979-0.774-3.093-9.438-3.093-9.438s-0.47-1.351-0.959-2.753
		c-0.304-0.873-0.991-2.263-2.034-1.794c-1.234,0.555-0.119,2.393,0.24,3.471c1.316,2.873,3.351,5.266,4.547,8.138
		c-0.598-0.478-0.889-1.043-1.557-1.677c-0.857-0.814-2.119-1.912-3.313-1.312c-1.076,0.478-0.858,2.01-0.755,2.989
		c0.046,0.779,0.523,4.837-0.514,7.272c-0.859,2.131-3.97,4.48-3.78,5.056c-0.24,0.599,1.78,1.315,2.619,1.436
		c1.077,0.239,1.914-0.359,2.513-1.197C23.007,24.272,21.81,19.244,21.452,14.458"/>
	<path clip-path="url(#SVGID_2_)" fill="#231F20" d="M13.662,8.134c-0.016,0.043-0.03,0.086-0.041,0.13
		c-0.007,0.021-0.011,0.041-0.016,0.061c-0.099,0.402-0.089,0.819,0.008,1.227c0.102,0.481,0.314,0.974,0.636,1.425
		c0.831,1.159,2.094,1.629,2.951,1.146c0.047-0.022,0.411-0.335,0.488-0.444c2.326-2.708-0.947-6-2.586-5.116
		c-0.752,0.404-1.199,0.929-1.415,1.496C13.678,8.083,13.67,8.108,13.662,8.134"/>
</g>
</svg>
