<?xml version="1.0" encoding="utf-8"?>
<!-- Generator: Adobe Illustrator 15.0.2, SVG Export Plug-In . SVG Version: 6.00 Build 0)  -->
<!DOCTYPE svg PUBLIC "-//W3C//DTD SVG 1.1//EN" "http://www.w3.org/Graphics/SVG/1.1/DTD/svg11.dtd">
<svg version="1.1" id="Layer_1" xmlns="http://www.w3.org/2000/svg" xmlns:xlink="http://www.w3.org/1999/xlink" x="0px" y="0px"
	 width="84.002px" height="61.949px" viewBox="0 0 84.002 61.949" enable-background="new 0 0 84.002 61.949" xml:space="preserve">
<g>
	<path fill="#231F20" d="M77.87,49.163c-5.091-1.502-12.394-3.664-16.933-9.996c1.92,0.239,5.171,0.586,7.97,0.585
		c1.741,0,3.306-0.134,4.261-0.51c1.353-0.532,2.887-1.138,2.789-2.415c-0.09-1.18-1.188-1.95-7.461-3.395
		c-7.219-1.664-10.721-4.78-11.55-5.61c-0.107-1.088-0.166-2.231-0.166-3.441c0-1.36,0.067-2.737,0.131-4.067
		c0.233-4.748,0.451-9.239-2.223-12.769c-0.078-3.437-1.346-6.357-1.401-6.482c-0.139-0.315-0.428-0.54-0.771-0.597l-0.965-0.158
		c-0.07-0.011-0.14-0.016-0.208-0.014c-0.063-0.023-0.13-0.041-0.198-0.054L49.76,0.014c-0.527-0.086-1.032,0.242-1.161,0.755
		c-0.005,0.024-0.555,2.194-1.521,5.065c-5.05,0.924-6.754,6.397-8.264,11.25c-0.633,2.03-1.229,3.946-2.021,5.507
		C26.809,42.281,9.62,44.235,3.148,44.971c-2.15,0.243-2.955,0.335-3.118,1.296c-0.088,0.521-0.029,1.332,0.745,2.239
		C2.202,50.177,6,51.965,12.38,51.965c9.299,0,15.778-3.15,20.206-6.932c-2.006,2.715-4.515,5.36-7.597,7.402
		c-1.852,1.228-3.54,2.267-5.03,3.183c-3.988,2.451-5.638,3.465-5.232,4.879c0.354,1.235,1.998,1.453,5.318,1.453
		c4.781,0,12.131-1.535,18.417-5.845c3.958-2.716,8.473-7.276,10.609-14.629c1.556,4.828,5.36,10.28,14.295,13.173
		c5.918,1.915,17.262,1.267,19.752-0.23c0.487-0.292,0.772-0.664,0.847-1.105C84.344,51.072,81.629,50.271,77.87,49.163
		 M68.033,35.411c3.146,0.724,4.654,1.215,5.376,1.524c-0.258,0.119-0.59,0.259-0.997,0.419c-2.212,0.87-9.952,0.002-12.748-0.406
		c-0.036-0.006-0.07,0.006-0.106,0.005c-0.933-1.752-1.673-3.769-2.155-6.095C59.396,32.297,62.811,34.207,68.033,35.411
		 M64.001,52.718c-11.393-3.687-13.637-11.701-13.9-16.485c0.142-1.268,0.216-2.601,0.216-4c0-0.521-0.4-0.96-0.924-1.011
		c-0.522-0.059-1.003,0.3-1.105,0.812c-0.01,0.05-0.294,1.562-0.202,3.813C46.047,55.481,27.459,59.92,20.045,59.92
		c-1.415,0-2.274-0.058-2.795-0.123c0.809-0.622,2.317-1.549,3.787-2.453c1.506-0.925,3.21-1.973,5.09-3.218
		C37.123,46.837,41.076,32.9,41.251,32.261l0.001-0.002c0.149-0.542-0.172-1.098-0.717-1.246c-0.544-0.149-1.106,0.168-1.258,0.708
		c-0.208,0.742-5.351,18.213-26.897,18.213c-5.321,0-8.878-1.376-10.042-2.739c-0.02-0.026-0.041-0.05-0.059-0.074
		c0.33-0.045,0.728-0.09,1.103-0.132c6.124-0.696,24.763-2.815,35.243-23.485c0.867-1.712,1.516-3.799,2.146-5.819
		c1.521-4.89,2.959-9.509,7.176-9.922c0.398-0.04,0.738-0.306,0.867-0.682c0.729-2.108,1.249-3.894,1.53-4.912l0.467,0.077
		c0.069,0.011,0.139,0.015,0.209,0.013c0.062,0.023,0.127,0.041,0.196,0.052l0.389,0.066c0.35,0.955,1.043,3.152,1.039,5.521
		c0,0.233,0.08,0.459,0.228,0.641c2.419,2.968,2.213,7.199,1.994,11.678c-0.066,1.355-0.134,2.756-0.134,4.166
		c0,20.075,14.673,24.404,22.555,26.728c1.705,0.503,3.979,1.174,4.539,1.704C79.729,53.759,69.606,54.533,64.001,52.718"/>
	<path fill="#231F20" d="M47.715,9.14c-0.143,0.074-3.513,1.877-4.684,8.481c-0.099,0.552,0.274,1.078,0.831,1.175
		c0.062,0.011,0.119,0.016,0.179,0.016c0.488,0,0.921-0.347,1.008-0.839c0.974-5.484,3.558-7.001,3.621-7.037
		c0.494-0.262,0.685-0.869,0.427-1.363C48.836,9.075,48.217,8.883,47.715,9.14"/>
</g>
</svg>
