<?xml version="1.0" encoding="utf-8"?>
<!-- Generator: Adobe Illustrator 15.0.2, SVG Export Plug-In . SVG Version: 6.00 Build 0)  -->
<!DOCTYPE svg PUBLIC "-//W3C//DTD SVG 1.1//EN" "http://www.w3.org/Graphics/SVG/1.1/DTD/svg11.dtd">
<svg version="1.1" id="Layer_1" xmlns="http://www.w3.org/2000/svg" xmlns:xlink="http://www.w3.org/1999/xlink" x="0px" y="0px"
	 width="137.002px" height="52.293px" viewBox="0 0 137.002 52.293" enable-background="new 0 0 137.002 52.293"
	 xml:space="preserve">
<g>
	<path fill="#231F20" d="M112.695,7.735h-25.01v-4.26C87.686,1.56,86.12,0,84.195,0H52.54c-1.924,0-3.491,1.56-3.491,3.475v4.26
		H24.04c-1.924,0-3.491,1.558-3.491,3.473v37.609c0,1.916,1.567,3.475,3.491,3.475h88.656c1.925,0,3.491-1.559,3.491-3.475V11.208
		C116.187,9.293,114.62,7.735,112.695,7.735 M51.109,3.475c0-0.807,0.641-1.463,1.43-1.463h31.656c0.789,0,1.431,0.657,1.431,1.463
		v4.26H51.109V3.475z M114.126,48.817c0,0.807-0.642,1.463-1.431,1.463H24.04c-0.79,0-1.43-0.656-1.43-1.463V11.208
		c0-0.806,0.641-1.462,1.43-1.462h88.656c0.789,0,1.431,0.656,1.431,1.462V48.817z"/>
	<path fill="#231F20" d="M41.767,17.331c-6.985,0-12.667,5.688-12.667,12.681c0,6.99,5.682,12.68,12.667,12.68
		c6.984,0,12.666-5.689,12.666-12.68C54.432,23.02,48.751,17.331,41.767,17.331 M41.767,40.681c-5.849,0-10.607-4.787-10.607-10.669
		c0-5.883,4.759-10.668,10.607-10.668c5.848,0,10.607,4.785,10.607,10.668C52.374,35.894,47.615,40.681,41.767,40.681"/>
	<path fill="#231F20" d="M41.767,22.336c-4.234,0-7.68,3.443-7.68,7.676c0,4.232,3.446,7.676,7.68,7.676
		c4.233,0,7.679-3.443,7.679-7.676C49.446,25.779,46,22.336,41.767,22.336 M41.767,35.678c-3.099,0-5.619-2.542-5.619-5.666
		c0-3.123,2.521-5.665,5.619-5.665c3.098,0,5.619,2.542,5.619,5.665C47.386,33.136,44.864,35.678,41.767,35.678"/>
	<path fill="#231F20" d="M95.267,22.336c-4.233,0-7.678,3.443-7.678,7.676c0,4.232,3.444,7.676,7.678,7.676
		c4.234,0,7.68-3.443,7.68-7.676C102.946,25.779,99.501,22.336,95.267,22.336 M95.267,35.678c-3.099,0-5.618-2.542-5.618-5.666
		c0-3.123,2.52-5.665,5.618-5.665s5.619,2.542,5.619,5.665C100.886,33.136,98.365,35.678,95.267,35.678"/>
	<path fill="#231F20" d="M95.267,17.331c-6.984,0-12.666,5.688-12.666,12.681c0,6.99,5.682,12.68,12.666,12.68
		s12.667-5.689,12.667-12.68C107.934,23.02,102.251,17.331,95.267,17.331 M95.267,40.681c-5.848,0-10.605-4.787-10.605-10.669
		c0-5.883,4.758-10.668,10.605-10.668c5.849,0,10.606,4.785,10.606,10.668C105.873,35.894,101.115,40.681,95.267,40.681"/>
	<path fill="#231F20" d="M75.065,25.172H61.669c-1.142,0-2.069,0.919-2.069,2.049v5.582c0,1.131,0.928,2.051,2.069,2.051h13.396
		c1.143,0,2.071-0.92,2.071-2.051v-5.582C77.137,26.091,76.208,25.172,75.065,25.172 M75.06,32.842l-13.4-0.039l0.009-5.621
		l13.408,0.039L75.06,32.842z"/>
	<path fill="#231F20" d="M63.725,20.032c0-0.555-0.46-1.005-1.029-1.005h-3.491c-0.57,0-1.031,0.45-1.031,1.005
		c0,0.554,0.461,1.005,1.031,1.005h3.491C63.264,21.037,63.725,20.585,63.725,20.032"/>
	<path fill="#231F20" d="M66.329,21.037h3.49c0.57,0,1.03-0.451,1.03-1.005c0-0.556-0.46-1.006-1.03-1.006h-3.49
		c-0.569,0-1.029,0.451-1.029,1.006C65.3,20.586,65.76,21.037,66.329,21.037"/>
	<path fill="#231F20" d="M76.944,19.026h-3.49c-0.569,0-1.03,0.451-1.03,1.005c0,0.555,0.461,1.006,1.03,1.006h3.49
		c0.568,0,1.029-0.451,1.029-1.006C77.974,19.477,77.513,19.026,76.944,19.026"/>
	<path fill="#231F20" d="M124.794,24.167c0.251,0,0.5-0.088,0.699-0.267l5.95-5.362c0.418-0.377,0.443-1.014,0.057-1.421
		c-0.385-0.408-1.037-0.432-1.456-0.056l-5.949,5.361c-0.417,0.375-0.443,1.011-0.057,1.42
		C124.24,24.057,124.517,24.167,124.794,24.167"/>
	<path fill="#231F20" d="M125.871,34.7c-0.374-0.418-1.026-0.461-1.453-0.095c-0.43,0.364-0.472,1.001-0.098,1.419l5.344,5.971
		c0.203,0.227,0.488,0.344,0.775,0.344c0.24,0,0.482-0.082,0.678-0.25c0.429-0.365,0.472-1,0.098-1.418L125.871,34.7z"/>
	<path fill="#231F20" d="M135.97,28.133h-11.177c-0.568,0-1.029,0.451-1.029,1.006s0.461,1.005,1.029,1.005h11.177
		c0.569,0,1.03-0.45,1.03-1.005S136.539,28.133,135.97,28.133"/>
	<path fill="#231F20" d="M11.507,35.232l-5.95,5.36c-0.418,0.377-0.443,1.014-0.058,1.422c0.202,0.213,0.479,0.324,0.756,0.324
		c0.251,0,0.501-0.09,0.699-0.268l5.951-5.361c0.417-0.376,0.443-1.014,0.058-1.42C12.578,34.881,11.924,34.856,11.507,35.232"/>
	<path fill="#231F20" d="M11.129,24.431c0.203,0.228,0.488,0.344,0.775,0.344c0.24,0,0.483-0.082,0.679-0.249
		c0.428-0.365,0.471-1,0.096-1.419l-5.343-5.969c-0.373-0.418-1.025-0.461-1.454-0.095c-0.429,0.365-0.472,1-0.096,1.419
		L11.129,24.431z"/>
	<path fill="#231F20" d="M12.207,28.985H1.03C0.461,28.985,0,29.436,0,29.99c0,0.557,0.461,1.006,1.03,1.006h11.177
		c0.569,0,1.029-0.449,1.029-1.006C13.235,29.436,12.775,28.985,12.207,28.985"/>
</g>
</svg>
