<?xml version="1.0" encoding="utf-8"?>
<!-- Generator: Adobe Illustrator 15.0.2, SVG Export Plug-In . SVG Version: 6.00 Build 0)  -->
<!DOCTYPE svg PUBLIC "-//W3C//DTD SVG 1.1//EN" "http://www.w3.org/Graphics/SVG/1.1/DTD/svg11.dtd">
<svg version="1.1" id="Layer_1" xmlns="http://www.w3.org/2000/svg" xmlns:xlink="http://www.w3.org/1999/xlink" x="0px" y="0px"
	 width="94.003px" height="31.334px" viewBox="0 0 94.003 31.334" enable-background="new 0 0 94.003 31.334" xml:space="preserve">
<g>
	<path fill="#231F20" d="M93.22,25.958c-1.706-2.396-5.453-4.705-7.284-5.743c3.08-5.046,4.54-11.487,4.54-17.899
		c0-0.479-0.363-0.89-0.857-0.968C89.532,1.334,80.882,0,72.255,0C67.81,0,59.117,1.669,53.625,5.377
		c-0.021,0.012-0.043,0.025-0.063,0.038c-0.039,0.025-0.947,0.61-2.352,1.807c-1.947,1.661-2.677,2.282-4.279,2.296
		c-1.621-0.014-2.351-0.636-4.348-2.337c-1.354-1.155-2.262-1.74-2.299-1.765c-0.022-0.012-0.042-0.026-0.065-0.037
		C34.725,1.669,26.032,0,21.586,0C12.959,0,4.31,1.334,4.223,1.348C3.73,1.426,3.367,1.836,3.367,2.316
		c0,7.647,1.753,13.597,4.543,17.987c-1.878,1.076-5.47,3.323-7.13,5.657c-1.297,1.826-0.691,3.133-0.213,3.75
		c0.845,1.092,2.49,1.623,3.996,1.623c0.552,0,1.086-0.072,1.557-0.213c1.259-0.377,2.31-1.811,3.422-3.328
		c0.703-0.961,1.882-2.566,2.466-2.648c0.009-0.002,0.029-0.008,0.104,0.049l0.009-0.012c3.775,3.219,8.365,4.76,12.939,4.76
		c10.315,0,16.534-6.326,18.778-11.828c0.039-0.061,0.072-0.126,0.097-0.195c0.778-2.184,2.468-2.354,2.966-2.355h0.034
		c0.499,0.001,2.191,0.171,2.969,2.355c0.025,0.068,0.057,0.133,0.096,0.191c2.241,5.503,8.46,11.832,18.779,11.832
		c5.417,0,9.748-1.82,13.076-4.786l0.031,0.038c0.075-0.057,0.095-0.051,0.104-0.049c0.584,0.082,1.763,1.688,2.466,2.648
		c1.113,1.518,2.163,2.951,3.423,3.328c0.47,0.141,1.003,0.213,1.556,0.213c1.507,0,3.151-0.531,3.996-1.623
		C93.912,29.093,94.517,27.786,93.22,25.958 M7.869,26.665c-0.743,1.018-1.763,2.408-2.36,2.586
		c-1.109,0.332-2.772-0.025-3.299-0.707c-0.103-0.133-0.414-0.533,0.26-1.48c1.456-2.047,4.87-4.154,6.583-5.131
		c0.477,0.623,0.975,1.206,1.496,1.754C9.602,24.317,8.752,25.464,7.869,26.665 M51.837,17.228
		c-0.021-0.051-0.045-0.102-0.072-0.148c-1.285-3.285-4.209-3.472-4.823-3.476H46.9c-0.599,0.002-3.533,0.18-4.821,3.474
		c-0.028,0.047-0.052,0.098-0.074,0.15c-1.944,4.961-7.548,10.754-16.943,10.754c-4.826,0-8.7-1.635-11.694-4.309l0.012-0.017
		c-0.032-0.024-0.069-0.04-0.102-0.062C8.093,18.902,5.584,11.065,5.419,3.155c2.377-0.33,9.284-1.197,16.167-1.197
		c2.294,0,5.952,0.51,9.614,1.573l-8.86,16.529c-0.257,0.481-0.061,1.071,0.442,1.32c0.149,0.073,0.311,0.106,0.466,0.106
		c0.372,0,0.728-0.193,0.91-0.531L33.161,4.16c2.169,0.756,4.255,1.709,5.962,2.875c0.033,0.023,0.066,0.042,0.1,0.061
		c0.236,0.159,0.987,0.685,2.047,1.585c2.028,1.731,3.253,2.775,5.66,2.795c2.387-0.02,3.61-1.062,5.688-2.834
		c1.02-0.869,1.766-1.387,2-1.547c0.034-0.018,0.068-0.037,0.101-0.061c5.064-3.463,13.459-5.077,17.537-5.077
		c0.558,0,1.113,0.007,1.668,0.018L64.42,19.704c-0.257,0.48-0.06,1.07,0.442,1.317c0.149,0.073,0.31,0.107,0.466,0.107
		c0.371,0,0.728-0.193,0.909-0.53l9.946-18.555c5.436,0.228,10.318,0.845,12.24,1.111c-0.263,12.495-6.366,24.826-19.644,24.826
		C59.386,27.981,53.782,22.188,51.837,17.228 M91.792,28.544c-0.527,0.682-2.19,1.041-3.3,0.707
		c-0.598-0.178-1.618-1.568-2.361-2.586c-0.903-1.23-1.771-2.406-2.746-3.025c0.509-0.563,0.99-1.156,1.443-1.775
		c1.671,0.943,5.213,3.104,6.703,5.197C92.206,28.011,91.894,28.411,91.792,28.544"/>
	<path fill="#231F20" d="M22.632,10.665c-0.502-0.246-1.118-0.055-1.375,0.424l-5.249,9.787c-0.257,0.481-0.059,1.072,0.443,1.319
		c0.15,0.073,0.309,0.108,0.465,0.108c0.371,0,0.729-0.195,0.91-0.531l5.247-9.789C23.33,11.503,23.133,10.911,22.632,10.665"/>
	<path fill="#231F20" d="M64.71,10.306c-0.504-0.247-1.118-0.056-1.376,0.424l-5.246,9.789c-0.258,0.48-0.061,1.072,0.441,1.318
		c0.15,0.073,0.31,0.109,0.467,0.109c0.371,0,0.728-0.195,0.909-0.533l5.246-9.787C65.41,11.144,65.21,10.553,64.71,10.306"/>
</g>
</svg>
