<?xml version="1.0" encoding="utf-8"?>
<!-- Generator: Adobe Illustrator 15.1.0, SVG Export Plug-In  -->
<!DOCTYPE svg PUBLIC "-//W3C//DTD SVG 1.1//EN" "http://www.w3.org/Graphics/SVG/1.1/DTD/svg11.dtd" [
	<!ENTITY ns_flows "http://ns.adobe.com/Flows/1.0/">
]>
<svg version="1.1"
	 xmlns="http://www.w3.org/2000/svg" xmlns:xlink="http://www.w3.org/1999/xlink" xmlns:a="http://ns.adobe.com/AdobeSVGViewerExtensions/3.0/"
	 x="0px" y="0px" width="69px" height="73px" viewBox="0 -1.569 69 73" overflow="visible" enable-background="new 0 -1.569 69 73"
	 xml:space="preserve">
<defs>
</defs>
<path fill="#E73E5D" d="M67.151,59.352L48.718,41.188c6.905-10.278,5.812-24.351-3.298-33.423C40.393,2.756,33.707,0,26.594,0
	C19.48,0,12.795,2.756,7.769,7.765c-10.358,10.319-10.358,27.108,0,37.422c5.027,5.01,11.712,7.767,18.828,7.767
	c5.021,0,9.819-1.398,13.984-3.971l18.608,18.332c1.226,1.067,2.614,1.601,3.989,1.601c1.385,0,2.757-0.541,3.942-1.617
	c1.134-1.034,1.771-2.413,1.793-3.885C68.937,61.916,68.31,60.472,67.151,59.352 M9.525,43.529c-9.44-9.401-9.44-24.702,0-34.108
	c4.561-4.543,10.623-7.045,17.068-7.045c6.446,0,12.507,2.502,17.069,7.045c9.441,9.406,9.444,24.708,0.01,34.108
	c-4.567,4.545-10.631,7.047-17.077,7.047C20.148,50.576,14.086,48.074,9.525,43.529 M65.439,65.567
	c-1.446,1.314-3.084,1.31-4.56,0.031L42.608,47.596c0.982-0.743,1.938-1.526,2.821-2.409c0.656-0.651,1.27-1.334,1.842-2.034
	l18.14,17.872c0.692,0.668,1.062,1.505,1.05,2.353C66.449,64.197,66.086,64.976,65.439,65.567"/>
<path fill="#E73E5D" d="M26.472,30.904c-3.768,0-7.298,1.457-9.683,3.995c-0.455,0.485-0.42,1.238,0.081,1.679
	c0.501,0.443,1.275,0.407,1.732-0.081c1.922-2.042,4.791-3.215,7.87-3.215c3.212,0,6.161,1.262,8.088,3.465
	c0.243,0.277,0.588,0.419,0.937,0.419c0.279,0,0.561-0.094,0.791-0.282c0.516-0.424,0.581-1.174,0.143-1.674
	C34.035,32.473,30.406,30.904,26.472,30.904"/>
<path fill="#E73E5D" d="M18.631,24.376c1.613,0,2.92-1.245,2.92-2.779c0-1.533-1.308-2.779-2.92-2.779
	c-1.615,0-2.922,1.246-2.922,2.779C15.709,23.131,17.016,24.376,18.631,24.376"/>
<path fill="#E73E5D" d="M34.562,18.819c-1.615,0-2.921,1.245-2.921,2.778c0,1.534,1.306,2.779,2.921,2.779
	c1.614,0,2.921-1.245,2.921-2.779C37.482,20.064,36.176,18.819,34.562,18.819"/>
</svg>
