<?xml version="1.0" encoding="utf-8"?>
<!-- Generator: Adobe Illustrator 15.0.2, SVG Export Plug-In . SVG Version: 6.00 Build 0)  -->
<!DOCTYPE svg PUBLIC "-//W3C//DTD SVG 1.1//EN" "http://www.w3.org/Graphics/SVG/1.1/DTD/svg11.dtd">
<svg version="1.1" id="Layer_1" xmlns="http://www.w3.org/2000/svg" xmlns:xlink="http://www.w3.org/1999/xlink" x="0px" y="0px"
	 width="84.002px" height="84.002px" viewBox="0 0 84.002 84.002" enable-background="new 0 0 84.002 84.002" xml:space="preserve">
<g>
	<path fill="none" d="M42,2C19.909,2,2,19.908,2,42c0,22.091,17.909,40,40,40s40-17.909,40-40C82,19.908,64.091,2,42,2z
		 M34.184,53.692V30.308L53.816,42L34.184,53.692z"/>
	<polygon fill="#333333" points="34.184,53.692 53.816,42 34.184,30.308 	"/>
	<path fill="#333333" d="M42,0C18.841,0,0,18.841,0,42s18.841,42,42,42s42-18.841,42-42S65.159,0,42,0z M42,82
		C19.909,82,2,64.091,2,42C2,19.908,19.909,2,42,2s40,17.908,40,40C82,64.091,64.091,82,42,82z"/>
</g>
</svg>
