<?xml version="1.0" encoding="utf-8"?>
<!-- Generator: Adobe Illustrator 15.0.2, SVG Export Plug-In . SVG Version: 6.00 Build 0)  -->
<!DOCTYPE svg PUBLIC "-//W3C//DTD SVG 1.1//EN" "http://www.w3.org/Graphics/SVG/1.1/DTD/svg11.dtd">
<svg version="1.1" id="Layer_1" xmlns="http://www.w3.org/2000/svg" xmlns:xlink="http://www.w3.org/1999/xlink" x="0px" y="0px"
	 width="74.002px" height="32.774px" viewBox="0 0 74.002 32.774" enable-background="new 0 0 74.002 32.774" xml:space="preserve">
<g>
	<path fill="#231F20" d="M11.16,7.11c-2.343,0-4.376,2.328-5.178,5.931c-0.203,0.909,0.617,2.047,2.437,3.392
		c-1.402,1.167-2.63,2.552-2.349,3.665c0.864,3.432,2.815,5.564,5.09,5.564c3.105,0,5.535-4.074,5.535-9.276
		C16.695,11.186,14.265,7.11,11.16,7.11 M11.16,23.676c-1.204,0-2.456-1.615-3.066-3.942c0.183-0.466,1.405-1.648,2.647-2.554
		c0.264-0.195,0.417-0.501,0.406-0.821c-0.008-0.322-0.179-0.618-0.453-0.797c-1.203-0.78-2.418-1.811-2.668-2.249
		c0.589-2.491,1.867-4.217,3.135-4.217c1.647,0,3.48,2.994,3.48,7.29S12.808,23.676,11.16,23.676"/>
	<path fill="#231F20" d="M72.373,12.258H22.749c-0.258,0-0.518,0.015-0.779,0.044C20.724,5.112,16.291,0,11.16,0
		C5.007,0,0,7.352,0,16.386c0,9.036,5.007,16.386,11.16,16.386c4.828,0,9.081-4.547,10.579-11.181
		c0.335,0.046,0.673,0.071,1.009,0.071h32.249v2.859c0,0.941,0.729,1.709,1.626,1.709h5.396c0.896,0,1.626-0.768,1.626-1.709v-2.859
		h1.705v2.859c0,0.941,0.729,1.709,1.627,1.709h5.396c0.898,0,1.627-0.768,1.627-1.709V13.965
		C74,13.024,73.271,12.258,72.373,12.258 M71.944,24.245h-4.538v-3.576c0-0.549-0.46-0.992-1.028-0.992h-3.76
		c-0.567,0-1.029,0.443-1.029,0.992v3.576h-4.537v-3.576c0-0.549-0.458-0.992-1.028-0.992H22.749c-0.508,0-1.018-0.076-1.516-0.223
		c-0.28-0.081-0.586-0.047-0.839,0.104c-0.25,0.149-0.424,0.396-0.474,0.678c-1.104,6.213-4.707,10.551-8.76,10.551
		c-5.02,0-9.104-6.459-9.104-14.4c0-7.938,4.083-14.399,9.104-14.399c4.324,0,8.078,4.883,8.926,11.611
		c0.037,0.286,0.2,0.542,0.448,0.704c0.249,0.161,0.557,0.209,0.844,0.132c0.482-0.127,0.93-0.189,1.371-0.189h49.196V24.245z"/>
</g>
</svg>
