<?xml version="1.0" encoding="utf-8"?>
<!-- Generator: Adobe Illustrator 15.0.2, SVG Export Plug-In . SVG Version: 6.00 Build 0)  -->
<!DOCTYPE svg PUBLIC "-//W3C//DTD SVG 1.1//EN" "http://www.w3.org/Graphics/SVG/1.1/DTD/svg11.dtd">
<svg version="1.1" id="Layer_1" xmlns="http://www.w3.org/2000/svg" xmlns:xlink="http://www.w3.org/1999/xlink" x="0px" y="0px"
	 width="14.875px" height="14.998px" viewBox="0 0 14.875 14.998" enable-background="new 0 0 14.875 14.998" xml:space="preserve">
<g>
	<path fill="#ADADB1" d="M14.406,12.27L11.17,9.035C11.693,8.144,12,7.108,12,6c0-3.313-2.686-6-6-6C2.687,0,0,2.687,0,6
		s2.687,6,6,6c1.044,0,2.025-0.268,2.881-0.737l3.266,3.267c0.625,0.623,1.635,0.623,2.26,0
		C15.029,13.904,15.029,12.894,14.406,12.27z M7.644,9.637C7.141,9.865,6.587,10,6,10c-2.206,0-4-1.795-4-4c0-2.206,1.794-4,4-4
		s4,1.794,4,4c0,0.644-0.166,1.243-0.438,1.782C9.152,8.599,8.479,9.258,7.644,9.637z"/>
</g>
</svg>
