<?xml version="1.0" encoding="UTF-8" standalone="no"?>
<svg width="15px" height="15px" viewBox="0 0 15 15" version="1.1" xmlns="http://www.w3.org/2000/svg" xmlns:xlink="http://www.w3.org/1999/xlink" xmlns:sketch="http://www.bohemiancoding.com/sketch/ns">
    <!-- Generator: Sketch 3.0.1 (7597) - http://www.bohemiancoding.com/sketch -->
    <title>icon-search-black</title>
    <description>Created with Sketch.</description>
    <defs></defs>
    <g id="Page-1" stroke="none" stroke-width="1" fill="none" fill-rule="evenodd" sketch:type="MSPage">
        <g id="icon-search" sketch:type="MSLayerGroup" fill="#000000">
            <path d="M14.406,12.27 L11.17,9.035 C11.693,8.144 12,7.108 12,6 C12,2.687 9.314,0 6,0 C2.687,0 0,2.687 0,6 C0,9.313 2.687,12 6,12 C7.044,12 8.025,11.732 8.881,11.263 L12.147,14.53 C12.772,15.153 13.782,15.153 14.407,14.53 C15.029,13.904 15.029,12.894 14.406,12.27 L14.406,12.27 Z M7.644,9.637 C7.141,9.865 6.587,10 6,10 C3.794,10 2,8.205 2,6 C2,3.794 3.794,2 6,2 C8.206,2 10,3.794 10,6 C10,6.644 9.834,7.243 9.562,7.782 C9.152,8.599 8.479,9.258 7.644,9.637 L7.644,9.637 Z" id="Shape" sketch:type="MSShapeGroup"></path>
        </g>
    </g>
</svg>