<?xml version="1.0" encoding="utf-8"?>
<!-- Generator: Adobe Illustrator 15.0.2, SVG Export Plug-In . SVG Version: 6.00 Build 0)  -->
<!DOCTYPE svg PUBLIC "-//W3C//DTD SVG 1.1//EN" "http://www.w3.org/Graphics/SVG/1.1/DTD/svg11.dtd">
<svg version="1.1" id="Layer_1" xmlns="http://www.w3.org/2000/svg" xmlns:xlink="http://www.w3.org/1999/xlink" x="0px" y="0px"
	 width="53px" height="33.279px" viewBox="0 0 53 33.279" enable-background="new 0 0 53 33.279" xml:space="preserve">
<path fill="#231F20" d="M48.801,0H4.2C1.884,0,0,1.776,0,3.961v25.36c0,2.184,1.884,3.959,4.2,3.959h44.602
	c2.316,0,4.199-1.775,4.199-3.959V3.961C53,1.776,51.118,0,48.801,0 M39.295,16.961l11.35-7.934v20.229L39.295,16.961z M4.2,2.297
	h44.602c1.016,0,1.844,0.746,1.844,1.664v2.242L29.03,21.313c-0.805,0.514-1.582,0.756-2.447,0.756
	c-0.866,0-1.645-0.242-2.409-0.729L2.355,6.088V3.961C2.355,3.042,3.183,2.297,4.2,2.297 M2.368,29.438
	c-0.001-0.039-0.013-0.076-0.013-0.117V8.912l11.523,8.055L2.368,29.438z M4.2,30.983c-0.028,0-0.057-0.006-0.085-0.006
	l11.688-12.665l7.038,4.919c1.19,0.762,2.414,1.131,3.74,1.133l0.002-1.147l0.004,1.147c1.324-0.002,2.547-0.371,3.777-1.159
	l7.008-4.898l11.682,12.655c-0.084,0.01-0.166,0.021-0.252,0.021H4.2z"/>
<rect x="-45.667" y="-55.361" fill="none" width="144.334" height="144"/>
</svg>
