<?xml version="1.0" encoding="utf-8"?>
<!-- Generator: Adobe Illustrator 15.0.2, SVG Export Plug-In . SVG Version: 6.00 Build 0)  -->
<!DOCTYPE svg PUBLIC "-//W3C//DTD SVG 1.1//EN" "http://www.w3.org/Graphics/SVG/1.1/DTD/svg11.dtd">
<svg version="1.1" id="Layer_1" xmlns="http://www.w3.org/2000/svg" xmlns:xlink="http://www.w3.org/1999/xlink" x="0px" y="0px"
	 width="53.047px" height="34.797px" viewBox="0 0 53.047 34.797" enable-background="new 0 0 53.047 34.797" xml:space="preserve">
<g>
	<path fill="#1D1D24" d="M50.729,16.131c-2.577-4.576-4.127-7.001-9.218-7.001h-4.493c-0.505-7.199-4.931-9.083-10.318-9.083
		c-5.389,0-9.814,1.883-10.319,9.083h-4.825c-5.091,0-7.313,2.077-9.218,7.001l-2.304,9.334c0,5.153,1.822,9.332,6.912,9.332h39.174
		c5.091,0,6.914-4.179,6.914-9.332L50.729,16.131z M26.699,4.047c3.829,0,5.942,0.838,6.307,5.083H20.392
		C20.756,4.885,22.87,4.047,26.699,4.047z M4.038,25.93l2.119-8.586c1.457-3.682,2.491-4.213,5.397-4.213h2.711l-1.938,17.667H6.945
		C6.028,30.797,4.15,30.797,4.038,25.93z M16.937,30.797l1.269-11.563l0.67-6.104h1.639h12.37h1.54l0.687,6.263l1.252,11.404H16.937
		z M46.119,30.797h-5.148L39.033,13.13h2.478c2.566,0,3.156,0.431,5.466,4.493l2.052,8.307
		C48.916,30.797,47.037,30.797,46.119,30.797z"/>
</g>
</svg>
