<?xml version="1.0" encoding="utf-8"?><!DOCTYPE svg PUBLIC "-//W3C//DTD SVG 1.1//EN" "http://www.w3.org/Graphics/SVG/1.1/DTD/svg11.dtd"><svg width="61" height="2041" viewBox="0 0 61 2041" xmlns="http://www.w3.org/2000/svg" xmlns:xlink="http://www.w3.org/1999/xlink"><svg width="26" height="26" viewBox="-184.8 245 26 26" id="icon_add-green"><path fill="#D9E153" d="M-171.8 270c-.9 0-1.6-.7-1.6-1.6v-20.8c0-.9.7-1.6 1.6-1.6s1.6.7 1.6 1.6v20.8c0 .9-.7 1.6-1.6 1.6z"/><path fill="#D9E153" d="M-161.4 259.6h-20.8c-.9 0-1.6-.7-1.6-1.6s.7-1.6 1.6-1.6h20.8c.9 0 1.6.7 1.6 1.6s-.7 1.6-1.6 1.6z"/></svg><svg width="26" height="26" viewBox="-184.8 279 26 26" id="icon_add-white" y="26"><path fill="#FFF" d="M-171.8 304c-.9 0-1.6-.7-1.6-1.6v-20.8c0-.9.7-1.6 1.6-1.6s1.6.7 1.6 1.6v20.8c0 .9-.7 1.6-1.6 1.6z"/><path fill="#FFF" d="M-161.4 293.6h-20.8c-.9 0-1.6-.7-1.6-1.6s.7-1.6 1.6-1.6h20.8c.9 0 1.6.7 1.6 1.6s-.7 1.6-1.6 1.6z"/></svg><svg width="25.1" height="24.8" viewBox="-326.9 313 25.1 24.8" id="icon_avatar-green" y="52"><path fill="#D9E153" d="M-310.2 326.2l-.1-.1-.4-.2.3-.2c.1-.1.3-.2.4-.3l.1-.1c1.4-1.2 2.2-3 2.2-4.8 0-3.6-3-6.5-6.6-6.5-3.7 0-6.6 3-6.6 6.5 0 1.8.8 3.6 2.2 4.8l.1.1h.1c.1.1.3.2.4.3l.3.2-.4.2h-.2c-5 2.1-7.5 5.3-7.5 9.8 0 .5.4.9.9.9h21.3c.5 0 .9-.4.9-.9-.3-4.3-2.7-7.7-7.4-9.7zm-14.1 9v-.2c.3-3.3 2.4-5.6 6.4-7.3.6-.2 1.6-.6 1.6-1.8 0-.9-.7-1.4-1.1-1.7-.1-.1-.2-.2-.3-.2-1.1-.9-1.7-2.2-1.7-3.6 0-2.6 2.2-4.8 4.9-4.8s4.9 2.2 4.9 4.8c0 1.4-.6 2.7-1.7 3.6-.1.1-.2.2-.3.2-.4.3-1.1.8-1.1 1.7 0 1.2.9 1.5 1.6 1.8 3.9 1.6 5.8 3.9 6.2 7.3v.2h-19.4z"/></svg><svg width="25.1" height="24.8" viewBox="-326.9 345.8 25.1 24.8" id="icon_avatar-white" y="77"><path fill="#FFF" d="M-310.2 359l-.1-.1-.4-.2.3-.2c.1-.1.3-.2.4-.3l.1-.1c1.4-1.2 2.2-3 2.2-4.8 0-3.6-3-6.5-6.6-6.5-3.7 0-6.6 3-6.6 6.5 0 1.8.8 3.6 2.2 4.8l.1.1h.1c.1.1.3.2.4.3l.3.2-.4.2h-.2c-5 2.1-7.5 5.3-7.5 9.8 0 .5.4.9.9.9h21.3c.5 0 .9-.4.9-.9-.3-4.4-2.7-7.8-7.4-9.7zm-14.1 8.9v-.2c.3-3.3 2.4-5.6 6.4-7.3.6-.2 1.6-.6 1.6-1.8 0-.9-.7-1.4-1.1-1.7-.1-.1-.2-.2-.3-.2-1.1-.9-1.7-2.2-1.7-3.6 0-2.6 2.2-4.8 4.9-4.8s4.9 2.2 4.9 4.8c0 1.4-.6 2.7-1.7 3.6-.1.1-.2.2-.3.2-.4.3-1.1.8-1.1 1.7 0 1.2.9 1.5 1.6 1.8 3.9 1.6 5.8 3.9 6.2 7.3v.2h-19.4z"/></svg><svg width="61" height="140" viewBox="-184.8 347 61 140" id="icon_big-left-angle-white" y="102"><path fill="#FFF" d="M-126.3 483.7l-56.3-67.3 56.3-67.2 1.5 1.2-55.2 66 55.2 66.1"/></svg><svg width="26.1" height="24.7" viewBox="-361 381.1 26.1 24.7" id="icon_cart-green" y="242"><path fill="#D9E153" d="M-336 386.4c-.1-.2-.4-.3-.6-.3l-14.9-.6c-.4 0-.8.3-.8.7s.3.8.7.8l13.9.6-2.7 8.5h-12.2l-2.2-11.9c0-.3-.2-.5-.5-.6l-3.6-1.4c-.4-.2-.8 0-1 .4s0 .8.4 1l3.2 1.3 2.2 12.2c.1.4.4.6.8.6h.4l-.8 2.4c-.1.2 0 .4.1.6s.3.3.5.3h.6c-.4.4-.6.9-.6 1.5 0 1.3 1 2.3 2.3 2.3s2.3-1 2.3-2.3c0-.6-.2-1.1-.6-1.5h5c-.4.4-.6.9-.6 1.5 0 1.3 1 2.3 2.3 2.3 1.3 0 2.3-1 2.3-2.3 0-.6-.2-1.1-.6-1.5h.7c.4 0 .6-.3.6-.6 0-.4-.3-.6-.6-.6h-12.2l.7-1.9h11.6c.3 0 .6-.2.7-.5l3.2-10c.1-.6.1-.8 0-1zm-14.8 17c-.6 0-1-.5-1-1 0-.6.5-1 1-1 .6 0 1 .5 1 1s-.4 1-1 1zm8.5 0c-.6 0-1-.5-1-1 0-.6.5-1 1-1 .6 0 1 .5 1 1s-.4 1-1 1z"/></svg><svg width="26.1" height="24.7" viewBox="-361 413.8 26.1 24.7" id="icon_cart-white" y="267"><path fill="#FFF" d="M-336 419.1c-.1-.2-.4-.3-.6-.3l-14.9-.6c-.4 0-.8.3-.8.7s.3.8.7.8l13.9.6-2.7 8.5h-12.2l-2.2-11.9c0-.3-.2-.5-.5-.6l-3.6-1.4c-.4-.2-.8 0-1 .4s0 .8.4 1l3.2 1.3 2.2 12.2c.1.4.4.6.8.6h.4l-.8 2.4c-.1.2 0 .4.1.6s.3.3.5.3h.6c-.4.4-.6.9-.6 1.5 0 1.3 1 2.3 2.3 2.3s2.3-1 2.3-2.3c0-.6-.2-1.1-.6-1.5h5c-.4.4-.6.9-.6 1.5 0 1.3 1 2.3 2.3 2.3 1.3 0 2.3-1 2.3-2.3 0-.6-.2-1.1-.6-1.5h.7c.4 0 .6-.3.6-.6 0-.4-.3-.6-.6-.6h-12.2l.7-1.9h11.6c.3 0 .6-.2.7-.5l3.2-10c.1-.6.1-.8 0-1zm-14.8 17c-.6 0-1-.5-1-1 0-.6.5-1 1-1 .6 0 1 .5 1 1s-.4 1-1 1zm8.5 0c-.6 0-1-.5-1-1 0-.6.5-1 1-1 .6 0 1 .5 1 1s-.4 1-1 1z"/></svg><svg width="27" height="27" viewBox="-396 472.6 27 27" id="icon_check-filled-dark" y="292"><path d="M-382.5 473.6c-6.9 0-12.5 5.6-12.5 12.5s5.6 12.5 12.5 12.5 12.5-5.6 12.5-12.5-5.6-12.5-12.5-12.5zm6.2 9.7l-7.5 7.5c-.1.1-.3.2-.5.2s-.4-.1-.5-.3l-2.7-3.6c-.2-.3-.2-.8.1-1 .3-.2.8-.2 1 .1l2.3 3 6.9-6.9c.3-.3.7-.3 1 0 .2.3.2.8-.1 1z"/></svg><svg width="26.1" height="20.5" viewBox="-218.8 511.6 26.1 20.5" id="icon_check-green" y="319"><path fill="#D9E153" d="M-210.7 531c-.5 0-.9-.2-1.2-.6l-5.6-7.5c-.5-.6-.4-1.6.3-2.1.6-.5 1.6-.4 2.1.3l4.6 6.1 14.2-14.2c.6-.6 1.5-.6 2.1 0 .6.6.6 1.5 0 2.1l-15.4 15.4c-.3.3-.7.5-1.1.5z"/></svg><svg width="26.1" height="20.4" viewBox="-396 279 26.1 20.4" id="icon_check-white" y="340"><path fill="#FFF" d="M-387.9 298.4c-.5 0-.9-.2-1.2-.6l-5.6-7.4c-.5-.6-.4-1.6.3-2.1.6-.5 1.6-.4 2.1.3l4.6 6.1 14.2-14.2c.6-.6 1.5-.6 2.1 0s.6 1.5 0 2.1l-15.4 15.4c-.3.2-.7.4-1.1.4z"/></svg><svg width="27.8" height="18.1" viewBox="-115.8 384.6 27.8 18.1" id="icon_down-angle-dark" y="361"><path d="M-89 388.8l-3.2-3.2-9.7 9.7-9.7-9.7-3.2 3.2 12.9 12.9"/></svg><svg width="26" height="26" viewBox="-396 438.6 26 26" id="icon_download-circle-dark" y="380"><path fill="#231F20" d="M-379.1 451.2l-3.1 3.1v-7.9c0-.4-.3-.8-.8-.8-.4 0-.8.3-.8.8v7.9l-3.1-3.1c-.3-.3-.8-.3-1.1 0-.3.3-.3.8 0 1.1l4.2 4.2c.2.2.4.2.7.2.2 0 .5 0 .7-.2l4.2-4.2c.3-.3.3-.8 0-1.1-.2-.3-.6-.3-.9 0zm-3.9-11.6c-6.6 0-12 5.4-12 12s5.4 12 12 12 12-5.4 12-12-5.4-12-12-12zm0 22.5c-5.8 0-10.5-4.7-10.5-10.5s4.7-10.5 10.5-10.5 10.5 4.7 10.5 10.5-4.7 10.5-10.5 10.5z"/></svg><svg width="27" height="27" viewBox="-396 403.6 27 27" id="icon_download-circle-filled-dark" y="406"><path d="M-382.5 404.6c-6.9 0-12.5 5.6-12.5 12.5s5.6 12.5 12.5 12.5 12.5-5.6 12.5-12.5-5.6-12.5-12.5-12.5zm4.9 13.2l-4.2 4.2c-.2.2-.4.2-.7.2-.2 0-.5 0-.7-.2l-4.2-4.2c-.3-.3-.3-.8 0-1.1s.8-.3 1.1 0l3.1 3.1v-7.9c0-.4.3-.8.8-.8.4 0 .8.3.8.8v7.9l3.1-3.1c.3-.3.8-.3 1.1 0 .1.4.1.9-.2 1.1z"/></svg><svg width="26" height="26" viewBox="-184.8 313 26 26" id="icon_download-circle-filled-gray" y="433"><path fill="#909191" d="M-171.8 314c-6.6 0-12 5.4-12 12s5.4 12 12 12 12-5.4 12-12c0-6.7-5.4-12-12-12zm4.7 12.7l-4.2 4.2c-.2.2-.5.2-.7.2-.3 0-.5 0-.7-.2l-4.2-4.2c-.3-.3-.3-.8 0-1.1.3-.3.8-.3 1.1 0l3.1 3.1v-7.9c0-.5.4-.8.8-.8.5 0 .8.4.8.8v7.9l3.1-3.1c.3-.2.8-.2.9 0 .3.3.3.8 0 1.1z"/></svg><svg width="26" height="26" viewBox="6.7 245 26 26" id="icon_download-circle-gray" y="459"><path fill="#919191" d="M23.5 257.6l-3.1 3.1v-7.9c0-.4-.3-.8-.8-.8-.4 0-.8.3-.8.8v7.9l-3.1-3.1c-.3-.3-.8-.3-1.1 0-.3.3-.3.8 0 1.1l4.2 4.2c.2.2.4.2.7.2.2 0 .5 0 .7-.2l4.2-4.2c.3-.3.3-.8 0-1.1-.1-.3-.6-.3-.9 0zM19.7 246c-6.6 0-12 5.4-12 12s5.4 12 12 12 12-5.4 12-12-5.4-12-12-12zm0 22.5c-5.8 0-10.5-4.7-10.5-10.5s4.7-10.5 10.5-10.5 10.5 4.7 10.5 10.5-4.7 10.5-10.5 10.5z"/></svg><svg width="26" height="26" viewBox="-396 369.6 26 26" id="icon_download-circle-green" y="485"><path fill="#D9E153" d="M-379.2 382.2l-3.1 3.1v-7.9c0-.4-.3-.8-.8-.8-.4 0-.8.3-.8.8v7.9l-3.1-3.1c-.3-.3-.8-.3-1.1 0-.3.3-.3.8 0 1.1l4.2 4.2c.2.2.4.2.7.2.2 0 .5 0 .7-.2l4.2-4.2c.3-.3.3-.8 0-1.1-.1-.3-.6-.3-.9 0zm-3.8-11.6c-6.6 0-12 5.4-12 12s5.4 12 12 12 12-5.4 12-12-5.4-12-12-12zm0 22.5c-5.8 0-10.5-4.7-10.5-10.5s4.7-10.5 10.5-10.5 10.5 4.7 10.5 10.5-4.7 10.5-10.5 10.5z"/></svg><svg width="26" height="26" viewBox="-396 245 26 26" id="icon_download-circle-white" y="511"><path fill="#FFF" d="M-379.2 257.6l-3.1 3.1v-7.9c0-.4-.3-.8-.8-.8-.4 0-.8.3-.8.8v7.9l-3.1-3.1c-.3-.3-.8-.3-1.1 0-.3.3-.3.8 0 1.1l4.2 4.2c.2.2.4.2.7.2.2 0 .5 0 .7-.2l4.2-4.2c.3-.3.3-.8 0-1.1-.1-.3-.6-.3-.9 0zM-383 246c-6.6 0-12 5.4-12 12s5.4 12 12 12 12-5.4 12-12-5.4-12-12-12zm0 22.5c-5.8 0-10.5-4.7-10.5-10.5s4.7-10.5 10.5-10.5 10.5 4.7 10.5 10.5-4.7 10.5-10.5 10.5z"/></svg><svg width="24.1" height="23.3" viewBox="-361 318.5 24.1 23.3" id="icon_filter-green" y="537"><path fill="#D9E153" d="M-338 319.9c-.2-.3-.4-.4-.7-.4h-20.4c-.3 0-.6.2-.7.4-.2.3-.2.6 0 .8l6.9 12v7.3c0 .5.4.8.8.8h5.5c.5 0 .8-.4.8-.8v-7.3l7.7-12c.1-.2.2-.5.1-.8zm-9.2 12.1c-.1.1-.1.3-.1.5v6.7h-3.9v-6.7c0-.2 0-.3-.1-.4l-6.3-11h17.4l-7 10.9z"/></svg><svg width="24.1" height="23.3" viewBox="-361 349.8 24.1 23.3" id="icon_filter-white" y="561"><path fill="#FFF" d="M-338 351.2c-.2-.3-.4-.4-.7-.4h-20.4c-.3 0-.6.2-.7.4-.2.3-.2.6 0 .8l6.9 12v7.3c0 .5.4.8.8.8h5.5c.5 0 .8-.4.8-.8V364l7.7-12c.1-.3.2-.6.1-.8zm-9.2 12.1c-.1.1-.1.3-.1.5v6.7h-3.9v-6.7c0-.2 0-.3-.1-.4l-6.3-11h17.4l-7 10.9z"/></svg><svg width="26" height="26" viewBox="-115.8 245 26 26" id="icon_gear-gray" y="585"><path fill="#909191" d="M-101.4 270h-2.5c-.4 0-.5 0-1.8-3.3l-1-.4c-2.7 1.3-3 1.3-3.2 1.3h-.2l-.2-.2-1.8-1.8c-.3-.3-.4-.4 1-3.6l-.4-1c-3.3-1.2-3.3-1.3-3.3-1.7v-2.5c0-.4 0-.5 3.3-1.8l.4-1c-1.5-3.2-1.4-3.3-1.1-3.6l1.9-1.9h.2c.3 0 1.4.4 3.2 1.2l1-.4c1.2-3.3 1.3-3.3 1.7-3.3h2.5c.4 0 .5 0 1.8 3.3l1 .4c2.7-1.3 3-1.3 3.2-1.3h.2l.2.2 1.8 1.8c.3.3.4.4-1 3.6l.4 1c3.3 1.2 3.3 1.3 3.3 1.7v2.5c0 .4 0 .5-3.3 1.8l-.4 1c1.5 3.2 1.4 3.3 1.1 3.5l-1.9 1.9h-.2c-.3 0-1.4-.4-3.2-1.2l-1 .4c-1.2 3.4-1.3 3.4-1.7 3.4zm-2.2-1h2c.2-.5.7-1.7 1.1-2.8l.1-.2 1.8-.7.2.1c1.1.5 2.4 1 2.9 1.2l1.4-1.4c-.2-.5-.7-1.7-1.2-2.8l-.1-.2.8-1.8.2-.1c1.1-.4 2.4-1 2.8-1.2v-2c-.5-.2-1.7-.7-2.8-1.1l-.2-.1-.8-1.8.1-.2c.5-1.1 1-2.3 1.1-2.8l-1.4-1.4c-.5.2-1.7.7-2.8 1.2l-.2.1-1.8-.7-.1-.2c-.4-1.1-1-2.4-1.2-2.8h-2c-.2.5-.7 1.7-1.1 2.8l-.1.2-1.8.7-.2-.1c-1.1-.5-2.4-1-2.9-1.1l-1.4 1.4c.2.5.7 1.7 1.2 2.8l.1.2-.8 1.8-.2.1c-1.1.4-2.4 1-2.8 1.2v2c.5.2 1.7.7 2.8 1.1l.2.1.8 1.8-.1.2c-.5 1.1-1 2.3-1.1 2.8l1.4 1.4c.5-.2 1.7-.7 2.8-1.2l.2-.1 1.8.7.1.2c.4 1 .9 2.2 1.2 2.7zm.9-6.8c-2.3 0-4.2-1.9-4.2-4.2s1.9-4.2 4.2-4.2c2.3 0 4.2 1.9 4.2 4.2s-1.9 4.2-4.2 4.2zm0-7.3c-1.8 0-3.2 1.4-3.2 3.2 0 1.7 1.4 3.2 3.2 3.2 1.7 0 3.2-1.4 3.2-3.2 0-1.8-1.4-3.2-3.2-3.2z"/></svg><svg width="26" height="26" viewBox="-184.8 565 26 26" id="icon_gear-green" y="611"><path fill="#D9E153" d="M-170.4 590h-2.5c-.4 0-.5 0-1.8-3.3l-1-.4c-2.7 1.3-3 1.3-3.2 1.3h-.2l-.2-.2-1.8-1.8c-.3-.3-.4-.4 1-3.6l-.4-1c-3.3-1.2-3.3-1.3-3.3-1.7v-2.5c0-.4 0-.5 3.3-1.8l.4-1c-1.5-3.2-1.4-3.3-1.1-3.6l1.9-1.9h.2c.3 0 1.4.4 3.2 1.2l1-.4c1.2-3.3 1.3-3.3 1.7-3.3h2.5c.4 0 .5 0 1.8 3.3l1 .4c2.7-1.3 3-1.3 3.2-1.3h.2l.2.2 1.8 1.8c.3.3.4.4-1 3.6l.4 1c3.3 1.2 3.3 1.3 3.3 1.7v2.5c0 .4 0 .5-3.3 1.8l-.4 1c1.5 3.2 1.4 3.3 1.1 3.5l-1.9 1.9h-.2c-.3 0-1.4-.4-3.2-1.2l-1 .4c-1.2 3.4-1.3 3.4-1.7 3.4zm-2.2-1h2c.2-.5.7-1.7 1.1-2.8l.1-.2 1.8-.7.2.1c1.1.5 2.4 1 2.9 1.2l1.4-1.4c-.2-.5-.7-1.7-1.2-2.8l-.1-.2.8-1.8.2-.1c1.1-.4 2.4-1 2.8-1.2v-2c-.5-.2-1.7-.7-2.8-1.1l-.2-.1-.8-1.8.1-.2c.5-1.1 1-2.3 1.1-2.8l-1.4-1.4c-.5.2-1.7.7-2.8 1.2l-.2.1-1.8-.7-.1-.2c-.4-1.1-1-2.4-1.2-2.8h-2c-.2.5-.7 1.7-1.1 2.8l-.1.2-1.8.7-.2-.1c-1.1-.5-2.4-1-2.9-1.1l-1.4 1.4c.2.5.7 1.7 1.2 2.8l.1.2-.8 1.8-.2.1c-1.1.4-2.4 1-2.8 1.2v2c.5.2 1.7.7 2.8 1.1l.2.1.8 1.8-.1.2c-.5 1.1-1 2.3-1.1 2.8l1.4 1.4c.5-.2 1.7-.7 2.8-1.2l.2-.1 1.8.7.1.2c.4.9.9 2.2 1.2 2.7zm.9-6.8c-2.3 0-4.2-1.9-4.2-4.2 0-2.3 1.9-4.2 4.2-4.2 2.3 0 4.2 1.9 4.2 4.2 0 2.3-1.9 4.2-4.2 4.2zm0-7.3c-1.8 0-3.2 1.4-3.2 3.2 0 1.7 1.4 3.2 3.2 3.2 1.7 0 3.2-1.4 3.2-3.2 0-1.8-1.4-3.2-3.2-3.2z"/></svg><svg width="26" height="26" viewBox="-115.8 279 26 26" id="icon_gear-white" y="637"><path fill="#FFF" d="M-101.4 304h-2.5c-.4 0-.5 0-1.8-3.3l-1-.4c-2.7 1.3-3 1.3-3.2 1.3h-.2l-.2-.2-1.8-1.8c-.3-.3-.4-.4 1-3.6l-.4-1c-3.3-1.2-3.3-1.3-3.3-1.7v-2.5c0-.4 0-.5 3.3-1.8l.4-1c-1.5-3.2-1.4-3.3-1.1-3.6l1.9-1.9h.2c.3 0 1.4.4 3.2 1.2l1-.4c1.2-3.3 1.3-3.3 1.7-3.3h2.5c.4 0 .5 0 1.8 3.3l1 .4c2.7-1.3 3-1.3 3.2-1.3h.2l.2.2 1.8 1.8c.3.3.4.4-1 3.6l.4 1c3.3 1.2 3.3 1.3 3.3 1.7v2.5c0 .4 0 .5-3.3 1.8l-.4 1c1.5 3.2 1.4 3.3 1.1 3.5l-1.9 1.9h-.2c-.3 0-1.4-.4-3.2-1.2l-1 .4c-1.2 3.4-1.3 3.4-1.7 3.4zm-2.2-1.1h2c.2-.5.7-1.7 1.1-2.8l.1-.2 1.8-.7.2.1c1.1.5 2.4 1 2.9 1.2l1.4-1.4c-.2-.5-.7-1.7-1.2-2.8l-.1-.2.8-1.8.2-.1c1.1-.4 2.4-1 2.8-1.2v-2c-.5-.2-1.7-.7-2.8-1.1l-.2-.1-.8-1.8.1-.2c.5-1.1 1-2.3 1.1-2.8l-1.4-1.4c-.5.2-1.7.7-2.8 1.2l-.2.1-1.8-.7-.1-.2c-.4-1.1-1-2.4-1.2-2.8h-2c-.2.5-.7 1.7-1.1 2.8l-.1.2-1.8.7-.2-.1c-1.1-.5-2.4-1-2.9-1.1l-1.4 1.4c.2.5.7 1.7 1.2 2.8l.1.2-.8 1.8-.2.1c-1.1.4-2.4 1-2.8 1.2v2c.5.2 1.7.7 2.8 1.1l.2.1.8 1.8-.1.2c-.5 1.1-1 2.3-1.1 2.8l1.4 1.4c.5-.2 1.7-.7 2.8-1.2l.2-.1 1.8.7.1.2c.4 1 .9 2.3 1.2 2.7zm.9-6.7c-2.3 0-4.2-1.9-4.2-4.2 0-2.3 1.9-4.2 4.2-4.2 2.3 0 4.2 1.9 4.2 4.2 0 2.3-1.9 4.2-4.2 4.2zm0-7.4c-1.8 0-3.2 1.4-3.2 3.2 0 1.7 1.4 3.2 3.2 3.2 1.7 0 3.2-1.4 3.2-3.2 0-1.8-1.4-3.2-3.2-3.2z"/></svg><svg width="29.6" height="26" viewBox="-115.8 444.7 29.6 26" id="icon_heart-filled-black" y="663"><path d="M-101 469.7c-.5 0-1-.2-1.3-.6l-10.1-10c-1.5-1.5-2.3-3.5-2.3-5.6 0-2.1.8-4.1 2.3-5.6 1.5-1.5 3.5-2.3 5.6-2.3 2 0 3.9.7 5.3 2l.6.5.6-.5c1.5-1.3 3.4-2 5.3-2 2.1 0 4.1.8 5.6 2.3 1.5 1.5 2.3 3.5 2.3 5.6 0 2.1-.8 4.1-2.3 5.6l-10.2 10c-.4.4-.9.6-1.4.6z"/></svg><svg width="29.6" height="26" viewBox="-78.1 279 29.6 26" id="icon_heart-filled-gray" y="689"><path fill="#919191" d="M-63.3 304c-.5 0-1-.2-1.3-.6l-10.1-10c-1.5-1.5-2.3-3.5-2.3-5.6 0-2.1.8-4.1 2.3-5.6 1.5-1.5 3.5-2.3 5.6-2.3 2 0 3.9.7 5.3 2l.6.5.6-.5c1.5-1.3 3.4-2 5.3-2 2.1 0 4.1.8 5.6 2.3 1.5 1.5 2.3 3.5 2.3 5.6 0 2.1-.8 4.1-2.3 5.6l-10.2 10c-.4.4-.9.6-1.4.6z"/></svg><svg width="29.6" height="26" viewBox="-78.1 313 29.6 26" id="icon_heart-filled-white" y="715"><path fill="#FFF" d="M-63.3 338c-.5 0-1-.2-1.3-.6l-10.1-10c-1.5-1.5-2.3-3.5-2.3-5.6 0-2.1.8-4.1 2.3-5.6 1.5-1.5 3.5-2.3 5.6-2.3 2 0 3.9.7 5.3 2l.6.5.6-.5c1.5-1.3 3.4-2 5.3-2 2.1 0 4.1.8 5.6 2.3 1.5 1.5 2.3 3.5 2.3 5.6 0 2.1-.8 4.1-2.3 5.6l-10.2 10c-.4.4-.9.6-1.4.6z"/></svg><svg width="29.6" height="26" viewBox="-115.8 410.7 29.6 26" id="icon_heart-outline-black" y="741"><path d="M-101 435.7c-.5 0-1-.2-1.3-.6l-10.1-10c-1.5-1.5-2.3-3.5-2.3-5.6 0-2.1.8-4.1 2.3-5.6 1.5-1.5 3.5-2.3 5.6-2.3 2 0 3.9.7 5.3 2l.6.5.6-.5c1.5-1.3 3.4-2 5.3-2 2.1 0 4.1.8 5.6 2.3 1.5 1.5 2.3 3.5 2.3 5.6 0 2.1-.8 4.1-2.3 5.6l-10.2 10c-.4.4-.9.6-1.4.6zm-5.9-22c-1.6 0-3.1.6-4.2 1.7s-1.7 2.6-1.7 4.2.6 3.1 1.7 4.2l10.1 10 10.1-10c1.1-1.1 1.7-2.6 1.7-4.2s-.6-3.1-1.7-4.2-2.6-1.7-4.2-1.7c-1.5 0-2.9.5-4 1.5l-1.9 1.7-1.9-1.7c-1.1-1-2.5-1.5-4-1.5z"/></svg><svg width="29.6" height="26" viewBox="-115.8 512.7 29.6 26" id="icon_heart-outline-gray" y="767"><path fill="#919191" d="M-101 537.7c-.5 0-1-.2-1.3-.6l-10.1-10c-1.5-1.5-2.3-3.5-2.3-5.6 0-2.1.8-4.1 2.3-5.6 1.5-1.5 3.5-2.3 5.6-2.3 2 0 3.9.7 5.3 2l.6.5.6-.5c1.5-1.3 3.4-2 5.3-2 2.1 0 4.1.8 5.6 2.3 1.5 1.5 2.3 3.5 2.3 5.6 0 2.1-.8 4.1-2.3 5.6l-10.2 10c-.4.4-.9.6-1.4.6zm-5.9-22c-1.6 0-3.1.6-4.2 1.7s-1.7 2.6-1.7 4.2.6 3.1 1.7 4.2l10.1 10 10.1-10c1.1-1.1 1.7-2.6 1.7-4.2s-.6-3.1-1.7-4.2-2.6-1.7-4.2-1.7c-1.5 0-2.9.5-4 1.5l-1.9 1.7-1.9-1.7c-1.1-1-2.5-1.5-4-1.5z"/></svg><svg width="29.6" height="26" viewBox="-115.8 478.7 29.6 26" id="icon_heart-outline-white" y="793"><path fill="#FFF" d="M-101 503.7c-.5 0-1-.2-1.3-.6l-10.1-10c-1.5-1.5-2.3-3.5-2.3-5.6 0-2.1.8-4.1 2.3-5.6 1.5-1.5 3.5-2.3 5.6-2.3 2 0 3.9.7 5.3 2l.6.5.6-.5c1.5-1.3 3.4-2 5.3-2 2.1 0 4.1.8 5.6 2.3 1.5 1.5 2.3 3.5 2.3 5.6 0 2.1-.8 4.1-2.3 5.6l-10.2 10c-.4.4-.9.6-1.4.6zm-5.9-22c-1.6 0-3.1.6-4.2 1.7s-1.7 2.6-1.7 4.2.6 3.1 1.7 4.2l10.1 10 10.1-10c1.1-1.1 1.7-2.6 1.7-4.2s-.6-3.1-1.7-4.2-2.6-1.7-4.2-1.7c-1.5 0-2.9.5-4 1.5l-1.9 1.7-1.9-1.7c-1.1-1-2.5-1.5-4-1.5z"/></svg><svg width="29.6" height="26" viewBox="-78.1 245 29.6 26" id="icon_heart-outline-yellow" y="819"><path fill="#D9E153" d="M-63.3 270c-.5 0-1-.2-1.3-.6l-10.1-10c-1.5-1.5-2.3-3.5-2.3-5.6 0-2.1.8-4.1 2.3-5.6 1.5-1.5 3.5-2.3 5.6-2.3 2 0 3.9.7 5.3 2l.6.5.6-.5c1.5-1.3 3.4-2 5.3-2 2.1 0 4.1.8 5.6 2.3 1.5 1.5 2.3 3.5 2.3 5.6 0 2.1-.8 4.1-2.3 5.6l-10.2 10c-.4.4-.9.6-1.4.6zm-6-22c-1.6 0-3.1.6-4.2 1.7s-1.7 2.6-1.7 4.2.6 3.1 1.7 4.2l10.1 10 10.1-10c1.1-1.1 1.7-2.6 1.7-4.2s-.6-3.1-1.7-4.2-2.6-1.7-4.2-1.7c-1.5 0-2.9.5-4 1.5l-1.9 1.7-1.9-1.7c-1-1-2.5-1.5-4-1.5z"/></svg><svg width="26" height="26" viewBox="-291 314.9 26 26" id="icon_help-circle-white" y="845"><path fill="#FFF" d="M-278 315.9c-6.6 0-12 5.4-12 12s5.4 12 12 12 12-5.4 12-12-5.4-12-12-12zm0 22.5c-5.8 0-10.5-4.7-10.5-10.5s4.7-10.5 10.5-10.5 10.5 4.7 10.5 10.5-4.7 10.5-10.5 10.5z"/><path fill="#FFF" d="M-278.2 332.3c-.4 0-.7-.3-.7-.7v-3.4c0-.4.3-.7.7-.7 1.5 0 2.8-1.2 2.8-2.8 0-1.5-1.2-2.8-2.8-2.8-1 0-2 .6-2.5 1.5-.2.4-.6.5-1 .3s-.5-.6-.3-1c.7-1.4 2.2-2.3 3.8-2.3 2.4 0 4.3 1.9 4.3 4.3 0 2.1-1.5 3.8-3.5 4.2v2.8c-.1.2-.4.6-.8.6z"/><circle fill="#FFF" cx="-278.2" cy="334.5" r="1.1"/></svg><svg width="26" height="24.4" viewBox="-326.9 512.2 26 24.4" id="icon_home-green" y="871"><path fill="#D9E153" d="M-302.3 523.2l-11.2-9.8c-.3-.3-.7-.3-1 0l-11.2 9.8c-.3.3-.4.8-.1 1.1.2.2.4.3.6.3s.4-.1.5-.2l1.5-1.3v11.7c0 .4.3.8.8.8h16.9c.4 0 .8-.3.8-.8V523l1.5 1.3c.3.3.8.2 1.1-.1.2-.2.2-.7-.2-1zm-9.8 10.8h-3.8v-6.3h3.7v6.1l.1.2zm5.8-12.1v12.2h-4.3v-7c0-.4-.3-.8-.8-.8h-5.2c-.4 0-.8.3-.8.8v7.1h-4.3v-12.3l7.8-6.7 7.7 6.7c-.1-.1-.1-.1-.1 0zm-9.4-1.3c0 .4.3.8.8.8h2c.4 0 .8-.3.8-.8 0-.4-.3-.8-.8-.8h-2c-.5 0-.8.4-.8.8z"/></svg><svg width="26" height="24.3" viewBox="-291 245 26 24.3" id="icon_home-white" y="896"><path fill="#FFF" d="M-266.4 255.9l-11.1-9.7c-.3-.3-.7-.3-1 0l-11.3 9.7c-.3.3-.4.8-.1 1.1.2.2.4.3.6.3s.4-.1.5-.2l1.5-1.3v11.7c0 .4.3.8.8.8h16.9c.4 0 .8-.3.8-.8v-11.8l1.5 1.3c.3.3.8.2 1.1-.1.2-.2.2-.7-.2-1zm-9.8 10.8h-3.8v-6.3h3.7v6.1l.1.2zm5.8-12.1v12.2h-4.3v-7c0-.4-.3-.8-.8-.8h-5.2c-.4 0-.8.3-.8.8v7.1h-4.3v-12.3l7.8-6.7 7.7 6.7c-.1-.1-.1-.1-.1 0zm-9.4-1.3c0 .4.3.8.8.8h2c.4 0 .8-.3.8-.8s-.3-.8-.8-.8h-2c-.5 0-.8.4-.8.8z"/></svg><svg width="20" height="28" viewBox="-256 423.2 20 28" id="icon_hourglass-white" y="921"><path fill="#FFF" d="M-237.8 448.6h-1.6v-5.7c0-3.2-2.6-5.7-5.7-5.7 3.2 0 5.7-2.6 5.7-5.7v-5.7h1.6c.5 0 .8-.4.8-.8 0-.5-.4-.8-.8-.8h-16.4c-.5 0-.8.4-.8.8 0 .5.4.8.8.8h1.6v5.7c0 3.2 2.6 5.7 5.7 5.7-3.2 0-5.7 2.6-5.7 5.7v5.7h-1.6c-.5 0-.8.4-.8.8 0 .5.4.8.8.8h16.4c.5 0 .8-.4.8-.8 0-.5-.4-.8-.8-.8zm-13.1-17.2v-5.7h9.8v5.7c0 2.3-1.9 4.1-4.3 4.1h-1.2c-2.4 0-4.3-1.9-4.3-4.1zm9.8 17.2h-9.8v-5.7c0-2.3 1.9-4.1 4.3-4.1h1.2c2.4 0 4.3 1.8 4.3 4.1v5.7z"/></svg><svg width="21" height="29.6" viewBox="-291 277.3 21 29.6" id="icon_isplaying-green" y="949"><path fill="#D9E153" d="M-288.7 305.9c-.7 0-1.3-.6-1.3-1.3v-25c0-.7.6-1.3 1.3-1.3s1.3.6 1.3 1.3v25c0 .7-.5 1.3-1.3 1.3zm16.4 0c-.7 0-1.3-.6-1.3-1.3v-19.8c0-.7.6-1.3 1.3-1.3s1.3.6 1.3 1.3v19.8c0 .7-.6 1.3-1.3 1.3zm-5.5 0c-.7 0-1.3-.6-1.3-1.3v-12.1c0-.7.6-1.3 1.3-1.3.7 0 1.3.6 1.3 1.3v12.1c.1.7-.5 1.3-1.3 1.3zm-5.4 0c-.7 0-1.3-.6-1.3-1.3V288c0-.7.6-1.3 1.3-1.3s1.3.6 1.3 1.3v16.6c0 .7-.6 1.3-1.3 1.3z"/></svg><svg width="18" height="27.8" viewBox="-115.8 313 18 27.8" id="icon_left-angle-green" y="979"><path fill="#D9E153" d="M-102 339.8l3.2-3.1-9.7-9.8 9.7-9.7-3.2-3.2-12.8 12.9 12.8 12.9z"/></svg><svg width="18" height="27.8" viewBox="-115.8 348.8 18 27.8" id="icon_left-angle-white" y="1007"><path fill="#FFF" d="M-102 375.6l3.2-3.1-9.7-9.8 9.7-9.7-3.2-3.2-12.8 12.9 12.8 12.9z"/></svg><svg width="26" height="30.7" viewBox="-291 418.9 26 30.7" id="icon_lock-gray" y="1035"><g fill="#909191"><path d="M-267 432.1h-3.6v-4.7c0-2.2-.7-4-2.1-5.4s-3.2-2.1-5.3-2.1c-2.2 0-3.9.7-5.3 2.1s-2.1 3.2-2.1 5.4v4.7h-3.6c-.6 0-1 .4-1 1v14.5c0 .6.4 1 1 1h22c.5 0 1-.4 1-1v-14.5c0-.5-.5-1-1-1zm-16.4-4.7c0-1.6.5-3 1.5-4 1-1.1 2.3-1.6 3.9-1.6s2.9.5 3.9 1.6c1 1 1.5 2.4 1.5 4v4.7h-10.8v-4.7zm15.4 19.2h-20v-12.5h20v12.5z"/><path d="M-279 440.4v4.2c0 .6.5 1 1 1 .6 0 1-.5 1-1v-4.2c.9-.4 1.5-1.2 1.5-2 0-.6-.3-1.1-.8-1.6-.5-.4-1.1-.7-1.7-.7-.7 0-1.2.2-1.7.7-.5.4-.8 1-.8 1.6 0 .8.6 1.6 1.5 2z"/></g></svg><svg width="26" height="26" viewBox="-326.9 444.2 26 26" id="icon_music-green" y="1066"><path fill="#D9E153" d="M-302.5 445.6c-.3-.2-.6-.4-1-.4h-.3l-12.8 2.3c-.7.1-1.2.7-1.2 1.5v12.9c-.8-.5-1.8-.9-2.8-.9-.6 0-1.3.1-1.9.3-1.4.5-2.6 1.4-3.1 2.6-.4.9-.5 1.9-.2 2.8.6 1.5 2.2 2.5 4.1 2.5.6 0 1.3-.1 1.9-.3 1.4-.5 2.6-1.4 3.1-2.6.2-.5.4-1 .4-1.6v-12h.3l12.5-2.2v9.1c-.8-.6-1.7-.9-2.8-.9-.6 0-1.3.1-1.9.3-1.4.5-2.6 1.4-3.1 2.6-.4.9-.5 1.9-.2 2.8.6 1.5 2.2 2.5 4.1 2.5.6 0 1.3-.1 1.9-.3 1.4-.5 2.6-1.4 3.1-2.6.2-.5.4-1 .4-1.6v-15.7c0-.4-.2-.8-.5-1.1zm-17.7 21.9c-1.8.6-3.7 0-4.1-1.3-.5-1.3.6-2.9 2.4-3.5s3.7 0 4.1 1.3c.4 1.4-.6 2.9-2.4 3.5zm16.7-18.5l-12.8 2.2V449l12.8-2.2v2.2zm-2.5 16.3c-1.8.6-3.7 0-4.1-1.3-.5-1.3.6-2.9 2.4-3.5 1.8-.6 3.7 0 4.1 1.3.5 1.3-.6 2.9-2.4 3.5z"/></svg><svg width="26" height="26" viewBox="-326.9 478.2 26 26" id="icon_music-white" y="1092"><path fill="#FFF" d="M-302.5 479.6c-.3-.2-.6-.4-1-.4h-.3l-12.8 2.3c-.7.1-1.2.7-1.2 1.5v12.9c-.8-.5-1.8-.9-2.8-.9-.6 0-1.3.1-1.9.3-1.4.5-2.6 1.4-3.1 2.6-.4.9-.5 1.9-.2 2.8.6 1.5 2.2 2.5 4.1 2.5.6 0 1.3-.1 1.9-.3 1.4-.5 2.6-1.4 3.1-2.6.2-.5.4-1 .4-1.6v-12h.3l12.5-2.2v9.1c-.8-.6-1.7-.9-2.8-.9-.6 0-1.3.1-1.9.3-1.4.5-2.6 1.4-3.1 2.6-.4.9-.5 1.9-.2 2.8.6 1.5 2.2 2.5 4.1 2.5.6 0 1.3-.1 1.9-.3 1.4-.5 2.6-1.4 3.1-2.6.2-.5.4-1 .4-1.6v-15.7c0-.4-.2-.8-.5-1.1zm-17.7 21.9c-1.8.6-3.7 0-4.1-1.3-.5-1.3.6-2.9 2.4-3.5s3.7 0 4.1 1.3c.4 1.4-.6 2.9-2.4 3.5zm16.7-18.5l-12.8 2.2V483l12.8-2.2v2.2zm-2.5 16.3c-1.8.6-3.7 0-4.1-1.3-.5-1.3.6-2.9 2.4-3.5 1.8-.6 3.7 0 4.1 1.3.5 1.3-.6 2.9-2.4 3.5z"/></svg><svg width="26" height="26" viewBox="-256 389.2 26 26" id="icon_not-allowed-white" y="1118"><path fill="#FFF" d="M-243 390.2c-6.6 0-12 5.4-12 12s5.4 12 12 12 12-5.4 12-12-5.4-12-12-12zm0 1.5c2.7 0 5.1 1 7 2.7l-15.1 14.5c-1.5-1.8-2.4-4.1-2.4-6.7 0-5.8 4.7-10.5 10.5-10.5zm0 21c-2.7 0-5.2-1-7.1-2.7l15.1-14.6c1.5 1.8 2.5 4.2 2.5 6.8 0 5.8-4.7 10.5-10.5 10.5z"/></svg><svg width="23" height="30.1" viewBox="-256 245 23 30.1" id="icon_notes-gray" y="1144"><g fill="#909191"><path d="M-234.9 248.3h-3.5v-1.4c0-.5-.4-.9-.9-.9s-.9.4-.9.9v1.4h-3.3v-1.4c0-.5-.4-.9-.9-.9s-.9.4-.9.9v1.4h-3.4v-1.4c0-.5-.4-.9-.9-.9s-.9.4-.9.9v1.4h-3.6c-.5 0-.9.4-.9.9v24c0 .5.4.9.9.9h19.2c.5 0 .9-.4.9-.9v-24c0-.5-.4-.9-.9-.9zm-.9 24h-17.3v-22.2h2.6v1.1c0 .5.4.9.9.9s.9-.4.9-.9v-1.1h3.3v1.1c0 .5.4.9.9.9s.9-.4.9-.9v-1.1h3.3v1.1c0 .5.4.9.9.9s.9-.4.9-.9v-1.1h2.6l.1 22.2z"/><path d="M-239 256.3h-11c-.5 0-.9.4-.9.9s.4.9.9.9h10.9c.5 0 .9-.4.9-.9.1-.5-.3-.9-.8-.9zm0 5.2h-11c-.5 0-.9.4-.9.9s.4.9.9.9h10.9c.5 0 .9-.4.9-.9.1-.5-.3-.9-.8-.9zm0 5.2h-11c-.5 0-.9.4-.9.9s.4.9.9.9h10.9c.5 0 .9-.4.9-.9.1-.5-.3-.9-.8-.9z"/></g></svg><svg width="23" height="30.1" viewBox="-256 283.1 23 30.1" id="icon_notes-white" y="1175"><g fill="#FFF"><path d="M-234.9 286.4h-3.5V285c0-.5-.4-.9-.9-.9s-.9.4-.9.9v1.4h-3.3V285c0-.5-.4-.9-.9-.9s-.9.4-.9.9v1.4h-3.4V285c0-.5-.4-.9-.9-.9s-.9.4-.9.9v1.4h-3.6c-.5 0-.9.4-.9.9v24c0 .5.4.9.9.9h19.2c.5 0 .9-.4.9-.9v-24c0-.5-.4-.9-.9-.9zm-.9 24h-17.3v-22.1h2.6v1.1c0 .5.4.9.9.9s.9-.4.9-.9v-1.1h3.3v1.1c0 .5.4.9.9.9s.9-.4.9-.9v-1.1h3.3v1.1c0 .5.4.9.9.9s.9-.4.9-.9v-1.1h2.6l.1 22.1z"/><path d="M-239 294.4h-11c-.5 0-.9.4-.9.9s.4.9.9.9h10.9c.5 0 .9-.4.9-.9.1-.5-.3-.9-.8-.9zm0 5.2h-11c-.5 0-.9.4-.9.9s.4.9.9.9h10.9c.5 0 .9-.4.9-.9.1-.5-.3-.9-.8-.9zm0 5.1h-11c-.5 0-.9.4-.9.9s.4.9.9.9h10.9c.5 0 .9-.4.9-.9.1-.4-.3-.9-.8-.9z"/></g></svg><svg width="28.2" height="8.2" viewBox="-184.8 599 28.2 8.2" id="icon_options-green" y="1206"><circle fill="#D9E153" cx="-180.7" cy="603.1" r="3.1"/><circle fill="#D9E153" cx="-170.7" cy="603.1" r="3.1"/><circle fill="#D9E153" cx="-160.7" cy="603.1" r="3.1"/></svg><svg width="28.2" height="8.2" viewBox="-184.8 615.2 28.2 8.2" id="icon_options-white" y="1215"><circle fill="#FFF" cx="-180.7" cy="619.3" r="3.1"/><circle fill="#FFF" cx="-170.7" cy="619.3" r="3.1"/><circle fill="#FFF" cx="-160.7" cy="619.3" r="3.1"/></svg><svg width="26" height="26" viewBox="-361 446.5 26 26" id="icon_pause-circle-green" y="1224"><path fill="#D9E153" d="M-348 447.5c-6.6 0-12 5.4-12 12s5.4 12 12 12 12-5.4 12-12c0-6.7-5.4-12-12-12zm0 22.5c-5.8 0-10.5-4.7-10.5-10.5s4.7-10.5 10.5-10.5 10.5 4.7 10.5 10.5-4.7 10.5-10.5 10.5z"/><path fill="#D9E153" d="M-349.5 454.3h-1.4c-.4 0-.7.3-.7.7v8.8c0 .4.3.7.7.7h1.5c.4 0 .7-.3.7-.7V455c0-.4-.4-.7-.8-.7zm4.4 0h-1.5c-.4 0-.7.3-.7.7v8.8c0 .4.3.7.7.7h1.5c.4 0 .7-.3.7-.7V455c.1-.4-.2-.7-.7-.7z"/></svg><svg width="26" height="26" viewBox="-361 480.5 26 26" id="icon_pause-circle-white" y="1250"><path fill="#FFF" d="M-348 481.5c-6.6 0-12 5.4-12 12s5.4 12 12 12 12-5.4 12-12c0-6.7-5.4-12-12-12zm0 22.5c-5.8 0-10.5-4.7-10.5-10.5s4.7-10.5 10.5-10.5 10.5 4.7 10.5 10.5-4.7 10.5-10.5 10.5z"/><path fill="#FFF" d="M-349.5 488.3h-1.4c-.4 0-.7.3-.7.7v8.8c0 .4.3.7.7.7h1.5c.4 0 .7-.3.7-.7V489c0-.4-.4-.7-.8-.7zm4.4 0h-1.5c-.4 0-.7.3-.7.7v8.8c0 .4.3.7.7.7h1.5c.4 0 .7-.3.7-.7V489c.1-.4-.2-.7-.7-.7z"/></svg><svg width="26" height="26" viewBox="-326.9 245 26 26" id="icon_play-circle-green" y="1276"><g fill="#D9E153"><path d="M-313.9 246c-6.6 0-12 5.4-12 12s5.4 12 12 12 12-5.4 12-12c0-6.7-5.4-12-12-12zm0 22.5c-5.8 0-10.5-4.7-10.5-10.5s4.7-10.5 10.5-10.5 10.5 4.7 10.5 10.5-4.7 10.5-10.5 10.5z"/><path d="M-309.7 257.7l-6.1-4c-.4-.2-.8-.1-.8.5v7.8c0 .6.4.7.8.5l6.1-4c.4-.1.3-.6 0-.8z"/></g></svg><svg width="26" height="26" viewBox="-326.9 279 26 26" id="icon_play-circle-white" y="1302"><g fill="#FFF"><path d="M-313.9 280c-6.6 0-12 5.4-12 12s5.4 12 12 12 12-5.4 12-12c0-6.7-5.4-12-12-12zm0 22.5c-5.8 0-10.5-4.7-10.5-10.5s4.7-10.5 10.5-10.5 10.5 4.7 10.5 10.5-4.7 10.5-10.5 10.5z"/><path d="M-309.7 291.7l-6.1-4c-.4-.2-.8-.1-.8.5v7.8c0 .6.4.7.8.5l6.1-4c.4-.1.3-.6 0-.8z"/></g></svg><svg width="29.2" height="24.6" viewBox="-40.5 245 29.2 24.6" id="icon_player-next-white" y="1328"><g fill="#FFF"><path d="M-13.9 256.2l-13.8-9.9c-.9-.5-2-.6-2 1.3v4.3l-7.8-5.6c-.9-.5-2-.5-2 1.3V267c0 1.7 1.1 1.9 2 1.4l7.8-5.6v4.2c0 1.6 1.1 1.9 2 1.3l13.8-9.9c.6-.3.6-1.8 0-2.2z"/><path d="M-13.9 268.6c.9 0 1.6-.7 1.6-1.6v-19.4c0-.9-.7-1.6-1.6-1.6h-.3c-.9 0-1.6.7-1.6 1.6V267c0 .9.7 1.6 1.6 1.6h.3z"/></g></svg><svg width="24.2" height="30.1" viewBox="-218.8 245 24.2 30.1" id="icon_player-pause-white" y="1353"><path fill="#FFF" d="M-211.8 246.1h-4c-1.1 0-2 .9-2 2v24c0 1.1.9 2 2 2h4c1.1 0 2-.9 2-2v-24c0-1.1-.9-2-2-2m14.2-.1h-4c-1.1 0-2 .9-2 2v24c0 1.1.9 2 2 2h4c1.1 0 2-.9 2-2v-24c0-1.1-.9-2-2-2z"/></svg><svg width="26" height="32.6" viewBox="-218.8 283.1 26 32.6" id="icon_player-play-white" y="1384"><path fill="#FFF" d="M-194.7 297.8l-20.5-13.4c-1.2-.7-2.6-.4-2.6 1.8v26.3c0 2.1 1.5 2.5 2.6 1.8l20.5-13.4c1.2-.8 1.2-2.3 0-3.1z"/></svg><svg width="29.2" height="24.6" viewBox="-256 527.1 29.2 24.6" id="icon_player-previous-white" y="1417"><g fill="#FFF"><path d="M-253.4 540.5l13.8 9.9c.9.5 2 .6 2-1.3v-4.3l7.8 5.6c.9.5 2 .5 2-1.3v-19.4c0-1.7-1.1-1.9-2-1.4l-7.8 5.6v-4.2c0-1.6-1.1-1.9-2-1.3l-13.8 9.9c-.6.3-.6 1.8 0 2.2z"/><path d="M-253.4 528.1c-.9 0-1.6.7-1.6 1.6v19.4c0 .9.7 1.6 1.6 1.6h.3c.9 0 1.6-.7 1.6-1.6v-19.4c0-.9-.7-1.6-1.6-1.6h-.3z"/></g></svg><svg width="27" height="27" viewBox="-396 507.6 27 27" id="icon_plus-circle-dark" y="1442"><path d="M-382.5 508.6c-6.9 0-12.5 5.6-12.5 12.5s5.6 12.5 12.5 12.5 12.5-5.6 12.5-12.5-5.6-12.5-12.5-12.5zm0 23.5c-6 0-10.9-4.9-10.9-10.9s4.9-10.9 10.9-10.9 10.9 4.9 10.9 10.9c.1 6-4.8 10.9-10.9 10.9zm4.7-11.8h-3.9v-3.9c0-.4-.4-.8-.8-.8s-.8.4-.8.8v3.9h-3.9c-.4 0-.8.4-.8.8s.4.8.8.8h3.9v3.9c0 .4.4.8.8.8s.8-.3.8-.8v-3.9h3.9c.4 0 .8-.4.8-.8s-.4-.8-.8-.8z"/></svg><svg width="27" height="27" viewBox="-291 348.9 27 27" id="icon_plus-circle-green" y="1469"><path fill="#D9E153" d="M-277.5 349.9c-6.9 0-12.5 5.6-12.5 12.5s5.6 12.5 12.5 12.5 12.5-5.6 12.5-12.5-5.6-12.5-12.5-12.5zm0 23.4c-6 0-10.9-4.9-10.9-10.9s4.9-10.9 10.9-10.9 10.9 4.9 10.9 10.9-4.9 10.9-10.9 10.9zm4.7-11.7h-3.9v-3.9c0-.4-.4-.8-.8-.8s-.8.4-.8.8v3.9h-3.9c-.4 0-.8.4-.8.8s.4.8.8.8h3.9v3.9c0 .4.4.8.8.8s.8-.3.8-.8v-3.9h3.9c.4 0 .8-.4.8-.8s-.4-.8-.8-.8z"/></svg><svg width="27" height="27" viewBox="-291 383.9 27 27" id="icon_plus-circle-white" y="1496"><path fill="#FFF" d="M-277.5 384.9c-6.9 0-12.5 5.6-12.5 12.5s5.6 12.5 12.5 12.5 12.5-5.6 12.5-12.5-5.6-12.5-12.5-12.5zm0 23.4c-6 0-10.9-4.9-10.9-10.9s4.9-10.9 10.9-10.9 10.9 4.9 10.9 10.9-4.9 10.9-10.9 10.9zm4.7-11.7h-3.9v-3.9c0-.4-.4-.8-.8-.8s-.8.4-.8.8v3.9h-3.9c-.4 0-.8.4-.8.8s.4.8.8.8h3.9v3.9c0 .4.4.8.8.8s.8-.3.8-.8v-3.9h3.9c.4 0 .8-.4.8-.8s-.4-.8-.8-.8z"/></svg><svg width="26" height="23.1" viewBox="-218.8 354.3 26 23.1" id="icon_radio-green" y="1523"><path fill="#D9E153" d="M-209.5 370.3h-4.5c-.4 0-.8.3-.8.8 0 .4.3.7.8.7h4.5c.4 0 .8-.3.8-.7-.1-.5-.4-.8-.8-.8zm0-3h-4.5c-.4 0-.8.3-.8.7s.3.8.8.8h4.5c.4 0 .8-.3.8-.8-.1-.4-.4-.7-.8-.7zm12.7-7.5h-1.6l-7.9-4.4c-.4-.2-.8-.1-1 .3-.2.3-.1.8.3 1l5.7 3.2h-13.5c-1.7 0-3 1.3-3 3v10.5c0 1.7 1.3 3 3 3h18c1.7 0 3-1.3 3-3v-10.5c0-1.8-1.3-3.1-3-3.1zm1.5 13.5c0 .8-.7 1.5-1.5 1.5h-18c-.8 0-1.5-.7-1.5-1.5v-10.5c0-.8.7-1.5 1.5-1.5h18c.8 0 1.5.7 1.5 1.5v10.5zm-6.7-9.8c-2.5 0-4.5 2-4.5 4.5s2 4.5 4.5 4.5 4.5-2 4.5-4.5c0-2.4-2.1-4.5-4.5-4.5zm0 7.5c-1.7 0-3-1.3-3-3s1.3-3 3-3 3 1.3 3 3-1.4 3-3 3zm-7.5-6.7h-4.5c-.4 0-.8.3-.8.8 0 .4.3.8.8.8h4.5c.4 0 .8-.3.8-.8-.1-.5-.4-.8-.8-.8z"/></svg><svg width="26" height="23.1" viewBox="-218.8 385.4 26 23.1" id="icon_radio-white" y="1547"><path fill="#FFF" d="M-209.5 401.4h-4.5c-.4 0-.8.3-.8.8 0 .4.3.7.8.7h4.5c.4 0 .8-.3.8-.7-.1-.5-.4-.8-.8-.8zm0-3h-4.5c-.4 0-.8.3-.8.7s.3.8.8.8h4.5c.4 0 .8-.3.8-.8-.1-.4-.4-.7-.8-.7zm12.7-7.5h-1.6l-7.9-4.4c-.4-.2-.8-.1-1 .3-.2.3-.1.8.3 1l5.7 3.2h-13.5c-1.7 0-3 1.3-3 3v10.5c0 1.7 1.3 3 3 3h18c1.7 0 3-1.3 3-3V394c0-1.8-1.3-3.1-3-3.1zm1.5 13.5c0 .8-.7 1.5-1.5 1.5h-18c-.8 0-1.5-.7-1.5-1.5v-10.5c0-.8.7-1.5 1.5-1.5h18c.8 0 1.5.7 1.5 1.5v10.5zm-6.7-9.8c-2.5 0-4.5 2-4.5 4.5s2 4.5 4.5 4.5 4.5-2 4.5-4.5-2.1-4.5-4.5-4.5zm0 7.5c-1.7 0-3-1.3-3-3s1.3-3 3-3 3 1.3 3 3-1.4 3-3 3zm-7.5-6.7h-4.5c-.4 0-.8.3-.8.8 0 .4.3.8.8.8h4.5c.4 0 .8-.3.8-.8-.1-.5-.4-.8-.8-.8z"/></svg><svg width="26" height="26" viewBox="-256 321.2 26 26" id="icon_rewind-gray" y="1571"><g fill="#909191"><path d="M-245.8 329.3h-.2c-.2 0-.3.1-.4.2l-1.7 1.7c-.2.2-.2.5 0 .7l.3.3c.1.1.3.2.3.2.1 0 .2 0 .3-.1l.5-.4v6.7c0 .3.2.5.5.5h.4c.3 0 .5-.2.5-.5v-8.7c0-.4-.2-.6-.5-.6zm5.2-.2c-2.2 0-3.4 1.9-3.4 5s1.3 5 3.4 5c2.2 0 3.5-1.9 3.5-5-.1-3.1-1.4-5-3.5-5zm0 8.6c-1.6 0-1.9-1.9-1.9-3.5s.3-3.5 1.9-3.5 1.9 1.9 1.9 3.5-.3 3.5-1.9 3.5z"/><path d="M-242.7 322.2c-6.4 0-11.6 5.4-11.6 12 0 2.3.6 4.4 1.7 6.2.2-.6.5-1.1.8-1.5-.7-1.4-1.1-3-1.1-4.7 0-5.8 4.6-10.5 10.2-10.5s10.2 4.7 10.2 10.5-4.6 10.5-10.2 10.5c-.4 0-1-.1-1.3-.1-1-.2-1.3 1.2-.5 1.4.5.2 1.1.2 1.9.2 6.4 0 11.6-5.4 11.6-12-.1-6.6-5.3-12-11.7-12z"/><path d="M-250.3 337.4c-.4-.1-.9.1-1 .5l-.3 1.1c-.1-.3-1.5.4-1.4.7l-1-.3c-.4-.1-.9.1-1 .5-.1.4.1.9.5 1l2.8 1h.2c.3 0 .6-.2.7-.6l1-2.9c.1-.4-.1-.8-.5-1z"/></g></svg><svg width="26" height="26" viewBox="-256 355.2 26 26" id="icon_rewind-white" y="1597"><g fill="#FFF"><path d="M-245.8 363.3h-.2c-.2 0-.3.1-.4.2l-1.7 1.7c-.2.2-.2.5 0 .7l.3.3c.1.1.3.2.3.2.1 0 .2 0 .3-.1l.5-.4v6.7c0 .3.2.5.5.5h.4c.3 0 .5-.2.5-.5v-8.7c0-.4-.2-.6-.5-.6zm5.2-.2c-2.2 0-3.4 1.9-3.4 5s1.3 5 3.4 5c2.2 0 3.5-1.9 3.5-5-.1-3.1-1.4-5-3.5-5zm0 8.6c-1.6 0-1.9-1.9-1.9-3.5s.3-3.5 1.9-3.5 1.9 1.9 1.9 3.5-.3 3.5-1.9 3.5z"/><path d="M-242.7 356.2c-6.4 0-11.6 5.4-11.6 12 0 2.3.6 4.4 1.7 6.2.2-.6.5-1.1.8-1.5-.7-1.4-1.1-3-1.1-4.7 0-5.8 4.6-10.5 10.2-10.5s10.2 4.7 10.2 10.5-4.6 10.5-10.2 10.5c-.4 0-1-.1-1.3-.1-1-.2-1.3 1.2-.5 1.4.5.2 1.1.2 1.9.2 6.4 0 11.6-5.4 11.6-12-.1-6.6-5.3-12-11.7-12z"/><path d="M-250.3 371.4c-.4-.1-.9.1-1 .5l-.3 1.1c-.1-.3-1.5.4-1.4.7l-1-.3c-.4-.1-.9.1-1 .5-.1.4.1.9.5 1l2.8 1h.2c.3 0 .6-.2.7-.6l1-2.9c.1-.4-.1-.8-.5-1z"/></g></svg><svg width="25.9" height="18.5" viewBox="-361 292 25.9 18.5" id="icon_right-arrow-green" y="1623"><path fill="#D9E153" d="M-344.9 295l5 5h-18.9c-.7 0-1.2.5-1.2 1.2s.5 1.2 1.2 1.2h18.9l-5 5c-.5.5-.5 1.2 0 1.7s1.2.5 1.7 0l6.8-6.8c.3-.3.4-.7.3-1.1.1-.4 0-.8-.3-1.1l-6.8-6.8c-.5-.5-1.2-.5-1.7 0-.4.5-.4 1.3 0 1.7z"/></svg><svg width="26" height="25.9" viewBox="-256 459.2 26 25.9" id="icon_search-green" y="1642"><path fill="#D9E153" d="M-231.2 482.9l-6.2-6.1c1.6-1.8 2.6-4.1 2.6-6.7 0-5.5-4.5-9.9-10.1-9.9s-10.1 4.4-10.1 9.9 4.5 9.9 10.1 9.9c2.4 0 4.6-.8 6.4-2.2l6.2 6.1c.3.3.8.3 1.1 0 .3-.2.3-.7 0-1zm-13.7-4.3c-4.7 0-8.5-3.8-8.5-8.4s3.8-8.4 8.5-8.4 8.5 3.8 8.5 8.4-3.8 8.4-8.5 8.4z"/></svg><svg width="26" height="25.9" viewBox="-256 493.1 26 25.9" id="icon_search-white" y="1668"><path fill="#FFF" d="M-231.2 516.8l-6.2-6.1c1.6-1.8 2.6-4.1 2.6-6.7 0-5.5-4.5-9.9-10.1-9.9s-10.1 4.4-10.1 9.9 4.5 9.9 10.1 9.9c2.4 0 4.6-.8 6.4-2.2l6.2 6.1c.3.3.8.3 1.1 0 .3-.2.3-.7 0-1zm-13.7-4.3c-4.7 0-8.5-3.8-8.5-8.4s3.8-8.4 8.5-8.4 8.5 3.8 8.5 8.4-3.8 8.4-8.5 8.4z"/></svg><svg width="26.2" height="22.6" viewBox="-291 457.6 26.2 22.6" id="icon_snail-gray" y="1694"><path fill="#909191" d="M-265.9 465.3c-.2-1.2-.9-2.1-2-2.5 0-.6.1-1.8 1.3-2.4.3-.1.5-.5.3-.8-.1-.3-.5-.5-.8-.3-1.6.7-2 2.2-2.1 3.2h-1c-.2-.6-.5-1.8.7-2.7.3-.2.3-.6.1-.9-.2-.3-.6-.3-.9-.1-1.5 1.2-1.5 2.9-1.1 4-2 .9-2.1 3.5-2.1 5.5 0 .4 0 .8-.1 1.2-.5-3.5-3.5-6.3-7.2-6.3-4 0-7.3 3.3-7.3 7.3 0 2.1.9 4.1 2.4 5.4-1.4 0-2.8 0-3.6-.1-.3 0-.6.2-.7.5-.1.3.1.6.4.7.4.1 6.8 2.3 12.2 2.3 1.7 0 3.3-.2 4.6-.8 4.8-2.1 5.1-7.7 5.1-9.3 1.3-.6 2-2.3 1.8-3.9zm-20.9 5.2c0-3.3 2.7-6.1 6.1-6.1s6.1 2.7 6.1 6.1c0 1.2-.3 2.4-.9 3.3-.7.4-1.4.6-1.9.7 1.4-2.2.9-4.8-.5-6.2-.9-.9-2.6-1.4-3.8-1-.9.3-1.6.9-1.9 1.9s0 1.7.3 2c.7 1 2 1.2 2.2 1.2.3 0 .6-.2.7-.6 0-.3-.2-.6-.6-.7-.3 0-1-.2-1.3-.6-.2-.3-.2-.6-.1-1 .1-.5.5-.9 1-1 .9-.2 2.1.2 2.6.7 1.2 1.1 1.4 3.5-.1 5.2-.7.9-2.6 1.3-4.6 1.4-2.1-1-3.3-3.1-3.3-5.3zm18.4-2.2c-.3.1-.4.4-.4.6 0 .1.4 6.4-4.3 8.5-2.8 1.3-7.7.5-11.3-.3h.5c.1 0 .2.1.3.1s.2 0 .3-.1c1.8-.2 3.5-.6 4.6-1.3.6.1 2.2.1 3.7-.9.1 0 .1-.1.2-.1 1-.7 1.9-1.9 2.3-4 .1-.7.2-1.5.2-2.3.1-2.9.3-4.7 2.7-4.7 1.8 0 2.3 1.1 2.4 1.8.2 1.1-.4 2.4-1.2 2.7z"/></svg><svg width="26.2" height="22.6" viewBox="-291 488.3 26.2 22.6" id="icon_snail-green" y="1717"><path fill="#D9E153" d="M-265.9 495.9c-.2-1.2-.9-2.1-2-2.5 0-.6.1-1.8 1.3-2.4.3-.1.5-.5.3-.8-.1-.3-.5-.5-.8-.3-1.6.7-2 2.2-2.1 3.2h-1c-.2-.6-.5-1.8.7-2.7.3-.2.3-.6.1-.9-.2-.3-.6-.3-.9-.1-1.5 1.2-1.5 2.9-1.1 4-2 .9-2.1 3.5-2.1 5.5 0 .4 0 .8-.1 1.2-.5-3.5-3.5-6.3-7.2-6.3-4 0-7.3 3.3-7.3 7.3 0 2.1.9 4.1 2.4 5.4-1.4 0-2.8 0-3.6-.1-.3 0-.6.2-.7.5-.1.3.1.6.4.7.4.1 6.8 2.3 12.2 2.3 1.7 0 3.3-.2 4.6-.8 4.8-2.1 5.1-7.7 5.1-9.3 1.3-.6 2-2.3 1.8-3.9zm-20.9 5.2c0-3.3 2.7-6.1 6.1-6.1s6.1 2.7 6.1 6.1c0 1.2-.3 2.4-.9 3.3-.7.4-1.4.6-1.9.7 1.4-2.2.9-4.8-.5-6.2-.9-.9-2.6-1.4-3.8-1-.9.3-1.6.9-1.9 1.9s0 1.7.3 2c.7 1 2 1.2 2.2 1.2.3 0 .6-.2.7-.6 0-.3-.2-.6-.6-.7-.3 0-1-.2-1.3-.6-.2-.3-.2-.6-.1-1 .1-.5.5-.9 1-1 .9-.2 2.1.2 2.6.7 1.2 1.1 1.4 3.5-.1 5.2-.7.9-2.6 1.3-4.6 1.4-2.1-1-3.3-3.1-3.3-5.3zm18.4-2.2c-.3.1-.4.4-.4.6 0 .1.4 6.4-4.3 8.5-2.8 1.3-7.7.5-11.3-.3h.5c.1 0 .2.1.3.1s.2 0 .3-.1c1.8-.2 3.5-.6 4.6-1.3.6.1 2.2.1 3.7-.9.1 0 .1-.1.2-.1 1-.7 1.9-1.9 2.3-4 .1-.7.2-1.5.2-2.3.1-2.9.3-4.7 2.7-4.7 1.8 0 2.3 1.1 2.4 1.8.2 1.1-.4 2.4-1.2 2.7z"/></svg><svg width="26.2" height="22.6" viewBox="-291 518.9 26.2 22.6" id="icon_snail-white" y="1740"><path fill="#FFF" d="M-265.9 526.5c-.2-1.2-.9-2.1-2-2.5 0-.6.1-1.8 1.3-2.4.3-.1.5-.5.3-.8-.1-.3-.5-.5-.8-.3-1.6.7-2 2.2-2.1 3.2h-1c-.2-.6-.5-1.8.7-2.7.3-.2.3-.6.1-.9-.2-.3-.6-.3-.9-.1-1.5 1.2-1.5 2.9-1.1 4-2 .9-2.1 3.5-2.1 5.5 0 .4 0 .8-.1 1.2-.5-3.5-3.5-6.3-7.2-6.3-4 0-7.3 3.3-7.3 7.3 0 2.1.9 4.1 2.4 5.4-1.4 0-2.8 0-3.6-.1-.3 0-.6.2-.7.5-.1.3.1.6.4.7.4.1 6.8 2.3 12.2 2.3 1.7 0 3.3-.2 4.6-.8 4.8-2.1 5.1-7.7 5.1-9.3 1.3-.6 2-2.2 1.8-3.9zm-20.9 5.2c0-3.3 2.7-6.1 6.1-6.1s6.1 2.7 6.1 6.1c0 1.2-.3 2.4-.9 3.3-.7.4-1.4.6-1.9.7 1.4-2.2.9-4.8-.5-6.2-.9-.9-2.6-1.4-3.8-1-.9.3-1.6.9-1.9 1.9s0 1.7.3 2c.7 1 2 1.2 2.2 1.2.3 0 .6-.2.7-.6.1-.4-.2-.6-.6-.7-.3 0-1-.2-1.3-.6-.2-.3-.2-.6-.1-1 .1-.5.5-.9 1-1 .9-.2 2.1.2 2.6.7 1.2 1.1 1.4 3.5-.1 5.2-.7.9-2.6 1.3-4.6 1.4-2.1-1-3.3-3-3.3-5.3zm18.4-2.2c-.3.1-.4.4-.4.6 0 .1.4 6.4-4.3 8.5-2.8 1.3-7.7.5-11.3-.3h.5c.1 0 .2.1.3.1s.2 0 .3-.1c1.8-.2 3.5-.6 4.6-1.3.6.1 2.2.1 3.7-.9.1 0 .1-.1.2-.1 1-.7 1.9-1.9 2.3-4 .1-.7.2-1.5.2-2.3.1-2.9.3-4.7 2.7-4.7 1.8 0 2.3 1.1 2.4 1.8.2 1.1-.4 2.4-1.2 2.7z"/></svg><svg width="26" height="22.6" viewBox="-218.8 323.7 26 22.6" id="icon_spicy-gray" y="1763"><path fill="none" d="M-205.7 330.3c-.3.4-.7 1.7-1.4 2.8-.9 1.5-1.8 3-2.9 4.3-.6.8-1.3 1.6-2 2.4-.5.6-1 1.1-1.6 1.6.3-.3 2.2-1.4 2.6-1.7 1.7-1.2 3.3-2.5 4.7-4 .8-.9 1.9-2.1 2.3-3.4.2-.6.2-1.2.1-1.8-.2-.8-1.2-.8-1.8-.2z"/><path fill="#909191" d="M-194.1 325.2c-.3-.5-1.2-.8-1.6-.2-.2.4-.3.8-.4 1.2-.1.6-.5 1.2-.8 1.7-.1.2-.7 1.1-1 1.1 0 0-.8-.1-1.5-.1-2.4-1.5-7.2-1.5-8 .9-.7 2.1-3 5.7-5.8 8.8-1.1 1.2-2.3 2.4-3.5 3.6-.3.3-.6.6-.9 1-.4.5-.4 1 .2 1.3 1 .7 2.3.9 3.5.7.7-.1 1.4-.3 2.1-.6 3.5-1.5 11-5.6 13.7-7.7 1.2-1 1.6-2.3 1.5-3.7.2-.3.5-.8.6-1.2.1-.5-.1-1.1-.3-1.6 0-.1-.1-.3-.2-.5-.1-.1 0-.3 0-.4l.1-.1c.5-.4.9-.8 1.3-1.3.5-.6 1-1.3 1.2-2.1 0-.1 0-.5-.2-.8zm-9.9 7.2c-.4 1.3-1.5 2.4-2.3 3.4-1.4 1.5-3 2.8-4.7 4-.4.3-2.3 1.4-2.6 1.7l1.6-1.6c.7-.8 1.3-1.5 2-2.4 1.1-1.4 2-2.9 2.9-4.3.7-1.1 1.1-2.5 1.4-2.8.5-.6 1.6-.6 1.8.3.2.5.1 1.1-.1 1.7z"/></svg><svg width="26" height="23" viewBox="-396 338.6 26 23" id="icon_thumbsup" y="1786"><path d="M-372.1 352.3c.7-.6 1.1-1.5 1.1-2.5 0-.9-.4-1.7-1-2.3s-1.5-.9-2.3-.9h-1.2v-.1c.4-1.4.4-2.9.2-4.4-.1-.7-.5-1.3-1-1.8-.5-.4-1.1-.7-1.8-.7s-1.3.2-1.8.6-.9 1-1 1.7c-.3 2.1-.9 3-2 4.7v.1c-1.3 2-2.4 2-4.1 2-.8 0-1.5.6-1.5 1.4v7.2c0 .8.7 1.4 1.5 1.4s1.1.2 1.7.5c.5.3 1.1.7 2.1 1s2.3.4 3.9.4h1.9c1.8 0 3.3-1.4 3.3-3.2v-.1c.8-.6 1.2-1.5 1.2-2.4v-.3l.3-.3c.4-.5.6-1.2.6-1.8l-.1-.2zm-1.5-.7c.1.2.2.5.2.8 0 .7-.4 1.4-1.1 1.7.2.3.2.6.2.9 0 .8-.6 1.6-1.4 1.8.1.2.2.5.2.8 0 1-.9 1.8-1.9 1.8h-1.9c-3.3 0-4.4-.7-5.3-1.2-.6-.4-1.2-.7-2.4-.7h-.2V350h.1c1.7 0 3.5 0 5.2-2.6v-.1c1.1-1.7 1.9-2.9 2.2-5.2.1-.8.8-1.2 1.4-1.2s1.3.4 1.5 1.4c.6 2.8-.5 5-.8 5.6h3.2c1.1 0 2 .8 2 1.8.1 1-.6 1.7-1.2 1.9zm-17.3-2.5h-2.7c-.8 0-1.4.6-1.4 1.3v7.3c0 .7.6 1.3 1.4 1.3h2.7c.8 0 1.4-.6 1.4-1.3v-7.3c0-.8-.6-1.3-1.4-1.3z"/></svg><svg width="25.1" height="23.2" viewBox="-396 307.4 25.1 23.2" id="icon_thumbsup-filled" y="1809"><path d="M-373.3 320.7c.1.3.2.6.2.9 0 .8-.5 1.6-1.3 1.9.2.3.3.7.3 1 0 1-.7 1.8-1.6 2 .1.3.2.6.2.9 0 1.2-1 2.1-2.2 2.1h-2.2c-3.8 0-5-.8-6-1.4-.7-.4-1.3-.8-2.7-.8h-.2v-8.5h.1c2 0 4 0 6-3v-.1c1.3-2 2.2-3.3 2.5-6 .1-.9.9-1.4 1.6-1.4s1.5.4 1.7 1.6c.6 3.2-.6 5.7-1 6.3h3.7c1.2 0 2.3 1 2.3 2.1 0 1.4-.7 2.3-1.4 2.4zm-17.8-2.1h-2.6c-.7 0-1.3.6-1.3 1.3v6.9c0 .7.6 1.2 1.3 1.2h2.6c.7 0 1.3-.6 1.3-1.2v-6.9c0-.8-.6-1.3-1.3-1.3z"/></svg><svg width="25.1" height="23.1" viewBox="-218.8 416.5 25.1 23.1" id="icon_thumbsup-filled-white" y="1833"><path fill="#FFF" d="M-196.1 429.8c.1.3.2.6.2.9 0 .8-.5 1.6-1.3 1.9.2.3.3.7.3 1 0 1-.7 1.8-1.6 2 .1.3.2.6.2.9 0 1.2-1 2.1-2.2 2.1h-2.2c-3.8 0-5-.8-6-1.4-.8-.3-1.4-.7-2.8-.7h-.1V428h.1c2 0 4 0 6-3v-.1c1.3-2 2.2-3.3 2.5-6 .1-.9.9-1.4 1.6-1.4s1.5.4 1.7 1.6c.6 3.2-.6 5.7-1 6.3h3.7c1.2 0 2.3 1 2.3 2.1 0 1.3-.7 2.1-1.4 2.3zm-17.8-2.2h-2.6c-.7 0-1.3.6-1.3 1.3v6.9c0 .7.6 1.2 1.3 1.2h2.6c.7 0 1.3-.6 1.3-1.2v-6.9c0-.7-.6-1.3-1.3-1.3z"/></svg><svg width="26" height="24" viewBox="-218.8 447.6 26 24" id="icon_thumbsup-green" y="1857"><path fill="#D9E153" d="M-194.9 461.8c.7-.7 1.1-1.6 1.1-2.6 0-.9-.4-1.7-1-2.4-.6-.6-1.5-.9-2.3-.9h-1.2v-.1c.4-1.5.4-3.1.2-4.6-.1-.8-.5-1.4-1-1.9-.5-.4-1.1-.7-1.8-.7s-1.3.2-1.8.6-.9 1.1-1 1.8c-.3 2.2-.9 3.1-2 4.9v.1c-1.3 2.1-2.4 2.1-4.1 2.1-.8 0-1.5.7-1.5 1.5v7.5c0 .8.7 1.5 1.5 1.5s1.1.2 1.7.5c.5.3 1.1.7 2.1 1s2.3.5 3.9.5h1.9c1.8 0 3.3-1.5 3.3-3.3v-.1c.8-.6 1.2-1.6 1.2-2.5v-.4l.3-.3c.4-.6.6-1.2.6-1.9l-.1-.3zm-1.5-.7c.1.3.2.5.2.8 0 .8-.4 1.4-1.1 1.7.2.3.2.6.2.9 0 .9-.6 1.6-1.4 1.9.1.3.2.5.2.8 0 1.1-.9 1.9-1.9 1.9h-1.9c-3.3 0-4.4-.7-5.3-1.2-.6-.4-1.2-.7-2.4-.7h-.2v-7.7h.1c1.7 0 3.5 0 5.2-2.7v-.1c1.1-1.8 1.9-3 2.2-5.5.1-.8.8-1.2 1.4-1.2s1.3.4 1.5 1.4c.6 2.9-.5 5.2-.8 5.8h3.2c1.1 0 2 .9 2 1.9 0 1.1-.6 1.9-1.2 2zm-17.3-2.5h-2.7c-.8 0-1.4.6-1.4 1.4v7.6c0 .8.6 1.4 1.4 1.4h2.7c.8 0 1.4-.6 1.4-1.4V460c0-.8-.6-1.4-1.4-1.4z"/></svg><svg width="26" height="24" viewBox="-218.8 479.6 26 24" id="icon_thumbsup-white" y="1881"><path fill="#FFF" d="M-194.9 493.8c.7-.7 1.1-1.6 1.1-2.6 0-.9-.4-1.7-1-2.4-.6-.6-1.5-.9-2.3-.9h-1.2v-.1c.4-1.5.4-3.1.2-4.6-.1-.8-.5-1.4-1-1.9-.5-.4-1.1-.7-1.8-.7s-1.3.2-1.8.6-.9 1.1-1 1.8c-.3 2.2-.9 3.1-2 4.9v.1c-1.3 2.1-2.4 2.1-4.1 2.1-.8 0-1.5.7-1.5 1.5v7.5c0 .8.7 1.5 1.5 1.5s1.1.2 1.7.5c.5.3 1.1.7 2.1 1s2.3.5 3.9.5h1.9c1.8 0 3.3-1.5 3.3-3.3v-.1c.8-.6 1.2-1.6 1.2-2.5v-.4l.3-.3c.4-.6.6-1.2.6-1.9l-.1-.3zm-1.5-.7c.1.3.2.5.2.8 0 .8-.4 1.4-1.1 1.7.2.3.2.6.2.9 0 .9-.6 1.6-1.4 1.9.1.3.2.5.2.8 0 1.1-.9 1.9-1.9 1.9h-1.9c-3.3 0-4.4-.7-5.3-1.2-.6-.4-1.2-.7-2.4-.7h-.2v-7.7h.1c1.7 0 3.5 0 5.2-2.7v-.1c1.1-1.8 1.9-3 2.2-5.5.1-.8.8-1.2 1.4-1.2s1.3.4 1.5 1.4c.6 2.9-.5 5.2-.8 5.8h3.2c1.1 0 2 .9 2 1.9 0 1.1-.6 1.9-1.2 2zm-17.3-2.6h-2.7c-.8 0-1.4.6-1.4 1.4v7.6c0 .8.6 1.4 1.4 1.4h2.7c.8 0 1.4-.6 1.4-1.4v-7.6c0-.8-.6-1.4-1.4-1.4z"/></svg><svg width="25.9" height="15.2" viewBox="-361 268.8 25.9 15.2" id="icon_up-angle-green" y="1905"><path fill="#D9E153" d="M-336.4 280.9l-10.8-10.8c-.2-.2-.5-.3-.8-.3s-.6.1-.8.3l-10.8 10.8c-.5.5-.5 1.2 0 1.7s1.2.5 1.7 0l10-10 10 10c.5.5 1.2.5 1.7 0 .2-.5.2-1.2-.2-1.7z"/></svg><svg width="27.9" height="24.8" viewBox="-326.9 378.6 27.9 24.8" id="icon_video-green" y="1921"><path fill="#D9E153" d="M-301.5 389.5l-4.9 3.2c0-1-.4-1.9-1.1-2.5 1.7-1 2.8-2.8 2.8-4.9 0-3.1-2.5-5.7-5.7-5.7-3.1 0-5.7 2.5-5.7 5.7 0 1.6.7 3 1.7 4.1h-3c.8-.9 1.3-2 1.3-3.3 0-2.7-2.2-4.9-4.9-4.9s-4.9 2.2-4.9 4.9c0 1.5.7 2.8 1.7 3.7-1 .6-1.7 1.6-1.7 2.8v6.5c0 1.8 1.5 3.2 3.2 3.2h13c1.8 0 3.2-1.5 3.2-3.2v-.8l4.9 4.1c.9 0 1.6-.7 1.6-1.6V391c.1-.8-.6-1.5-1.5-1.5zm-22.8-3.3c0-1.8 1.5-3.2 3.2-3.2 1.8 0 3.2 1.5 3.2 3.2 0 1.8-1.5 3.3-3.2 3.3s-3.2-1.5-3.2-3.3zm16.3 13c0 .9-.7 1.6-1.6 1.6h-13c-.9 0-1.6-.7-1.6-1.6v-6.5c0-.9.7-1.6 1.6-1.6h13c.9 0 1.6.7 1.6 1.6v6.5zm-2.5-9.7c-2.2 0-4.1-1.8-4.1-4.1 0-2.2 1.8-4.1 4.1-4.1 2.2 0 4.1 1.8 4.1 4.1s-1.8 4.1-4.1 4.1zm9 11.3l-4.9-4.1v-2.4l4.9-3.2v9.7z"/></svg><svg width="27.9" height="24.8" viewBox="-326.9 411.4 27.9 24.8" id="icon_video-white" y="1946"><path fill="#FFF" d="M-301.5 422.3l-4.9 3.2c0-1-.4-1.9-1.1-2.5 1.7-1 2.8-2.8 2.8-4.9 0-3.1-2.5-5.7-5.7-5.7-3.1 0-5.7 2.5-5.7 5.7 0 1.6.7 3 1.7 4.1h-3c.8-.9 1.3-2 1.3-3.3 0-2.7-2.2-4.9-4.9-4.9s-4.9 2.2-4.9 4.9c0 1.5.7 2.8 1.7 3.7-1 .6-1.7 1.6-1.7 2.8v6.5c0 1.8 1.5 3.2 3.2 3.2h13c1.8 0 3.2-1.5 3.2-3.2v-.8l4.9 4.1c.9 0 1.6-.7 1.6-1.6v-9.8c.1-.7-.6-1.5-1.5-1.5zm-22.8-3.2c0-1.8 1.5-3.2 3.2-3.2 1.8 0 3.2 1.5 3.2 3.2 0 1.8-1.5 3.3-3.2 3.3-1.7-.1-3.2-1.5-3.2-3.3zm16.3 13c0 .9-.7 1.6-1.6 1.6h-13c-.9 0-1.6-.7-1.6-1.6v-6.5c0-.9.7-1.6 1.6-1.6h13c.9 0 1.6.7 1.6 1.6v6.5zm-2.5-9.8c-2.2 0-4.1-1.8-4.1-4.1 0-2.2 1.8-4.1 4.1-4.1 2.2 0 4.1 1.8 4.1 4.1s-1.8 4.1-4.1 4.1zm9 11.4l-4.9-4.1v-2.4l4.9-3.2v9.7z"/></svg><svg width="27" height="27" viewBox="-184.8 495 27 27" id="icon_x-circle-green" y="1971"><path fill="#D9E153" d="M-162.4 499.7c-4.9-4.9-12.8-4.9-17.7 0s-4.9 12.8 0 17.7c4.9 4.9 12.8 4.9 17.7 0 4.8-4.9 4.8-12.9 0-17.7zm-16.6 16.5c-4.2-4.2-4.2-11.2 0-15.4 4.2-4.2 11.2-4.2 15.4 0s4.2 11.2 0 15.4c-4.2 4.2-11.1 4.2-15.4 0zm11.6-4.9l-2.8-2.8 2.8-2.8c.3-.3.3-.8 0-1.1-.3-.3-.8-.3-1.1 0l-2.8 2.8-2.8-2.8c-.3-.3-.8-.3-1.1 0-.3.3-.3.8 0 1.1l2.8 2.8-2.8 2.8c-.3.3-.3.8 0 1.1s.8.4 1.1 0l2.8-2.8 2.8 2.8c.3.3.8.3 1.1 0 .3-.3.3-.9 0-1.1z"/></svg><svg width="27" height="27" viewBox="-184.8 530 27 27" id="icon_x-circle-white" y="1998"><path fill="#FFF" d="M-162.4 534.7c-4.9-4.9-12.8-4.9-17.7 0-4.9 4.9-4.9 12.8 0 17.7 4.9 4.9 12.8 4.9 17.7 0 4.8-4.9 4.8-12.9 0-17.7zm-16.6 16.5c-4.2-4.2-4.2-11.2 0-15.4 4.2-4.2 11.2-4.2 15.4 0s4.2 11.2 0 15.4-11.1 4.2-15.4 0zm11.6-4.9l-2.8-2.8 2.8-2.8c.3-.3.3-.8 0-1.1-.3-.3-.8-.3-1.1 0l-2.8 2.8-2.8-2.8c-.3-.3-.8-.3-1.1 0-.3.3-.3.8 0 1.1l2.8 2.8-2.8 2.8c-.3.3-.3.8 0 1.1s.8.4 1.1 0l2.8-2.8 2.8 2.8c.3.3.8.3 1.1 0s.3-.9 0-1.1z"/></svg><svg width="16" height="15.8" viewBox="-361 245 16 15.8" id="icon_x-dark" y="2025"><path d="M-346.1 246.8c0-.3-.1-.5-.2-.6s-.3-.2-.5-.2h-.1c-.2 0-.4.1-.5.2l-5.6 5.5-5.6-5.5c-.1-.1-.3-.2-.5-.2h-.2c-.2 0-.4.1-.5.2-.2.2-.2.4-.2.6s.1.4.2.6l5.6 5.5-5.6 5.5c-.2.2-.2.4-.2.6s.1.4.2.6c.2.2.4.2.6.2s.4-.1.6-.2l5.6-5.5 5.6 5.5c.2.2.4.2.6.2s.4-.1.6-.2c.1-.1.2-.3.2-.5v-.1c0-.2-.1-.4-.2-.5l-5.6-5.5 5.6-5.5c0-.3.1-.5.1-.7z"/></svg></svg>