<?xml version="1.0" encoding="utf-8"?><!DOCTYPE svg PUBLIC "-//W3C//DTD SVG 1.1//EN" "http://www.w3.org/Graphics/SVG/1.1/DTD/svg11.dtd"><svg width="27" height="560" viewBox="0 0 27 560" xmlns="http://www.w3.org/2000/svg" xmlns:xlink="http://www.w3.org/1999/xlink"><svg width="27" height="27" viewBox="-1 -1 27 27" id="icon_asterisk-black"><path fill="#231F20" d="M22.8 11.4h-8l4-7.1c.4-.8.2-1.7-.6-2.1-.7-.4-1.7-.2-2.1.6l-4 7.1-4-7.1c-.4-.7-1.3-1-2.1-.6s-1 1.4-.6 2.1l4 7.1h-8c-.8 0-1.5.7-1.5 1.6 0 .9.7 1.6 1.5 1.6h8l-4 7.1c-.4.7-.2 1.7.6 2.1.7.4 1.7.2 2.1-.6l4-7.1 4 7.1c.4.8 1.3 1 2.1.6.7-.4 1-1.4.6-2.1l-4-7.1h8c.8 0 1.5-.7 1.5-1.6 0-.9-.7-1.6-1.5-1.6"/></svg><svg width="27" height="27" viewBox="-1 -1 27 27" id="icon_bday-gray" y="27"><g fill="#8B8B8B"><path d="M21.1 23.4H3.8l-.4-2h18l-.3 2zM5.7 16.3c.3.2.7.3 1.2.3.9 0 1.4-.4 1.8-.7.3-.3.5-.5 1-.5s.7.2 1 .5c.4.3.9.7 1.8.7s1.4-.4 1.8-.7c.3-.3.5-.5 1-.5s.7.2 1 .5c.4.3.9.7 1.8.7.5 0 .9-.1 1.2-.3v3.9H5.7v-3.9zm-1-2.9c0-1 .8-1.8 1.8-1.8h12.1c1 0 1.8.8 1.8 1.8v.9c-.6.1-.9.4-1.2.7-.3.3-.5.5-1 .5s-.7-.2-1-.5c-.4-.3-.9-.7-1.8-.7s-1.4.4-1.8.7c-.3.3-.5.5-1 .5s-.7-.2-1-.5c-.4-.3-.9-.7-1.8-.7s-1.4.4-1.8.7c-.3.3-.5.5-1 .5s-.7-.2-1-.5c-.3-.2-.6-.5-1.2-.7v-.9zm7.4-5.6h.7v2.7h-.7V7.8zm12 12.4h-3.7v-4.7c.1 0 .3-.1.4-.1.3 0 .6-.3.6-.6v-1.4c0-1.6-1.3-2.9-2.9-2.9H14V7.2c0-.3-.3-.6-.6-.6h-1.9c-.3 0-.6.3-.6.6v3.3H6.4c-1.6 0-2.9 1.3-2.9 2.9v1.4c0 .3.3.6.6.6.2 0 .3 0 .4.1v4.7H.8c-.3 0-.6.3-.6.6s.3.6.6.6h1.5l.5 2.7c.1.3.3.5.6.5h18.2c.3 0 .5-.2.6-.5l.5-2.7h1.5c.3 0 .6-.3.6-.6-.1-.3-.3-.6-.7-.6zM12.5 2c.5.7 1 1.5 1 1.8 0 .5-.4 1-1 1-.5 0-1-.4-1-1 0-.3.4-1 1-1.8zm0 4c1.2 0 2.2-1 2.2-2.2 0-1-1.3-2.7-1.7-3.1-.1-.1-.3-.2-.5-.2s-.3.1-.5.2c-.4.5-1.7 2.1-1.7 3.1 0 1.2 1 2.2 2.2 2.2z"/></g></svg><svg width="27" height="27" viewBox="-1 -1 27 27" id="icon_calendar-outline-pink" y="54"><defs><path id="ca" d="M.5.4h24.6V25H.5z"/></defs><clipPath id="cb"><use xlink:href="#ca" overflow="visible"/></clipPath><g clip-path="url(#cb)"><defs><path id="cc" d="M.4 0H25v25.6H.4z"/></defs><clipPath id="cd"><use xlink:href="#cc" overflow="visible"/></clipPath><path clip-path="url(#cd)" fill="#E93E5C" d="M23.1 22.6c0 .3-.2.5-.5.5H2.4c-.3 0-.5-.2-.5-.5V4.7c0-.3.2-.5.5-.5h3.3v1.5c0 .4.3.8.8.8.4 0 .8-.3.8-.8V4.2h4.5v1.5c0 .4.3.8.8.8.4 0 .8-.3.8-.8V4.2h4.5v1.5c0 .4.3.8.8.8.4 0 .8-.3.8-.8V4.2h3.3c.3 0 .5.2.5.5v17.9zm-.5-20h-3.3V1.1c0-.4-.3-.8-.8-.8-.4 0-.8.3-.8.8v1.5h-4.5V1.1c0-.4-.3-.8-.8-.8-.4 0-.8.3-.8.8v1.5H7.2V1.1c0-.4-.3-.8-.8-.8-.4 0-.8.3-.8.8v1.5H2.4c-1.1 0-2 .9-2 2v17.9c0 1.1.9 2 2 2h20.2c1.1 0 2-.9 2-2V4.7c.1-1.1-.9-2.1-2-2.1z"/></g><g><defs><path id="ce" d="M.8 0h24.6v25.6H.8z"/></defs><clipPath id="cf"><use xlink:href="#ce" overflow="visible"/></clipPath><path clip-path="url(#cf)" fill="#E93E5C" d="M6.1 9.5h3v2.3h-3zM6.1 13.3h3v2.3h-3zM6.1 17h3v2.3h-3zM11.4 17h3v2.3h-3zM11.4 13.3h3v2.3h-3zM11.4 9.5h3v2.3h-3zM16.7 17h3v2.3h-3zM16.7 13.3h3v2.3h-3zM16.7 9.5h3v2.3h-3z"/></g></svg><svg width="27" height="27" viewBox="-1 -1 27 27" id="icon_check-filled-pink" y="81"><path fill-rule="evenodd" clip-rule="evenodd" fill="#E93E5C" d="M12.5.2C5.7.2.1 5.7.1 12.5c0 6.8 5.5 12.4 12.4 12.4 6.8 0 12.4-5.5 12.4-12.4C24.9 5.7 19.3.2 12.5.2zm6.4 9.5l-7.7 7.7c-.1.1-.3.2-.5.2h-.1c-.2 0-.4-.1-.5-.3l-2.8-3.7c-.2-.3-.2-.8.1-1 .3-.2.8-.2 1 .1l2.3 3.1 7.1-7.1c.3-.3.8-.3 1 0 .4.2.4.7.1 1z"/></svg><svg width="27" height="27" viewBox="-1 -1 27 27" id="icon_check-outline-black" y="108"><path fill-rule="evenodd" clip-rule="evenodd" d="M18.2 10.3l-7.4 7.4c-.1.1-.3.2-.5.2s-.4-.1-.5-.3L7 14.1c-.2-.3-.2-.8.1-1 .3-.2.8-.2 1 .1l2.2 2.9 6.8-6.8c.3-.3.7-.3 1 0 .3.3.3.8.1 1zm3-6.5C16.4-1 8.5-1 3.7 3.8c-4.8 4.8-4.8 12.7 0 17.5 4.8 4.8 12.7 4.8 17.5 0 4.8-4.8 4.8-12.7 0-17.5zM4.8 20.2C.6 16 .6 9.1 4.8 4.9 9 .7 15.9.7 20.1 4.9c4.2 4.2 4.2 11.1 0 15.3-4.2 4.2-11.1 4.2-15.3 0z"/></svg><svg width="27" height="27" viewBox="-1 -1 27 27" id="icon_check-outline-green" y="135"><path fill-rule="evenodd" clip-rule="evenodd" fill="#19A44A" d="M18.2 10.3l-7.4 7.4c-.1.1-.3.2-.5.2s-.4-.1-.5-.3L7 14.1c-.2-.3-.2-.8.1-1 .3-.2.8-.2 1 .1l2.2 2.9 6.8-6.8c.3-.3.7-.3 1 0 .3.3.3.8.1 1zm3-6.5C16.4-1 8.5-1 3.7 3.8c-4.8 4.8-4.8 12.7 0 17.5 4.8 4.8 12.7 4.8 17.5 0 4.8-4.8 4.8-12.7 0-17.5zM4.8 20.2C.6 16 .6 9.1 4.8 4.9 9 .7 15.9.7 20.1 4.9c4.2 4.2 4.2 11.1 0 15.3-4.2 4.2-11.1 4.2-15.3 0z"/></svg><svg width="27" height="27" viewBox="-1 -1 27 27" id="icon_check-outline-pink" y="162"><path fill-rule="evenodd" clip-rule="evenodd" fill="#E93E5C" d="M18.2 10.3l-7.4 7.4c-.1.1-.3.2-.5.2s-.4-.1-.5-.3L7 14.1c-.2-.3-.2-.8.1-1 .3-.2.8-.2 1 .1l2.2 2.9 6.8-6.8c.3-.3.7-.3 1 0 .3.3.3.8.1 1zm3-6.5C16.4-1 8.5-1 3.7 3.8c-4.8 4.8-4.8 12.7 0 17.5 4.8 4.8 12.7 4.8 17.5 0 4.8-4.8 4.8-12.7 0-17.5zM4.8 20.2C.6 16 .6 9.1 4.8 4.9 9 .7 15.9.7 20.1 4.9c4.2 4.2 4.2 11.1 0 15.3-4.2 4.2-11.1 4.2-15.3 0z"/></svg><svg width="27" height="27" viewBox="-1 -1 27 27" id="icon_close-outline-black" y="189"><path fill-rule="evenodd" clip-rule="evenodd" d="M21.3 3.8C16.5-1 8.6-1 3.8 3.8-1 8.6-1 16.4 3.8 21.2c4.8 4.8 12.7 4.8 17.5 0 4.8-4.8 4.8-12.6 0-17.4zM4.9 20.1C.7 15.9.7 9 4.9 4.8 9.1.6 16 .6 20.2 4.8c4.2 4.2 4.2 11.1 0 15.3-4.3 4.3-11.1 4.3-15.3 0zm11.4-4.9l-2.7-2.7 2.7-2.7c.3-.3.3-.8 0-1.1-.3-.3-.8-.3-1.1 0l-2.7 2.7-2.7-2.7c-.3-.3-.8-.3-1.1 0-.3.3-.3.8 0 1.1l2.7 2.7-2.7 2.7c-.3.3-.3.8 0 1.1.3.3.8.3 1.1 0l2.7-2.7 2.7 2.7c.3.3.8.3 1.1 0 .3-.3.3-.8 0-1.1zm0 0"/></svg><svg width="27" height="27" viewBox="-1 -1 27 27" id="icon_close-outline-gray" y="216"><path fill-rule="evenodd" clip-rule="evenodd" fill="#8B8B8B" d="M21.3 3.8C16.5-1 8.6-1 3.8 3.8-1 8.6-1 16.4 3.8 21.2c4.8 4.8 12.7 4.8 17.5 0 4.8-4.8 4.8-12.6 0-17.4zM4.9 20.1C.7 15.9.7 9 4.9 4.8 9.1.6 16 .6 20.2 4.8c4.2 4.2 4.2 11.1 0 15.3-4.3 4.3-11.1 4.3-15.3 0zm11.4-4.9l-2.7-2.7 2.7-2.7c.3-.3.3-.8 0-1.1-.3-.3-.8-.3-1.1 0l-2.7 2.7-2.7-2.7c-.3-.3-.8-.3-1.1 0-.3.3-.3.8 0 1.1l2.7 2.7-2.7 2.7c-.3.3-.3.8 0 1.1.3.3.8.3 1.1 0l2.7-2.7 2.7 2.7c.3.3.8.3 1.1 0 .3-.3.3-.8 0-1.1zm0 0"/></svg><svg width="27" height="27" viewBox="-1 -1 27 27" id="icon_close-outline-pink" y="243"><path fill-rule="evenodd" clip-rule="evenodd" fill="#E93E5C" d="M21.3 3.8C16.5-1 8.6-1 3.8 3.8-1 8.6-1 16.4 3.8 21.2c4.8 4.8 12.7 4.8 17.5 0 4.8-4.8 4.8-12.6 0-17.4zM4.9 20.1C.7 15.9.7 9 4.9 4.8 9.1.6 16 .6 20.2 4.8c4.2 4.2 4.2 11.1 0 15.3-4.3 4.3-11.1 4.3-15.3 0zm11.4-4.9l-2.7-2.7 2.7-2.7c.3-.3.3-.8 0-1.1-.3-.3-.8-.3-1.1 0l-2.7 2.7-2.7-2.7c-.3-.3-.8-.3-1.1 0-.3.3-.3.8 0 1.1l2.7 2.7-2.7 2.7c-.3.3-.3.8 0 1.1.3.3.8.3 1.1 0l2.7-2.7 2.7 2.7c.3.3.8.3 1.1 0 .3-.3.3-.8 0-1.1zm0 0"/></svg><svg width="27" height="19.9" viewBox="-1 -1 27 19.9" id="icon_email-gray" y="270"><path fill="#8B8B8B" d="M24.2 1.2c-.4-.4-.9-.6-1.4-.6H2.3c-1.1 0-2 .9-2 2.1v12.5c0 .5.2 1.1.6 1.4.4.4.9.6 1.4.6h20.5c1.1 0 2-.9 2-2.1V2.6c-.1-.5-.3-1-.6-1.4zm-2.4 1.2l-9.3 8.3-9.2-8.2 18.5-.1zm1 12.9H2.3c-.1 0-.1 0-.1-.1l-.1-.1V3.8l10.4 9.4L23 3.8v11.3c0 .1-.1.2-.2.2z"/></svg><svg width="27" height="27" viewBox="-1 -1 27 27" id="icon_his-her-gray" y="290"><path fill="#8B8B8B" d="M18.1 14.4c-.5.6-1 1-1.7 1.3.1-.6.2-1.3.1-2-.2-1.7-1-3.2-2.3-4.3-1.1-.9-2.5-1.4-3.9-1.4 1-1.2 2.4-1.9 3.9-1.9 1.2 0 2.2.4 3.1 1.1 2.2 1.9 2.5 5.1.8 7.2zm-7.9 5.1c-1.2 0-2.2-.4-3.1-1.1-2.1-1.7-2.5-4.9-.7-7 .5-.6 1-1 1.7-1.3-.5 2.2.3 4.7 2.2 6.2 1.1.9 2.5 1.4 3.9 1.4-1.1 1.1-2.5 1.8-4 1.8zm0-10.1c1.2 0 2.2.4 3.2 1.1 1 .8 1.7 2 1.8 3.4.1.8 0 1.5-.3 2.3-.2 0-.5.1-.7.1-1.2 0-2.2-.4-3.1-1.1-1.7-1.4-2.2-3.7-1.5-5.6.2-.1.4-.2.6-.2zm12.9-8.3c0-.4-.4-.6-.7-.6l-5.2.5c-.4 0-.6.4-.6.7 0 .4.4.6.7.6l3.6-.3-3.2 4c-1-.7-2.2-1-3.4-1-1.9 0-3.7.9-4.9 2.3-.4.3-.6.7-.8 1-1.3.3-2.4 1.1-3.3 2.1-2.1 2.5-1.8 6.2.5 8.4l-1.3 1.5-2-1.6c-.3-.2-.7-.2-.9.1-.2.3-.2.7.1.9l2 1.6-1.6 2c-.2.3-.2.7.1.9.1.1.3.1.4.1.2 0 .4-.1.5-.2l1.6-2 2 1.6c.1.3.3.4.4.4.2 0 .4-.1.5-.2.2-.3.2-.7-.1-.9l-2-1.6 1.3-1.5c1 .7 2.2 1 3.4 1 1.9 0 3.7-.9 4.9-2.3.3-.3.5-.7.7-1.1 1.3-.3 2.4-1.1 3.3-2.1 2.1-2.5 1.8-6.2-.5-8.4l3.2-4 .4 3.6c0 .3.3.6.7.6h.1c.4 0 .6-.4.6-.7l-.5-5.4z"/></svg><svg width="27" height="27" viewBox="-1 -1 27 27" id="icon_pencil-gray" y="317"><path fill="#8B8B8B" d="M9 21.1l-4.9-4.9L17.8 2.5l1.8 1.8-8.3 8.3c-.3.3-.3.9 0 1.3.2.2.4.3.6.3.2 0 .5-.1.6-.3l8.3-8.3 1.8 1.8L9 21.1zM3.4 18l3.8 3.8-4.8 1 1-4.8zM24.6 6.8l-3.1-3.1L18.4.6c-.2-.2-.4-.3-.6-.3-.2 0-.5.1-.6.3l-15 14.9c-.1.2-.2.3-.3.5L.3 23.8c-.1.3 0 .6.2.8.2.2.4.3.6.3h.2l7.8-1.6c.2 0 .3-.1.4-.2L24.6 8c.3-.3.3-.9 0-1.2z"/></svg><svg width="27" height="27" viewBox="-1 -1 27 27" id="icon_pencil-pink" y="344"><path fill="#E93E5C" d="M9 21.1l-4.9-4.9L17.8 2.5l1.8 1.8-8.3 8.3c-.3.3-.3.9 0 1.3.2.2.4.3.6.3.2 0 .5-.1.6-.3l8.3-8.3 1.8 1.8L9 21.1zM3.4 18l3.8 3.8-4.8 1 1-4.8zM24.6 6.8l-3.1-3.1L18.4.6c-.2-.2-.4-.3-.6-.3-.2 0-.5.1-.6.3l-15 14.9c-.1.2-.2.3-.3.5L.3 23.8c-.1.3 0 .6.2.8.2.2.4.3.6.3h.2l7.8-1.6c.2 0 .3-.1.4-.2L24.6 8c.3-.3.3-.9 0-1.2z"/></svg><svg width="27" height="27" viewBox="-1 -1 27 27" id="icon_pencil-white" y="371"><path fill="#FFF" d="M9 21.1l-4.9-4.9L17.8 2.5l1.8 1.8-8.3 8.3c-.3.3-.3.9 0 1.3.2.2.4.3.6.3.2 0 .5-.1.6-.3l8.3-8.3 1.8 1.8L9 21.1zM3.4 18l3.8 3.8-4.8 1 1-4.8zM24.6 6.8l-3.1-3.1L18.4.6c-.2-.2-.4-.3-.6-.3-.2 0-.5.1-.6.3l-15 14.9c-.1.2-.2.3-.3.5L.3 23.8c-.1.3 0 .6.2.8.2.2.4.3.6.3h.2l7.8-1.6c.2 0 .3-.1.4-.2L24.6 8c.3-.3.3-.9 0-1.2z"/></svg><svg width="27" height="27" viewBox="-1 -1 27 27" id="icon_phone-gray" y="398"><path fill="#8B8B8B" d="M23 21.4l-.5.5-.2.2c-.3.3-.8.7-1.5 1-.4.2-.8.3-1.3.3-.1 0-5.4.5-11.9-6.1-5.5-5.6-6.4-8.8-6-11.9 0-.4.2-.8.3-1.3.3-.7.7-1.3 1-1.6l.6-.7c.3-.3.8-.3 1.1-.1l3.7 3.7c.3.3.3.8 0 1.1L5.8 9.2l.2.4c.1.2.3.5.4.7.7 1.2 1.6 3 3.5 4.8 1.8 1.8 3.5 2.8 4.8 3.5.3.1.5.3.7.4l.4.2 2.5-2.5c.3-.3.8-.3 1.1-.1l3.7 3.7c.3.3.3.8-.1 1.1zm.9-1.9l-3.7-3.7c-.7-.7-2-.7-2.7.1l-1.9 1.9c-.1-.1-.2-.1-.4-.2-1.2-.7-2.8-1.6-4.5-3.3-1.7-1.8-2.6-3.4-3.3-4.6-.1-.1-.1-.2-.2-.3l1.3-1.3.6-.6c.8-.8.8-2 .1-2.7L5.4 1c-.7-.7-2-.7-2.7.1l-1 1.1c-.4.4-.7.9-.9 1.5-.2.5-.3 1-.4 1.5-.5 4.1 1.4 7.8 6.4 12.9 7 7 12.6 6.5 12.9 6.4.5-.1 1-.2 1.6-.4.6-.2 1.1-.5 1.5-.9l1.1-1c.7-.7.8-1.9 0-2.7z"/></svg><svg width="27" height="27" viewBox="-1 -1 27 27" id="icon_print-gray" y="425"><g fill="#8B8B8B"><path d="M22.9 5.1h-2.7V2.6c0-1.1-.9-1.9-1.9-1.9H6.8c-1.1 0-1.9.9-1.9 1.9v2.5H2.1C1.1 5.1.2 6 .2 7v10.8c0 1.1.9 1.9 1.9 1.9h2.7v2.6c0 1.1.9 1.9 1.9 1.9h11.4c1.1 0 1.9-.9 1.9-1.9v-2.6h2.7c1.1 0 1.9-.9 1.9-1.9V7c.2-1-.7-1.9-1.7-1.9zM6.8 2.6h11.5v2.5H6.8V2.6zm-.1 19.8v-8h11.5v8H6.7zm16.2-4.6c0 .1 0 .1 0 0h-2.8v-5.4H4.8v5.4H2L2.1 7h20.8v10.8z"/><path d="M19 10.3h1.4c.5 0 .9-.4.9-.9s-.4-.9-.9-.9H19c-.5 0-.9.4-.9.9 0 .4.4.9.9.9zM15.3 16.1H9.5c-.5 0-.9.4-.9.9s.4.9.9.9h5.9c.5 0 .9-.4.9-.9s-.4-.9-1-.9zM13.1 19H9.5c-.5 0-.9.4-.9.9s.4.9.9.9h3.7c.5 0 .9-.4.9-.9s-.5-.9-1-.9z"/></g></svg><svg width="27" height="27" viewBox="-1 -1 27 27" id="icon_print-pink" y="452"><g fill="#E93E5C"><path d="M22.9 5.1h-2.7V2.6c0-1.1-.9-1.9-1.9-1.9H6.8c-1.1 0-1.9.9-1.9 1.9v2.5H2.1C1.1 5.1.2 6 .2 7v10.8c0 1.1.9 1.9 1.9 1.9h2.7v2.6c0 1.1.9 1.9 1.9 1.9h11.4c1.1 0 1.9-.9 1.9-1.9v-2.6h2.7c1.1 0 1.9-.9 1.9-1.9V7c.2-1-.7-1.9-1.7-1.9zM6.8 2.6h11.5v2.5H6.8V2.6zm-.1 19.8v-8h11.5v8H6.7zm16.2-4.6c0 .1 0 .1 0 0h-2.8v-5.4H4.8v5.4H2L2.1 7h20.8v10.8z"/><path d="M19 10.3h1.4c.5 0 .9-.4.9-.9s-.4-.9-.9-.9H19c-.5 0-.9.4-.9.9 0 .4.4.9.9.9zM15.3 16.1H9.5c-.5 0-.9.4-.9.9s.4.9.9.9h5.9c.5 0 .9-.4.9-.9s-.4-.9-1-.9zM13.1 19H9.5c-.5 0-.9.4-.9.9s.4.9.9.9h3.7c.5 0 .9-.4.9-.9s-.5-.9-1-.9z"/></g></svg><svg width="27" height="27" viewBox="-1 -1 27 27" id="icon_trash-outline-gray" y="479"><g fill="#8B8B8B"><path d="M21.1 5.9c0 .8-.7 1.5-1.5 1.5H5.3c-.8 0-1.5-.7-1.5-1.5v-.1c0-.8.7-1.5 1.5-1.5h14.4c.8 0 1.5.7 1.5 1.5v.1zm-1.8 16c0 .8-.7 1.5-1.5 1.5H7.1c-.8 0-1.5-.7-1.5-1.5V8.8h13.8v13.1zM12.5 1.3c1 0 1.8.7 2 1.6h-3.9c.1-.9.9-1.6 1.9-1.6zM19.6 3h-3.9c-.2-1.7-1.6-3-3.3-3S9.3 1.3 9.1 3H5.3C3.7 3 2.5 4.2 2.5 5.8v.1c0 1.2.7 2.2 1.8 2.6v13.4c0 1.6 1.3 2.8 2.8 2.8h10.8c1.6 0 2.8-1.3 2.8-2.8V8.6c1-.4 1.8-1.4 1.8-2.6v-.2c0-1.6-1.3-2.8-2.9-2.8z"/><path d="M8.9 21.7c.4 0 .7-.3.7-.7v-7.5c0-.4-.3-.7-.7-.7-.4 0-.7.3-.7.7V21c0 .4.3.7.7.7zM12.5 21.7c.4 0 .7-.3.7-.7v-7.5c0-.4-.3-.7-.7-.7-.4 0-.7.3-.7.7V21c0 .4.3.7.7.7zM16.1 21.7c.4 0 .7-.3.7-.7v-7.5c0-.4-.3-.7-.7-.7-.4 0-.7.3-.7.7V21c0 .4.3.7.7.7z"/></g></svg><svg width="27" height="27" viewBox="-1 -1 27 27" id="icon_trash-outline-pink" y="506"><g fill="#E93E5C"><path d="M21.1 5.9c0 .8-.7 1.5-1.5 1.5H5.3c-.8 0-1.5-.7-1.5-1.5v-.1c0-.8.7-1.5 1.5-1.5h14.4c.8 0 1.5.7 1.5 1.5v.1zm-1.8 16c0 .8-.7 1.5-1.5 1.5H7.1c-.8 0-1.5-.7-1.5-1.5V8.8h13.8v13.1zM12.5 1.3c1 0 1.8.7 2 1.6h-3.9c.1-.9.9-1.6 1.9-1.6zM19.6 3h-3.9c-.2-1.7-1.6-3-3.3-3S9.3 1.3 9.1 3H5.3C3.7 3 2.5 4.2 2.5 5.8v.1c0 1.2.7 2.2 1.8 2.6v13.4c0 1.6 1.3 2.8 2.8 2.8h10.8c1.6 0 2.8-1.3 2.8-2.8V8.6c1-.4 1.8-1.4 1.8-2.6v-.2c0-1.6-1.3-2.8-2.9-2.8z"/><path d="M8.9 21.7c.4 0 .7-.3.7-.7v-7.5c0-.4-.3-.7-.7-.7-.4 0-.7.3-.7.7V21c0 .4.3.7.7.7zM12.5 21.7c.4 0 .7-.3.7-.7v-7.5c0-.4-.3-.7-.7-.7-.4 0-.7.3-.7.7V21c0 .4.3.7.7.7zM16.1 21.7c.4 0 .7-.3.7-.7v-7.5c0-.4-.3-.7-.7-.7-.4 0-.7.3-.7.7V21c0 .4.3.7.7.7z"/></g></svg><svg width="27" height="27" viewBox="-1 -1 27 27" id="icon_user-gray" y="533"><path fill="#8B8B8B" d="M16.9 13.7l-.1-.1-.4-.2.3-.2c.2-.1.3-.2.4-.3l.1-.1c1.4-1.3 2.2-3.1 2.2-4.9 0-3.7-3-6.6-6.8-6.7-3.7 0-6.8 3-6.8 6.7 0 1.9.8 3.7 2.2 4.9l.1.1h.1c.1.1.3.2.4.3l.3.2-.5.2h-.2C3.1 15.7.6 19 .6 23.6c0 .5.4.9.9.9h21.7c.5 0 .9-.4.9-.9.1-4.4-2.3-7.8-7.2-9.9zM2.6 22.9v-.2c.3-3.3 2.4-5.7 6.6-7.4.6-.2 1.6-.6 1.6-1.8 0-.9-.7-1.4-1.1-1.7-.1-.1-.2-.2-.3-.2-1.1-.9-1.7-2.3-1.7-3.7 0-2.7 2.3-4.9 5-4.9 2.8 0 5 2.2 5 4.9 0 1.4-.6 2.8-1.7 3.7-.1.1-.2.2-.3.2-.4.3-1.1.8-1.1 1.7 0 1.2 1 1.6 1.6 1.8 4 1.6 5.9 4 6.3 7.4v.2H2.6z"/></svg></svg>