<svg xmlns="http://www.w3.org/2000/svg" width="281" height="792" viewBox="495.9 0 281 792"><path fill="#FFF" d="M709.7 621.1c-.5-.3-.9-.5-.9-.5-2.5-.9-2.5-1.1-2.5-1.9 0-.9.9-1.1 2.2-2.5.5-.5 1.1-.9 1.6-1.4l.5-.5c5.7-5.2 8.9-12.3 8.9-19.8 0-14.9-12.3-26.9-27.4-27.2h-.6c-14.9.3-27.2 12.3-27.2 27.2 0 7.6 3.2 14.9 8.9 19.8l.5.5.3.3c.5.5 1.1.9 1.6 1.4 1.4.9 2.2 1.6 2.2 2.5 0 .9-.3.9-2.5 1.9-.3 0-.5.3-.9.3h-.3c-21.2 8.7-31.8 22.6-31.8 41.6 0 1.4.9 2.5 2.5 2.5h93.1c1.4 0 2.5-.9 2.5-2.5-.5-19.8-10.6-33.3-30.7-41.7M692 660.2h-44.8c.9-16 10-27.2 28.8-35l.5-.3c2.5-.9 5.7-2.5 5.7-6.2 0-3-2.5-4.9-4.1-6-.5-.5-.9-.9-1.4-1.1-5.2-4.1-7.9-10.3-7.9-16.9 0-12.3 10.3-22.6 22.8-22.6s22.8 10.3 22.8 22.6c0 6.6-3 12.8-7.9 16.9-.5.5-.9.9-1.4 1.1-1.6 1.1-4.1 2.7-4.1 6 0 4.1 3.2 5.5 5.7 6.2l.5.3c18 7.3 26.9 18.7 27.7 35H692z"/><path fill="#939393" d="M559 773.1c-3.5 0-6.8-.5-10-1.6-8.4-2.7-14.9-8.7-18.9-16.2-3.8-7.6-4.6-16.8-1.9-24.9l4.1 1.4c-2.5 7.3-1.6 14.9 1.6 21.6 3.5 6.8 9.2 11.6 16.6 14.1 14.9 4.8 30.9-3.2 35.7-18.2l4.1 1.6c-4.8 13.5-17.8 22.2-31.3 22.2z"/><path fill="#939393" d="M536.7 763.6c-.5 0-1.1-.3-1.6-.5-8.4-8.7-11.1-21.1-7.6-32.8 1.6-4.6 4.1-8.9 7.6-12.5.8-.8 2.2-.8 3 0 .8.8.8 2.2 0 3-3 3-5.2 6.8-6.5 10.9-3.2 9.8-.8 20.9 6.5 28.4.8.8.8 2.2 0 3-.3.2-.5.5-1.4.5zm51.2-11.7h-.5c-1.1-.5-1.6-1.6-1.4-2.7 2.5-7.3 1.6-14.9-1.6-21.6-3.5-6.8-9.2-11.6-16.6-14.1-4.6-1.6-9.8-1.6-14.9-.5-1.1.3-2.5-.5-2.5-1.6-.3-1.1.5-2.5 1.6-2.5 5.7-1.4 11.6-.8 17.1.8 8.4 2.7 14.9 8.7 18.9 16.2 3.5 7.6 4.3 16.6 1.6 24.9-.1.6-.8 1.1-1.7 1.1z"/><path fill="#939393" d="M528.3 773.1c-3.5 0-6.8-.5-10-1.6-8.4-2.7-14.9-8.7-18.9-16.2-3.8-7.6-4.6-16.8-1.9-24.9 5.4-16 21.6-25.2 38.2-21.6 1.1.3 1.9 1.4 1.6 2.5-.3 1.1-1.6 1.9-2.5 1.6-14.3-3.5-28.4 4.6-33 18.7-2.5 7.3-1.6 14.9 1.6 21.6 3.2 6.8 9.2 11.6 16.6 14.1 4.6 1.6 9.8 1.6 14.9.5 1.1-.3 2.5.5 2.5 1.6.3 1.1-.5 2.5-1.6 2.5-2.8.9-5.3 1.2-7.5 1.2zm22-9.5c-.5 0-1.1-.3-1.6-.5-.8-.8-.8-2.2 0-3 3-3 5.2-6.8 6.5-10.9 3.2-10 .8-20.9-6.5-28.4-.8-.8-.8-2.2 0-3 .8-.8 2.2-.8 3 0 8.4 8.7 11.1 21.1 7.6 32.8-1.6 4.6-4.1 8.9-7.6 12.5-.4.2-.9.5-1.4.5z"/><path fill="#939393" d="M502.9 759.2c-.5 0-1.4-.5-1.6-.8-9.8-14.9-5.7-35.2 9.2-45.2 7.3-4.8 16-6.8 24.4-4.6 8.7 1.6 16 6.8 20.9 13.8.5 1.1.5 2.5-.5 3s-2.5.5-3-.5c-4.3-6.2-10.5-10.5-17.9-11.9-7.3-1.4-14.9 0-21.1 4.3-13 8.7-16.6 26.2-7.9 39.3.5.5.3 1.9-.8 2.7-.6-.1-1.1-.1-1.7-.1z"/><g fill="#FFF"><path d="M716.3 163.1c-9.9 4.8-17 13.2-20.3 22.9-9.6-3.3-20.6-2.9-30.6 1.9-19.9 9.6-28.3 33.9-18.4 53.7 9.6 19.9 33.9 28.3 53.7 18.4 9.9-4.8 17-13.2 20.3-22.9 9.6 3.3 20.6 2.9 30.6-1.9 19.9-9.6 28.3-33.9 18.4-53.7-9.4-20.1-33.7-28.3-53.7-18.4m.8 44.3c9.2 18.8 1.5 41.3-17.4 50.5s-41.3 1.5-50.5-17.4c-9.2-18.8-1.5-41.3 17.4-50.5 18.9-9.1 41.3-1.4 50.5 17.4m33.6 25.8c-9.2 4.4-19.5 4.8-28.7 1.9.4-.8.8-3.7.8-2.6 2.3-10.3 0-19.9-3.7-26.9-4-7.7-9.2-12.8-17.7-17.4.8.4-1.9-.8-2.6-1.1 2.9-9.2 9.9-17 19.1-21.8 18.8-9.2 41.3-1.5 50.5 17.4 8.9 18.4 1.1 41.3-17.7 50.5"/><path d="M683.2 264.5c-15.5 0-29.8-8.8-36.5-22.9-4.8-9.6-5.5-20.6-1.9-31 3.7-10.3 10.7-18.4 20.6-23.2 5.5-2.9 11.4-4 17.7-4 4.4 0 8.8.8 12.8 2.3 3.7-9.9 10.7-18 20.3-22.9 5.5-2.9 11.4-4 17.7-4 15.5 0 29.8 8.8 36.5 22.9 9.9 20.3 1.5 44.2-18.8 54.1-5.5 2.9-11.4 4-17.7 4-4.4 0-8.8-.8-12.8-2.3-3.7 9.9-10.7 18-20.3 22.9-5.4 2.6-11.3 4.1-17.6 4.1zm0-80.4c-5.9 0-11.8 1.5-17.4 4-9.6 4.8-17 12.8-20.3 22.9-3.3 9.9-2.9 21 1.9 30.6 6.7 13.6 20.6 22.5 35.7 22.5 5.9 0 11.8-1.5 17.4-4 9.6-4.8 16.6-12.6 20.3-22.9v-.4h.4c4 1.5 8.4 2.3 12.8 2.3 5.9 0 11.8-1.5 17.4-4 19.9-9.6 28-33.5 18.4-53.5-6.7-13.6-20.6-22.5-35.7-22.5-5.9 0-11.8 1.5-17.4 4-9.6 4.8-16.6 12.6-20.3 22.9v.4h-.4c-4.3-1.5-8.7-2.3-12.8-2.3zm0 77.8c-14.3 0-28-8.4-34.2-21.4-4.4-9.2-5.2-19.5-1.9-29.1 3.3-9.6 10.3-17.4 19.5-21.8 5.2-2.6 10.7-3.7 16.6-3.7 14.3 0 28 8.4 34.2 21.4 9.2 18.8 1.5 41.6-17.4 50.8-5.3 2.7-10.9 3.8-16.8 3.8zm0-75.5c-5.5 0-11.1 1.1-16.2 3.7-8.8 4.4-15.9 12.2-18.8 21.4-2.9 9.2-2.6 19.5 1.9 28.7 6.3 12.8 19.5 21 33.5 21 5.5 0 11.1-1.1 16.2-3.7 18.4-8.8 26.2-31.3 17.4-50.1-6.7-12.6-20-21-34-21zm50.9 50.8c-4 0-8.4-.8-12.6-2.3h-.4v-.3c0-.4.4-1.5.8-2.3v-.8c2.3-12.6-1.5-21.8-3.7-26.5-4-8.1-9.2-12.8-17.4-17.4 0 0-.4 0-.8-.4-.8-.4-1.5-.8-1.9-.8h-.4v-.4c3.3-9.6 10.3-17.4 19.1-21.8 5.2-2.6 10.7-3.7 16.6-3.7 14.3 0 28 8.4 34.2 21.4 4.4 9.2 5.2 19.5 1.9 29.1-3.3 9.6-10.3 17.4-19.1 21.8-4.9 2.9-10.4 4.4-16.3 4.4zm-11.9-2.6c3.7 1.1 7.7 1.9 11.8 1.9 5.5 0 11.1-1.1 16.2-3.7 8.8-4.4 15.9-12.2 18.8-21.4 3.3-9.6 2.6-19.5-1.9-28.7-6.3-12.8-19.5-21-33.5-21-5.5 0-11.1 1.1-16.2 3.7-8.8 4.4-15.5 11.8-18.8 21 .4 0 1.1.8 1.9.8.4 0 .4.4.8.4 8.4 4.4 13.6 9.6 18 17.7 2.6 4.4 6.3 14 3.7 26.9v.8c-.4.2-.8 1-.8 1.6z"/><path d="M737 204.8c2.9-1.5 4.4-5.2 2.9-8.4-1.5-2.9-5.2-4.4-8.4-2.9-2.9 1.5-4.4 5.2-2.9 8.4 1.4 2.9 5.1 4.4 8.4 2.9m-4.8-9.6c2.3-1.1 4.4 0 5.5 1.9 1.1 1.9 0 4.4-1.9 5.5-2.3 1.1-4.4 0-5.5-1.9-1-1.9-.3-4.4 1.9-5.5"/><path d="M734.1 205.9c-2.6 0-4.8-1.5-5.9-3.7-.8-1.5-.8-3.3-.4-5.2.8-1.9 1.9-2.9 3.3-3.7.8-.4 1.9-.8 2.9-.8 2.6 0 4.8 1.5 5.9 3.7 1.5 3.3.4 7.4-2.9 8.8-.7.5-1.8.9-2.9.9zm0-12.8c-.8 0-1.9 0-2.6.8-1.5.8-2.6 1.9-2.9 3.3-.8 1.5-.4 2.9.4 4.4 1.1 1.9 2.9 3.3 5.2 3.3.8 0 1.9 0 2.6-.8 2.9-1.5 4-4.8 2.6-7.7-.9-1.9-3.1-3.3-5.3-3.3zm0 10.7c-1.9 0-3.3-1.1-4-2.6-1.1-2.3 0-5.2 2.3-6.3.8-.4 1.5-.4 2.3-.4 1.9 0 3.3 1.1 4 2.6 1.1 2.3 0 5.2-2.3 6.3-.8 0-1.6.4-2.3.4zm0-8.6c-.8 0-1.1 0-1.5.4-1.9.8-2.6 2.9-1.9 4.8.8 1.1 1.9 2.3 3.3 2.3.8 0 1.1 0 1.5-.4 1.9-.8 2.6-2.9 1.9-4.8-.7-1.5-1.8-2.3-3.3-2.3z"/><path d="M739.2 209.6c5.9-2.9 8.4-9.9 5.5-15.9-2.9-5.9-9.9-8.4-15.9-5.5-5.9 2.9-8.4 9.9-5.5 15.9 3.1 5.8 10 8.5 15.9 5.5m-9.2-18.8c4.8-2.3 10.3-.4 12.6 4 2.3 4.8.4 10.3-4 12.6-4.8 2.3-10.3.4-12.6-4-2.6-4.8-.8-10.3 4-12.6"/><path d="M734.1 211.1c-4.8 0-8.8-2.6-10.7-6.7-1.5-2.9-1.5-6.3-.8-9.2 1.1-2.9 3.3-5.5 6.3-7 1.9-.8 3.3-1.1 5.2-1.1 4.8 0 8.8 2.6 10.7 6.7 2.9 5.9.4 13.2-5.5 16.2-1.6.7-3.4 1.1-5.2 1.1zm0-23.6c-1.9 0-3.3.4-4.8 1.1-2.9 1.5-4.8 3.7-5.9 6.7-1.1 2.9-.8 5.9.8 8.8 1.9 4 5.9 6.3 10.3 6.3 1.9 0 3.3-.4 4.8-1.1 5.5-2.9 8.1-9.6 5.2-15.5-2-3.7-6-6.3-10.4-6.3zm0 21c-3.7 0-7-2.3-8.8-5.5-1.1-2.3-1.5-4.8-.4-7.4.8-2.6 2.6-4.4 4.8-5.5 1.5-.8 2.9-1.1 4-1.1 3.7 0 7 2.3 8.8 5.5 2.3 4.8.4 10.7-4.4 12.8-1.1 1.2-2.5 1.2-4 1.2zm0-18.4c-1.5 0-2.6.4-4 .8-2.3 1.1-3.7 2.9-4.4 5.2s-.8 4.8.4 7c1.5 2.9 4.8 5.2 8.1 5.2 1.5 0 2.6-.4 4-.8 4.4-2.3 6.3-7.7 4-12.2-1.5-3.4-4.9-5.2-8.1-5.2zm-48.3 39.4c2.9-1.5 4.4-5.2 2.9-8.4-1.5-2.9-5.2-4.4-8.4-2.9-2.9 1.5-4.4 5.2-2.9 8.4 1.4 2.9 5.4 4.3 8.4 2.9m-4.5-9.6c2.3-1.1 4.4 0 5.5 1.9 1.1 2.3 0 4.4-1.9 5.5-2.3 1.1-4.4 0-5.5-1.9-1-1.8-.2-4.4 1.9-5.5"/><path d="M683.2 230.2c-2.6 0-4.8-1.5-5.9-3.7-.8-1.5-.8-3.3-.4-5.2.8-1.9 1.9-2.9 3.3-3.7.8-.4 1.9-.8 2.9-.8 2.6 0 4.8 1.5 5.9 3.7.8 1.5.8 3.3.4 5.2-.8 1.9-1.9 2.9-3.3 3.7-1 .8-2.1.8-2.9.8zm0-12.1c-.8 0-1.9 0-2.6.8-1.5.8-2.6 1.9-2.9 3.3-.4 1.5-.4 2.9.4 4.4 1.1 1.9 2.9 3.3 5.2 3.3.8 0 1.9 0 2.6-.8 1.5-.8 2.6-1.9 2.9-3.3.8-1.5.4-2.9-.4-4.4-1.1-1.9-3.3-3.3-5.2-3.3zm0 10.3c-1.9 0-3.3-1.1-4-2.6-.8-1.1-.8-2.3 0-3.7.4-1.1 1.1-2.3 2.3-2.6.8-.4 1.5-.4 2.3-.4 1.9 0 3.3 1.1 4 2.6.8 1.1.8 2.3 0 3.7-.4 1.1-1.1 2.3-2.3 2.6-1.1.4-1.9.4-2.3.4zm0-8.5c-.8 0-1.1 0-1.5.4-.8.4-1.5 1.1-1.9 2.3-.4 1.1-.4 1.9 0 2.9.8 1.1 1.9 2.3 3.3 2.3.8 0 1.1 0 1.5-.4.8-.4 1.5-1.1 1.9-2.3.4-1.1.4-1.9 0-2.9-.7-1.2-2.1-2.3-3.3-2.3z"/><path d="M688.4 234.6c5.9-2.9 8.4-9.9 5.5-15.9-2.9-5.9-9.9-8.4-15.9-5.5-5.9 2.9-8.4 9.9-5.5 15.9 2.9 5.9 10 8.1 15.9 5.5m-9.2-19.1c4.8-2.3 10.3-.4 12.6 4 2.3 4.8.4 10.3-4 12.6-4.8 2.3-10.3.4-12.6-4-2.7-4.8-.8-10.4 4-12.6"/><path d="M683.2 236.1c-4.8 0-8.8-2.6-10.7-6.7-2.9-5.9-.4-13.2 5.5-16.2 1.9-.8 3.3-1.1 5.2-1.1 4.8 0 8.8 2.6 10.7 6.7 2.9 5.9.4 13.2-5.5 16.2-1.5.7-3.3 1.1-5.2 1.1zm0-23.5c-1.9 0-3.3.4-4.8 1.1-5.5 2.9-8.1 9.6-5.2 15.5 1.9 4 5.9 6.3 10.3 6.3 1.9 0 3.3-.4 4.8-1.1 5.5-2.9 8.1-9.6 5.2-15.5-1.8-3.8-6.2-6.3-10.3-6.3zm0 21c-3.7 0-7-2.3-8.8-5.5-1.1-2.3-1.5-4.8-.4-7.4.8-2.6 2.6-4.4 4.8-5.5 1.5-.8 2.9-1.1 4-1.1 3.7 0 7 2.3 8.8 5.5 2.3 4.8.4 10.7-4.4 12.8-1.1.8-2.5 1.2-4 1.2zm0-18.9c-1.5 0-2.6.4-4 .8-2.3 1.1-3.7 2.9-4.4 5.2-.8 2.3-.8 4.8.4 7 1.5 2.9 4.8 5.2 8.1 5.2 1.5 0 2.6-.4 4-.8 4.4-2.3 6.3-7.7 4-12.2-1.4-2.9-4.8-5.2-8.1-5.2zm10.7-9.5c8.4 2.9 13.2 12.6 10.3 21 0 .8 0 1.5.8 1.5s1.5 0 1.5-.8c3.3-9.9-1.9-20.6-11.8-23.9-.8 0-1.5 0-1.5.8-.4.2 0 1 .7 1.4"/><path d="M705.4 228h-.8c-.8-.4-1.1-1.1-1.1-1.9 1.5-4 1.1-8.4-.8-12.2-1.9-4-5.2-6.7-9.2-8.1-.8-.4-1.1-1.1-1.1-1.9 0-.8 1.1-1.1 1.9-1.1 10.3 3.3 15.5 14.3 12.2 24.3-.1.6-.5.9-1.1.9zm-11.1-25c-.4 0-.8.4-.8.8s0 1.1.8 1.1c4 1.5 7.7 4.4 9.6 8.4 1.9 4 2.3 8.4.8 12.8 0 .4 0 1.1.8 1.1s1.1 0 1.1-.8c3.3-9.6-1.9-20.3-11.4-23.5-.5.1-.9.1-.9.1z"/><path d="M696.1 198.9c11.8 4 18 17.4 14 29.1 0 .8 0 1.5.8 1.5.8.4 1.5 0 1.5-.8 4.4-13.2-2.6-27.7-15.5-32.1-.8 0-1.5 0-1.5.8-.4.8 0 1.5.7 1.5"/><path d="M711.2 229.8h-.8c-.8-.4-1.1-1.1-1.1-1.9 4-11.8-2.3-24.7-14-28.7-.4 0-.8-.4-.8-.8v-1.1c.4-.8 1.1-1.1 1.9-1.1 6.7 2.3 11.8 7 14.7 12.8 2.9 6.3 3.3 13.2 1.1 19.5.5 1-.3 1.3-1 1.3zm-14.8-32.7c-.4 0-.8.4-.8.8v.8s.4.4.8.4c12.2 4 18.4 17.4 14.3 29.5 0 .4 0 1.1.8 1.1.4 0 1.1 0 1.1-.8 2.3-6.3 1.9-13.2-1.1-19.1-2.9-5.9-8.1-10.3-14.3-12.6l-.8-.1zM745.9 180.5c8.4 2.9 13.2 12.6 10.3 21 0 .8 0 1.5.8 1.5s1.5 0 1.5-.8c3.3-9.9-1.9-20.6-11.8-23.9-.8 0-1.5 0-1.5.8-.4.6-.1 1.4.7 1.4"/><path d="M756.9 203.8h-.8c-.8-.4-1.1-1.1-1.1-1.9 1.5-4 1.1-8.4-.8-12.2-1.9-4-5.2-6.7-9.2-8.1-.8-.4-1.1-1.1-1.1-1.9.4-.8 1.1-1.1 1.9-1.1 9.9 3.3 15.5 14.3 11.8 24.3.8.5 0 .9-.7.9zm-10.6-25.2c-.4 0-.8.4-.8.8s0 1.1.8 1.1c4 1.5 7.7 4.4 9.6 8.4 1.9 4 2.3 8.4.8 12.8 0 .4 0 1.1.8 1.1.4 0 1.1 0 1.1-.8 3.3-9.6-1.9-20.3-11.4-23.5l-.9.1z"/><g><path d="M747.7 174.6c11.8 4 18 17.4 14 29.1 0 .8 0 1.5.8 1.5s1.5 0 1.5-.8c4.4-13.2-2.6-27.7-15.5-32.1-.8 0-1.5 0-1.5.8-.4.7.3 1.5.7 1.5"/><path d="M763.1 205.5h-.8c-.8-.4-1.1-1.1-1.1-1.9 4-11.8-2.3-24.7-14-28.7-.4 0-.8-.4-.8-.8V173c.4-.8 1.1-1.1 1.9-1.1 6.7 2.3 11.8 7 14.7 12.8 2.9 6.3 3.3 13.2 1.1 19.5.2 1-.2 1.3-1 1.3zM748 172.8c-.4 0-.8.4-.8.8v.8s.4.4.8.4c12.2 4 18.4 17.4 14.3 29.5 0 .4 0 1.1.8 1.1.4 0 1.1 0 1.1-.8 2.3-6.3 1.9-13.2-1.1-19.1s-8.1-10.3-14.3-12.6c-.4-.1-.8-.1-.8-.1z"/></g></g><path fill="#939393" d="M688.6 713.3l32.4 4.3-12 29.6-55.8 33.8c-.3 0-.3.3-.5.3-.3 0-.5-.3-.5-.5l-19.6-32.4c-.3-.5-.3-.9.3-1.1l55.7-34m0-4.6c-.9 0-1.6.3-2.2.5l-55.7 34c-2.5 1.6-3.2 4.6-1.9 7.3l19.8 32.4c.9 1.6 2.7 2.5 4.6 2.5.9 0 1.9-.3 2.7-.9l55.7-34c.9-.5 1.6-1.4 1.9-2.2l11.9-29.6c.5-1.4.5-2.7-.3-4.1-.5-1.1-1.9-1.9-3.2-2.2l-32.9-3.8c.1.1-.2.1-.4.1z"/><circle fill="#939393" cx="707.6" cy="724.8" r="3.8"/><path fill="#939393" d="M655.7 753.5l3.2-1.9c-1.1-1.9-1.9-4.3-1.6-6l2.7-.5c0 1.9.5 3.8 1.6 5.7 1.4 2.5 3.8 3.2 5.7 1.9 1.9-1.1 2.2-3.2 1.6-6-.5-4.3-.5-7.1 2.5-8.9 2.7-1.6 6-.9 8.4 1.9l3.2-1.9 1.4 1.9-3.2 1.9c1.1 1.9 1.4 3.8 1.6 4.9l-3 .5c0-.9-.3-2.7-1.4-4.9-1.6-2.5-3.5-2.7-4.9-1.9-1.9 1.1-1.9 3-1.4 6.6.5 4.3 0 7.1-3 8.7-2.7 1.6-6.2 1.4-8.7-1.9l-3.5 2.2-1.2-2.3z"/><path fill="#E73F5E" d="M574.3 368.5c-.6 0-1.2-.2-1.4-.6-.8-.6-.8-1.4-.8-2l6.3-21.6c.2-1.2 1.4-1.6 2.6-1.4s1.6 1.4 1.4 2.6l-5.3 18.1 18.1-5.3c1.2-.2 2.2.2 2.6 1.4.2 1.2-.2 2.2-1.4 2.6l-21.4 6.3c-.5-.1-.7-.1-.7-.1z"/><path fill="#E73F5E" d="M576.5 356.1l-2.6 8.1c-.2.6 0 1.4.6 2 .2.2.8.6 1.4.6h.6l8.1-2.6-8.1-8.1zm49.9-28.1l-30.7 30.5 1.2 3.3 32-30.8m2.2-2.4L612 309.5l4.4-4.3 19.2 19.3m2.2-3.4l-18.3-18.3 2.8-2.8c2.6-2.6 6.7-2.6 9.2 0l9.2 9.2c2.6 2.6 2.6 6.7 0 9.2l-2.9 2.7zm-55.5 24.2l28.4-30.9-1.8-2.7-29.7 31.6"/><g fill="#939393"><path d="M498.1 368.5c-.6 0-1.2-.2-1.4-.6-.8-.6-.8-1.4-.8-2l6.3-21.6c.2-1.2 1.4-1.6 2.6-1.4s1.6 1.4 1.4 2.6l-5.3 18.1 18.1-5.3c1.2-.2 2.2.2 2.6 1.4.4 1.2-.2 2.2-1.4 2.6l-21.4 6.3c-.3-.1-.7-.1-.7-.1z"/><path d="M500.5 356.1l-2.6 7.9c-.2.6 0 1.4.6 2 .2.2.8.6 1.4.6h.6l8.1-2.6-8.1-7.9zm49.8-28.1l-30.7 30.5 1.2 3.3 32.1-30.8m2.1-2.4l-19.1-19.1 4.6-4.3 19 19.3m2.2-3.4l-18.3-18.3 2.8-2.8c2.6-2.6 6.7-2.6 9.2 0l9.2 9.2c2.6 2.6 2.6 6.7 0 9.2l-2.9 2.7zm-55.4 24.2l28.3-30.9-1.8-2.7-29.8 31.6"/></g><g fill="#010101"><path d="M530.2 539.6h-33.8v-64.8h33.8v64.8zm-29.5-4.5h24.6v-55.5h-24.6v55.5zm68.1 4.5h-34.1v-84.8h33.8v84.8h.3zm-29.4-4.5H564v-75.6h-24.6v75.6zm68 4.5h-34.1V430.2h33.8v109.4h.3zm-29.4-4.5h24.6V435H578v100.1zm-68.6-86.7l-3.5-3.6 30.3-28.3 29.7 4.1 26.1-19.5 2.9 3.9-27.7 20.4-29.4-3.8"/><path d="M503.9 459.5c-4.5 0-8-3.8-8-8 0-4.5 3.8-8 8-8 4.1 0 8 3.8 8 8s-3.4 8-8 8zm0-11.8c-1.9 0-3.5 1.6-3.5 3.5s1.6 3.5 3.5 3.5 3.5-1.6 3.5-3.5c.1-1.9-1.5-3.5-3.5-3.5zm94.2-39.5c-4.5 0-8-3.8-8-8s3.8-8.3 8-8.3c4.5 0 8 3.8 8 8s-3.5 8.3-8 8.3zm0-11.8c-1.9 0-3.5 1.6-3.5 3.5s1.6 3.5 3.5 3.5 3.5-1.6 3.5-3.5-1.3-3.5-3.5-3.5z"/></g><g fill="#939393"><path d="M549.1 644.7c-15.5 0-50.5-1.9-52.7-17.4-.3-1.1.9-2.2 1.9-2.5 1.1-.3 2.2.9 2.5 1.9 1.4 10.9 32.9 13.9 53.4 13.3l26.9-56.2c-7.3-.5-9.8-1.9-10.3-2.5-.9-.9-1.1-2.2-.5-3.2.9-.9 1.9-1.1 3.2-.5.3 0 3 1.6 11.4 1.6.9 0 1.6.5 1.9 1.1.5.9.5 1.6.3 2.2l-29 60.5c-.5.9-1.1 1.4-1.9 1.4-1.4.3-3.7.3-7.1.3z"/><path d="M563.7 659.4s-.3 0 0 0h-.9c-24.2-1.9-55.1-7.1-64.3-20.1-2.7-3.8-3.2-8.2-1.9-12.8.3-1.1 1.6-1.9 2.7-1.6 1.1.3 1.9 1.6 1.6 2.7-.9 3.2-.5 6 1.4 8.7 6.2 8.9 27.7 15.5 60 18l24.9-55.5c-5.7-.5-9.5-2.2-9.8-2.2-1.1-.5-1.6-1.9-1.1-3s1.9-1.6 3-1.1c0 0 4.6 1.9 11.4 1.9.9 0 1.6.5 1.9 1.1.5.9.5 1.4.3 2.2L566 657.2c-.4 1.6-1.5 2.2-2.3 2.2z"/><path d="M525.6 632.2c-13.9 0-26.9-2.5-27.4-2.7-.9-.3-1.4-.9-1.6-1.1-.3-.9-.3-1.4 0-1.9l29.9-57c.5-.9 1.4-1.4 2.2-1.1 0 0 3.2.5 8.7.5 8.7 0 26-1.1 40.7-9.5.9-.5 1.9-.5 2.7.3.9.8.9 1.6.5 2.5l-27.4 63c-.3.3-.3.9-.9.9-5.3 3.6-14.6 6.1-27.4 6.1zm-23.6-6.6c4.6.9 13.9 1.9 23.7 1.9 11.4 0 19.6-1.9 23.9-5.4l24.7-56.4c-13.3 6-27.4 7.3-37.2 7.3-3.2 0-6-.3-7.3-.3L502 625.6z"/></g><g fill="#010101"><path d="M655.3 498.4l-31-72.8c-.3-1.3-.3-1.9 0-2.9.3-.9.9-1.6 1.9-1.9l56.1-23.9c.6-.3 1-.3 1.6-.3 1.3 0 2.9.9 3.3 2.2l6.1 14.4h4.6l-7-16.3c-1.2-2.9-4.1-4.8-7.3-4.8-1 0-1.9.3-2.9.6l-56.5 23.9c-2.3 1-3.5 2.6-4.5 4.5-1 2-1 4.2 0 6.1l35.5 83.3v-12.1h.1zm72.6-14.9v5.2c.8-1.7.8-3.5 0-5.2z"/><path d="M725.6 496.8v16c0 1.9-1.6 3.5-3.5 3.5h-61.2c-1.9 0-3.5-1.6-3.5-3.5V419c0-1.9 1.6-3.5 3.5-3.5l61.2.3c1.9 0 3.5 1.6 3.5 3.5v46.1h4.6v-46.1c0-4.5-3.5-8-8-8H661c-4.5 0-8 3.5-8 8v93.5c0 4.5 3.5 8 8 8h61.2c4.5 0 8-3.6 8-7.7v-16.3h-4.6z"/><path d="M755.4 499.1h-47.9c-2.9 0-5.1-1.9-5.1-4.5v-26.2c0-2.6 2.2-4.5 5.1-4.5h47.8c2.9 0 5.1 1.9 5.1 4.5v26.2c.1 2.2-2.2 4.5-5 4.5zm-47.9-31c-.6 0-1 .3-1 .3v26.2s.3.3 1 .3h47.8c.6 0 1-.3 1-.3v-26.2s-.3-.3-1-.3h-47.8z"/><path d="M727.3 490.1h-12.8c-1.6 0-2.9-1.6-2.9-3.2v-10.8c0-1.6 1.6-3.2 2.9-3.2h12.8c1.6 0 2.9 1.6 2.9 3.2v10.8c0 1.6-1.3 3.2-2.9 3.2zm-11.5-4.4h9.9v-8.6h-9.9v8.6zm19.1-9.9h14.4v4.5h-14.4zm0 6.4h14.4v4.5h-14.4zM668 424.4h28.1v4.5H668zm0 10.2h28.1v4.5H668zm0 10.6h28.1v4.5H668z"/></g><g fill="#939393"><path d="M523.3 92.9c-1.6 0-3.1-.2-4.7-.8-6-1.8-9.2-12.9-11.9-22.6-.8-2.4-1.3-4.7-2.1-6.9-.2-1.1-.8-2.1-1.3-3.4-3.1-8.9-7.7-21.1-7.3-32.4.2-13.5 4-18.2 9.2-21.3.2-.2 3.4-1.8 7.3-1.8 2.1 0 4.2.5 5.8 1.6 7.1 4.2 11.1 22.1 10.2 29.7-.2 3.1-.8 5.8-1.6 8.2-.8 3.4-1.6 6.9-1.3 11.9.2 3.7 1.6 6.4 3.4 9.7 2.1 3.7 4.2 7.9 5 14 .5 4.7-.2 8.4-2.4 11.1-1.7 1.7-4.8 3-8.3 3zM512.5 7.3c-2.6 0-5.3 1.3-5.3 1.3-4 2.4-7.1 5.3-7.3 18.2-.2 10.8 4 22.6 6.9 31.1.5 1.3.8 2.4 1.3 3.4.5 2.1 1.3 4.5 2.1 7.1 2.1 7.3 5.5 18.7 9.5 20 1.3.5 2.4.5 3.7.5 2.4 0 4.2-.8 5.5-2.1 1.6-1.6 2.1-4.5 1.6-7.9-.8-5.5-2.6-9.2-4.5-12.9-1.8-3.4-3.4-6.6-4-11.1-.5-5.3.5-9.2 1.3-12.9.5-2.4 1.1-4.7 1.3-7.9.5-7.3-3.4-23-8.4-26.1-1-.4-2.4-.7-3.7-.7zm41.4 114.6c-4 0-7.3-1.6-9.5-4.2-1.6-2.1-3.1-5.5-1.3-11.6 1.6-6 4.2-10 6.9-13.1 2.1-2.9 4-5.5 4.5-9.2.8-4.7.5-8.2.2-11.9-.2-2.6-.5-5.3-.5-8.4.2-7.7 6.4-24.8 14-28.2 1.3-.5 2.9-.8 4.5-.8 4.5 0 8.2 2.6 8.2 2.6 5.3 4 8.2 9.2 6.9 22.4-1.3 11.6-7.1 23-11.3 31.4-.5 1.3-1.3 2.4-1.6 3.4-.8 1.8-1.8 4-2.9 6.4-4 9.2-8.4 19.7-14.5 20.8-1.5.4-2.5.4-3.6.4zm18.7-83.8c-1.1 0-2.1.2-2.9.5-5.5 2.4-11.3 17.7-11.6 24.8-.2 2.9.2 5.5.5 7.9.5 4 .8 7.7-.2 12.9-.8 4.5-3.1 7.3-5.3 10.6-2.4 3.1-4.5 6.6-6 12.1-.8 3.4-.8 6.4.8 8.4 1.3 1.6 3.7 2.6 6.4 2.6.8 0 1.6 0 2.4-.2 4.2-.8 8.9-11.6 11.9-18.7 1.1-2.4 2.1-4.7 2.9-6.6.5-1.1 1.1-2.1 1.6-3.4 4.2-8.2 9.7-19.2 10.8-30.1 1.3-12.9-1.6-16.1-5.3-19.2.1.5-2.8-1.6-6-1.6zm-2.9-14.2c-.8 0-1.6-.5-1.8-1.3-4-13.7-18.7-21.8-32.4-17.9-1.1.5-2.1-.2-2.6-1.1-.2-1.1.2-2.1 1.3-2.4 15.8-4.5 32.7 4.5 37.2 20.3.2 1.1-.2 2.1-1.3 2.4h-.4z"/><path d="M571.3 23.6h-.2l-10-4.5-.5-.5c0-.2.2-.5.2-.8l8.9-6.4c.2-.2.2-.2.5-.2h.2l.5.5 1.1 10.8c0 .2-.2.5-.2.8-.2.3-.2.3-.5.3z"/><path d="M570.2 12l.5 5.5.5 5.5-5-2.4-5-2.4 4.5-3.1 4.5-3.1m0-1.5c-.2 0-.5 0-1.1.2l-4.5 3.1-4.5 3.1c-.5.2-.8.8-.8 1.6s.5 1.1.8 1.3l5 2.4 5 2.4c.2.2.5.2.8.2s.5-.2.8-.2c.5-.2.8-.8.8-1.6l-.2-5.8-.5-5.5c0-.5-.5-1.1-.8-1.3-.3.1-.5.1-.8.1z"/></g><path fill="#FFF" d="M562.1 206.6h-.4s-.4-.4-.4-.8v-15.4s0-.8.4-.8h.8l10.9 7.5s.4.4.4.8c0 0 0 .4-.4.8l-10.9 7.9c0-.4 0 0-.4 0z"/><path fill="#FFF" d="M562.1 190l5.6 3.8 5.6 3.8-5.6 3.8-5.6 3.8V190m0-1.5h-.8c-.8 0-.8.8-.8 1.5v15c0 .8.4 1.1.8 1.5h1.9l5.6-3.8 5.6-3.8c.4 0 .8-.8.8-1.1 0-.8 0-1.1-.8-1.1l-5.6-3.8-5.6-3.8c-.3-.6-.7-.6-1.1-.6z"/><path fill="#FFF" d="M565.5 223.1c-13.9 0-25.2-11.3-25.2-25.2s11.3-25.2 25.2-25.2 25.2 11.3 25.2 25.2c-.4 13.9-11.6 25.2-25.2 25.2zm0-46.6c-12 0-21.4 9.8-21.4 21.4 0 12 9.8 21.4 21.4 21.4s21.4-9.8 21.4-21.4c0-12-9.7-21.4-21.4-21.4z"/><path fill="#FFF" d="M625.3 161.1c1.1 0 2.3 1.1 2.3 2.3v70.2c0 1.1-1.1 2.3-2.3 2.3H501.6c-1.1 0-2.3-1.1-2.3-2.3V163c0-1.1 1.1-2.3 2.3-2.3h123.6m.1-3.3H501.6c-3 0-5.6 2.6-5.6 5.6v70.2c0 3 2.6 5.6 5.6 5.6h123.6c3 0 5.6-2.6 5.6-5.6V163c-.3-3-2.5-5.6-5.5-5.6zm-51.5 95.4c0 1.1 0 2.3-.8 2.3h-10.9c-.4 0-.8-1.1-.8-2.3v-13.5c0-1.1 0-2.3.8-2.3h11.3c.4 0 .8 1.1.8 2.3l-.4 13.5z"/><path fill="#FFF" d="M602.3 257.6h-74c-1.1 0-1.9-.8-1.9-1.9s.8-1.9 1.9-1.9h74c1.1 0 1.9.8 1.9 1.9 0 1.2-1.1 1.9-1.9 1.9zM730.2 137h-88.8c-10.4 0-18.8-8.4-18.8-18.8V70c0-7.7 4.6-14.4 11.5-17.3-6.6-5.7-10.4-13.9-10.4-22.7 0-16.5 13.5-30 30-30s30 13.5 30 30c0 8-3.2 15.6-8.8 21.2h21.7c-5.6-5.6-8.8-13.2-8.8-21.2 0-16.5 13.5-30 30-30s30 13.5 30 30c0 8.8-3.8 17-10.3 22.7 6.9 2.9 11.5 9.6 11.5 17.3v4.6h2.7c2.1 0 4.9-2.8 7.4-5.3 3.2-3.1 6.4-6.4 10.1-6.4h7.7v62.3h-7.7c-3.9 0-7.3-3.4-10.5-6.6-2.5-2.5-5.1-5.1-7-5.1H749v4.6c0 10.4-8.4 18.9-18.8 18.9zM653.7 4c-14.3 0-26 11.7-26 26 0 8.8 4.4 17 11.8 21.8l4.2 2.8-5 .9c-7.1 1.2-12.2 7.4-12.2 14.6v48.1c0 8.2 6.6 14.8 14.8 14.8h88.8c8.2 0 14.8-6.6 14.8-14.8v-8.6h6.7c3.6 0 6.8 3.2 9.9 6.3 2.6 2.7 5.4 5.4 7.6 5.4h3.7V66.9h-3.7c-2 0-4.8 2.8-7.3 5.2-3.2 3.2-6.5 6.5-10.2 6.5h-6.7V70c0-7.2-5.2-13.4-12.3-14.6l-5-.9 4.3-2.8c7.4-4.8 11.8-13 11.8-21.8 0-14.3-11.7-26-26-26s-26 11.7-26 26c0 8.6 4.3 16.7 11.4 21.6l5.4 3.7h-45.8l5.4-3.7c7.2-4.9 11.4-12.9 11.4-21.6C679.7 15.7 668 4 653.7 4z"/></svg>