<?xml version="1.0" encoding="utf-8"?>
<!-- Generator: Adobe Illustrator 18.1.0, SVG Export Plug-In . SVG Version: 6.00 Build 0)  -->
<!DOCTYPE svg PUBLIC "-//W3C//DTD SVG 1.1//EN" "http://www.w3.org/Graphics/SVG/1.1/DTD/svg11.dtd">
<svg version="1.1" id="Layer_1" xmlns="http://www.w3.org/2000/svg" xmlns:xlink="http://www.w3.org/1999/xlink" x="0px" y="0px"
	 viewBox="101.9 1.3 284 50" enable-background="new 101.9 1.3 284 50" xml:space="preserve">
<g>
	<path fill="#35383A" d="M127,1.2c-13.8,0-25,11.2-25,25c0,13.8,11.2,25,25,25s25-11.2,25-25C152,12.4,140.8,1.2,127,1.2z M127,48.7
		c-12.4,0-22.5-10.1-22.5-22.5c0-12.4,10.1-22.5,22.5-22.5c12.4,0,22.5,10.1,22.5,22.5S139.4,48.7,127,48.7z"/>
	<path fill="#35383A" d="M126,27L126,27c0.4,0.2,0.7,0.5,0.9,0.9L126,27c-1.7-1.1-4-0.6-6.4-0.7c-0.4,0-1.8-0.3-1.9-0.3
		c-1.9-0.6-4-1.4-5.3-3c1.8-0.9,5.3-1.7,6.5-2.1c0.4-0.1,0.7-0.5,0.3-1c-0.7-0.8-3.2-0.3-6.4,0.4c-0.2,0-2.7,0.6-3.6,1.3
		c-0.5,0.6-0.2,1.4,0.2,2.1c0.9,1.1,1.9,1.9,3.2,2.7c1.8,1.1,3.7,1.9,5.6,2.6c2.6,0.8,5.6,1.6,7.9,0.6C128.5,28.6,126,27,126,27z"/>
	<path fill="#35383A" d="M126,27.1l0.9,0.8C126.7,27.6,126.4,27.3,126,27.1z"/>
	<path fill="#35383A" d="M135.3,10.6c-0.4-1.3-1.5-3.3-3-2.6c-1.8,0.8-0.2,3.5,0.4,5.1c1.9,4.2,4.9,7.7,6.7,12
		c-0.9-0.7-1.3-1.5-2.3-2.5c-1.3-1.2-3.1-2.8-4.9-1.9c-1.6,0.7-1.3,3-1.1,4.4c0.1,1.1,0.8,7.1-0.8,10.7c-1.3,3.1-5.8,6.6-5.6,7.4
		c-0.4,0.9,2.6,1.9,3.8,2.1c1.6,0.4,2.8-0.5,3.7-1.8c3.5-6.7,1.8-14.1,1.2-21.1c0.4,0.2,3.1,2.3,4.4,4.2c1.1,1.6,2.5,2.5,3.3,2
		c1.4-1.1-4.5-13.9-4.5-13.9S136,12.7,135.3,10.6z"/>
	<path fill="#35383A" d="M123,17.3c1.2,1.7,3.1,2.4,4.3,1.7c0.1,0,0.6-0.5,0.7-0.7c3.4-4-1.4-8.8-3.8-7.5c-1.1,0.6-1.8,1.4-2.1,2.2
		c0,0,0,0.1,0,0.1c0,0.1,0,0.1-0.1,0.2c0,0,0,0.1,0,0.1c-0.1,0.6-0.1,1.2,0,1.8C122.2,15.9,122.5,16.7,123,17.3z"/>
</g>
<g>
	<path fill="#35383A" d="M163.5,32.5l12-13.5h-11.6v-5.6h20.7v4.8l-12,13.5h12v5.6h-21.1V32.5z"/>
	<path fill="#35383A" d="M187.8,26.9V13.5h6.7v13.3c0,3.4,1.7,5.1,4.4,5.1s4.4-1.6,4.4-4.9V13.5h6.7v13.2c0,7.7-4.4,11.1-11.2,11.1
		C192,37.8,187.8,34.3,187.8,26.9z"/>
	<path fill="#35383A" d="M213.9,13.5h7l5.7,9.2l5.7-9.2h7v23.9h-6.6V23.6l-6.1,9.3h-0.1l-6.1-9.3v13.6h-6.5L213.9,13.5L213.9,13.5z"
		/>
	<path fill="#35383A" d="M243.6,13.5h12.2c3,0,5.1,0.8,6.5,2.1c1,1,1.5,2.2,1.5,3.9v0.1c0,2.8-1.6,4.4-3.7,5.3
		c2.9,1,4.7,2.6,4.7,5.8v0.1c0,4.1-3.3,6.6-9,6.6h-12.3L243.6,13.5L243.6,13.5z M254.2,23c2,0,3.1-0.7,3.1-2.1v-0.1c0-1.3-1-2-3-2
		H250V23H254.2z M255.1,32c2,0,3.2-0.8,3.2-2.2v-0.1c0-1.3-1-2.1-3.2-2.1h-5V32H255.1z"/>
	<path fill="#35383A" d="M276.2,13.3h6.4l10.2,24h-7.1l-1.7-4.3h-9.2l-1.7,4.3h-7L276.2,13.3z M282,27.9l-2.7-6.8l-2.7,6.8H282z"/>
	<path fill="#35383A" d="M305.4,37.3h-2.7V15.9h-8v-2.5h18.8v2.5h-8V37.3L305.4,37.3z"/>
	<path fill="#35383A" d="M335.7,15.9h-14.6v8.2h13v2.5h-13v8.4h14.7v2.5h-17.4V13.5h17.3V15.9z"/>
	<path fill="#35383A" d="M352.2,37.7c-6.9,0-12-5.4-12-12.3c0-6.8,5-12.4,12.1-12.4c4.3,0,6.9,1.5,9.3,3.8l-1.8,2
		c-2-1.9-4.3-3.3-7.5-3.3c-5.3,0-9.2,4.3-9.2,9.8s4,9.9,9.2,9.9c3.3,0,5.4-1.3,7.7-3.4l1.8,1.7C359.3,36.1,356.5,37.7,352.2,37.7z"
		/>
	<path fill="#35383A" d="M369.1,26.6v10.7h-2.7V13.5h2.7v10.6h13.8V13.5h2.7v23.9h-2.7V26.6H369.1z"/>
</g>
</svg>
